<svg width="13" height="13" viewBox="0 0 13 13" fill="none" xmlns="http://www.w3.org/2000/svg">
<path d="M5.03695 12.7212C5.35123 12.7212 5.59921 12.5837 5.7809 12.3087L12.7417 1.34819C12.8055 1.24506 12.8522 1.15176 12.8816 1.06828C12.9111 0.979892 12.9258 0.891501 12.9258 0.80311C12.9258 0.601775 12.8645 0.439725 12.7417 0.31696C12.6189 0.194195 12.4569 0.132812 12.2555 0.132812C12.1082 0.132812 11.9879 0.162276 11.8946 0.221203C11.8013 0.27522 11.7105 0.370977 11.6221 0.508474L5.00748 11.0491L1.57497 6.55589C1.39819 6.31527 1.18703 6.19496 0.941502 6.19496C0.735257 6.19496 0.565841 6.26125 0.433255 6.39384C0.300668 6.52151 0.234375 6.68602 0.234375 6.88735C0.234375 6.97574 0.251562 7.06659 0.285936 7.15989C0.320311 7.24828 0.374327 7.33667 0.447986 7.42506L4.27089 12.2939C4.49187 12.5787 4.74722 12.7212 5.03695 12.7212Z" fill="#15D533"/>
</svg>
