<svg width="9" height="14" viewBox="0 0 9 14" fill="none" xmlns="http://www.w3.org/2000/svg">
<path d="M1.24475 13.5352H7.26313C7.6822 13.5352 7.99339 13.4167 8.1967 13.1797C8.40416 12.9473 8.50788 12.5827 8.50788 12.0859V6.97949C8.50788 6.4873 8.40416 6.125 8.1967 5.89258C7.99339 5.6556 7.6822 5.53711 7.26313 5.53711L1.34433 5.55078C0.933565 5.55078 0.60578 5.66699 0.360978 5.89941C0.120326 6.13184 0 6.49186 0 6.97949V12.0859C0 12.5827 0.103729 12.9473 0.311188 13.1797C0.518647 13.4167 0.829835 13.5352 1.24475 13.5352ZM1.02692 6.02246H2.20944V3.72559C2.20944 3.18783 2.30279 2.73665 2.48951 2.37207C2.67622 2.00293 2.92517 1.72493 3.23636 1.53809C3.54755 1.34668 3.88778 1.25098 4.25705 1.25098C4.62633 1.25098 4.96449 1.34668 5.27153 1.53809C5.58272 1.72493 5.83167 2.00293 6.01838 2.37207C6.20509 2.73665 6.29845 3.18783 6.29845 3.72559V6.02246H7.48096V3.85547C7.48096 3.20833 7.39176 2.64323 7.21334 2.16016C7.03493 1.67708 6.7922 1.27604 6.48516 0.957031C6.18227 0.638021 5.83789 0.398763 5.45202 0.239258C5.06614 0.0797526 4.66782 0 4.25705 0C3.84214 0 3.44174 0.0797526 3.05587 0.239258C2.67414 0.398763 2.32976 0.638021 2.02272 0.957031C1.71983 1.27604 1.47711 1.67708 1.29454 2.16016C1.11613 2.64323 1.02692 3.20833 1.02692 3.85547V6.02246Z" fill="#3D4767"/>
</svg>
