<?xml version="1.0" encoding="utf-8"?>
<svg viewBox="0 0 164 168" fill="none" xmlns="http://www.w3.org/2000/svg">
  <path d="M5 165C5 166.105 5.89543 167 7 167H144C145.105 167 146 166.105 146 165V36.3405C146 35.7718 145.758 35.23 145.334 34.8506L113.687 6.5101C113.32 6.18163 112.845 6 112.353 6H7C5.89543 6 5 6.89543 5 8V165Z" fill="#3D4767" stroke="#3D4767" stroke-width="2"/>
  <path d="M1 160C1 161.105 1.89543 162 3 162H140C141.105 162 142 161.105 142 160V31.3405C142 30.7718 141.758 30.23 141.334 29.8506L109.687 1.5101C109.32 1.18163 108.845 1 108.353 1H3C1.89543 1 1 1.89543 1 3V160Z" fill="white" stroke="#3D4767" stroke-width="2"/>
</svg>