<svg version="1.1" id="Layer_1" xmlns="http://www.w3.org/2000/svg" xmlns:xlink="http://www.w3.org/1999/xlink" x="0px" y="0px"
	 width="100%" viewBox="0 0 334 140" enable-background="new 0 0 334 140" xml:space="preserve">
<path fill="#46506E" opacity="1.000000" stroke="none" 
	d="
M335.000000,35.000000 
	C335.000000,70.297447 335.000000,105.594902 335.000000,141.000000 
	C226.979126,141.000000 118.958221,141.000000 10.480754,140.577545 
	C9.148803,139.097290 8.432043,137.380661 7.363885,137.123459 
	C5.349462,136.638443 3.132674,136.993896 1.000000,137.000000 
	C1.000000,91.712296 1.000000,46.424587 1.000000,1.000000 
	C100.354187,1.000000 199.708435,1.000000 299.424744,1.345853 
	C309.362518,10.498922 318.967468,19.274752 328.492920,28.136002 
	C330.796722,30.279129 332.838013,32.704445 335.000000,35.000000 
M153.500015,4.066323 
	C103.722031,4.066323 53.944046,4.066323 3.828615,4.066323 
	C3.828615,47.642517 3.828615,90.669411 3.828615,133.905029 
	C112.389893,133.905029 220.606171,133.905029 328.973114,133.905029 
	C329.130402,133.028061 329.341064,132.400543 329.341522,131.772842 
	C329.365387,99.780037 329.409698,67.787048 329.272675,35.794861 
	C329.265381,34.088829 328.113220,31.956068 326.815002,30.757366 
	C318.497223,23.077200 309.812561,15.787793 301.632629,7.968127 
	C298.433228,4.909627 295.209717,3.982749 290.969849,3.993659 
	C245.480133,4.110713 199.990036,4.066395 153.500015,4.066323 
z"/>
<path fill="#000000" opacity="1.000000" stroke="none" 
	d="
M335.000000,34.531342 
	C332.838013,32.704445 330.796722,30.279129 328.492920,28.136002 
	C318.967468,19.274752 309.362518,10.498922 299.893402,1.345853 
	C311.592194,1.000000 323.184357,1.000000 335.000000,1.000000 
	C335.000000,12.019889 335.000000,23.041286 335.000000,34.531342 
z"/>
<path fill="#000000" opacity="1.000000" stroke="none" 
	d="
M1.000000,137.500000 
	C3.132674,136.993896 5.349462,136.638443 7.363885,137.123459 
	C8.432043,137.380661 9.148803,139.097290 10.012096,140.577545 
	C7.833333,141.000000 5.604016,140.674210 3.514618,141.076019 
	C0.345004,141.685547 1.048076,139.654388 1.000000,137.500000 
z"/>
<path fill="#FEFEFF" opacity="1.000000" stroke="none" 
	d="
M154.000031,4.066309 
	C199.990036,4.066395 245.480133,4.110713 290.969849,3.993659 
	C295.209717,3.982749 298.433228,4.909627 301.632629,7.968127 
	C309.812561,15.787793 318.497223,23.077200 326.815002,30.757366 
	C328.113220,31.956068 329.265381,34.088829 329.272675,35.794861 
	C329.409698,67.787048 329.365387,99.780037 329.341522,131.772842 
	C329.341064,132.400543 329.130402,133.028061 328.973114,133.905029 
	C220.606171,133.905029 112.389893,133.905029 3.828615,133.905029 
	C3.828615,90.669411 3.828615,47.642517 3.828615,4.066323 
	C53.944046,4.066323 103.722031,4.066323 154.000031,4.066309 
z"/>
</svg>