<svg width="18" height="4" viewBox="0 0 18 4" fill="none" xmlns="http://www.w3.org/2000/svg">
<path fill-rule="evenodd" clip-rule="evenodd" d="M16 4C14.8954 4 14 3.10457 14 2C14 0.89543 14.8954 -1.35705e-07 16 -8.74228e-08C17.1046 -3.91405e-08 18 0.895431 18 2C18 3.10457 17.1046 4 16 4ZM9 4C7.89543 4 7 3.10457 7 2C7 0.89543 7.89543 -4.41685e-07 9 -3.93402e-07C10.1046 -3.4512e-07 11 0.89543 11 2C11 3.10457 10.1046 4 9 4ZM-8.74228e-08 2C-1.35705e-07 3.10457 0.895429 4 2 4C3.10457 4 4 3.10457 4 2C4 0.89543 3.10457 -6.511e-07 2 -6.99382e-07C0.89543 -7.47665e-07 -3.91405e-08 0.89543 -8.74228e-08 2Z" fill="#8835E7"/>
</svg>
