<svg width="16" height="16" viewBox="0 0 16 16" fill="none" xmlns="http://www.w3.org/2000/svg">
<path d="M2.63078 12.3634H4.4263V11.2208H2.64497C2.29013 11.2208 2.01808 11.1262 1.82883 10.937C1.63958 10.7477 1.54495 10.4686 1.54495 10.0995V3.04517C1.54495 2.67613 1.63958 2.39698 1.82883 2.20773C2.01808 2.01848 2.29013 1.92386 2.64497 1.92386H9.73481C10.0849 1.92386 10.3546 2.01848 10.5439 2.20773C10.7378 2.39698 10.8348 2.67613 10.8348 3.04517V4.5994H11.9774V2.9813C11.9774 2.25268 11.7906 1.70385 11.4168 1.33481C11.0477 0.96577 10.4942 0.78125 9.7561 0.78125H2.63078C1.88797 0.78125 1.32968 0.96577 0.955904 1.33481C0.586864 1.69912 0.402344 2.24795 0.402344 2.9813V10.1634C0.402344 10.8967 0.586864 11.4479 0.955904 11.817C1.32968 12.1813 1.88797 12.3634 2.63078 12.3634ZM6.07279 15.6493H13.1981C13.9362 15.6493 14.4897 15.4648 14.8588 15.0958C15.2326 14.7267 15.4194 14.1779 15.4194 13.4493V6.26718C15.4194 5.53856 15.2326 4.98973 14.8588 4.62069C14.4897 4.25165 13.9362 4.06713 13.1981 4.06713H6.07279C5.32998 4.06713 4.77169 4.25165 4.39792 4.62069C4.02887 4.985 3.84435 5.53383 3.84435 6.26718V13.4493C3.84435 14.1826 4.02887 14.7314 4.39792 15.0958C4.77169 15.4648 5.32998 15.6493 6.07279 15.6493ZM6.08698 14.5067C5.73214 14.5067 5.46009 14.4121 5.27084 14.2228C5.08159 14.0336 4.98696 13.7544 4.98696 13.3854V6.33105C4.98696 5.96201 5.08159 5.68286 5.27084 5.49361C5.46009 5.30436 5.73214 5.20973 6.08698 5.20973H13.1768C13.5269 5.20973 13.7966 5.30436 13.9859 5.49361C14.1798 5.68286 14.2768 5.96201 14.2768 6.33105V13.3854C14.2768 13.7544 14.1798 14.0336 13.9859 14.2228C13.7966 14.4121 13.5269 14.5067 13.1768 14.5067H6.08698Z" fill="#9742FB"/>
</svg>
