<svg width="21" height="15" viewBox="0 0 21 15" fill="none" xmlns="http://www.w3.org/2000/svg">
<path d="M0.861148 5.65965C0.997627 5.79613 1.14985 5.86174 1.31783 5.85649C1.49105 5.846 1.64328 5.77513 1.77451 5.6439L2.53039 4.89589L3.69571 3.65971V12.2579C3.69571 13.0715 3.90305 13.6804 4.31773 14.0846C4.73242 14.494 5.3492 14.6987 6.16807 14.6987H12.5773C12.803 14.6987 12.9763 14.6436 13.097 14.5334C13.223 14.4232 13.2833 14.2683 13.2781 14.0688C13.2781 13.8641 13.2177 13.7066 13.097 13.5964C12.9763 13.4862 12.803 13.4311 12.5773 13.4311H6.19169C5.798 13.4311 5.49355 13.3287 5.27833 13.124C5.06837 12.914 4.96338 12.6043 4.96338 12.1949V3.64396L6.13658 4.89589L6.89246 5.6439C7.02894 5.77513 7.18116 5.846 7.34914 5.85649C7.51711 5.86174 7.66934 5.79613 7.80582 5.65965C7.93705 5.52842 8.00004 5.37619 7.99479 5.20297C7.99479 5.02975 7.92655 4.87752 7.79007 4.74629L5.13661 2.1007C4.8794 1.84874 4.61169 1.72276 4.33348 1.72276C4.06052 1.72276 3.79544 1.84874 3.53823 2.1007L0.88477 4.74629C0.748291 4.87752 0.677427 5.02975 0.672178 5.20297C0.666929 5.37619 0.729919 5.52842 0.861148 5.65965ZM7.56173 0.833027C7.56698 1.03774 7.62997 1.19522 7.7507 1.30545C7.87143 1.41569 8.04203 1.4708 8.26249 1.4708H14.656C15.0497 1.4708 15.3515 1.57579 15.5615 1.78575C15.7714 1.99047 15.8764 2.29755 15.8764 2.70698V11.2579L14.7032 9.9981L13.9474 9.25796C13.8109 9.12673 13.6587 9.0585 13.4907 9.05325C13.3227 9.04275 13.1705 9.10311 13.034 9.23434C12.9028 9.37082 12.8372 9.52567 12.8372 9.6989C12.8424 9.86687 12.9133 10.0191 13.0497 10.1556L15.7032 12.7933C15.9604 13.0505 16.2281 13.1791 16.5063 13.1791C16.7845 13.1791 17.0522 13.0505 17.3095 12.7933L19.955 10.1556C20.0915 10.0191 20.1624 9.86687 20.1676 9.6989C20.1729 9.52567 20.1099 9.37082 19.9787 9.23434C19.8422 9.10311 19.69 9.04275 19.522 9.05325C19.354 9.0585 19.2018 9.12673 19.0653 9.25796L18.3094 9.9981L17.1441 11.2422V2.64399C17.1441 1.83037 16.9368 1.22147 16.5221 0.817279C16.1126 0.407843 15.4959 0.203125 14.6717 0.203125H8.26249C8.04203 0.203125 7.86881 0.258241 7.74283 0.368474C7.61685 0.478707 7.55648 0.633558 7.56173 0.833027Z" fill="#1D1E21"/>
</svg>
