<svg width="16" height="16" viewBox="0 0 16 16" fill="none" xmlns="http://www.w3.org/2000/svg">
<path d="M8.4518 15.1112L15.3765 8.17226C15.5565 7.99234 15.6843 7.83135 15.7601 7.6893C15.8406 7.54252 15.8903 7.38627 15.9092 7.22055C15.9329 7.0501 15.9447 6.8394 15.9447 6.58845V3.88957C15.9447 3.63863 15.9211 3.43503 15.8737 3.27878C15.8311 3.11779 15.7577 2.97101 15.6535 2.83843C15.5494 2.70112 15.4073 2.5425 15.2274 2.36258L13.5939 0.729051C13.4139 0.553861 13.2577 0.414182 13.1251 0.310015C12.9925 0.201113 12.8458 0.125356 12.6848 0.0827417C12.5285 0.0353931 12.3249 0.0117188 12.074 0.0117188H9.368C9.12178 0.0117188 8.91345 0.0235559 8.74299 0.0472302C8.57254 0.0661697 8.41392 0.115886 8.26714 0.196379C8.12509 0.276871 7.96648 0.404713 7.79129 0.579903L0.845237 7.51175C0.338607 8.01838 0.0829239 8.53211 0.078189 9.05295C0.0734541 9.57378 0.331504 10.0946 0.85234 10.6155L5.34809 15.1041C5.86893 15.6202 6.38977 15.8759 6.9106 15.8712C7.43144 15.8712 7.94517 15.6178 8.4518 15.1112ZM10.8808 5.69356C10.6014 5.69356 10.3694 5.59886 10.1848 5.40947C10.0001 5.22007 9.90777 4.99043 9.90777 4.72054C9.90777 4.44592 10.0001 4.21628 10.1848 4.03162C10.3694 3.84223 10.6014 3.74753 10.8808 3.74753C11.1554 3.74753 11.385 3.84223 11.5697 4.03162C11.7591 4.21628 11.8538 4.44592 11.8538 4.72054C11.8538 4.99043 11.7591 5.22007 11.5697 5.40947C11.385 5.59886 11.1554 5.69356 10.8808 5.69356Z" fill="#7700D5"/>
</svg>
