<svg width="16" height="17" viewBox="0 0 16 17" fill="none" xmlns="http://www.w3.org/2000/svg">
<path d="M2.67104 16.6875H13.2773C14.1286 16.6875 14.7685 16.4733 15.1971 16.0447C15.6256 15.6162 15.8399 14.985 15.8399 14.1511V3.50132C15.8399 2.66162 15.6256 2.0304 15.1971 1.60765C14.7685 1.17911 14.1286 0.964844 13.2773 0.964844H2.67104C1.82555 0.964844 1.18853 1.17911 0.759994 1.60765C0.331456 2.0304 0.117188 2.66162 0.117188 3.50132V14.1511C0.117188 14.9908 0.331456 15.622 0.759994 16.0447C1.18853 16.4733 1.82555 16.6875 2.67104 16.6875ZM7.99591 13.1955C7.84534 13.1955 7.72084 13.1492 7.62239 13.0566C7.52394 12.9581 7.47472 12.8307 7.47472 12.6743V7.55796L7.52684 5.90751L6.55394 7.00201L5.27701 8.27894C5.17277 8.38318 5.04827 8.4353 4.90349 8.4353C4.7645 8.4353 4.64579 8.38897 4.54734 8.29631C4.45468 8.19787 4.40836 8.07915 4.40836 7.94017C4.40836 7.79539 4.45468 7.67667 4.54734 7.58402L7.60502 4.53503C7.72663 4.40762 7.85693 4.34392 7.99591 4.34392C8.1349 4.34392 8.26809 4.40762 8.39549 4.53503L11.4445 7.58402C11.5429 7.68246 11.5922 7.80118 11.5922 7.94017C11.5922 8.07915 11.5429 8.19787 11.4445 8.29631C11.346 8.38897 11.2273 8.4353 11.0883 8.4353C10.9378 8.4353 10.8133 8.38318 10.7148 8.27894L9.44657 7.00201L8.46499 5.89882L8.51711 7.55796V12.6743C8.51711 12.8307 8.46788 12.9581 8.36943 13.0566C8.27678 13.1492 8.15227 13.1955 7.99591 13.1955Z" fill="#646F85"/>
</svg>
