<svg width="17" height="21" viewBox="0 0 17 21" fill="none" xmlns="http://www.w3.org/2000/svg">
<path d="M3.023 20.8627H13.3236C14.2636 20.8627 14.9671 20.6293 15.4341 20.1623C15.907 19.6953 16.1435 19.0008 16.1435 18.0788V9.29586C16.1435 8.37386 15.907 7.67937 15.4341 7.21238C14.9671 6.7454 14.2636 6.5119 13.3236 6.5119H9.06688V13.1575C9.06688 13.397 8.97707 13.6035 8.79747 13.7771C8.62384 13.9448 8.4143 14.0286 8.16883 14.0286C7.92935 14.0286 7.7198 13.9448 7.54019 13.7771C7.36657 13.6035 7.27976 13.397 7.27976 13.1575V6.5119H3.023C2.08304 6.5119 1.37658 6.7454 0.903604 7.21238C0.436618 7.67338 0.203125 8.36787 0.203125 9.29586V18.0788C0.203125 19.0068 0.436618 19.7013 0.903604 20.1623C1.37658 20.6293 2.08304 20.8627 3.023 20.8627ZM8.16883 7.22136C8.3664 7.22136 8.53404 7.15251 8.67174 7.01481C8.81543 6.87711 8.88727 6.71247 8.88727 6.52088V3.90756L8.83339 2.56048L9.43508 3.1981L10.8001 4.65294C10.9258 4.79663 11.0875 4.86847 11.2851 4.86847C11.4707 4.86847 11.6263 4.8086 11.752 4.68886C11.8778 4.56912 11.9406 4.41645 11.9406 4.23085C11.9406 4.06322 11.8688 3.90756 11.7251 3.76387L8.6897 0.836224C8.59989 0.746419 8.51308 0.683555 8.42926 0.647633C8.35143 0.611711 8.26462 0.59375 8.16883 0.59375C8.07902 0.59375 7.99221 0.611711 7.9084 0.647633C7.83056 0.683555 7.74375 0.746419 7.64796 0.836224L4.61255 3.76387C4.47485 3.90756 4.406 4.06322 4.406 4.23085C4.406 4.41645 4.46587 4.56912 4.58561 4.68886C4.70535 4.8086 4.86101 4.86847 5.0526 4.86847C5.25615 4.86847 5.4208 4.79663 5.54652 4.65294L6.90258 3.1981L7.51325 2.56048L7.45937 3.90756V6.52088C7.45937 6.71247 7.52822 6.87711 7.66592 7.01481C7.80961 7.15251 7.97725 7.22136 8.16883 7.22136Z" fill="#646F85"/>
</svg>
