<svg width="10" height="11" viewBox="0 0 10 11" fill="none" xmlns="http://www.w3.org/2000/svg">
<path d="M9.39141 7.83414L9.38516 1.29105C9.38516 1.1046 9.33099 0.952839 9.22266 0.835766C9.11432 0.718693 8.96641 0.660156 8.77891 0.660156H2.49141C2.31641 0.660156 2.17474 0.720861 2.06641 0.84227C1.95807 0.959343 1.90391 1.09593 1.90391 1.25203C1.90391 1.40812 1.96016 1.54471 2.07266 1.66178C2.18932 1.77452 2.32057 1.83089 2.46641 1.83089H4.64141L7.69141 1.72682L6.52891 2.78699L0.335156 9.24552C0.21849 9.36693 0.160156 9.50352 0.160156 9.65528C0.160156 9.75934 0.18724 9.85907 0.241406 9.95447C0.295573 10.0455 0.366406 10.1192 0.453906 10.1756C0.541406 10.232 0.63724 10.2602 0.741406 10.2602C0.891406 10.2602 1.02266 10.2016 1.13516 10.0845L7.34141 3.63251L8.37266 2.41625L8.26016 5.45365V7.86016C8.26016 8.01192 8.31432 8.1485 8.42266 8.26991C8.53516 8.39132 8.66849 8.45203 8.82266 8.45203C8.97266 8.45203 9.10391 8.39349 9.21641 8.27642C9.33307 8.15934 9.39141 8.01192 9.39141 7.83414Z" fill="#9742FB"/>
</svg>
