<svg width="13" height="16" viewBox="0 0 13 16" fill="none" xmlns="http://www.w3.org/2000/svg">
<path d="M4.04717 4.26629C3.91436 4.26629 3.80527 4.22123 3.71989 4.1311C3.63451 4.04098 3.59182 3.93188 3.59182 3.80382C3.59182 3.68049 3.63451 3.57614 3.71989 3.49076C3.80527 3.40538 3.91436 3.36269 4.04717 3.36269H9.61819C9.74625 3.36269 9.85298 3.40538 9.93836 3.49076C10.0237 3.57614 10.0664 3.68049 10.0664 3.80382C10.0664 3.93188 10.0237 4.04098 9.93836 4.1311C9.85298 4.22123 9.74625 4.26629 9.61819 4.26629H4.04717ZM4.04717 6.82767C3.91436 6.82767 3.80527 6.78261 3.71989 6.69249C3.63451 6.60236 3.59182 6.49327 3.59182 6.3652C3.59182 6.24187 3.63451 6.13752 3.71989 6.05214C3.80527 5.96676 3.91436 5.92407 4.04717 5.92407H9.61819C9.74625 5.92407 9.85298 5.96676 9.93836 6.05214C10.0237 6.13752 10.0664 6.24187 10.0664 6.3652C10.0664 6.49327 10.0237 6.60236 9.93836 6.69249C9.85298 6.78261 9.74625 6.82767 9.61819 6.82767H4.04717ZM4.04717 9.38906C3.91436 9.38906 3.80527 9.34637 3.71989 9.26099C3.63451 9.17086 3.59182 9.06414 3.59182 8.94081C3.59182 8.81274 3.63451 8.70602 3.71989 8.62064C3.80527 8.53052 3.91436 8.48546 4.04717 8.48546H6.67971C6.81252 8.48546 6.92162 8.53052 7.007 8.62064C7.09238 8.70602 7.13507 8.81274 7.13507 8.94081C7.13507 9.06414 7.09238 9.17086 7.007 9.26099C6.92162 9.34637 6.81252 9.38906 6.67971 9.38906H4.04717ZM0.845444 13.2738C0.845444 14.0185 1.02806 14.5759 1.3933 14.9458C1.76327 15.3158 2.31587 15.5008 3.05108 15.5008H10.6072C11.3424 15.5008 11.8926 15.3158 12.2578 14.9458C12.6278 14.5759 12.8128 14.0185 12.8128 13.2738V2.48043C12.8128 1.74048 12.6278 1.18314 12.2578 0.808419C11.8926 0.433698 11.3424 0.246338 10.6072 0.246338H3.05108C2.31587 0.246338 1.76327 0.433698 1.3933 0.808419C1.02806 1.18314 0.845444 1.74048 0.845444 2.48043V13.2738Z" fill="#3D4767"/>
</svg>
