<svg width="33" height="28" viewBox="0 0 33 28" fill="none" xmlns="http://www.w3.org/2000/svg">
<path d="M4.85107 10.0625C5.03076 10.0999 5.20296 10.0662 5.36768 9.96143C5.53239 9.85661 5.63346 9.70687 5.6709 9.51221C5.70833 9.32503 5.67464 9.15283 5.56982 8.99561C5.47249 8.83089 5.32275 8.72607 5.12061 8.68115L1.875 7.98486C1.66536 7.93994 1.47819 7.97738 1.31348 8.09717C1.14876 8.20947 1.05143 8.3667 1.02148 8.56885C0.991536 8.75602 1.02897 8.92822 1.13379 9.08545C1.24609 9.24268 1.39583 9.34001 1.58301 9.37744L4.85107 10.0625ZM5.98535 6.32275C6.12012 6.46501 6.28483 6.53613 6.47949 6.53613C6.68164 6.53613 6.8501 6.46501 6.98486 6.32275C7.11963 6.18799 7.18701 6.02327 7.18701 5.82861C7.18701 5.63395 7.11963 5.46549 6.98486 5.32324L4.62646 2.97607C4.48421 2.82633 4.31576 2.75521 4.12109 2.7627C3.93392 2.7627 3.76921 2.83382 3.62695 2.97607C3.49219 3.11833 3.42106 3.28304 3.41357 3.47021C3.41357 3.65739 3.4847 3.82585 3.62695 3.97559L5.98535 6.32275ZM10.1631 5.21094C10.3577 5.1735 10.5112 5.07243 10.6235 4.90771C10.7358 4.73551 10.7695 4.55957 10.7246 4.37988L10.0283 1.13428C9.9834 0.939616 9.87858 0.789876 9.71387 0.685059C9.54915 0.580241 9.37321 0.546549 9.18604 0.583984C8.99886 0.621419 8.84538 0.722493 8.72559 0.887207C8.61328 1.05192 8.57959 1.23161 8.62451 1.42627L9.3208 4.66064C9.36572 4.84782 9.4668 4.99756 9.62402 5.10986C9.78874 5.22217 9.96842 5.25586 10.1631 5.21094ZM14.4868 25.3359C15.3628 26.2119 16.2799 26.8595 17.2383 27.2788C18.1966 27.6981 19.1587 27.904 20.1245 27.8965C21.0978 27.889 22.0412 27.6794 22.9546 27.2676C23.868 26.8558 24.7178 26.2568 25.5039 25.4707C26.7692 24.2129 27.5441 22.9102 27.8286 21.5625C28.1206 20.2074 27.9971 18.7399 27.458 17.1602C27.3158 16.7109 27.151 16.258 26.9639 15.8013C26.7842 15.3371 26.582 14.8654 26.3574 14.3862C26.1328 13.9071 25.8895 13.4167 25.6274 12.915C25.3654 12.4134 25.0921 11.8931 24.8076 11.354C24.6579 11.062 24.5007 10.755 24.3359 10.4331C24.1712 10.1112 24.0103 9.81543 23.853 9.5459C23.6958 9.27637 23.5535 9.07796 23.4263 8.95068C23.2091 8.74105 22.9621 8.64372 22.6851 8.65869C22.4155 8.66618 22.1685 8.78223 21.9438 9.00684C21.6893 9.26139 21.5583 9.55713 21.5508 9.89404C21.5508 10.231 21.6481 10.6802 21.8428 11.2417L23.0669 14.667C23.1343 14.8467 23.1642 14.9964 23.1567 15.1162C23.1493 15.2285 23.1118 15.3184 23.0444 15.3857C22.9621 15.4681 22.8685 15.5093 22.7637 15.5093C22.6589 15.5018 22.5353 15.4269 22.3931 15.2847L14.0601 6.95166C13.828 6.71956 13.5435 6.60352 13.2065 6.60352C12.8771 6.60352 12.5964 6.71956 12.3643 6.95166C12.1322 7.19124 12.0161 7.47949 12.0161 7.81641C12.0161 8.14583 12.1322 8.4266 12.3643 8.65869L18.3164 14.6108C18.1667 14.6782 18.0169 14.7568 17.8672 14.8467C17.7174 14.929 17.5677 15.0226 17.418 15.1274L10.5112 8.2207C10.2791 7.98112 9.99463 7.86133 9.65771 7.86133C9.3208 7.86133 9.0363 7.98112 8.8042 8.2207C8.5721 8.4528 8.45605 8.7373 8.45605 9.07422C8.45605 9.40365 8.5721 9.68441 8.8042 9.9165L15.6323 16.7446C15.5125 16.8794 15.3965 17.0179 15.2842 17.1602C15.1794 17.3024 15.0783 17.4447 14.981 17.5869L8.73682 11.3428C8.49723 11.1107 8.20898 10.9946 7.87207 10.9946C7.54264 10.9946 7.26188 11.1107 7.02979 11.3428C6.79769 11.5749 6.68164 11.8594 6.68164 12.1963C6.68164 12.5332 6.79769 12.8177 7.02979 13.0498L13.813 19.833C13.7456 20.0277 13.6857 20.2186 13.6333 20.4058C13.5884 20.5929 13.5472 20.7764 13.5098 20.9561L8.79297 16.2393C8.56087 15.9997 8.27637 15.8799 7.93945 15.8799C7.61003 15.8799 7.32552 15.9997 7.08594 16.2393C6.85384 16.4714 6.73779 16.7559 6.73779 17.0928C6.73779 17.4222 6.85384 17.703 7.08594 17.9351L14.4868 25.3359ZM20.2705 9.16406L18.0581 6.95166C17.826 6.71956 17.5415 6.60352 17.2046 6.60352C16.8677 6.60352 16.5832 6.71956 16.3511 6.95166C16.3361 6.96663 16.3211 6.9891 16.3062 7.01904L20.3828 11.1069C20.3154 10.755 20.2705 10.4181 20.248 10.0962C20.2256 9.77425 20.2331 9.46354 20.2705 9.16406ZM29.4907 25.4819C30.756 24.2166 31.5309 22.9102 31.8154 21.5625C32.1074 20.2074 31.9876 18.7362 31.4561 17.1489C31.3138 16.7072 31.1491 16.258 30.9619 15.8013C30.7747 15.3371 30.5688 14.8654 30.3442 14.3862C30.1196 13.9071 29.8763 13.4167 29.6143 12.915C29.3597 12.4134 29.0864 11.8931 28.7944 11.354C28.6447 11.062 28.4875 10.755 28.3228 10.4331C28.158 10.1112 27.9933 9.81543 27.8286 9.5459C27.6714 9.27637 27.5291 9.08171 27.4019 8.96191C27.1922 8.74479 26.9526 8.64372 26.6831 8.65869C26.4136 8.66618 26.1628 8.78223 25.9307 9.00684C25.7809 9.15658 25.6724 9.32878 25.605 9.52344C25.7323 9.75553 25.8521 9.98763 25.9644 10.2197C26.0841 10.4518 26.2077 10.6802 26.335 10.9048C26.6045 11.4214 26.8665 11.9305 27.1211 12.4321C27.3757 12.9338 27.6115 13.4279 27.8286 13.9146C28.0532 14.4012 28.2591 14.8804 28.4463 15.3521C28.6335 15.8237 28.7944 16.2842 28.9292 16.7334C29.5506 18.6426 29.6704 20.4058 29.2886 22.0229C28.9067 23.6326 28.0046 25.1413 26.582 26.5488C26.1029 27.0355 25.59 27.4585 25.0435 27.8179C25.8446 27.7056 26.6195 27.451 27.3682 27.0542C28.1243 26.6574 28.8319 26.1333 29.4907 25.4819Z" fill="#7700D5"/>
</svg>
