<svg width="10" height="5" viewBox="0 0 10 5" fill="none" xmlns="http://www.w3.org/2000/svg">
<path fill-rule="evenodd" clip-rule="evenodd" d="M4.96805 4.99902C4.83595 4.99245 4.71038 4.942 4.613 4.85636L0.182083 0.943514C0.0330234 0.811249 -0.0309496 0.612952 0.0142633 0.423326C0.0594762 0.2337 0.207006 0.0815564 0.401274 0.0242106C0.595543 -0.0331351 0.807033 0.0130301 0.956074 0.145315L5 3.71511L9.04393 0.145315C9.19297 0.0130301 9.40446 -0.0331351 9.59873 0.0242106C9.79299 0.0815564 9.94052 0.2337 9.98574 0.423326C10.0309 0.612952 9.96698 0.811249 9.81792 0.943514L5.38699 4.85636C5.27341 4.9564 5.12216 5.0079 4.96805 4.99902V4.99902Z" fill="#3D4767"/>
</svg>
