<svg width="6" height="10" viewBox="0 0 6 10" fill="none" xmlns="http://www.w3.org/2000/svg">
<path fill-rule="evenodd" clip-rule="evenodd" d="M4.99921 5.02556C4.99396 5.13124 4.9536 5.23169 4.88509 5.3096L1.75481 8.85433C1.649 8.97358 1.49036 9.02476 1.33866 8.98859C1.18696 8.95242 1.06525 8.8344 1.01937 8.67898C0.973492 8.52357 1.01042 8.35437 1.11625 8.23514L3.97209 5L1.11625 1.76486C1.01042 1.64563 0.973492 1.47643 1.01937 1.32102C1.06525 1.1656 1.18696 1.04758 1.33866 1.01141C1.49036 0.97524 1.649 1.02642 1.75481 1.14567L4.88509 4.6904C4.96512 4.78127 5.00632 4.90227 4.99921 5.02556Z" fill="#1D1E21" stroke="black" stroke-width="0.3"/>
</svg>
