<svg width="15" height="16" viewBox="0 0 15 16" fill="none" xmlns="http://www.w3.org/2000/svg">
<path d="M7.49141 2.4375C7.33907 2.4375 7.21407 2.48633 7.11641 2.58398C7.01875 2.67773 6.96992 2.80078 6.96992 2.95312V10.6699L7.02852 12.416L7.35664 12.2988L5.25899 9.99609L3.92305 8.68359C3.87617 8.63672 3.81953 8.60156 3.75313 8.57812C3.69063 8.55469 3.62422 8.54297 3.55391 8.54297C3.40938 8.54297 3.28828 8.5918 3.19063 8.68945C3.09688 8.78711 3.05 8.9082 3.05 9.05273C3.05 9.19336 3.10469 9.32031 3.21407 9.43359L7.09883 13.3301C7.15742 13.3887 7.21992 13.4316 7.28633 13.459C7.35274 13.4902 7.4211 13.5059 7.49141 13.5059C7.56563 13.5059 7.63594 13.4902 7.70235 13.459C7.76875 13.4316 7.8293 13.3887 7.88399 13.3301L11.7746 9.43359C11.8801 9.32031 11.9328 9.19336 11.9328 9.05273C11.9328 8.9082 11.884 8.78711 11.7863 8.68945C11.6926 8.5918 11.5734 8.54297 11.4289 8.54297C11.3586 8.54297 11.2902 8.55469 11.2238 8.57812C11.1613 8.60156 11.1066 8.63672 11.0598 8.68359L9.72383 9.99609L7.62032 12.2988L7.9543 12.416L8.01289 10.6699V2.95312C8.01289 2.80078 7.96407 2.67773 7.86641 2.58398C7.76875 2.48633 7.64375 2.4375 7.49141 2.4375Z" fill="#3D4767"/>
</svg>
