<svg width="12" height="15" viewBox="0 0 12 15" fill="none" xmlns="http://www.w3.org/2000/svg">
<path d="M6.01094 14.4756C6.20391 14.4756 6.36224 14.416 6.48594 14.2969C6.60964 14.1825 6.67148 14.0324 6.67148 13.8466L6.67149 4.43304L6.59727 2.30302L6.18164 2.44598L8.83867 5.25503L10.5309 6.85612C10.5902 6.9133 10.662 6.95619 10.7461 6.98478C10.8253 7.01337 10.9094 7.02767 10.9984 7.02767C11.1815 7.02767 11.3349 6.9681 11.4586 6.84897C11.5773 6.72984 11.6367 6.58212 11.6367 6.40581C11.6367 6.23427 11.5674 6.0794 11.4289 5.94121L6.5082 1.18798C6.43399 1.1165 6.35482 1.06409 6.2707 1.03073C6.18659 0.99261 6.1 0.973549 6.01094 0.973549C5.91693 0.973549 5.82787 0.99261 5.74375 1.03073C5.65964 1.06409 5.58294 1.1165 5.51367 1.18798L0.585548 5.94121C0.451954 6.0794 0.385157 6.23427 0.385157 6.40581C0.385157 6.58212 0.447006 6.72984 0.570704 6.84897C0.689454 6.9681 0.840365 7.02766 1.02344 7.02766C1.1125 7.02766 1.19909 7.01337 1.2832 6.98478C1.36237 6.95619 1.43164 6.9133 1.49102 6.85612L3.1832 5.25503L5.84766 2.44598L5.42461 2.30302L5.35039 4.43304L5.35039 13.8466C5.35039 14.0324 5.41224 14.1825 5.53594 14.2969C5.65964 14.416 5.81797 14.4756 6.01094 14.4756Z" fill="#A8AEB7"/>
</svg>
