<svg width="15" height="19" viewBox="0 0 15 19" fill="none" xmlns="http://www.w3.org/2000/svg">
<path d="M7.29199 18.0576C7.63216 18.0576 7.90739 17.9494 8.11768 17.7329C8.33415 17.5164 8.44238 17.2319 8.44238 16.8794V5.87646L8.32178 2.65723L7.63525 3.04688L10.5669 6.35889L12.6636 8.43701C12.7687 8.54216 12.8893 8.62565 13.0254 8.6875C13.1676 8.74935 13.3223 8.78027 13.4893 8.78027C13.8047 8.78027 14.0675 8.67513 14.2778 8.46484C14.4881 8.25456 14.5933 7.98861 14.5933 7.66699C14.5933 7.35775 14.4727 7.07943 14.2314 6.83203L8.15479 0.736816C8.04346 0.625488 7.91048 0.5389 7.75586 0.477051C7.60742 0.415202 7.4528 0.384277 7.29199 0.384277C7.13737 0.384277 6.98275 0.415202 6.82812 0.477051C6.67969 0.5389 6.5498 0.625488 6.43848 0.736816L0.361816 6.83203C0.120605 7.07943 0 7.35775 0 7.66699C0 7.98861 0.105143 8.25456 0.31543 8.46484C0.525716 8.67513 0.788574 8.78027 1.104 8.78027C1.271 8.78027 1.42253 8.74935 1.55859 8.6875C1.69466 8.62565 1.81527 8.54216 1.92041 8.43701L4.01709 6.35889L6.93945 3.04688L6.26221 2.65723L6.1416 5.87646V16.8794C6.1416 17.2319 6.24674 17.5164 6.45703 17.7329C6.6735 17.9494 6.95182 18.0576 7.29199 18.0576Z" fill="white"/>
</svg>
