<svg width="16" height="13" viewBox="0 0 16 13" fill="none" xmlns="http://www.w3.org/2000/svg">
<path d="M15.9241 6.5C15.9241 6.28276 15.8384 6.09125 15.6669 5.92546L9.98153 0.257256C9.89006 0.165787 9.79573 0.100044 9.69855 0.0600264C9.60708 0.0200088 9.50989 0 9.40699 0C9.19547 0 9.01825 0.07146 8.87533 0.21438C8.73241 0.351583 8.66095 0.525945 8.66095 0.737467C8.66095 0.840369 8.6781 0.940413 8.7124 1.0376C8.7467 1.12907 8.79815 1.2091 8.86675 1.2777L10.7876 3.23285L14.1919 6.33707L14.3635 5.90831L11.6022 5.73681H0.754617C0.531662 5.73681 0.348725 5.80827 0.205805 5.95119C0.0686016 6.09411 0 6.27704 0 6.5C0 6.72296 0.0686016 6.90589 0.205805 7.04881C0.348725 7.19173 0.531662 7.26319 0.754617 7.26319H11.6022L14.3635 7.09169L14.1919 6.6715L10.7876 9.76715L8.86675 11.7223C8.79815 11.7909 8.7467 11.8738 8.7124 11.971C8.6781 12.0624 8.66095 12.1596 8.66095 12.2625C8.66095 12.4741 8.73241 12.6484 8.87533 12.7856C9.01825 12.9285 9.19547 13 9.40699 13C9.61279 13 9.79859 12.92 9.96438 12.7599L15.6669 7.07454C15.8384 6.90875 15.9241 6.71724 15.9241 6.5Z" fill="white"/>
</svg>
