<svg width="26" height="26" viewBox="0 0 26 26" fill="none" xmlns="http://www.w3.org/2000/svg">
<path d="M12.624 20.6084C13.1693 20.6084 13.6291 20.4172 14.0034 20.0347C14.3778 19.6522 14.5649 19.1924 14.5649 18.6553C14.5649 18.2646 14.4591 17.9106 14.2476 17.5933C14.036 17.2759 13.7633 17.0439 13.4297 16.8975V11.1846C13.4297 10.9486 13.3483 10.7533 13.1855 10.5986C13.0309 10.4359 12.8438 10.3545 12.624 10.3545C12.4124 10.3545 12.2253 10.4359 12.0625 10.5986C11.9079 10.7533 11.8306 10.9486 11.8306 11.1846V16.8975C11.4888 17.0439 11.2121 17.2759 11.0005 17.5933C10.7889 17.9106 10.6831 18.2646 10.6831 18.6553C10.6831 19.1924 10.8703 19.6522 11.2446 20.0347C11.6271 20.4172 12.0869 20.6084 12.624 20.6084ZM6.42285 11.1846C6.75651 11.1846 7.03727 11.0666 7.26514 10.8306C7.50114 10.5946 7.61914 10.3097 7.61914 9.97607C7.61914 9.65055 7.50114 9.36979 7.26514 9.13379C7.03727 8.89779 6.75651 8.77979 6.42285 8.77979C6.09733 8.77979 5.81657 8.89779 5.58057 9.13379C5.34456 9.36979 5.22656 9.65055 5.22656 9.97607C5.22656 10.3097 5.34456 10.5946 5.58057 10.8306C5.81657 11.0666 6.09733 11.1846 6.42285 11.1846ZM9.13281 8.60889C9.46647 8.60889 9.74723 8.49089 9.9751 8.25488C10.2111 8.01888 10.3291 7.73405 10.3291 7.40039C10.3291 7.07487 10.2111 6.79411 9.9751 6.55811C9.74723 6.3221 9.46647 6.2041 9.13281 6.2041C8.80729 6.2041 8.52653 6.3221 8.29053 6.55811C8.05452 6.79411 7.93652 7.07487 7.93652 7.40039C7.93652 7.73405 8.05452 8.01888 8.29053 8.25488C8.52653 8.49089 8.80729 8.60889 9.13281 8.60889ZM12.624 7.52246C12.9495 7.52246 13.2303 7.40446 13.4663 7.16846C13.7023 6.93245 13.8203 6.65169 13.8203 6.32617C13.8203 5.99251 13.7023 5.70768 13.4663 5.47168C13.2303 5.23568 12.9495 5.11768 12.624 5.11768C12.2904 5.11768 12.0055 5.23568 11.7695 5.47168C11.5417 5.70768 11.4277 5.99251 11.4277 6.32617C11.4277 6.65169 11.5417 6.93245 11.7695 7.16846C12.0055 7.40446 12.2904 7.52246 12.624 7.52246ZM16.1152 8.60889C16.4489 8.60889 16.7297 8.49089 16.9575 8.25488C17.1935 8.01074 17.3115 7.72184 17.3115 7.38818C17.3115 7.06266 17.1935 6.7819 16.9575 6.5459C16.7297 6.3099 16.4489 6.19189 16.1152 6.19189C15.7816 6.19189 15.4967 6.3099 15.2607 6.5459C15.0329 6.7819 14.9189 7.06266 14.9189 7.38818C14.9189 7.72184 15.0329 8.01074 15.2607 8.25488C15.4967 8.49089 15.7816 8.60889 16.1152 8.60889ZM18.8252 11.1846C19.1589 11.1846 19.4396 11.0666 19.6675 10.8306C19.9035 10.5946 20.0215 10.3097 20.0215 9.97607C20.0215 9.65055 19.9035 9.36979 19.6675 9.13379C19.4396 8.89779 19.1589 8.77979 18.8252 8.77979C18.4997 8.77979 18.2189 8.89779 17.9829 9.13379C17.7469 9.36979 17.6289 9.65055 17.6289 9.97607C17.6289 10.3097 17.7469 10.5946 17.9829 10.8306C18.2189 11.0666 18.4997 11.1846 18.8252 11.1846ZM12.6362 25.6377C14.3371 25.6377 15.9362 25.3122 17.4336 24.6611C18.9391 24.0101 20.2656 23.1108 21.4131 21.9634C22.5605 20.8159 23.4598 19.4935 24.1108 17.9961C24.7619 16.4906 25.0874 14.8874 25.0874 13.1865C25.0874 11.4857 24.7619 9.88656 24.1108 8.38916C23.4598 6.88363 22.5605 5.55713 21.4131 4.40967C20.2656 3.26221 18.9391 2.36296 17.4336 1.71191C15.9281 1.06087 14.3249 0.735352 12.624 0.735352C10.9232 0.735352 9.31999 1.06087 7.81445 1.71191C6.31706 2.36296 4.99463 3.26221 3.84717 4.40967C2.70785 5.55713 1.81266 6.88363 1.16162 8.38916C0.510579 9.88656 0.185059 11.4857 0.185059 13.1865C0.185059 14.8874 0.510579 16.4906 1.16162 17.9961C1.81266 19.4935 2.71191 20.8159 3.85938 21.9634C5.00684 23.1108 6.32926 24.0101 7.82666 24.6611C9.33219 25.3122 10.9354 25.6377 12.6362 25.6377ZM12.6362 23.5625C11.1958 23.5625 9.84896 23.2939 8.5957 22.7568C7.34245 22.2197 6.23975 21.4792 5.2876 20.5352C4.34359 19.583 3.60303 18.4803 3.06592 17.2271C2.53695 15.9738 2.27246 14.627 2.27246 13.1865C2.27246 11.7461 2.53695 10.3993 3.06592 9.146C3.60303 7.89274 4.34359 6.79004 5.2876 5.83789C6.23161 4.88574 7.33024 4.14518 8.5835 3.61621C9.83675 3.0791 11.1836 2.81055 12.624 2.81055C14.0645 2.81055 15.4113 3.0791 16.6646 3.61621C17.9259 4.14518 19.0286 4.88574 19.9727 5.83789C20.9248 6.79004 21.6694 7.89274 22.2065 9.146C22.7437 10.3993 23.0122 11.7461 23.0122 13.1865C23.0122 14.627 22.7437 15.9738 22.2065 17.2271C21.6776 18.4803 20.937 19.583 19.9849 20.5352C19.0327 21.4792 17.93 22.2197 16.6768 22.7568C15.4235 23.2939 14.0767 23.5625 12.6362 23.5625Z" fill="#4F67E4"/>
</svg>
