<svg width="15" height="15" viewBox="0 0 15 15" fill="none" xmlns="http://www.w3.org/2000/svg">
<path d="M0.260119 13.9277C0.371791 14.029 0.498973 14.0975 0.641665 14.1332C0.784356 14.1689 0.927048 14.1689 1.06974 14.1332C1.21243 14.0975 1.33651 14.029 1.44198 13.9277L7.39782 8.21012L13.3537 13.9277C13.4591 14.029 13.5832 14.0975 13.7259 14.1332C13.8686 14.1689 14.0113 14.1689 14.154 14.1332C14.3029 14.1034 14.43 14.0349 14.5355 13.9277C14.641 13.8265 14.7092 13.7074 14.7402 13.5704C14.7775 13.4334 14.7775 13.2964 14.7402 13.1594C14.7092 13.0224 14.641 12.9033 14.5355 12.8021L8.57968 7.07553L14.5355 1.35793C14.641 1.25668 14.7123 1.13756 14.7495 1.00058C14.7868 0.863596 14.7868 0.726612 14.7495 0.589628C14.7123 0.452644 14.641 0.333527 14.5355 0.232278C14.4238 0.125073 14.2967 0.0565804 14.154 0.0268013C14.0113 -0.00893375 13.8686 -0.00893375 13.7259 0.0268013C13.5832 0.0565804 13.4591 0.125073 13.3537 0.232278L7.39782 5.94988L1.44198 0.232278C1.33651 0.125073 1.20933 0.0565804 1.06043 0.0268013C0.917742 -0.00893375 0.77505 -0.00893375 0.632358 0.0268013C0.489667 0.0565804 0.365587 0.125073 0.260119 0.232278C0.154651 0.333527 0.0833049 0.452644 0.046081 0.589628C0.015061 0.726612 0.015061 0.863596 0.046081 1.00058C0.0833049 1.13756 0.154651 1.25668 0.260119 1.35793L6.21595 7.07553L0.260119 12.8021C0.154651 12.9033 0.0833049 13.0224 0.046081 13.1594C0.00885701 13.2964 0.00575501 13.4334 0.036775 13.5704C0.073999 13.7074 0.148447 13.8265 0.260119 13.9277Z" fill="white"/>
</svg>
