<svg width="15" height="15" viewBox="0 0 15 15" fill="none" xmlns="http://www.w3.org/2000/svg">
<path d="M0.244494 13.9277C0.356166 14.029 0.483348 14.0975 0.62604 14.1332C0.768731 14.1689 0.911423 14.1689 1.05412 14.1332C1.19681 14.0975 1.32089 14.029 1.42635 13.9277L7.38219 8.21012L13.338 13.9277C13.4435 14.029 13.5676 14.0975 13.7103 14.1332C13.853 14.1689 13.9956 14.1689 14.1383 14.1332C14.2872 14.1034 14.4144 14.0349 14.5199 13.9277C14.6254 13.8265 14.6936 13.7074 14.7246 13.5704C14.7618 13.4334 14.7618 13.2964 14.7246 13.1594C14.6936 13.0224 14.6254 12.9033 14.5199 12.8021L8.56405 7.07553L14.5199 1.35793C14.6254 1.25668 14.6967 1.13756 14.7339 1.00058C14.7711 0.863596 14.7711 0.726612 14.7339 0.589628C14.6967 0.452644 14.6254 0.333527 14.5199 0.232278C14.4082 0.125073 14.281 0.0565804 14.1383 0.0268013C13.9956 -0.00893375 13.853 -0.00893375 13.7103 0.0268013C13.5676 0.0565804 13.4435 0.125073 13.338 0.232278L7.38219 5.94988L1.42635 0.232278C1.32089 0.125073 1.19371 0.0565804 1.04481 0.0268013C0.902117 -0.00893375 0.759425 -0.00893375 0.616733 0.0268013C0.474042 0.0565804 0.349962 0.125073 0.244494 0.232278C0.139026 0.333527 0.0676799 0.452644 0.030456 0.589628C-0.000564 0.726612 -0.000564 0.863596 0.030456 1.00058C0.0676799 1.13756 0.139026 1.25668 0.244494 1.35793L6.20033 7.07553L0.244494 12.8021C0.139026 12.9033 0.0676799 13.0224 0.030456 13.1594C-0.00676799 13.2964 -0.00986999 13.4334 0.02115 13.5704C0.058374 13.7074 0.132822 13.8265 0.244494 13.9277Z" fill="#3D4767"/>
</svg>
