<svg width="82" height="33" viewBox="0 0 82 33" fill="none" xmlns="http://www.w3.org/2000/svg">
<path d="M75.3056 0.574463H0V25.5319L6.69445 32.8723H82V7.91489L75.3056 0.574463Z" fill="#9742FB"/>
<path d="M41.0465 21.6633C41.211 21.6633 41.3467 21.6143 41.4536 21.5164C41.5605 21.4102 41.614 21.2715 41.614 21.1V20.2796C42.6173 20.1817 43.448 19.8592 44.106 19.3123C44.7722 18.7653 45.1053 18.0306 45.1053 17.1082C45.1053 16.2674 44.8339 15.598 44.291 15.1C43.7564 14.602 42.9546 14.2551 41.8854 14.0592L41.614 13.998V10.9245C42.0087 10.9979 42.3418 11.149 42.6132 11.3775C42.8846 11.6061 43.082 11.9041 43.2054 12.2714C43.3863 12.6959 43.6742 12.9082 44.069 12.9082C44.3239 12.9082 44.5254 12.8347 44.6735 12.6877C44.8297 12.5408 44.9079 12.349 44.9079 12.1122C44.9079 12.0388 44.8997 11.9694 44.8832 11.9041C44.875 11.8306 44.8626 11.7612 44.8462 11.6959C44.6735 11.0592 44.2951 10.5285 43.7112 10.1041C43.1355 9.67956 42.4364 9.4265 41.614 9.34486V8.52445C41.614 8.35302 41.5605 8.21833 41.4536 8.12037C41.3467 8.01424 41.211 7.96118 41.0465 7.96118C40.6764 7.96118 40.4913 8.14894 40.4913 8.52445V9.34486C39.5208 9.44282 38.723 9.76936 38.098 10.3245C37.4811 10.8714 37.1727 11.5694 37.1727 12.4184C37.1727 13.2102 37.4359 13.851 37.9623 14.3408C38.4886 14.8224 39.2659 15.1776 40.2939 15.4061L40.4913 15.4551V18.7123C39.9896 18.6388 39.5907 18.4755 39.2946 18.2225C38.9986 17.9694 38.8012 17.6592 38.7025 17.2919C38.6202 17.0796 38.5051 16.9204 38.357 16.8143C38.2172 16.7 38.0445 16.6429 37.8389 16.6429C37.5839 16.6429 37.3783 16.7204 37.2221 16.8755C37.074 17.0225 37 17.2184 37 17.4633C37 17.5368 37.0041 17.6061 37.0123 17.6714C37.0288 17.7368 37.0493 17.8061 37.074 17.8796C37.2467 18.5408 37.6374 19.0837 38.246 19.5082C38.8629 19.9327 39.6113 20.1857 40.4913 20.2674V21.1C40.4913 21.2715 40.5448 21.4102 40.6517 21.5164C40.7586 21.6143 40.8902 21.6633 41.0465 21.6633ZM40.4913 13.7163L40.405 13.6918C39.9115 13.5449 39.5455 13.3612 39.307 13.1408C39.0685 12.9122 38.9492 12.6347 38.9492 12.3081C38.9492 11.9653 39.0849 11.6673 39.3563 11.4143C39.636 11.1612 40.0143 10.9939 40.4913 10.9122V13.7163ZM41.614 15.7367L41.8484 15.7857C42.3912 15.9327 42.7695 16.1245 42.9833 16.3612C43.2054 16.5898 43.3164 16.8796 43.3164 17.2306C43.3164 17.6225 43.1725 17.9531 42.8846 18.2225C42.605 18.4837 42.1814 18.647 41.614 18.7123V15.7367Z" fill="white"/>
</svg>
