<svg width="15" height="16" viewBox="0 0 15 16" fill="none" xmlns="http://www.w3.org/2000/svg">
<path d="M12.4186 2.1669H11.2516V1H10.4739V2.1669H4.25198V1H3.47424V2.1669H2.30798C1.23573 2.1669 0.363281 3.0393 0.363281 4.1115V13.0554C0.363281 14.1276 1.23573 15 2.30798 15H12.4186C13.4908 15 14.3633 14.1276 14.3633 13.0554V6.0554V5.2777V4.1108C14.3626 3.03861 13.4901 2.1669 12.4186 2.1669ZM13.5849 13.0547C13.5849 13.6976 13.0615 14.2209 12.4186 14.2209H2.30798C1.66435 14.2209 1.14102 13.6976 1.14102 13.0547V6.0554H13.5849V13.0547ZM13.5849 5.2777H1.14102V4.1108C1.14102 3.46721 1.66435 2.94391 2.30798 2.94391H3.47493V3.72161H4.25198V2.9446H10.4739V3.7223H11.2516V2.9446H12.4186C13.0615 2.9446 13.5849 3.46721 13.5849 4.1108V5.2777Z" fill="#646F85" stroke="#646F85" stroke-width="0.25"/>
</svg>
