<svg width="12" height="13" viewBox="0 0 12 13" fill="none" xmlns="http://www.w3.org/2000/svg">
<path d="M10.1562 1.625C10.4948 1.625 10.7826 1.74349 11.0195 1.98047C11.2565 2.21745 11.375 2.50521 11.375 2.84375V11.7812C11.375 12.1198 11.2565 12.4076 11.0195 12.6445C10.7826 12.8815 10.4948 13 10.1562 13H1.21875C0.880208 13 0.592448 12.8815 0.355469 12.6445C0.11849 12.4076 0 12.1198 0 11.7812V2.84375C0 2.50521 0.11849 2.21745 0.355469 1.98047C0.592448 1.74349 0.880208 1.625 1.21875 1.625H2.4375V0.304688C2.4375 0.101562 2.53906 0 2.74219 0H2.94531C3.14844 0 3.25 0.101562 3.25 0.304688V1.625H8.125V0.304688C8.125 0.101562 8.22656 0 8.42969 0H8.63281C8.83594 0 8.9375 0.101562 8.9375 0.304688V1.625H10.1562ZM1.21875 2.4375C1.10026 2.4375 0.998698 2.47982 0.914062 2.56445C0.846354 2.63216 0.8125 2.72526 0.8125 2.84375V4.0625H10.5625V2.84375C10.5625 2.72526 10.5202 2.63216 10.4355 2.56445C10.3678 2.47982 10.2747 2.4375 10.1562 2.4375H1.21875ZM10.1562 12.1875C10.2747 12.1875 10.3678 12.1452 10.4355 12.0605C10.5202 11.9928 10.5625 11.8997 10.5625 11.7812V4.875H0.8125V11.7812C0.8125 11.8997 0.846354 11.9928 0.914062 12.0605C0.998698 12.1452 1.10026 12.1875 1.21875 12.1875H10.1562Z" fill="#646F85"/>
</svg>
