<svg width="15" height="13" viewBox="0 0 15 13" fill="none" xmlns="http://www.w3.org/2000/svg">
<path d="M0 11.4229C0 11.6143 0.0660807 11.7738 0.198242 11.9014C0.330404 12.029 0.489909 12.0928 0.676758 12.0928H14.1162C14.3031 12.0928 14.4626 12.029 14.5947 11.9014C14.7314 11.7738 14.7998 11.6143 14.7998 11.4229C14.7998 11.2314 14.7314 11.0719 14.5947 10.9443C14.4626 10.8167 14.3031 10.7529 14.1162 10.7529H0.676758C0.489909 10.7529 0.330404 10.8167 0.198242 10.9443C0.0660807 11.0719 0 11.2314 0 11.4229ZM0.676758 9.09863C0.676758 9.2946 0.736003 9.44954 0.854492 9.56348C0.972982 9.67741 1.13477 9.73438 1.33984 9.73438H2.78906C2.98958 9.73438 3.14909 9.67741 3.26758 9.56348C3.38607 9.44954 3.44531 9.2946 3.44531 9.09863V3.5957C3.44531 3.39974 3.38607 3.24479 3.26758 3.13086C3.14909 3.01237 2.98958 2.95312 2.78906 2.95312H1.33984C1.13477 2.95312 0.972982 3.01237 0.854492 3.13086C0.736003 3.24479 0.676758 3.39974 0.676758 3.5957V9.09863ZM4.23145 9.09863C4.23145 9.2946 4.29069 9.44954 4.40918 9.56348C4.52767 9.67741 4.68945 9.73438 4.89453 9.73438H6.34375C6.54427 9.73438 6.70378 9.67741 6.82227 9.56348C6.94531 9.44954 7.00684 9.2946 7.00684 9.09863V0.642578C7.00684 0.442057 6.94531 0.284831 6.82227 0.170898C6.70378 0.0569661 6.54427 0 6.34375 0H4.89453C4.68945 0 4.52767 0.0569661 4.40918 0.170898C4.29069 0.284831 4.23145 0.442057 4.23145 0.642578V9.09863ZM7.78613 9.09863C7.78613 9.2946 7.84538 9.44954 7.96387 9.56348C8.08236 9.67741 8.24186 9.73438 8.44238 9.73438H9.89844C10.099 9.73438 10.2585 9.67741 10.377 9.56348C10.4954 9.44954 10.5547 9.2946 10.5547 9.09863V2.17383C10.5547 1.97331 10.4954 1.81608 10.377 1.70215C10.2585 1.58822 10.099 1.53125 9.89844 1.53125H8.44238C8.24186 1.53125 8.08236 1.58822 7.96387 1.70215C7.84538 1.81608 7.78613 1.97331 7.78613 2.17383V9.09863ZM11.3408 9.09863C11.3408 9.2946 11.4001 9.44954 11.5186 9.56348C11.637 9.67741 11.7988 9.73438 12.0039 9.73438H13.4531C13.6536 9.73438 13.8132 9.67741 13.9316 9.56348C14.0547 9.44954 14.1162 9.2946 14.1162 9.09863V4.9834C14.1162 4.78288 14.0547 4.62565 13.9316 4.51172C13.8132 4.39323 13.6536 4.33398 13.4531 4.33398H12.0039C11.7988 4.33398 11.637 4.39323 11.5186 4.51172C11.4001 4.62565 11.3408 4.78288 11.3408 4.9834V9.09863Z" fill="#8835E7"/>
</svg>
