<svg width="10" height="10" viewBox="0 0 10 10" fill="none" xmlns="http://www.w3.org/2000/svg">
<path fill-rule="evenodd" clip-rule="evenodd" d="M7.3857 4.96805C7.37929 4.83595 7.32998 4.71039 7.24628 4.61301L3.42213 0.182083C3.29286 0.0330235 3.09906 -0.0309497 2.91373 0.0142633C2.7284 0.0594762 2.57971 0.207006 2.52366 0.401274C2.46762 0.595543 2.51273 0.807034 2.64202 0.956075L6.1309 5L2.64202 9.04392C2.51274 9.193 2.46762 9.40442 2.52366 9.59875C2.57971 9.793 2.7284 9.9405 2.91373 9.98575C3.09906 10.0309 3.29286 9.967 3.42213 9.81792L7.24628 5.38699C7.34405 5.27341 7.39439 5.12216 7.3857 4.96805Z" fill="#646F85"/>
</svg>
