<svg width="10" height="10" viewBox="0 0 10 10" fill="none" xmlns="http://www.w3.org/2000/svg">
<path fill-rule="evenodd" clip-rule="evenodd" d="M2.50096 4.96805C2.50737 4.83595 2.55668 4.71039 2.64038 4.61301L6.46454 0.182083C6.59381 0.0330235 6.78761 -0.0309497 6.97294 0.0142633C7.15826 0.0594762 7.30696 0.207006 7.36301 0.401274C7.41905 0.595543 7.37393 0.807034 7.24464 0.956075L3.75577 5L7.24464 9.04392C7.37393 9.193 7.41905 9.40442 7.36301 9.59875C7.30696 9.793 7.15826 9.9405 6.97294 9.98575C6.78761 10.0309 6.59381 9.967 6.46454 9.81792L2.64038 5.38699C2.54262 5.27341 2.49228 5.12216 2.50096 4.96805Z" fill="#646F85"/>
</svg>
