<svg width="6" height="13" viewBox="0 0 6 13" fill="none" xmlns="http://www.w3.org/2000/svg">
<path fill-rule="evenodd" clip-rule="evenodd" d="M0.00118087 6.46166C0.00905393 6.30314 0.069596 6.15246 0.172368 6.03561L4.86778 0.718499C5.0265 0.539628 5.26446 0.46286 5.49201 0.517116C5.71956 0.571371 5.90213 0.748407 5.97095 0.981529C6.03976 1.21465 5.98436 1.46844 5.82562 1.64729L1.54187 6.5L5.82562 11.3527C5.98436 11.5316 6.03976 11.7853 5.97095 12.0185C5.90213 12.2516 5.71956 12.4286 5.49201 12.4829C5.26446 12.5371 5.0265 12.4604 4.86778 12.2815L0.172368 6.96439C0.0523254 6.82809 -0.00947741 6.64659 0.00118087 6.46166Z" fill="#A8AEB7"/>
</svg>
