<svg width="10" height="10" viewBox="0 0 10 10" fill="none" xmlns="http://www.w3.org/2000/svg">
<path fill-rule="evenodd" clip-rule="evenodd" d="M4.96804 7.44176C4.83595 7.43539 4.71039 7.3861 4.613 7.30237L0.182085 3.47918C0.0330224 3.34994 -0.0309495 3.15619 0.0142634 2.97091C0.0594769 2.78563 0.207004 2.63697 0.401277 2.58093C0.595543 2.52491 0.807035 2.57002 0.956073 2.69927L5 6.18729L9.0439 2.69927C9.19296 2.57002 9.40447 2.52491 9.5987 2.58093C9.79299 2.63697 9.94055 2.78563 9.98572 2.97091C10.031 3.15619 9.967 3.34994 9.81795 3.47918L5.387 7.30237C5.27341 7.40014 5.12215 7.45043 4.96804 7.44176Z" fill="#646F85"/>
</svg>
