<svg width="32" height="29" viewBox="0 0 32 29" fill="none" xmlns="http://www.w3.org/2000/svg">
<path d="M4.83984 10.0625C5.02702 10.0999 5.20296 10.0662 5.36768 9.96143C5.53239 9.85661 5.63346 9.70687 5.6709 9.51221C5.70833 9.32503 5.67464 9.15283 5.56982 8.99561C5.46501 8.83089 5.31527 8.72607 5.12061 8.68115L1.875 7.98486C1.66536 7.93994 1.47445 7.97738 1.30225 8.09717C1.13753 8.20947 1.04395 8.3667 1.02148 8.56885C0.991536 8.75602 1.02897 8.92822 1.13379 9.08545C1.24609 9.24268 1.39583 9.34001 1.58301 9.37744L4.83984 10.0625ZM5.97412 6.32275C6.11637 6.46501 6.28483 6.53613 6.47949 6.53613C6.68164 6.53613 6.8501 6.46501 6.98486 6.32275C7.11963 6.18799 7.18701 6.02327 7.18701 5.82861C7.18701 5.63395 7.11963 5.46549 6.98486 5.32324L4.62646 2.97607C4.48421 2.82633 4.31576 2.75521 4.12109 2.7627C3.93392 2.7627 3.76921 2.83382 3.62695 2.97607C3.4847 3.11833 3.40983 3.28304 3.40234 3.47021C3.40234 3.65739 3.47721 3.82585 3.62695 3.97559L5.97412 6.32275ZM10.1631 5.21094C10.3577 5.1735 10.5112 5.07243 10.6235 4.90771C10.7358 4.73551 10.7695 4.55957 10.7246 4.37988L10.0283 1.13428C9.9834 0.939616 9.87858 0.789876 9.71387 0.685059C9.54915 0.580241 9.37321 0.546549 9.18604 0.583984C8.99137 0.621419 8.83789 0.722493 8.72559 0.887207C8.61328 1.05192 8.57959 1.23161 8.62451 1.42627L9.3208 4.66064C9.36572 4.84782 9.4668 4.99756 9.62402 5.10986C9.78874 5.22217 9.96842 5.25586 10.1631 5.21094ZM25.9307 25.6841C27.3307 24.2915 28.1393 22.7305 28.3564 21.001C28.5811 19.2715 28.2142 17.3997 27.2559 15.3857L24.729 10.0513C24.5493 9.68441 24.3397 9.38118 24.1001 9.1416C23.6808 8.72233 23.1979 8.52018 22.6514 8.53516C22.1048 8.54264 21.6294 8.75228 21.2251 9.16406C20.9481 9.43359 20.7721 9.76676 20.6973 10.1636C20.6299 10.5529 20.6898 10.9722 20.877 11.4214L21.6182 13.207C21.6406 13.2594 21.6369 13.3006 21.6069 13.3306C21.5695 13.368 21.5246 13.3643 21.4722 13.3193L15.1045 6.95166C14.6403 6.48747 14.1387 6.25537 13.5996 6.25537C13.0605 6.24788 12.5701 6.46501 12.1284 6.90674C11.9637 7.07145 11.8364 7.25488 11.7466 7.45703C11.6642 7.65169 11.6193 7.85384 11.6118 8.06348C11.1476 7.71159 10.6722 7.54313 10.1855 7.55811C9.70638 7.57308 9.27214 7.77897 8.88281 8.17578C8.49349 8.55762 8.29134 8.99561 8.27637 9.48975C8.26139 9.9764 8.41862 10.4443 8.74805 10.8936C8.33626 10.901 7.97689 11.0583 7.66992 11.3652C7.25814 11.777 7.05973 12.2412 7.07471 12.7578C7.08968 13.2744 7.31429 13.7536 7.74854 14.1953L8.63574 15.0713C8.41862 15.0713 8.2015 15.12 7.98438 15.2173C7.77474 15.3071 7.58757 15.4382 7.42285 15.6104C7.01107 16.0221 6.81266 16.4976 6.82764 17.0366C6.8501 17.5682 7.08219 18.0549 7.52393 18.4966L14.3521 25.3247C15.5874 26.5601 16.8864 27.3911 18.249 27.8179C19.6117 28.2446 20.9518 28.2746 22.2695 27.9077C23.5947 27.5483 24.8151 26.8071 25.9307 25.6841ZM24.7964 24.6284C23.8605 25.5643 22.8573 26.1745 21.7866 26.459C20.7235 26.7435 19.6379 26.6948 18.5298 26.313C17.4217 25.9386 16.3361 25.2161 15.2729 24.1455L8.69189 17.5645C8.51969 17.3923 8.42985 17.2051 8.42236 17.0029C8.41488 16.7933 8.49349 16.6061 8.6582 16.4414C8.82292 16.2842 9.01009 16.2056 9.21973 16.2056C9.43685 16.2056 9.62777 16.2879 9.79248 16.4526L13.8579 20.5181C14.0002 20.6603 14.1649 20.7277 14.3521 20.7202C14.5467 20.7052 14.7114 20.6341 14.8462 20.5068C14.981 20.3721 15.0521 20.2074 15.0596 20.0127C15.0745 19.818 15.0109 19.6496 14.8687 19.5073L8.79297 13.4316C8.62077 13.2669 8.53092 13.0835 8.52344 12.8813C8.51595 12.6717 8.59456 12.4845 8.75928 12.3198C8.92399 12.1551 9.11117 12.0728 9.3208 12.0728C9.53792 12.0728 9.73258 12.1589 9.90479 12.3311L15.5649 17.9912C15.7147 18.141 15.8831 18.2121 16.0703 18.2046C16.265 18.1896 16.4259 18.1147 16.5532 17.98C16.688 17.8452 16.7591 17.6842 16.7666 17.4971C16.7816 17.3024 16.7179 17.1302 16.5757 16.9805L9.92725 10.332C9.75505 10.1673 9.6652 9.98014 9.65771 9.77051C9.65771 9.55339 9.74007 9.36247 9.90479 9.19775C10.062 9.03304 10.2454 8.95443 10.4551 8.96191C10.6722 8.9694 10.8669 9.05924 11.0391 9.23145L17.6875 15.8799C17.8223 16.0146 17.9832 16.082 18.1704 16.082C18.3651 16.0745 18.5298 16.0034 18.6646 15.8687C18.8068 15.7264 18.8817 15.5579 18.8892 15.3633C18.8966 15.1686 18.833 15.0039 18.6982 14.8691L13.0269 9.19775C12.8547 9.03304 12.7686 8.84587 12.7686 8.63623C12.7686 8.4266 12.8509 8.23942 13.0156 8.07471C13.1729 7.90999 13.3563 7.83138 13.5659 7.83887C13.7756 7.83887 13.9665 7.92497 14.1387 8.09717L21.9551 15.9136C22.1497 16.1082 22.3556 16.2093 22.5728 16.2168C22.7899 16.2168 22.9808 16.1344 23.1455 15.9697C23.2878 15.8275 23.3813 15.659 23.4263 15.4644C23.4712 15.2697 23.4375 15.0301 23.3252 14.7456L21.9214 11.0508C21.8241 10.8037 21.8128 10.5828 21.8877 10.3882C21.9626 10.1935 22.0973 10.0513 22.292 9.96143C22.5016 9.8641 22.6963 9.8641 22.876 9.96143C23.0557 10.0513 23.2129 10.231 23.3477 10.5005L25.9531 16.0146C26.8216 17.8564 27.1211 19.4774 26.8516 20.8774C26.5895 22.27 25.9045 23.5203 24.7964 24.6284ZM15.0034 5.896C14.8387 6.05322 14.7114 6.23291 14.6216 6.43506C14.5392 6.63721 14.4906 6.8431 14.4756 7.05273L15.8906 8.18701C15.7259 8.0223 15.6398 7.83512 15.6323 7.62549C15.6323 7.40837 15.7147 7.21745 15.8794 7.05273C16.0441 6.88802 16.2313 6.80941 16.4409 6.81689C16.6506 6.82438 16.8415 6.91423 17.0137 7.08643L20.8208 10.9048L21.7305 9.69189L17.9795 5.94092C17.5078 5.47673 17.0024 5.24463 16.4634 5.24463C15.9318 5.23714 15.4451 5.45426 15.0034 5.896ZM28.8057 24.6846C30.1982 23.2845 31.0068 21.7235 31.2314 20.0015C31.4561 18.272 31.0892 16.3965 30.1309 14.375L27.5928 9.0293C27.3607 8.53516 27.0575 8.16081 26.6831 7.90625C26.3088 7.65169 25.8932 7.52441 25.4365 7.52441C25.2568 7.52441 25.0547 7.55811 24.8301 7.62549C24.6055 7.69287 24.3883 7.80518 24.1787 7.9624C23.9691 8.11214 23.7969 8.31429 23.6621 8.56885C23.5273 8.8234 23.46 9.13411 23.46 9.50098C23.46 9.63574 23.4674 9.76302 23.4824 9.88281L24.8188 10.2534C24.744 10.0887 24.7065 9.92773 24.7065 9.77051C24.7065 9.59082 24.7739 9.42611 24.9087 9.27637C25.0509 9.12663 25.2419 9.05176 25.4814 9.05176C25.8333 9.05176 26.0954 9.24268 26.2676 9.62451L28.8169 15.0039C29.6854 16.8382 29.9886 18.4554 29.7266 19.8555C29.4645 21.2555 28.7757 22.5059 27.6602 23.6064C26.7542 24.5124 25.7959 25.1113 24.7852 25.4033L23.1455 27.1328C24.1488 27.1628 25.1296 26.9718 26.0879 26.5601C27.0537 26.1483 27.9596 25.5231 28.8057 24.6846Z" fill="#9742FB"/>
</svg>
