<svg width="11" height="10" viewBox="0 0 11 10" fill="none" xmlns="http://www.w3.org/2000/svg">
<path d="M1.00586 9.39453C1.07618 9.46094 1.15625 9.50586 1.2461 9.5293C1.33594 9.55273 1.42578 9.55273 1.51563 9.5293C1.60547 9.50586 1.6836 9.46094 1.75 9.39453L5.5 5.64453L9.25 9.39453C9.31641 9.46094 9.39454 9.50586 9.48438 9.5293C9.57422 9.55273 9.66407 9.55273 9.75391 9.5293C9.84766 9.50977 9.92774 9.46484 9.99414 9.39453C10.0606 9.32812 10.1035 9.25 10.1231 9.16016C10.1465 9.07031 10.1465 8.98047 10.1231 8.89062C10.1035 8.80078 10.0606 8.72266 9.99414 8.65625L6.24414 4.90039L9.99414 1.15039C10.0606 1.08398 10.1055 1.00586 10.1289 0.916016C10.1523 0.826172 10.1523 0.736328 10.1289 0.646484C10.1055 0.556641 10.0606 0.478516 9.99414 0.412109C9.92383 0.341797 9.84375 0.296875 9.75391 0.277344C9.66407 0.253906 9.57422 0.253906 9.48438 0.277344C9.39454 0.296875 9.31641 0.341797 9.25 0.412109L5.5 4.16211L1.75 0.412109C1.6836 0.341797 1.60352 0.296875 1.50977 0.277344C1.41993 0.253906 1.33008 0.253906 1.24024 0.277344C1.15039 0.296875 1.07227 0.341797 1.00586 0.412109C0.939457 0.478516 0.894535 0.556641 0.871097 0.646484C0.851566 0.736328 0.851566 0.826172 0.871097 0.916016C0.894535 1.00586 0.939457 1.08398 1.00586 1.15039L4.75586 4.90039L1.00586 8.65625C0.939457 8.72266 0.894535 8.80078 0.871097 8.89062C0.84766 8.98047 0.845707 9.07031 0.865238 9.16016C0.888675 9.25 0.93555 9.32812 1.00586 9.39453Z" fill="black"/>
</svg>
