<svg width="19" height="20" viewBox="0 0 19 20" fill="none" xmlns="http://www.w3.org/2000/svg">
<path d="M9.35454 19.2241C10.6324 19.2241 11.8338 18.9774 12.9588 18.4839C14.0899 17.9904 15.0865 17.3088 15.9486 16.439C16.8107 15.5692 17.4863 14.5668 17.9754 13.4318C18.4645 12.2906 18.7091 11.0754 18.7091 9.78614C18.7091 8.4969 18.4645 7.28476 17.9754 6.14974C17.4863 5.00854 16.8107 4.00305 15.9486 3.13328C15.0865 2.2635 14.0899 1.58187 12.9588 1.08838C11.8277 0.59489 10.6232 0.348145 9.34537 0.348145C8.06753 0.348145 6.86306 0.59489 5.73195 1.08838C4.60696 1.58187 3.61342 2.2635 2.75134 3.13328C1.89537 4.00305 1.22282 5.00854 0.73369 6.14974C0.244563 7.28476 0 8.4969 0 9.78614C0 11.0754 0.244563 12.2906 0.73369 13.4318C1.22282 14.5668 1.89842 15.5692 2.76051 16.439C3.62259 17.3088 4.61613 17.9904 5.74112 18.4839C6.87223 18.9774 8.0767 19.2241 9.35454 19.2241ZM9.35454 17.6511C8.27235 17.6511 7.26047 17.4476 6.3189 17.0404C5.37733 16.6333 4.54888 16.072 3.83353 15.3564C3.1243 14.6347 2.56791 13.7988 2.16438 12.8489C1.76697 11.8989 1.56826 10.878 1.56826 9.78614C1.56826 8.69429 1.76697 7.67339 2.16438 6.72342C2.56791 5.77345 3.1243 4.9376 3.83353 4.21587C4.54276 3.49414 5.36816 2.9328 6.30973 2.53184C7.2513 2.12471 8.26318 1.92114 9.34537 1.92114C10.4276 1.92114 11.4394 2.12471 12.381 2.53184C13.3226 2.9328 14.151 3.49414 14.8664 4.21587C15.5817 4.9376 16.1412 5.77345 16.5447 6.72342C16.9482 7.67339 17.15 8.69429 17.15 9.78614C17.15 10.878 16.9482 11.8989 16.5447 12.8489C16.1473 13.7988 15.5909 14.6347 14.8756 15.3564C14.1663 16.072 13.3379 16.6333 12.3902 17.0404C11.4486 17.4476 10.4367 17.6511 9.35454 17.6511ZM9.34537 13.3208C9.98124 13.3208 10.5651 13.1604 11.0971 12.8396C11.629 12.5188 12.0539 12.0932 12.3718 11.5627C12.6898 11.026 12.8487 10.4308 12.8487 9.77689C12.8487 9.12918 12.6898 8.54008 12.3718 8.00958C12.0539 7.47907 11.629 7.05344 11.0971 6.73267C10.5651 6.4119 9.98124 6.25152 9.34537 6.25152C8.70339 6.25152 8.11644 6.4119 7.58452 6.73267C7.05259 7.05344 6.62766 7.47907 6.30973 8.00958C5.9918 8.54008 5.83283 9.12918 5.83283 9.77689C5.83283 10.4308 5.9918 11.026 6.30973 11.5627C6.62766 12.0932 7.05259 12.5188 7.58452 12.8396C8.11644 13.1604 8.70339 13.3208 9.34537 13.3208ZM9.35454 11.8588C8.97547 11.8588 8.63003 11.7663 8.31821 11.5812C8.00639 11.39 7.75877 11.1371 7.57535 10.8225C7.39192 10.5079 7.30021 10.1593 7.30021 9.77689C7.30021 9.4006 7.39192 9.05824 7.57535 8.74981C7.76488 8.43521 8.01556 8.18538 8.32738 8.00032C8.6392 7.8091 8.98159 7.71348 9.35454 7.71348C9.7275 7.71348 10.0668 7.8091 10.3725 8.00032C10.6782 8.18538 10.9228 8.43521 11.1062 8.74981C11.2958 9.05824 11.3905 9.4006 11.3905 9.77689C11.3905 10.1593 11.2958 10.5079 11.1062 10.8225C10.9228 11.1371 10.6782 11.39 10.3725 11.5812C10.0668 11.7663 9.7275 11.8588 9.35454 11.8588Z" fill="#3D4767"/>
</svg>
