<svg width="19" height="20" viewBox="0 0 19 20" fill="none" xmlns="http://www.w3.org/2000/svg">
<path d="M9.35454 19.2244C10.6324 19.2244 11.8338 18.9776 12.9588 18.4841C14.0899 17.9907 15.0865 17.309 15.9486 16.4392C16.8107 15.5695 17.4863 14.5671 17.9754 13.432C18.4645 12.2908 18.7091 11.0756 18.7091 9.78638C18.7091 8.49714 18.4645 7.28501 17.9754 6.14998C17.4863 5.00878 16.8107 4.0033 15.9486 3.13352C15.0865 2.26375 14.0899 1.58211 12.9588 1.08862C11.8277 0.595134 10.6232 0.348389 9.34537 0.348389C8.06753 0.348389 6.86306 0.595134 5.73195 1.08862C4.60696 1.58211 3.61342 2.26375 2.75134 3.13352C1.89537 4.0033 1.22282 5.00878 0.73369 6.14998C0.244563 7.28501 0 8.49714 0 9.78638C0 11.0756 0.244563 12.2908 0.73369 13.432C1.22282 14.5671 1.89842 15.5695 2.76051 16.4392C3.62259 17.309 4.61613 17.9907 5.74112 18.4841C6.87223 18.9776 8.0767 19.2244 9.35454 19.2244ZM9.35454 13.4413C8.68811 13.4413 8.07976 13.2778 7.52949 12.9509C6.97922 12.6178 6.53901 12.1736 6.20885 11.6185C5.8848 11.0633 5.72278 10.4495 5.72278 9.77713C5.72278 9.11092 5.8848 8.50331 6.20885 7.9543C6.53901 7.39913 6.97922 6.95807 7.52949 6.63113C8.07976 6.29803 8.68811 6.13147 9.35454 6.13147C10.0149 6.13147 10.6171 6.29803 11.1613 6.63113C11.7115 6.95807 12.1517 7.39913 12.4819 7.9543C12.8121 8.50331 12.9771 9.11092 12.9771 9.77713C12.9771 10.4495 12.8121 11.0633 12.4819 11.6185C12.1517 12.1736 11.7115 12.6178 11.1613 12.9509C10.6171 13.2778 10.0149 13.4413 9.35454 13.4413ZM9.36372 11.9238C9.7489 11.9238 10.1005 11.8282 10.4184 11.637C10.7363 11.4396 10.9901 11.1805 11.1796 10.8597C11.3691 10.5328 11.4639 10.1719 11.4639 9.77713C11.4639 9.38851 11.3691 9.03381 11.1796 8.71304C10.9901 8.39227 10.7363 8.13628 10.4184 7.94505C10.1005 7.74765 9.7489 7.64896 9.36372 7.64896C8.97853 7.64896 8.62391 7.74765 8.29987 7.94505C7.98193 8.13628 7.72514 8.39227 7.52949 8.71304C7.33995 9.03381 7.24519 9.38851 7.24519 9.77713C7.24519 10.1719 7.33995 10.5328 7.52949 10.8597C7.71903 11.1805 7.97276 11.4396 8.29069 11.637C8.61474 11.8282 8.97241 11.9238 9.36372 11.9238Z" fill="#7700D5"/>
</svg>
