<svg width="19" height="20" viewBox="0 0 19 20" fill="none" xmlns="http://www.w3.org/2000/svg">
<path d="M9.35454 19.2239C10.6324 19.2239 11.8338 18.9771 12.9588 18.4837C14.0899 17.9902 15.0865 17.3085 15.9486 16.4388C16.8107 15.569 17.4863 14.5666 17.9754 13.4316C18.4645 12.2904 18.7091 11.0751 18.7091 9.7859C18.7091 8.49665 18.4645 7.28452 17.9754 6.14949C17.4863 5.0083 16.8107 4.00281 15.9486 3.13303C15.0865 2.26326 14.0899 1.58163 12.9588 1.08814C11.8277 0.594645 10.6232 0.3479 9.34537 0.3479C8.06753 0.3479 6.86306 0.594645 5.73195 1.08814C4.60696 1.58163 3.61342 2.26326 2.75134 3.13303C1.89537 4.00281 1.22282 5.0083 0.73369 6.14949C0.244563 7.28452 0 8.49665 0 9.7859C0 11.0751 0.244563 12.2904 0.73369 13.4316C1.22282 14.5666 1.89842 15.569 2.76051 16.4388C3.62259 17.3085 4.61613 17.9902 5.74112 18.4837C6.87223 18.9771 8.0767 19.2239 9.35454 19.2239ZM9.35454 17.6509C8.27235 17.6509 7.26047 17.4473 6.3189 17.0402C5.37733 16.6331 4.54888 16.0717 3.83353 15.3562C3.1243 14.6344 2.56791 13.7986 2.16438 12.8486C1.76697 11.8986 1.56826 10.8777 1.56826 9.7859C1.56826 8.69405 1.76697 7.67314 2.16438 6.72317C2.56791 5.77321 3.1243 4.93736 3.83353 4.21563C4.54276 3.4939 5.36816 2.93255 6.30973 2.53159C7.2513 2.12446 8.26318 1.9209 9.34537 1.9209C10.4276 1.9209 11.4394 2.12446 12.381 2.53159C13.3226 2.93255 14.151 3.4939 14.8664 4.21563C15.5817 4.93736 16.1412 5.77321 16.5447 6.72317C16.9482 7.67314 17.15 8.69405 17.15 9.7859C17.15 10.8777 16.9482 11.8986 16.5447 12.8486C16.1473 13.7986 15.5909 14.6344 14.8756 15.3562C14.1663 16.0717 13.3379 16.6331 12.3902 17.0402C11.4486 17.4473 10.4367 17.6509 9.35454 17.6509ZM9.34537 13.3205C9.98124 13.3205 10.5651 13.1601 11.0971 12.8394C11.629 12.5186 12.0539 12.093 12.3718 11.5625C12.6898 11.0258 12.8487 10.4305 12.8487 9.77664C12.8487 9.12894 12.6898 8.53983 12.3718 8.00933C12.0539 7.47883 11.629 7.05319 11.0971 6.73243C10.5651 6.41166 9.98124 6.25127 9.34537 6.25127C8.70339 6.25127 8.11644 6.41166 7.58452 6.73243C7.05259 7.05319 6.62766 7.47883 6.30973 8.00933C5.9918 8.53983 5.83283 9.12894 5.83283 9.77664C5.83283 10.4305 5.9918 11.0258 6.30973 11.5625C6.62766 12.093 7.05259 12.5186 7.58452 12.8394C8.11644 13.1601 8.70339 13.3205 9.34537 13.3205ZM9.35454 11.8586C8.97547 11.8586 8.63003 11.766 8.31821 11.581C8.00639 11.3897 7.75877 11.1368 7.57535 10.8222C7.39192 10.5076 7.30021 10.1591 7.30021 9.77664C7.30021 9.40036 7.39192 9.058 7.57535 8.74957C7.76488 8.43497 8.01556 8.18514 8.32738 8.00008C8.6392 7.80885 8.98159 7.71324 9.35454 7.71324C9.7275 7.71324 10.0668 7.80885 10.3725 8.00008C10.6782 8.18514 10.9228 8.43497 11.1062 8.74957C11.2958 9.058 11.3905 9.40036 11.3905 9.77664C11.3905 10.1591 11.2958 10.5076 11.1062 10.8222C10.9228 11.1368 10.6782 11.3897 10.3725 11.581C10.0668 11.766 9.7275 11.8586 9.35454 11.8586Z" fill="#3D4767"/>
</svg>
