<svg width="20" height="19" viewBox="0 0 20 19" fill="none" xmlns="http://www.w3.org/2000/svg">
    <path d="M13.7594 4.43851L13.7594 6.15977L12.7045 6.15977L12.7045 4.45212C12.7045 4.11195 12.6171 3.85115 12.4424 3.66973C12.2677 3.4883 12.01 3.39759 11.6693 3.39759L5.15652 3.39759C4.81581 3.39759 4.5581 3.4883 4.38337 3.66973C4.20865 3.85115 4.12129 4.11195 4.12129 4.45212L4.12129 11.2487C4.12129 11.5843 4.20865 11.8429 4.38337 12.0243C4.5581 12.2102 4.81581 12.3032 5.15652 12.3032L6.59142 12.3032L6.59142 13.3986L5.09755 13.3986C4.42487 13.3986 3.91818 13.2194 3.57747 12.8611C3.23676 12.5073 3.06641 11.9767 3.06641 11.2691L3.06641 4.43851C3.06641 3.72642 3.23676 3.19122 3.57747 2.83291C3.91381 2.47913 4.4205 2.30225 5.09755 2.30225L11.7282 2.30225C12.4053 2.30225 12.9142 2.47913 13.2549 2.83291C13.5912 3.19122 13.7594 3.72642 13.7594 4.43851ZM16.793 7.73815L16.793 14.5687C16.793 15.2763 16.6226 15.807 16.2819 16.1607C15.9412 16.5191 15.4345 16.6982 14.7619 16.6982L8.13116 16.6982C7.45848 16.6982 6.95179 16.5191 6.61108 16.1607C6.27037 15.807 6.10002 15.2763 6.10002 14.5687L6.10002 7.73815C6.10002 7.02606 6.27037 6.49086 6.61108 6.13255C6.94742 5.77878 7.45411 5.60189 8.13116 5.60189L14.7619 5.60189C15.4389 5.60189 15.9456 5.77878 16.2819 6.13255C16.6226 6.49086 16.793 7.02606 16.793 7.73815ZM15.7381 7.75176C15.7381 7.41159 15.6508 7.15079 15.476 6.96937C15.3013 6.78794 15.0436 6.69723 14.7029 6.69723L8.19013 6.69723C7.84942 6.69723 7.59171 6.78794 7.41698 6.96937C7.24226 7.15079 7.1549 7.41159 7.1549 7.75176L7.1549 14.5483C7.1549 14.884 7.24226 15.1425 7.41698 15.3239C7.59171 15.5099 7.84942 15.6029 8.19013 15.6029L14.7029 15.6029C15.0436 15.6029 15.3013 15.5099 15.476 15.3239C15.6508 15.1425 15.7381 14.884 15.7381 14.5483L15.7381 7.75176Z" fill="white"/>
</svg>
