<svg width="21" height="21" viewBox="0 0 21 21" fill="none" xmlns="http://www.w3.org/2000/svg">
<path d="M4.69522 14.5649H6.51612V13.4062H4.70962C4.34976 13.4062 4.07387 13.3102 3.88194 13.1183C3.69001 12.9264 3.59405 12.6433 3.59405 12.269V5.115C3.59405 4.74074 3.69001 4.45765 3.88194 4.26573C4.07387 4.0738 4.34976 3.97784 4.70962 3.97784H11.8996C12.2547 3.97784 12.5282 4.0738 12.7201 4.26573C12.9168 4.45765 13.0152 4.74074 13.0152 5.115V6.69119H14.1739V5.05022C14.1739 4.31131 13.9844 3.75473 13.6054 3.38047C13.2311 3.00622 12.6697 2.81909 11.9212 2.81909H4.69522C3.94192 2.81909 3.37574 3.00622 2.99668 3.38047C2.62243 3.74993 2.4353 4.30651 2.4353 5.05022V12.3338C2.4353 13.0775 2.62243 13.6365 2.99668 14.0107C3.37574 14.3802 3.94192 14.5649 4.69522 14.5649ZM8.18587 17.8972H15.4119C16.1604 17.8972 16.7217 17.7101 17.096 17.3358C17.4751 16.9616 17.6646 16.405 17.6646 15.6661V8.38253C17.6646 7.64362 17.4751 7.08703 17.096 6.71278C16.7217 6.33852 16.1604 6.1514 15.4119 6.1514H8.18587C7.43256 6.1514 6.86638 6.33852 6.48733 6.71278C6.11307 7.08223 5.92594 7.63882 5.92594 8.38253V15.6661C5.92594 16.4098 6.11307 16.9664 6.48733 17.3358C6.86638 17.7101 7.43256 17.8972 8.18587 17.8972ZM8.20026 16.7385C7.8404 16.7385 7.56451 16.6425 7.37258 16.4506C7.18066 16.2587 7.08469 15.9756 7.08469 15.6013V8.4473C7.08469 8.07305 7.18066 7.78996 7.37258 7.59803C7.56451 7.40611 7.8404 7.31014 8.20026 7.31014H15.3903C15.7453 7.31014 16.0188 7.40611 16.2107 7.59803C16.4075 7.78996 16.5058 8.07305 16.5058 8.4473V15.6013C16.5058 15.9756 16.4075 16.2587 16.2107 16.4506C16.0188 16.6425 15.7453 16.7385 15.3903 16.7385H8.20026Z" fill="white"/>
</svg>
