<svg width="13" height="14" viewBox="0 0 13 14" fill="none" xmlns="http://www.w3.org/2000/svg">
<path d="M1.95535 10.2683H3.48913V9.29229H1.96747C1.66435 9.29229 1.43196 9.21146 1.2703 9.0498C1.10863 8.88813 1.0278 8.64968 1.0278 8.33443V2.30841C1.0278 1.99317 1.10863 1.75472 1.2703 1.59305C1.43196 1.43139 1.66435 1.35056 1.96747 1.35056H8.0238C8.32288 1.35056 8.55325 1.43139 8.71492 1.59305C8.88062 1.75472 8.96347 1.99317 8.96347 2.30841V3.63608H9.93952V2.25385C9.93952 1.63145 9.77987 1.16262 9.46059 0.847378C9.14534 0.532134 8.67248 0.374512 8.04199 0.374512H1.95535C1.32082 0.374512 0.84391 0.532134 0.524624 0.847378C0.20938 1.15858 0.0517578 1.62741 0.0517578 2.25385V8.38899C0.0517578 9.01544 0.20938 9.48629 0.524624 9.80153C0.84391 10.1127 1.32082 10.2683 1.95535 10.2683ZM4.89561 13.0752H10.9822C11.6127 13.0752 12.0856 12.9176 12.4008 12.6024C12.7201 12.2871 12.8798 11.8183 12.8798 11.1959V5.06074C12.8798 4.43833 12.7201 3.96951 12.4008 3.65427C12.0856 3.33902 11.6127 3.1814 10.9822 3.1814H4.89561C4.26108 3.1814 3.78417 3.33902 3.46488 3.65427C3.14964 3.96547 2.99202 4.43429 2.99202 5.06074V11.1959C2.99202 11.8223 3.14964 12.2912 3.46488 12.6024C3.78417 12.9176 4.26108 13.0752 4.89561 13.0752ZM4.90773 12.0992C4.60461 12.0992 4.37222 12.0183 4.21056 11.8567C4.04889 11.695 3.96806 11.4566 3.96806 11.1413V5.1153C3.96806 4.80006 4.04889 4.5616 4.21056 4.39994C4.37222 4.23828 4.60461 4.15744 4.90773 4.15744H10.9641C11.2631 4.15744 11.4935 4.23828 11.6552 4.39994C11.8209 4.5616 11.9037 4.80006 11.9037 5.1153V11.1413C11.9037 11.4566 11.8209 11.695 11.6552 11.8567C11.4935 12.0183 11.2631 12.0992 10.9641 12.0992H4.90773Z" fill="#9742FB"/>
</svg>
