<svg width="19" height="20" viewBox="0 0 19 20" fill="none" xmlns="http://www.w3.org/2000/svg">
<path d="M8.03866 15.7214C8.35294 15.7214 8.60092 15.5839 8.78261 15.3089L15.7434 4.34843C15.8072 4.24531 15.8539 4.15201 15.8833 4.06853C15.9128 3.98014 15.9275 3.89175 15.9275 3.80335C15.9275 3.60202 15.8662 3.43997 15.7434 3.3172C15.6206 3.19444 15.4586 3.13306 15.2572 3.13306C15.1099 3.13306 14.9896 3.16252 14.8963 3.22145C14.803 3.27546 14.7122 3.37122 14.6238 3.50872L8.00919 14.0493L4.57668 9.55613C4.3999 9.31551 4.18874 9.1952 3.94321 9.1952C3.73697 9.1952 3.56755 9.26149 3.43496 9.39408C3.30238 9.52176 3.23608 9.68626 3.23608 9.8876C3.23608 9.97599 3.25327 10.0668 3.28765 10.1601C3.32202 10.2485 3.37604 10.3369 3.4497 10.4253L7.2726 15.2942C7.49358 15.579 7.74893 15.7214 8.03866 15.7214Z" fill="#15D533"/>
</svg>
