<svg width="21" height="21" viewBox="0 0 21 21" fill="none" xmlns="http://www.w3.org/2000/svg">
<path d="M2.47986 20.5795H18.1887C18.6887 20.5795 19.122 20.4653 19.4886 20.2368C19.8553 20.0153 20.1353 19.7108 20.3286 19.3231C20.5286 18.9424 20.6286 18.5168 20.6286 18.0461C20.6286 17.8315 20.6019 17.6204 20.5486 17.4127C20.4952 17.2051 20.4152 17.0009 20.3086 16.8001L12.4391 2.21227C12.2125 1.79004 11.9092 1.47163 11.5292 1.25705C11.1492 1.03555 10.7526 0.924805 10.3393 0.924805C9.92599 0.924805 9.52602 1.03555 9.13938 1.25705C8.75941 1.47163 8.4561 1.79004 8.22945 2.21227L0.370015 16.8105C0.150031 17.2258 0.0400391 17.6377 0.0400391 18.0461C0.0400391 18.5168 0.140032 18.9424 0.340017 19.3231C0.540003 19.7108 0.819983 20.0153 1.17996 20.2368C1.5466 20.4653 1.9799 20.5795 2.47986 20.5795ZM10.3493 13.6334C9.816 13.6334 9.54269 13.3496 9.52935 12.782L9.39936 7.12334C9.3927 6.85339 9.47602 6.62843 9.64934 6.44846C9.82933 6.26849 10.0593 6.17851 10.3393 6.17851C10.6126 6.17851 10.8393 6.27195 11.0192 6.45884C11.2059 6.63881 11.2959 6.86377 11.2892 7.13373L11.1392 12.782C11.1326 13.3496 10.8693 13.6334 10.3493 13.6334ZM10.3493 17.1116C10.0493 17.1116 9.786 17.0043 9.55935 16.7897C9.33937 16.5752 9.22937 16.3121 9.22937 16.0006C9.22937 15.6961 9.33937 15.4331 9.55935 15.2116C9.77934 14.9901 10.0426 14.8793 10.3493 14.8793C10.6493 14.8793 10.9093 14.9901 11.1292 15.2116C11.3559 15.4261 11.4692 15.6892 11.4692 16.0006C11.4692 16.3121 11.3559 16.5752 11.1292 16.7897C10.9093 17.0043 10.6493 17.1116 10.3493 17.1116Z" fill="white"/>
</svg>
