<svg width="21" height="22" viewBox="0 0 21 22" fill="none" xmlns="http://www.w3.org/2000/svg">
<path d="M10.2213 7.29567C9.71953 7.29567 9.24885 7.39124 8.80923 7.58238C8.3696 7.77352 7.98015 8.03873 7.64088 8.378C7.30638 8.7125 7.04356 9.10195 6.85242 9.54635C6.66128 9.98598 6.56571 10.4567 6.56571 10.9584C6.56571 11.4601 6.66128 11.9308 6.85242 12.3705C7.04356 12.8101 7.30638 13.1995 7.64088 13.5388C7.98015 13.8733 8.3696 14.1361 8.80923 14.3273C9.24885 14.5184 9.71953 14.614 10.2213 14.614C10.7182 14.614 11.1865 14.5184 11.6262 14.3273C12.0706 14.1361 12.46 13.8733 12.7945 13.5388C13.129 13.1995 13.3918 12.8101 13.583 12.3705C13.7741 11.9308 13.8697 11.4601 13.8697 10.9584C13.8697 10.4567 13.7741 9.98598 13.583 9.54635C13.3918 9.10195 13.129 8.7125 12.7945 8.378C12.46 8.03873 12.0706 7.77352 11.6262 7.58238C11.1865 7.39124 10.7182 7.29567 10.2213 7.29567ZM10.852 3.80496C10.852 3.63293 10.7899 3.4848 10.6657 3.36056C10.5414 3.23632 10.3933 3.17419 10.2213 3.17419C10.054 3.17419 9.90828 3.23632 9.78404 3.36056C9.6598 3.4848 9.59768 3.63293 9.59768 3.80496V5.31019C9.59768 5.47744 9.6598 5.62319 9.78404 5.74743C9.90828 5.87167 10.054 5.93379 10.2213 5.93379C10.3933 5.93379 10.5414 5.87167 10.6657 5.74743C10.7899 5.62319 10.852 5.47744 10.852 5.31019V3.80496ZM13.7622 6.53588C13.6427 6.65535 13.583 6.80348 13.583 6.98029C13.583 7.15231 13.6427 7.29806 13.7622 7.41752C13.8816 7.53698 14.0274 7.5991 14.1994 7.60388C14.3762 7.60388 14.5267 7.54176 14.651 7.41752L15.719 6.34952C15.8384 6.23006 15.8982 6.08192 15.8982 5.90512C15.8982 5.72831 15.8384 5.58018 15.719 5.46072C15.5995 5.34125 15.4538 5.28152 15.2817 5.28152C15.1097 5.28152 14.964 5.34125 14.8445 5.46072L13.7622 6.53588ZM17.3532 11.582C17.5252 11.582 17.6734 11.5199 17.7976 11.3956C17.9219 11.2714 17.984 11.1257 17.984 10.9584C17.984 10.7864 17.9219 10.6406 17.7976 10.5212C17.6734 10.3969 17.5252 10.3348 17.3532 10.3348H15.8552C15.6879 10.3348 15.5422 10.3969 15.4179 10.5212C15.2937 10.6406 15.2316 10.7864 15.2316 10.9584C15.2316 11.1257 15.2937 11.2714 15.4179 11.3956C15.5422 11.5199 15.6879 11.582 15.8552 11.582H17.3532ZM14.6438 14.5065C14.5243 14.387 14.3762 14.3273 14.1994 14.3273C14.0274 14.3273 13.8816 14.387 13.7622 14.5065C13.6427 14.6259 13.583 14.7717 13.583 14.9437C13.583 15.1157 13.6427 15.2639 13.7622 15.3881L14.8445 16.4633C14.964 16.5827 15.1097 16.6401 15.2817 16.6353C15.4538 16.6353 15.5995 16.5756 15.719 16.4561C15.8384 16.3366 15.8982 16.1909 15.8982 16.0189C15.8982 15.8421 15.8384 15.6939 15.719 15.5745L14.6438 14.5065ZM10.852 16.6066C10.852 16.4346 10.7899 16.2865 10.6657 16.1622C10.5414 16.038 10.3933 15.9759 10.2213 15.9759C10.054 15.9759 9.90828 16.038 9.78404 16.1622C9.6598 16.2865 9.59768 16.4346 9.59768 16.6066V18.1118C9.59768 18.2791 9.6598 18.4248 9.78404 18.5491C9.90828 18.6733 10.054 18.7354 10.2213 18.7354C10.3933 18.7354 10.5414 18.6733 10.6657 18.5491C10.7899 18.4248 10.852 18.2791 10.852 18.1118V16.6066ZM4.72359 15.5673C4.60413 15.6868 4.5444 15.8349 4.5444 16.0117C4.5444 16.1837 4.60174 16.3295 4.71642 16.4489C4.83589 16.5684 4.98402 16.6281 5.16083 16.6281C5.33763 16.6329 5.48576 16.5756 5.60523 16.4561L6.67323 15.3881C6.79269 15.2686 6.85242 15.1229 6.85242 14.9509C6.8572 14.7741 6.79986 14.6259 6.68039 14.5065C6.56093 14.387 6.4128 14.3273 6.23599 14.3273C6.05919 14.3273 5.91105 14.387 5.79159 14.5065L4.72359 15.5673ZM3.08934 10.3348C2.92209 10.3348 2.77634 10.3969 2.6521 10.5212C2.52786 10.6406 2.46574 10.7864 2.46574 10.9584C2.46574 11.1257 2.52786 11.2714 2.6521 11.3956C2.77634 11.5199 2.92209 11.582 3.08934 11.582H4.5874C4.75943 11.582 4.90756 11.5199 5.03181 11.3956C5.15605 11.2714 5.21817 11.1257 5.21817 10.9584C5.21817 10.7864 5.15605 10.6406 5.03181 10.5212C4.90756 10.3969 4.75943 10.3348 4.5874 10.3348H3.08934ZM5.79159 7.41752C5.91105 7.53698 6.0568 7.59672 6.22882 7.59672C6.40563 7.59672 6.55376 7.53698 6.67323 7.41752C6.79269 7.30284 6.85242 7.15709 6.85242 6.98029C6.8572 6.7987 6.79986 6.65057 6.68039 6.53588L5.6124 5.46072C5.49771 5.34603 5.35197 5.28869 5.17516 5.28869C5.00313 5.28391 4.855 5.34125 4.73076 5.46072C4.6113 5.58018 4.55156 5.72831 4.55156 5.90512C4.55156 6.07715 4.60891 6.22289 4.72359 6.34235L5.79159 7.41752Z" fill="#7700D5"/>
</svg>
