<svg width="9" height="15" viewBox="0 0 9 15" fill="white" xmlns="http://www.w3.org/2000/svg">
<path d="M4.04646 14.0892C4.21095 14.0892 4.34666 14.0402 4.45358 13.9423C4.5605 13.8362 4.61396 13.6974 4.61396 13.5259V12.7055C5.61735 12.6076 6.44802 12.2851 7.10598 11.7382C7.77217 11.1912 8.10526 10.4565 8.10526 9.53408C8.10526 8.69326 7.83385 8.02387 7.29104 7.52591C6.75644 7.02794 5.95455 6.681 4.88537 6.48508L4.61396 6.42386V3.35037C5.00873 3.42384 5.34183 3.57486 5.61323 3.80343C5.88464 4.03201 6.08203 4.32997 6.2054 4.69732C6.38634 5.12181 6.6742 5.33406 7.06897 5.33406C7.32393 5.33406 7.52544 5.26059 7.67348 5.11365C7.82974 4.96671 7.90788 4.77487 7.90788 4.53813C7.90788 4.46466 7.89965 4.39527 7.8832 4.32997C7.87498 4.2565 7.86264 4.18711 7.84619 4.1218C7.67348 3.48506 7.29515 2.95445 6.71121 2.52996C6.13549 2.10546 5.43641 1.8524 4.61396 1.77077V0.950354C4.61396 0.778924 4.5605 0.644229 4.45358 0.54627C4.34666 0.440147 4.21095 0.387085 4.04646 0.387085C3.67636 0.387085 3.49131 0.574841 3.49131 0.950354V1.77077C2.52082 1.86873 1.72304 2.19526 1.09797 2.75037C0.481134 3.29731 0.172715 3.99527 0.172715 4.84426C0.172715 5.6361 0.435899 6.27692 0.962269 6.76672C1.48864 7.24835 2.26586 7.60346 3.29392 7.83203L3.49131 7.88101V11.1382C2.98961 11.0647 2.59072 10.9014 2.29464 10.6484C1.99856 10.3953 1.80117 10.0851 1.70248 9.71776C1.62023 9.50551 1.50509 9.34632 1.35705 9.2402C1.21723 9.12592 1.04451 9.06877 0.838901 9.06877C0.583941 9.06877 0.378328 9.14632 0.222062 9.30143C0.0740207 9.44837 0 9.64429 0 9.88919C0 9.96266 0.00411226 10.032 0.0123368 10.0974C0.0287858 10.1627 0.0493471 10.232 0.0740207 10.3055C0.246736 10.9667 0.6374 11.5096 1.24601 11.9341C1.86285 12.3586 2.61129 12.6117 3.49131 12.6933V13.5259C3.49131 13.6974 3.54477 13.8362 3.65169 13.9423C3.75861 14.0402 3.8902 14.0892 4.04646 14.0892ZM3.49131 6.14222L3.40495 6.11773C2.91148 5.9708 2.54549 5.78712 2.30698 5.56671C2.06847 5.33814 1.94921 5.06059 1.94921 4.73405C1.94921 4.39119 2.08492 4.09323 2.35633 3.84017C2.63596 3.58711 3.01429 3.41976 3.49131 3.33813V6.14222ZM4.61396 8.16264L4.84835 8.21162C5.39117 8.35856 5.7695 8.5504 5.98334 8.78714C6.2054 9.01571 6.31643 9.30551 6.31643 9.65653C6.31643 10.0484 6.1725 10.379 5.88464 10.6484C5.60501 10.9096 5.18145 11.0729 4.61396 11.1382V8.16264Z"/>
</svg>
