<svg width="14" height="63" viewBox="0 0 14 63" fill="none" xmlns="http://www.w3.org/2000/svg">
<path d="M6.28003 0.75C6.28003 0.335786 6.61581 0 7.03003 0C7.44424 0 7.78003 0.335786 7.78003 0.75V3.25C7.78003 3.66421 7.44424 4 7.03003 4C6.61581 4 6.28003 3.66421 6.28003 3.25V0.75Z" fill="#646F85"/>
<path d="M6.28003 8.75C6.28003 8.33579 6.61581 8 7.03003 8C7.44424 8 7.78003 8.33579 7.78003 8.75V11.25C7.78003 11.6642 7.44424 12 7.03003 12C6.61581 12 6.28003 11.6642 6.28003 11.25V8.75Z" fill="#646F85"/>
<path d="M6.28003 16.75C6.28003 16.3358 6.61581 16 7.03003 16C7.44424 16 7.78003 16.3358 7.78003 16.75V19.25C7.78003 19.6642 7.44424 20 7.03003 20C6.61581 20 6.28003 19.6642 6.28003 19.25V16.75Z" fill="#646F85"/>
<path d="M6.28003 24.75C6.28003 24.3358 6.61581 24 7.03003 24C7.44424 24 7.78003 24.3358 7.78003 24.75V27.25C7.78003 27.6642 7.44424 28 7.03003 28C6.61581 28 6.28003 27.6642 6.28003 27.25V24.75Z" fill="#646F85"/>
<path d="M6.28003 32.75C6.28003 32.3358 6.61581 32 7.03003 32C7.44424 32 7.78003 32.3358 7.78003 32.75V35.25C7.78003 35.6642 7.44424 36 7.03003 36C6.61581 36 6.28003 35.6642 6.28003 35.25V32.75Z" fill="#646F85"/>
<path d="M6.28003 40.75C6.28003 40.3358 6.61581 40 7.03003 40C7.44424 40 7.78003 40.3358 7.78003 40.75V43.25C7.78003 43.6642 7.44424 44 7.03003 44C6.61581 44 6.28003 43.6642 6.28003 43.25V40.75Z" fill="#646F85"/>
<path d="M6.28003 48.75C6.28003 48.3358 6.61581 48 7.03003 48C7.44424 48 7.78003 48.3358 7.78003 48.75V51.25C7.78003 51.6642 7.44424 52 7.03003 52C6.61581 52 6.28003 51.6642 6.28003 51.25V48.75Z" fill="#646F85"/>
<path fill-rule="evenodd" clip-rule="evenodd" d="M6.95526 62.4185C6.77032 62.4095 6.59454 62.3405 6.4582 62.2233L0.25492 56.8708C0.0462322 56.6899 -0.0433294 56.4186 0.0199686 56.1593C0.0832675 55.8999 0.289808 55.6917 0.561789 55.6133C0.833762 55.5348 1.12985 55.598 1.3385 55.779L7 60.6622L12.6615 55.779C12.8701 55.598 13.1663 55.5348 13.4382 55.6133C13.7102 55.6917 13.9168 55.8999 13.98 56.1593C14.0433 56.4186 13.9538 56.6899 13.7451 56.8708L10.6435 59.5471L7.54179 62.2233C7.38276 62.3602 7.17101 62.4306 6.95526 62.4185Z" fill="#646F85"/>
</svg>
