<svg width="162" height="338" viewBox="0 0 162 338" fill="none" xmlns="http://www.w3.org/2000/svg">
<circle cx="78" cy="216" r="29.5" fill="white" stroke="#A8AEB7"/>
<path d="M78.3117 193.7V209.596L91.7466 215.599L78.3117 193.7Z" fill="#627EEA" fill-opacity="0.602"/>
<path d="M78.3117 193.7L64.875 215.599L78.3117 209.596V193.7Z" fill="#627EEA"/>
<path d="M78.3117 225.9V236.7L91.7556 218.101L78.3117 225.9Z" fill="#627EEA" fill-opacity="0.602"/>
<path d="M78.3117 236.7V225.9L64.875 218.101L78.3117 236.7Z" fill="#627EEA"/>
<path d="M78.3113 223.396L91.7462 215.596L78.3117 209.596L78.3113 223.396Z" fill="#627EEA" fill-opacity="0.4"/>
<path d="M64.875 215.596L78.3113 223.396L78.3117 209.596L64.875 215.596Z" fill="#627EEA" fill-opacity="0.602"/>
<path d="M14.9764 317.18C13.8364 317.18 12.9764 316.86 12.3964 316.22C11.8214 315.58 11.5339 314.657 11.5339 313.452V310.962C11.5339 309.757 11.8214 308.835 12.3964 308.195C12.9714 307.555 13.8314 307.235 14.9764 307.235C16.1164 307.235 16.9739 307.555 17.5489 308.195C18.1289 308.835 18.4189 309.757 18.4189 310.962V313.452C18.4189 314.657 18.1289 315.58 17.5489 316.22C16.9739 316.86 16.1164 317.18 14.9764 317.18ZM14.9764 316.137C15.7164 316.137 16.2639 315.912 16.6189 315.462C16.9789 315.007 17.1589 314.355 17.1589 313.505V310.917C17.1589 310.062 16.9789 309.41 16.6189 308.96C16.2639 308.505 15.7164 308.277 14.9764 308.277C14.2364 308.277 13.6864 308.505 13.3264 308.96C12.9714 309.41 12.7939 310.062 12.7939 310.917V313.505C12.7939 314.355 12.9714 315.007 13.3264 315.462C13.6864 315.912 14.2364 316.137 14.9764 316.137ZM20.8496 317H19.5221L21.9221 313.017V313.362L19.5671 309.68H20.9021L22.7471 312.657H22.8521L24.6896 309.68H26.0246L23.6696 313.362V313.017L26.0696 317H24.7421L22.8521 313.82H22.7471L20.8496 317ZM32.9289 317H26.9889V315.815L29.3814 313.467C29.8314 313.022 30.2139 312.622 30.5289 312.267C30.8489 311.912 31.0939 311.565 31.2639 311.225C31.4339 310.885 31.5189 310.522 31.5189 310.137V310.062C31.5189 309.697 31.4489 309.385 31.3089 309.125C31.1689 308.865 30.9564 308.667 30.6714 308.532C30.3864 308.397 30.0189 308.33 29.5689 308.33C29.0689 308.33 28.6039 308.41 28.1739 308.57C27.7439 308.73 27.3614 308.915 27.0264 309.125L27.1464 308C27.3364 307.88 27.5614 307.762 27.8214 307.647C28.0814 307.532 28.3764 307.437 28.7064 307.362C29.0364 307.287 29.4039 307.25 29.8089 307.25C30.7989 307.25 31.5414 307.48 32.0364 307.94C32.5314 308.4 32.7789 309.057 32.7789 309.912V310.017C32.7789 310.522 32.6889 310.98 32.5089 311.39C32.3289 311.8 32.0664 312.21 31.7214 312.62C31.3764 313.025 30.9614 313.467 30.4764 313.947L28.5264 315.875V316.167L28.0164 315.942H32.9289V317ZM38.6248 317H35.4898V315.972H38.5048C39.1548 315.972 39.6148 315.835 39.8848 315.56C40.1598 315.28 40.2973 314.895 40.2973 314.405V314.135C40.2973 313.635 40.1573 313.247 39.8773 312.972C39.6023 312.697 39.1198 312.56 38.4298 312.56H35.4973V311.577H38.4148C39.0298 311.577 39.4673 311.445 39.7273 311.18C39.9923 310.91 40.1248 310.537 40.1248 310.062V309.927C40.1248 309.457 39.9973 309.092 39.7423 308.832C39.4923 308.567 39.0473 308.435 38.4073 308.435H35.4673V307.415H38.5198C39.5398 307.415 40.2698 307.617 40.7098 308.022C41.1498 308.427 41.3698 308.997 41.3698 309.732V309.882C41.3698 310.467 41.2298 310.927 40.9498 311.262C40.6698 311.597 40.2348 311.797 39.6448 311.862L39.6373 311.907C40.3123 312.007 40.8023 312.242 41.1073 312.612C41.4123 312.982 41.5648 313.497 41.5648 314.157V314.465C41.5648 315.26 41.3348 315.882 40.8748 316.332C40.4148 316.777 39.6648 317 38.6248 317ZM35.8723 317H34.6423V307.415H35.8723V317ZM45.6452 317.158C44.7652 317.158 44.0952 316.885 43.6352 316.34C43.1752 315.795 42.9452 315 42.9452 313.955V312.747C42.9452 311.697 43.1777 310.897 43.6427 310.347C44.1077 309.792 44.7927 309.515 45.6977 309.515C46.1477 309.515 46.5377 309.592 46.8677 309.747C47.1977 309.897 47.4652 310.11 47.6702 310.385C47.8752 310.66 48.0127 310.985 48.0827 311.36H48.4802L48.1202 312.477C48.1052 312.047 48.0077 311.687 47.8277 311.397C47.6527 311.102 47.4127 310.88 47.1077 310.73C46.8077 310.58 46.4627 310.505 46.0727 310.505C45.4527 310.505 44.9777 310.685 44.6477 311.045C44.3227 311.405 44.1602 311.935 44.1602 312.635V314.03C44.1602 314.72 44.3227 315.245 44.6477 315.605C44.9777 315.965 45.4527 316.145 46.0727 316.145C46.4427 316.145 46.7702 316.075 47.0552 315.935C47.3402 315.79 47.5752 315.592 47.7602 315.342C47.9502 315.087 48.0802 314.8 48.1502 314.48L48.4502 315.35H48.0902C48.0202 315.68 47.8852 315.982 47.6852 316.257C47.4902 316.532 47.2252 316.752 46.8902 316.917C46.5602 317.078 46.1452 317.158 45.6452 317.158ZM49.3052 317H48.0902L48.1427 315.23L48.1202 314.84V311.78L48.1277 311.525L48.0977 309.447V307.062H49.3052V317ZM53.2369 317H51.8794L55.4494 308.472H50.7394V307.415H56.7544V308.495L53.2369 317ZM57.8671 317.143C57.6071 317.143 57.4146 317.073 57.2896 316.932C57.1696 316.787 57.1096 316.585 57.1096 316.325V316.25C57.1096 315.995 57.1696 315.797 57.2896 315.657C57.4146 315.517 57.6071 315.447 57.8671 315.447C58.1221 315.447 58.3121 315.517 58.4371 315.657C58.5621 315.797 58.6246 315.995 58.6246 316.25V316.325C58.6246 316.585 58.5621 316.787 58.4371 316.932C58.3121 317.073 58.1221 317.143 57.8671 317.143ZM60.7382 317.143C60.4782 317.143 60.2857 317.073 60.1607 316.932C60.0407 316.787 59.9807 316.585 59.9807 316.325V316.25C59.9807 315.995 60.0407 315.797 60.1607 315.657C60.2857 315.517 60.4782 315.447 60.7382 315.447C60.9932 315.447 61.1832 315.517 61.3082 315.657C61.4332 315.797 61.4957 315.995 61.4957 316.25V316.325C61.4957 316.585 61.4332 316.787 61.3082 316.932C61.1832 317.073 60.9932 317.143 60.7382 317.143ZM63.6093 317.143C63.3493 317.143 63.1568 317.073 63.0318 316.932C62.9118 316.787 62.8518 316.585 62.8518 316.325V316.25C62.8518 315.995 62.9118 315.797 63.0318 315.657C63.1568 315.517 63.3493 315.447 63.6093 315.447C63.8643 315.447 64.0543 315.517 64.1793 315.657C64.3043 315.797 64.3668 315.995 64.3668 316.25V316.325C64.3668 316.585 64.3043 316.787 64.1793 316.932C64.0543 317.073 63.8643 317.143 63.6093 317.143ZM68.2894 317H67.0444V308.69H66.9469L64.7269 310.01L64.7644 308.795L67.0519 307.415H68.2894V317ZM73.9959 317.158C73.5459 317.158 73.1534 317.083 72.8184 316.932C72.4884 316.782 72.2209 316.567 72.0159 316.287C71.8109 316.007 71.6734 315.682 71.6034 315.312H71.1984L71.5659 314.172C71.5909 314.612 71.6934 314.98 71.8734 315.275C72.0584 315.565 72.3034 315.782 72.6084 315.927C72.9134 316.072 73.2584 316.145 73.6434 316.145C74.2534 316.145 74.7184 315.965 75.0384 315.605C75.3634 315.245 75.5259 314.71 75.5259 314V312.627C75.5259 311.932 75.3634 311.405 75.0384 311.045C74.7134 310.685 74.2409 310.505 73.6209 310.505C73.2509 310.505 72.9234 310.577 72.6384 310.722C72.3534 310.867 72.1159 311.065 71.9259 311.315C71.7409 311.565 71.6134 311.85 71.5434 312.17L71.2659 311.322H71.6109C71.6859 310.987 71.8184 310.685 72.0084 310.415C72.2034 310.14 72.4684 309.922 72.8034 309.762C73.1384 309.597 73.5534 309.515 74.0484 309.515C74.9284 309.515 75.5984 309.79 76.0584 310.34C76.5184 310.885 76.7484 311.677 76.7484 312.717V313.932C76.7484 314.982 76.5134 315.782 76.0434 316.332C75.5784 316.883 74.8959 317.158 73.9959 317.158ZM71.6034 317H70.3884V307.062H71.5959V309.447L71.5584 311.547L71.5659 311.78V314.84L71.5509 315.23L71.6034 317ZM81.6176 317.195C81.0076 317.195 80.4826 317.133 80.0426 317.008C79.6076 316.887 79.2501 316.712 78.9701 316.482C78.6951 316.247 78.4901 315.967 78.3551 315.642C78.2251 315.317 78.1601 314.955 78.1601 314.555V314.352C78.1601 313.902 78.2376 313.517 78.3926 313.197C78.5476 312.877 78.7726 312.62 79.0676 312.425C79.3626 312.225 79.7101 312.085 80.1101 312.005V311.96C79.7151 311.9 79.3801 311.78 79.1051 311.6C78.8301 311.42 78.6201 311.185 78.4751 310.895C78.3351 310.605 78.2651 310.267 78.2651 309.882V309.68C78.2651 308.92 78.5376 308.322 79.0826 307.887C79.6276 307.447 80.4726 307.227 81.6176 307.227C82.7726 307.227 83.6226 307.447 84.1676 307.887C84.7126 308.322 84.9851 308.92 84.9851 309.68V309.882C84.9851 310.267 84.9126 310.605 84.7676 310.895C84.6276 311.185 84.4201 311.42 84.1451 311.6C83.8701 311.78 83.5351 311.9 83.1401 311.96V312.005C83.5451 312.09 83.8926 312.232 84.1826 312.432C84.4726 312.627 84.6951 312.885 84.8501 313.205C85.0101 313.52 85.0901 313.902 85.0901 314.352V314.555C85.0901 314.95 85.0251 315.31 84.8951 315.635C84.7701 315.955 84.5676 316.232 84.2876 316.467C84.0126 316.697 83.6551 316.875 83.2151 317C82.7751 317.13 82.2426 317.195 81.6176 317.195ZM81.6326 316.152C82.3926 316.152 82.9476 315.997 83.2976 315.687C83.6526 315.372 83.8301 314.957 83.8301 314.442V314.247C83.8301 313.742 83.6426 313.34 83.2676 313.04C82.8926 312.735 82.3326 312.552 81.5876 312.492C80.8726 312.557 80.3301 312.742 79.9601 313.047C79.5951 313.347 79.4126 313.747 79.4126 314.247V314.442C79.4126 314.957 79.5926 315.372 79.9526 315.687C80.3126 315.997 80.8726 316.152 81.6326 316.152ZM81.6476 311.607C82.2776 311.582 82.7851 311.432 83.1701 311.157C83.5551 310.877 83.7476 310.475 83.7476 309.95V309.807C83.7476 309.327 83.5751 308.95 83.2301 308.675C82.8901 308.395 82.3526 308.255 81.6176 308.255C80.8926 308.255 80.3576 308.395 80.0126 308.675C79.6676 308.95 79.4951 309.327 79.4951 309.807V309.95C79.4951 310.3 79.5826 310.595 79.7576 310.835C79.9376 311.075 80.1876 311.26 80.5076 311.39C80.8276 311.515 81.2076 311.587 81.6476 311.607ZM89.6686 307.235C90.7936 307.235 91.6411 307.55 92.2111 308.18C92.7861 308.805 93.0736 309.722 93.0736 310.932V313.37C93.0736 314.59 92.7636 315.53 92.1436 316.19C91.5236 316.845 90.5911 317.173 89.3461 317.173C88.7861 317.173 88.3111 317.118 87.9211 317.008C87.5361 316.897 87.2086 316.777 86.9386 316.647L86.8111 315.462C87.1311 315.637 87.4761 315.785 87.8461 315.905C88.2161 316.025 88.6711 316.085 89.2111 316.085C90.1111 316.085 90.7736 315.855 91.1986 315.395C91.6286 314.93 91.8436 314.245 91.8436 313.34V310.82C91.8436 309.98 91.6636 309.347 91.3036 308.922C90.9486 308.492 90.3961 308.277 89.6461 308.277C88.9711 308.277 88.4711 308.457 88.1461 308.817C87.8211 309.172 87.6586 309.632 87.6586 310.197V310.67C87.6586 311.245 87.8086 311.705 88.1086 312.05C88.4086 312.395 88.9011 312.567 89.5861 312.567C89.9711 312.567 90.3161 312.495 90.6211 312.35C90.9311 312.2 91.1936 311.987 91.4086 311.712C91.6286 311.437 91.7936 311.112 91.9036 310.737L92.0161 311.795H91.8061C91.7061 312.13 91.5461 312.432 91.3261 312.702C91.1061 312.967 90.8211 313.177 90.4711 313.332C90.1261 313.487 89.7086 313.565 89.2186 313.565C88.2836 313.565 87.5836 313.312 87.1186 312.807C86.6586 312.302 86.4286 311.602 86.4286 310.707V310.182C86.4286 309.292 86.7011 308.58 87.2461 308.045C87.7911 307.505 88.5986 307.235 89.6686 307.235ZM116.318 305.825V307.902H115.238V305.825H116.318ZM116.318 316.332V318.628H115.238V316.332H116.318ZM115.711 317.173C115.251 317.173 114.828 317.135 114.443 317.06C114.063 316.985 113.723 316.892 113.423 316.782C113.123 316.672 112.873 316.562 112.673 316.452L112.546 315.215C112.931 315.445 113.383 315.647 113.903 315.822C114.428 315.992 114.998 316.077 115.613 316.077C116.353 316.077 116.901 315.947 117.256 315.687C117.611 315.422 117.788 315.027 117.788 314.502V314.382C117.788 314.037 117.718 313.755 117.578 313.535C117.438 313.315 117.201 313.13 116.866 312.98C116.536 312.83 116.086 312.69 115.516 312.56C114.796 312.39 114.218 312.19 113.783 311.96C113.353 311.725 113.041 311.432 112.846 311.082C112.656 310.732 112.561 310.297 112.561 309.777V309.71C112.561 308.925 112.818 308.32 113.333 307.895C113.848 307.465 114.628 307.25 115.673 307.25C116.358 307.25 116.941 307.32 117.421 307.46C117.906 307.6 118.301 307.755 118.606 307.925L118.718 309.065C118.363 308.855 117.948 308.677 117.473 308.532C117.003 308.382 116.463 308.307 115.853 308.307C115.368 308.307 114.976 308.365 114.676 308.48C114.376 308.595 114.158 308.76 114.023 308.975C113.888 309.19 113.821 309.45 113.821 309.755V309.785C113.821 310.095 113.886 310.36 114.016 310.58C114.151 310.8 114.383 310.99 114.713 311.15C115.048 311.31 115.523 311.465 116.138 311.615C116.843 311.78 117.408 311.97 117.833 312.185C118.258 312.4 118.566 312.68 118.756 313.025C118.951 313.37 119.048 313.82 119.048 314.375V314.532C119.048 315.397 118.768 316.055 118.208 316.505C117.653 316.95 116.821 317.173 115.711 317.173ZM123.932 317.18C122.792 317.18 121.932 316.86 121.352 316.22C120.777 315.58 120.489 314.657 120.489 313.452V310.962C120.489 309.757 120.777 308.835 121.352 308.195C121.927 307.555 122.787 307.235 123.932 307.235C125.072 307.235 125.929 307.555 126.504 308.195C127.084 308.835 127.374 309.757 127.374 310.962V313.452C127.374 314.657 127.084 315.58 126.504 316.22C125.929 316.86 125.072 317.18 123.932 317.18ZM123.932 316.137C124.672 316.137 125.219 315.912 125.574 315.462C125.934 315.007 126.114 314.355 126.114 313.505V310.917C126.114 310.062 125.934 309.41 125.574 308.96C125.219 308.505 124.672 308.277 123.932 308.277C123.192 308.277 122.642 308.505 122.282 308.96C121.927 309.41 121.749 310.062 121.749 310.917V313.505C121.749 314.355 121.927 315.007 122.282 315.462C122.642 315.912 123.192 316.137 123.932 316.137ZM129.425 317.143C129.165 317.143 128.972 317.073 128.847 316.932C128.727 316.787 128.667 316.585 128.667 316.325V316.25C128.667 315.995 128.727 315.797 128.847 315.657C128.972 315.517 129.165 315.447 129.425 315.447C129.68 315.447 129.87 315.517 129.995 315.657C130.12 315.797 130.182 315.995 130.182 316.25V316.325C130.182 316.585 130.12 316.787 129.995 316.932C129.87 317.073 129.68 317.143 129.425 317.143ZM134.918 317.18C133.778 317.18 132.918 316.86 132.338 316.22C131.763 315.58 131.475 314.657 131.475 313.452V310.962C131.475 309.757 131.763 308.835 132.338 308.195C132.913 307.555 133.773 307.235 134.918 307.235C136.058 307.235 136.915 307.555 137.49 308.195C138.07 308.835 138.36 309.757 138.36 310.962V313.452C138.36 314.657 138.07 315.58 137.49 316.22C136.915 316.86 136.058 317.18 134.918 317.18ZM134.918 316.137C135.658 316.137 136.205 315.912 136.56 315.462C136.92 315.007 137.1 314.355 137.1 313.505V310.917C137.1 310.062 136.92 309.41 136.56 308.96C136.205 308.505 135.658 308.277 134.918 308.277C134.178 308.277 133.628 308.505 133.268 308.96C132.913 309.41 132.735 310.062 132.735 310.917V313.505C132.735 314.355 132.913 315.007 133.268 315.462C133.628 315.912 134.178 316.137 134.918 316.137ZM143.414 317.18C142.274 317.18 141.414 316.86 140.834 316.22C140.259 315.58 139.971 314.657 139.971 313.452V310.962C139.971 309.757 140.259 308.835 140.834 308.195C141.409 307.555 142.269 307.235 143.414 307.235C144.554 307.235 145.411 307.555 145.986 308.195C146.566 308.835 146.856 309.757 146.856 310.962V313.452C146.856 314.657 146.566 315.58 145.986 316.22C145.411 316.86 144.554 317.18 143.414 317.18ZM143.414 316.137C144.154 316.137 144.701 315.912 145.056 315.462C145.416 315.007 145.596 314.355 145.596 313.505V310.917C145.596 310.062 145.416 309.41 145.056 308.96C144.701 308.505 144.154 308.277 143.414 308.277C142.674 308.277 142.124 308.505 141.764 308.96C141.409 309.41 141.231 310.062 141.231 310.917V313.505C141.231 314.355 141.409 315.007 141.764 315.462C142.124 315.912 142.674 316.137 143.414 316.137Z" fill="#3D4767"/>
<path d="M103.394 306.342V320.27H102.359V306.342H103.394Z" fill="#A8AEB7"/>
<path d="M28.6615 293H26.9785V282.137H28.6615V293ZM33.9485 293H27.48V291.572H33.9485V293ZM33.7615 288.172H27.9475V286.761H33.7615V288.172ZM33.889 283.556H27.4715V282.137H33.889V283.556ZM40.1512 293H38.4427V282.434H40.1512V293ZM43.3387 283.565H35.2467V282.137H43.3387V283.565ZM46.7827 282.137V293H45.0742V282.137H46.7827ZM53.3192 282.137V293H51.6107V282.137H53.3192ZM46.0517 288.121V286.693H52.2737V288.121H46.0517ZM60.6919 293H58.9664L62.2984 282.137H64.9419L68.2739 293H66.5484L63.7264 283.276H63.5139L60.6919 293ZM66.0809 289.965H61.1424V288.554H66.0809V289.965ZM72.815 293.196C71.5797 293.196 70.6617 292.87 70.061 292.218C69.466 291.561 69.1685 290.634 69.1685 289.438V288.24C69.1685 287.039 69.4688 286.112 70.0695 285.46C70.6702 284.809 71.5853 284.483 72.815 284.483C73.155 284.483 73.4667 284.514 73.75 284.576C74.039 284.639 74.2997 284.721 74.532 284.823C74.7643 284.919 74.9627 285.021 75.127 285.129L75.2715 286.557C74.9995 286.364 74.685 286.203 74.328 286.072C73.971 285.936 73.5545 285.868 73.0785 285.868C72.3192 285.868 71.7553 286.075 71.387 286.489C71.0243 286.897 70.843 287.492 70.843 288.274V289.396C70.843 290.161 71.0243 290.75 71.387 291.164C71.7553 291.578 72.3192 291.784 73.0785 291.784C73.5602 291.784 73.9852 291.719 74.3535 291.589C74.7218 291.453 75.0533 291.289 75.348 291.096L75.2035 292.541C74.9428 292.705 74.6085 292.855 74.2005 292.991C73.7982 293.128 73.3363 293.196 72.815 293.196ZM80.0865 293.196C78.8512 293.196 77.9332 292.87 77.3325 292.218C76.7375 291.561 76.44 290.634 76.44 289.438V288.24C76.44 287.039 76.7403 286.112 77.341 285.46C77.9417 284.809 78.8568 284.483 80.0865 284.483C80.4265 284.483 80.7382 284.514 81.0215 284.576C81.3105 284.639 81.5712 284.721 81.8035 284.823C82.0358 284.919 82.2342 285.021 82.3985 285.129L82.543 286.557C82.271 286.364 81.9565 286.203 81.5995 286.072C81.2425 285.936 80.826 285.868 80.35 285.868C79.5907 285.868 79.0268 286.075 78.6585 286.489C78.2958 286.897 78.1145 287.492 78.1145 288.274V289.396C78.1145 290.161 78.2958 290.75 78.6585 291.164C79.0268 291.578 79.5907 291.784 80.35 291.784C80.8317 291.784 81.2567 291.719 81.625 291.589C81.9933 291.453 82.3248 291.289 82.6195 291.096L82.475 292.541C82.2143 292.705 81.88 292.855 81.472 292.991C81.0697 293.128 80.6078 293.196 80.0865 293.196ZM87.4515 293.213C86.2275 293.213 85.2981 292.887 84.6635 292.235C84.0288 291.583 83.7115 290.645 83.7115 289.421V288.24C83.7115 287.022 84.0288 286.089 84.6635 285.443C85.2981 284.792 86.2275 284.466 87.4515 284.466C88.6755 284.466 89.602 284.792 90.231 285.443C90.8656 286.089 91.183 287.022 91.183 288.24V289.421C91.183 290.645 90.8656 291.583 90.231 292.235C89.602 292.887 88.6755 293.213 87.4515 293.213ZM87.4515 291.861C88.1258 291.861 88.6386 291.66 88.99 291.257C89.3413 290.855 89.517 290.277 89.517 289.523V288.138C89.517 287.39 89.3413 286.818 88.99 286.421C88.6386 286.019 88.1258 285.817 87.4515 285.817C86.7771 285.817 86.2643 286.019 85.913 286.421C85.5616 286.818 85.386 287.39 85.386 288.138V289.523C85.386 290.277 85.5616 290.855 85.913 291.257C86.2643 291.66 86.7771 291.861 87.4515 291.861ZM92.8641 284.687H94.5301V289.821C94.5301 290.218 94.5839 290.566 94.6916 290.866C94.8049 291.161 94.9891 291.391 95.2441 291.555C95.4991 291.719 95.8419 291.801 96.2726 291.801C96.6806 291.801 97.0291 291.728 97.3181 291.58C97.6128 291.433 97.8536 291.235 98.0406 290.985C98.2276 290.73 98.3579 290.447 98.4316 290.135L98.7036 291.291H98.3466C98.2503 291.637 98.0916 291.954 97.8706 292.243C97.6496 292.532 97.3549 292.762 96.9866 292.932C96.6183 293.102 96.1621 293.187 95.6181 293.187C94.9721 293.187 94.4451 293.065 94.0371 292.821C93.6348 292.572 93.3373 292.212 93.1446 291.742C92.9576 291.266 92.8641 290.688 92.8641 290.008V284.687ZM98.3721 284.687H100.038V293H98.3721L98.4401 291.053L98.3721 290.951V284.687ZM109.321 293H107.655V287.866C107.655 287.464 107.598 287.115 107.485 286.82C107.377 286.526 107.196 286.296 106.941 286.132C106.691 285.968 106.349 285.885 105.912 285.885C105.51 285.885 105.161 285.959 104.867 286.106C104.572 286.254 104.331 286.452 104.144 286.701C103.963 286.951 103.833 287.234 103.753 287.551L103.481 286.395H103.838C103.935 286.044 104.093 285.727 104.314 285.443C104.535 285.154 104.83 284.925 105.198 284.755C105.567 284.585 106.023 284.5 106.567 284.5C107.218 284.5 107.745 284.625 108.148 284.874C108.55 285.118 108.845 285.475 109.032 285.945C109.224 286.415 109.321 286.993 109.321 287.679V293ZM103.813 293H102.147V284.687H103.813L103.745 286.633L103.813 286.735V293ZM114.388 293.17C113.725 293.17 113.193 293.071 112.79 292.872C112.388 292.668 112.096 292.365 111.915 291.963C111.733 291.555 111.643 291.048 111.643 290.441V285.358H113.292V290.246C113.292 290.756 113.408 291.13 113.64 291.368C113.873 291.606 114.264 291.725 114.813 291.725C115.142 291.725 115.456 291.691 115.757 291.623C116.057 291.555 116.335 291.459 116.59 291.334L116.445 292.745C116.173 292.881 115.859 292.986 115.502 293.06C115.145 293.133 114.774 293.17 114.388 293.17ZM116.369 286.115H110.342V284.789H116.513L116.369 286.115ZM113.249 284.933H111.66L111.651 282.647L113.317 282.451L113.249 284.933ZM129.276 293H127.61V287.866C127.61 287.464 127.553 287.115 127.44 286.82C127.332 286.526 127.151 286.296 126.896 286.132C126.647 285.968 126.304 285.885 125.867 285.885C125.465 285.885 125.117 285.959 124.822 286.106C124.527 286.254 124.286 286.452 124.099 286.701C123.918 286.951 123.788 287.234 123.708 287.551L123.436 286.395H123.793C123.89 286.044 124.048 285.727 124.269 285.443C124.49 285.154 124.785 284.925 125.153 284.755C125.522 284.585 125.978 284.5 126.522 284.5C127.174 284.5 127.701 284.625 128.103 284.874C128.505 285.118 128.8 285.475 128.987 285.945C129.18 286.415 129.276 286.993 129.276 287.679V293ZM123.768 293H122.102V284.687H123.768L123.7 286.633L123.768 286.735V293Z" fill="#000D35"/>
<path d="M91.5 265C92.3284 265 93 265.672 93 266.5C93 267.328 92.3284 268 91.5 268L64.5 268C63.6716 268 63 267.328 63 266.5C63 265.672 63.6716 265 64.5 265L91.5 265Z" fill="#4F67E4"/>
<g clip-path="url(#clip0_2889_82999)">
<path d="M108 30C108 46.5676 94.5676 60 78 60C61.4324 60 48 46.5676 48 30C48 13.4324 61.4324 0 78 0C94.5711 0 108 13.4324 108 30Z" fill="#2081E2"/>
<path d="M62.8006 31.0081L62.9301 30.8047L70.7343 18.596C70.8483 18.4172 71.1165 18.4358 71.2028 18.6299C72.5066 21.5519 73.6316 25.1858 73.1045 27.4482C72.8795 28.379 72.2631 29.6396 71.5696 30.8047C71.4802 30.9742 71.3816 31.1407 71.2768 31.301C71.2274 31.3749 71.1443 31.4181 71.0549 31.4181H63.0287C62.813 31.4181 62.6866 31.1838 62.8006 31.0081Z" fill="white"/>
<path d="M97.5868 33.2766V35.2091C97.5868 35.3201 97.519 35.4187 97.4204 35.4619C96.8162 35.7208 94.748 36.6701 93.8881 37.866C91.6936 40.9205 90.0168 45.288 86.2688 45.288H70.6328C65.0909 45.288 60.6001 40.7818 60.6001 35.2215V35.0427C60.6001 34.8947 60.7203 34.7745 60.8683 34.7745H69.5848C69.7574 34.7745 69.8838 34.9348 69.8684 35.1043C69.8067 35.6715 69.9115 36.2509 70.1796 36.778C70.6975 37.829 71.7701 38.4855 72.929 38.4855H77.2441V35.1167H72.9783C72.7595 35.1167 72.63 34.8639 72.7564 34.6851C72.8026 34.6143 72.855 34.5403 72.9105 34.4571C73.3143 33.8838 73.8906 32.993 74.464 31.9789C74.8554 31.2947 75.2345 30.5642 75.5396 29.8307C75.6013 29.6981 75.6506 29.5625 75.6999 29.4299C75.7832 29.1957 75.8694 28.9769 75.9311 28.7581C75.9927 28.5731 76.042 28.3789 76.0914 28.1971C76.2362 27.5745 76.2979 26.9149 76.2979 26.2306C76.2979 25.9625 76.2856 25.682 76.2609 25.4138C76.2486 25.121 76.2116 24.8282 76.1746 24.5354C76.1499 24.2765 76.1037 24.0207 76.0544 23.7525C75.9927 23.3611 75.9064 22.9727 75.8078 22.5813L75.7739 22.4333C75.6999 22.1652 75.6383 21.9093 75.552 21.6412C75.3085 20.7997 75.028 19.9799 74.7321 19.2124C74.6242 18.9073 74.5009 18.6145 74.3776 18.3217C74.1958 17.8809 74.0108 17.4802 73.8414 17.1011C73.755 16.9285 73.681 16.7713 73.6071 16.611C73.5239 16.4291 73.4376 16.2473 73.3513 16.0747C73.2896 15.9421 73.2187 15.8189 73.1694 15.6956L72.6424 14.7216C72.5684 14.5891 72.6917 14.4319 72.8365 14.4719L76.1345 15.3658H76.1438C76.1499 15.3658 76.153 15.3689 76.1561 15.3689L76.5907 15.4891L77.0684 15.6247L77.2441 15.674V13.7137C77.2441 12.7675 78.0024 12 78.9394 12C79.4078 12 79.8332 12.1911 80.1383 12.5024C80.4434 12.8137 80.6346 13.2391 80.6346 13.7137V16.6233L80.9859 16.7219C81.0137 16.7312 81.0414 16.7435 81.0661 16.762C81.1524 16.8267 81.2756 16.9223 81.4328 17.0394C81.5562 17.1381 81.6887 17.2583 81.849 17.3815C82.1664 17.6374 82.5455 17.9672 82.9616 18.3463C83.0726 18.4419 83.1805 18.5405 83.2791 18.6391C83.8154 19.1384 84.4164 19.7241 84.9898 20.3713C85.15 20.5531 85.3072 20.7381 85.4675 20.9323C85.6278 21.1295 85.7973 21.3237 85.9452 21.5179C86.1394 21.7768 86.349 22.0449 86.5308 22.3255C86.6172 22.458 86.7158 22.5936 86.799 22.7261C87.0332 23.0806 87.2398 23.4474 87.437 23.8141C87.5202 23.9837 87.6066 24.1686 87.6805 24.3505C87.8994 24.8405 88.072 25.3399 88.1829 25.8392C88.2168 25.9471 88.2415 26.0642 88.2538 26.169V26.1936C88.2908 26.3416 88.3031 26.4988 88.3154 26.6591C88.3648 27.1707 88.3401 27.6823 88.2292 28.1971C88.1829 28.4159 88.1213 28.6224 88.0473 28.8413C87.9733 29.0509 87.8994 29.2697 87.8038 29.4762C87.6189 29.9046 87.4 30.3331 87.1411 30.7337C87.0579 30.8817 86.9593 31.0389 86.8606 31.1868C86.7528 31.344 86.6418 31.492 86.5432 31.6369C86.4076 31.8218 86.2627 32.0159 86.1148 32.1885C85.9822 32.3704 85.8466 32.5523 85.6986 32.7125C85.4922 32.956 85.2949 33.1872 85.0884 33.4091C84.9651 33.554 84.8326 33.7019 84.6969 33.8345C84.5644 33.9824 84.4288 34.1149 84.3055 34.2382C84.099 34.4447 83.9264 34.605 83.7815 34.7375L83.4424 35.0489C83.3932 35.092 83.3284 35.1167 83.2606 35.1167H80.6346V38.4855H83.9387C84.6784 38.4855 85.3812 38.2235 85.9483 37.7427C86.1425 37.5732 86.9901 36.8396 87.9918 35.7331C88.0257 35.6961 88.0689 35.6684 88.1182 35.6561L97.2446 33.0177C97.4142 32.9683 97.5868 33.0978 97.5868 33.2766Z" fill="white"/>
</g>
<path d="M48.9583 86.221C47.5417 86.221 46.465 85.8357 45.7283 85.065C44.9973 84.2943 44.6318 83.1922 44.6318 81.7585V79.37C44.6318 77.942 44.9973 76.8427 45.7283 76.072C46.465 75.3013 47.5417 74.916 48.9583 74.916C50.375 74.916 51.4488 75.3013 52.1798 76.072C52.9165 76.8427 53.2848 77.942 53.2848 79.37V81.7585C53.2848 83.1922 52.9165 84.2943 52.1798 85.065C51.4488 85.8357 50.375 86.221 48.9583 86.221ZM48.9583 84.8015C49.8197 84.8015 50.4657 84.5437 50.8963 84.028C51.3327 83.5067 51.5508 82.7728 51.5508 81.8265V79.302C51.5508 78.35 51.3327 77.619 50.8963 77.109C50.4657 76.5933 49.8197 76.3355 48.9583 76.3355C48.097 76.3355 47.4482 76.5933 47.0118 77.109C46.5812 77.619 46.3658 78.35 46.3658 79.302V81.8265C46.3658 82.7728 46.5812 83.5067 47.0118 84.028C47.4482 84.5437 48.097 84.8015 48.9583 84.8015ZM59.5055 86.187C59.0125 86.187 58.5875 86.1105 58.2305 85.9575C57.8792 85.7988 57.593 85.5778 57.372 85.2945C57.151 85.0055 56.9895 84.6712 56.8875 84.2915H56.335L56.8025 82.719C56.8195 83.1837 56.9187 83.5718 57.1 83.8835C57.2813 84.1895 57.5307 84.419 57.848 84.572C58.171 84.725 58.5422 84.8015 58.9615 84.8015C59.6018 84.8015 60.092 84.6173 60.432 84.249C60.772 83.875 60.942 83.3282 60.942 82.6085V81.019C60.942 80.3107 60.772 79.7723 60.432 79.404C60.0977 79.0357 59.6075 78.8515 58.9615 78.8515C58.5762 78.8515 58.2333 78.9252 57.933 79.0725C57.6327 79.2198 57.3833 79.421 57.185 79.676C56.9923 79.9253 56.8563 80.2115 56.777 80.5345L56.386 79.3955H56.8705C56.9668 79.0442 57.1198 78.7268 57.3295 78.4435C57.5392 78.1545 57.8253 77.925 58.188 77.755C58.5563 77.585 59.0182 77.5 59.5735 77.5C60.5652 77.5 61.3188 77.8117 61.8345 78.435C62.3558 79.0583 62.6165 79.9678 62.6165 81.1635V82.481C62.6165 83.688 62.3558 84.6088 61.8345 85.2435C61.3132 85.8725 60.5368 86.187 59.5055 86.187ZM56.8365 88.924H55.179V77.687H56.845L56.777 79.6335L56.8025 80.1265V83.6115L56.794 83.9345L56.8365 86.289V88.924ZM68.056 86.1955C66.73 86.1955 65.7355 85.881 65.0725 85.252C64.4151 84.6173 64.0865 83.705 64.0865 82.515V81.155C64.0865 79.982 64.3925 79.0753 65.0045 78.435C65.6221 77.789 66.5203 77.466 67.699 77.466C68.498 77.466 69.1638 77.6133 69.6965 77.908C70.2291 78.197 70.6286 78.6078 70.895 79.1405C71.1613 79.6732 71.2945 80.305 71.2945 81.036V81.3505C71.2945 81.5432 71.286 81.7387 71.269 81.937C71.252 82.1353 71.2293 82.3252 71.201 82.5065H69.671C69.6823 82.2118 69.688 81.9342 69.688 81.6735C69.6936 81.4128 69.6965 81.1748 69.6965 80.9595C69.6965 80.5005 69.6228 80.1123 69.4755 79.795C69.3281 79.4777 69.1071 79.2368 68.8125 79.0725C68.5178 78.9025 68.1466 78.8175 67.699 78.8175C67.036 78.8175 66.543 79.0073 66.22 79.387C65.897 79.761 65.7355 80.2965 65.7355 80.9935V81.7755L65.744 81.971V82.7105C65.744 83.0222 65.7893 83.3055 65.88 83.5605C65.9763 83.8155 66.1265 84.0365 66.3305 84.2235C66.5401 84.4048 66.8093 84.5465 67.138 84.6485C67.4666 84.7448 67.8661 84.793 68.3365 84.793C68.8691 84.793 69.3678 84.725 69.8325 84.589C70.3028 84.453 70.7448 84.2717 71.1585 84.045L71.0055 85.4645C70.6315 85.6855 70.1951 85.864 69.6965 86C69.2035 86.1303 68.6566 86.1955 68.056 86.1955ZM70.861 82.5065H64.9705V81.257H70.861V82.5065ZM80.1831 86H78.5171V80.866C78.5171 80.4637 78.4604 80.1152 78.3471 79.8205C78.2394 79.5258 78.0581 79.2963 77.8031 79.132C77.5537 78.9677 77.2109 78.8855 76.7746 78.8855C76.3722 78.8855 76.0237 78.9592 75.7291 79.1065C75.4344 79.2538 75.1936 79.4522 75.0066 79.7015C74.8252 79.9508 74.6949 80.2342 74.6156 80.5515L74.3436 79.3955H74.7006C74.7969 79.0442 74.9556 78.7268 75.1766 78.4435C75.3976 78.1545 75.6922 77.925 76.0606 77.755C76.4289 77.585 76.8851 77.5 77.4291 77.5C78.0807 77.5 78.6077 77.6247 79.0101 77.874C79.4124 78.1177 79.7071 78.4747 79.8941 78.945C80.0867 79.4153 80.1831 79.9933 80.1831 80.679V86ZM74.6751 86H73.0091V77.687H74.6751L74.6071 79.6335L74.6751 79.7355V86ZM89.5292 86.204C89.0136 86.204 88.5376 86.1643 88.1012 86.085C87.6649 86.0057 87.2739 85.9065 86.9282 85.7875C86.5882 85.6685 86.2992 85.5495 86.0612 85.4305L85.8997 83.756C86.3361 84.0053 86.8517 84.2263 87.4467 84.419C88.0474 84.6117 88.6962 84.708 89.3932 84.708C90.1866 84.708 90.7702 84.5777 91.1442 84.317C91.5182 84.0507 91.7052 83.6512 91.7052 83.1185V82.991C91.7052 82.6453 91.6287 82.362 91.4757 82.141C91.3284 81.9143 91.0762 81.7217 90.7192 81.563C90.3622 81.3987 89.8777 81.2428 89.2657 81.0955C88.4611 80.8972 87.8094 80.6648 87.3107 80.3985C86.8177 80.1265 86.4579 79.7893 86.2312 79.387C86.0046 78.979 85.8912 78.4718 85.8912 77.8655V77.7805C85.8912 76.8682 86.1944 76.1655 86.8007 75.6725C87.4071 75.1795 88.3166 74.933 89.5292 74.933C90.3056 74.933 90.9686 75.0095 91.5182 75.1625C92.0736 75.3098 92.5297 75.477 92.8867 75.664L93.0397 77.2195C92.6261 76.9815 92.1501 76.7832 91.6117 76.6245C91.0734 76.4602 90.4671 76.378 89.7927 76.378C89.2657 76.378 88.8436 76.4375 88.5262 76.5565C88.2089 76.6698 87.9794 76.837 87.8377 77.058C87.6961 77.2733 87.6252 77.534 87.6252 77.84V77.874C87.6252 78.1913 87.6961 78.4633 87.8377 78.69C87.9794 78.9167 88.2287 79.1178 88.5857 79.2935C88.9484 79.4635 89.4612 79.6335 90.1242 79.8035C90.9119 80.0018 91.5466 80.2257 92.0282 80.475C92.5156 80.7187 92.8726 81.0388 93.0992 81.4355C93.3259 81.8265 93.4392 82.3422 93.4392 82.9825V83.1525C93.4392 84.1555 93.1134 84.9148 92.4617 85.4305C91.8101 85.9462 90.8326 86.204 89.5292 86.204ZM98.8519 86.1955C97.5259 86.1955 96.5314 85.881 95.8684 85.252C95.211 84.6173 94.8824 83.705 94.8824 82.515V81.155C94.8824 79.982 95.1884 79.0753 95.8004 78.435C96.418 77.789 97.3162 77.466 98.4949 77.466C99.2939 77.466 99.9597 77.6133 100.492 77.908C101.025 78.197 101.425 78.6078 101.691 79.1405C101.957 79.6732 102.09 80.305 102.09 81.036V81.3505C102.09 81.5432 102.082 81.7387 102.065 81.937C102.048 82.1353 102.025 82.3252 101.997 82.5065H100.467C100.478 82.2118 100.484 81.9342 100.484 81.6735C100.49 81.4128 100.492 81.1748 100.492 80.9595C100.492 80.5005 100.419 80.1123 100.271 79.795C100.124 79.4777 99.903 79.2368 99.6084 79.0725C99.3137 78.9025 98.9425 78.8175 98.4949 78.8175C97.8319 78.8175 97.3389 79.0073 97.0159 79.387C96.6929 79.761 96.5314 80.2965 96.5314 80.9935V81.7755L96.5399 81.971V82.7105C96.5399 83.0222 96.5852 83.3055 96.6759 83.5605C96.7722 83.8155 96.9224 84.0365 97.1264 84.2235C97.336 84.4048 97.6052 84.5465 97.9339 84.6485C98.2625 84.7448 98.662 84.793 99.1324 84.793C99.665 84.793 100.164 84.725 100.628 84.589C101.099 84.453 101.541 84.2717 101.954 84.045L101.801 85.4645C101.427 85.6855 100.991 85.864 100.492 86C99.9994 86.1303 99.4525 86.1955 98.8519 86.1955ZM101.657 82.5065H95.7664V81.257H101.657V82.5065ZM110.284 86H108.626L108.694 84.028L108.635 83.773V81.155L108.643 80.7385C108.643 80.0982 108.479 79.6278 108.15 79.3275C107.827 79.0272 107.306 78.877 106.586 78.877C106.002 78.877 105.461 78.9592 104.963 79.1235C104.464 79.2878 104.013 79.4777 103.611 79.693L103.764 78.299C103.991 78.1687 104.257 78.0412 104.563 77.9165C104.869 77.7918 105.215 77.6898 105.6 77.6105C105.985 77.5312 106.408 77.4915 106.867 77.4915C107.496 77.4915 108.028 77.568 108.465 77.721C108.901 77.8683 109.252 78.0837 109.519 78.367C109.785 78.6503 109.978 78.9903 110.097 79.387C110.221 79.7837 110.284 80.2257 110.284 80.713V86ZM105.813 86.187C104.991 86.187 104.362 85.9858 103.926 85.5835C103.489 85.1755 103.271 84.5975 103.271 83.8495V83.5945C103.271 82.8012 103.515 82.2147 104.002 81.835C104.495 81.4497 105.269 81.1833 106.323 81.036L108.822 80.679L108.915 81.886L106.518 82.226C105.946 82.3053 105.538 82.4442 105.294 82.6425C105.05 82.8352 104.929 83.1213 104.929 83.501V83.62C104.929 83.9997 105.045 84.2915 105.277 84.4955C105.515 84.6995 105.875 84.8015 106.357 84.8015C106.799 84.8015 107.178 84.7278 107.496 84.5805C107.813 84.4332 108.071 84.2377 108.269 83.994C108.467 83.7447 108.603 83.4698 108.677 83.1695L108.907 84.283H108.601C108.51 84.623 108.36 84.9375 108.15 85.2265C107.94 85.5155 107.646 85.7478 107.266 85.9235C106.892 86.0992 106.408 86.187 105.813 86.187Z" fill="#000D35"/>
<rect x="77.28" y="105" width="1.5" height="4" rx="0.75" fill="#646F85"/>
<rect x="77.28" y="113" width="1.5" height="4" rx="0.75" fill="#646F85"/>
<rect x="77.28" y="121" width="1.5" height="4" rx="0.75" fill="#646F85"/>
<rect x="77.28" y="129" width="1.5" height="4" rx="0.75" fill="#646F85"/>
<rect x="77.28" y="137" width="1.5" height="4" rx="0.75" fill="#646F85"/>
<rect x="77.28" y="145" width="1.5" height="4" rx="0.75" fill="#646F85"/>
<rect x="77.28" y="153" width="1.5" height="4" rx="0.75" fill="#646F85"/>
<path fill-rule="evenodd" clip-rule="evenodd" d="M77.9553 167.419C77.7703 167.41 77.5945 167.341 77.4582 167.223L71.2549 161.871C71.0462 161.69 70.9567 161.419 71.02 161.159C71.0833 160.9 71.2898 160.692 71.5618 160.613C71.8338 160.535 72.1298 160.598 72.3385 160.779L78 165.662L83.6615 160.779C83.8701 160.598 84.1663 160.535 84.4382 160.613C84.7102 160.692 84.9168 160.9 84.98 161.159C85.0433 161.419 84.9538 161.69 84.7451 161.871L78.5418 167.223C78.3828 167.36 78.171 167.431 77.9553 167.419Z" fill="#646F85"/>
<defs>
<clipPath id="clip0_2889_82999">
<rect width="60" height="60" fill="white" transform="translate(48)"/>
</clipPath>
</defs>
</svg>
