<svg width="14" height="17" viewBox="0 0 14 17" fill="none" xmlns="http://www.w3.org/2000/svg">
<path d="M0.265103 12.9012C0.0883677 12.737 0 12.5419 0 12.3157C0 12.0939 0.0883677 11.901 0.265103 11.7369L3.76583 8.39049C3.9335 8.23082 4.12609 8.15099 4.34361 8.15099C4.57926 8.15099 4.76959 8.22195 4.91461 8.36388C5.06415 8.51024 5.13892 8.69652 5.13892 8.92272C5.13892 9.14005 5.06188 9.32189 4.90781 9.46826L3.46673 10.8254L2.56946 11.5839L3.93576 11.5373H12.6026C12.8292 11.5373 13.0172 11.6105 13.1668 11.7569C13.3163 11.9077 13.3911 12.0962 13.3911 12.3223C13.3911 12.5441 13.3163 12.7282 13.1668 12.8745C13.0172 13.0209 12.8292 13.0941 12.6026 13.0941H3.93576L2.56946 13.0542L3.46673 13.8059L4.90781 15.1764C5.06188 15.3184 5.13892 15.498 5.13892 15.7153C5.13892 15.9415 5.06415 16.1256 4.91461 16.2675C4.76959 16.4139 4.57926 16.4871 4.34361 16.4871C4.12609 16.4871 3.9335 16.4072 3.76583 16.2476L0.265103 12.9012ZM13.1396 3.97297C13.3118 4.13707 13.3956 4.33222 13.3911 4.55842C13.3911 4.78462 13.3073 4.97756 13.1396 5.13723L9.63208 8.48363C9.46894 8.6433 9.27408 8.72313 9.0475 8.72313C8.81638 8.72313 8.62605 8.64995 8.47651 8.50359C8.33149 8.36166 8.25898 8.1776 8.25898 7.9514C8.25898 7.73407 8.33376 7.55444 8.4833 7.41251L9.93797 6.04867L10.8352 5.29024L9.46214 5.33681H0.802107C0.570992 5.33681 0.378395 5.26363 0.224318 5.11727C0.0747727 4.9709 0 4.78462 0 4.55842C0 4.33222 0.0747727 4.14373 0.224318 3.99293C0.378395 3.84656 0.570992 3.77338 0.802107 3.77338H9.46214L10.8352 3.81995L9.93797 3.06818L8.4833 1.70433C8.33376 1.55797 8.25898 1.37612 8.25898 1.1588C8.25898 0.932597 8.33149 0.748533 8.47651 0.606606C8.62605 0.460241 8.81638 0.38706 9.0475 0.38706C9.27408 0.38706 9.46894 0.466894 9.63208 0.626564L13.1396 3.97297Z" fill="white"/>
</svg>
