<svg width="19" height="20" viewBox="0 0 19 20" fill="none" xmlns="http://www.w3.org/2000/svg">
<g clip-path="url(#clip0_1905_62081)">
<path fill-rule="evenodd" clip-rule="evenodd" d="M13.7715 7.83451C13.9441 7.66678 14.2245 7.66678 14.397 7.83451L14.3988 7.83364C14.5713 8.00137 14.5713 8.27403 14.3988 8.44176L9.97526 12.7424C9.88856 12.8267 9.77532 12.8689 9.66207 12.8689C9.54883 12.8689 9.43559 12.8276 9.34889 12.7433L4.92535 8.44262C4.75284 8.27489 4.75284 8.00223 4.92535 7.83451C5.09787 7.66678 5.37832 7.66678 5.55084 7.83451L9.21884 11.4006V1.68715C9.21884 1.44975 9.41701 1.25708 9.66119 1.25708C9.90537 1.25708 10.1035 1.44975 10.1035 1.68715V11.4006L13.7715 7.83451ZM2.5842 15.8793H16.7395C17.4712 15.8793 18.0666 15.3004 18.0666 14.5891V12.8689C18.0666 12.6315 17.8684 12.4388 17.6242 12.4388C17.38 12.4388 17.1819 12.6315 17.1819 12.8689V14.5891C17.1819 14.8265 16.9837 15.0192 16.7395 15.0192H2.5842C2.34002 15.0192 2.14185 14.8265 2.14185 14.5891V12.8689C2.14185 12.6315 1.94367 12.4388 1.69949 12.4388C1.45532 12.4388 1.25714 12.6315 1.25714 12.8689V14.5891C1.25714 15.3004 1.85255 15.8793 2.5842 15.8793Z" fill="#3D4767"/>
<path d="M14.397 7.83451L14.2576 7.9779L14.3582 8.07575L14.4845 8.01437L14.397 7.83451ZM13.7715 7.83451L13.911 7.9779V7.9779L13.7715 7.83451ZM14.3988 7.83364L14.5382 7.69025L14.4376 7.5924L14.3113 7.65378L14.3988 7.83364ZM14.3988 8.44176L14.2594 8.29836L14.3988 8.44176ZM9.97526 12.7424L9.83584 12.599V12.599L9.97526 12.7424ZM9.34889 12.7433L9.20947 12.8867H9.20947L9.34889 12.7433ZM4.92535 8.44262L5.06477 8.29922L4.92535 8.44262ZM4.92535 7.83451L5.06477 7.9779L5.06477 7.9779L4.92535 7.83451ZM5.55084 7.83451L5.41143 7.9779L5.41143 7.9779L5.55084 7.83451ZM9.21884 11.4006L9.07942 11.544L9.41884 11.874V11.4006H9.21884ZM10.1035 11.4006H9.90354V11.874L10.243 11.544L10.1035 11.4006ZM14.5364 7.69111C14.2863 7.44791 13.8823 7.44791 13.6321 7.69111L13.911 7.9779C14.0058 7.88565 14.1627 7.88565 14.2576 7.9779L14.5364 7.69111ZM14.3113 7.65378L14.3096 7.65464L14.4845 8.01437L14.4863 8.01351L14.3113 7.65378ZM14.5382 8.58516C14.7915 8.3389 14.7915 7.93651 14.5382 7.69025L14.2594 7.97704C14.3511 8.06623 14.3511 8.20917 14.2594 8.29836L14.5382 8.58516ZM10.1147 12.8858L14.5382 8.58516L14.2594 8.29836L9.83584 12.599L10.1147 12.8858ZM9.66207 13.0689C9.82472 13.0689 9.98877 13.0082 10.1147 12.8858L9.83584 12.599C9.78835 12.6452 9.72592 12.6689 9.66207 12.6689V13.0689ZM9.20947 12.8867C9.33608 13.0098 9.50047 13.0689 9.66207 13.0689V12.6689C9.5972 12.6689 9.5351 12.6454 9.4883 12.5999L9.20947 12.8867ZM4.78594 8.58602L9.20947 12.8867L9.4883 12.5999L5.06477 8.29922L4.78594 8.58602ZM4.78594 7.69111C4.53264 7.93737 4.53264 8.33976 4.78594 8.58602L5.06477 8.29922C4.97303 8.21003 4.97303 8.06709 5.06477 7.9779L4.78594 7.69111ZM5.69026 7.69111C5.44012 7.44791 5.03608 7.44791 4.78594 7.69111L5.06477 7.9779C5.15966 7.88565 5.31653 7.88565 5.41143 7.9779L5.69026 7.69111ZM9.35825 11.2572L5.69026 7.69111L5.41143 7.9779L9.07942 11.544L9.35825 11.2572ZM9.01884 1.68715V11.4006H9.41884V1.68715H9.01884ZM9.66119 1.05708C9.3119 1.05708 9.01884 1.33402 9.01884 1.68715H9.41884C9.41884 1.56548 9.52212 1.45708 9.66119 1.45708V1.05708ZM10.3035 1.68715C10.3035 1.33402 10.0105 1.05708 9.66119 1.05708V1.45708C9.80026 1.45708 9.90354 1.56548 9.90354 1.68715H10.3035ZM10.3035 11.4006V1.68715H9.90354V11.4006H10.3035ZM13.6321 7.69111L9.96413 11.2572L10.243 11.544L13.911 7.9779L13.6321 7.69111ZM16.7395 15.6793H2.5842V16.0793H16.7395V15.6793ZM17.8666 14.5891C17.8666 15.1847 17.3661 15.6793 16.7395 15.6793V16.0793C17.5763 16.0793 18.2666 15.4162 18.2666 14.5891H17.8666ZM17.8666 12.8689V14.5891H18.2666V12.8689H17.8666ZM17.6242 12.6388C17.7633 12.6388 17.8666 12.7472 17.8666 12.8689H18.2666C18.2666 12.5157 17.9735 12.2388 17.6242 12.2388V12.6388ZM17.3819 12.8689C17.3819 12.7472 17.4851 12.6388 17.6242 12.6388V12.2388C17.2749 12.2388 16.9819 12.5157 16.9819 12.8689H17.3819ZM17.3819 14.5891V12.8689H16.9819V14.5891H17.3819ZM16.7395 15.2192C17.0888 15.2192 17.3819 14.9422 17.3819 14.5891H16.9819C16.9819 14.7108 16.8786 14.8192 16.7395 14.8192V15.2192ZM2.5842 15.2192H16.7395V14.8192H2.5842V15.2192ZM1.94185 14.5891C1.94185 14.9422 2.23491 15.2192 2.5842 15.2192V14.8192C2.44513 14.8192 2.34185 14.7108 2.34185 14.5891H1.94185ZM1.94185 12.8689V14.5891H2.34185V12.8689H1.94185ZM1.69949 12.6388C1.83856 12.6388 1.94185 12.7472 1.94185 12.8689H2.34185C2.34185 12.5157 2.04878 12.2388 1.69949 12.2388V12.6388ZM1.45714 12.8689C1.45714 12.7472 1.56042 12.6388 1.69949 12.6388V12.2388C1.35021 12.2388 1.05714 12.5157 1.05714 12.8689H1.45714ZM1.45714 14.5891V12.8689H1.05714V14.5891H1.45714ZM2.5842 15.6793C1.95766 15.6793 1.45714 15.1847 1.45714 14.5891H1.05714C1.05714 15.4162 1.74744 16.0793 2.5842 16.0793V15.6793Z" fill="#3D4767"/>
</g>
<defs>
<clipPath id="clip0_1905_62081">
<rect width="18.8567" height="19.58" fill="white"/>
</clipPath>
</defs>
</svg>
