<svg width="15" height="16" viewBox="0 0 15 16" fill="none" xmlns="http://www.w3.org/2000/svg">
<path fill-rule="evenodd" clip-rule="evenodd" d="M10.9549 6.23216C11.0921 6.09874 11.3152 6.09874 11.4524 6.23216L11.4538 6.23147C11.5911 6.36489 11.5911 6.58179 11.4538 6.71521L7.93502 10.1363C7.86605 10.2033 7.77597 10.2368 7.68589 10.2368C7.59581 10.2368 7.50573 10.204 7.43676 10.1369L3.91796 6.71589C3.78073 6.58247 3.78073 6.36558 3.91796 6.23216C4.05519 6.09874 4.27829 6.09874 4.41552 6.23216L7.33331 9.0689V1.34211C7.33331 1.15326 7.49095 1 7.68519 1C7.87942 1 8.03707 1.15326 8.03707 1.34211V9.0689L10.9549 6.23216ZM2.05564 12.6316H13.3158C13.8978 12.6316 14.3714 12.1711 14.3714 11.6053V10.2368C14.3714 10.048 14.2138 9.89474 14.0195 9.89474C13.8253 9.89474 13.6677 10.048 13.6677 10.2368V11.6053C13.6677 11.7941 13.51 11.9474 13.3158 11.9474H2.05564C1.8614 11.9474 1.70376 11.7941 1.70376 11.6053V10.2368C1.70376 10.048 1.54612 9.89474 1.35188 9.89474C1.15764 9.89474 1 10.048 1 10.2368V11.6053C1 12.1711 1.47363 12.6316 2.05564 12.6316Z" fill="#646F85"/>
<path d="M11.4524 6.23216L11.313 6.37556L11.4136 6.47339L11.5398 6.41203L11.4524 6.23216ZM10.9549 6.23216L10.8154 6.08876V6.08876L10.9549 6.23216ZM11.4538 6.23147L11.5932 6.08808L11.4926 5.99024L11.3664 6.0516L11.4538 6.23147ZM11.4538 6.71521L11.5932 6.85861V6.85861L11.4538 6.71521ZM7.93502 10.1363L7.7956 9.99286L7.7956 9.99286L7.93502 10.1363ZM7.43676 10.1369L7.57617 9.99355L7.57617 9.99355L7.43676 10.1369ZM3.91796 6.71589L4.05738 6.5725V6.5725L3.91796 6.71589ZM4.41552 6.23216L4.55494 6.08876L4.55494 6.08876L4.41552 6.23216ZM7.33331 9.0689L7.19389 9.21229L7.53331 9.54228V9.0689H7.33331ZM8.03707 9.0689H7.83707V9.54228L8.17648 9.21229L8.03707 9.0689ZM11.5918 6.08876C11.377 5.87987 11.0303 5.87987 10.8154 6.08876L11.0943 6.37556C11.1539 6.3176 11.2534 6.3176 11.313 6.37556L11.5918 6.08876ZM11.3664 6.0516L11.365 6.05228L11.5398 6.41203L11.5413 6.41135L11.3664 6.0516ZM11.5932 6.85861C11.8112 6.64665 11.8112 6.30003 11.5932 6.08808L11.3144 6.37487C11.3709 6.42976 11.3709 6.51693 11.3144 6.57181L11.5932 6.85861ZM8.07444 10.2797L11.5932 6.85861L11.3144 6.57181L7.7956 9.99286L8.07444 10.2797ZM7.68589 10.4368C7.82537 10.4368 7.96626 10.3848 8.07444 10.2797L7.7956 9.99286C7.76584 10.0218 7.72657 10.0368 7.68589 10.0368V10.4368ZM7.29734 10.2803C7.40622 10.3862 7.54744 10.4368 7.68589 10.4368V10.0368C7.64417 10.0368 7.60524 10.0218 7.57617 9.99355L7.29734 10.2803ZM3.77855 6.85929L7.29734 10.2803L7.57617 9.99355L4.05738 6.5725L3.77855 6.85929ZM3.77855 6.08876C3.56053 6.30072 3.56053 6.64734 3.77855 6.85929L4.05738 6.5725C4.00092 6.51761 4.00092 6.43044 4.05738 6.37556L3.77855 6.08876ZM4.55494 6.08876C4.34008 5.87987 3.9934 5.87987 3.77855 6.08876L4.05738 6.37556C4.11699 6.3176 4.2165 6.3176 4.2761 6.37556L4.55494 6.08876ZM7.47272 8.9255L4.55494 6.08876L4.2761 6.37556L7.19389 9.21229L7.47272 8.9255ZM7.13331 1.34211V9.0689H7.53331V1.34211H7.13331ZM7.68519 0.8C7.38584 0.8 7.13331 1.03753 7.13331 1.34211H7.53331C7.53331 1.26899 7.59606 1.2 7.68519 1.2V0.8ZM8.23706 1.34211C8.23706 1.03753 7.98453 0.8 7.68519 0.8V1.2C7.77431 1.2 7.83707 1.26899 7.83707 1.34211H8.23706ZM8.23706 9.0689V1.34211H7.83707V9.0689H8.23706ZM10.8154 6.08876L7.89765 8.9255L8.17648 9.21229L11.0943 6.37556L10.8154 6.08876ZM13.3158 12.4316H2.05564V12.8316H13.3158V12.4316ZM14.1714 11.6053C14.1714 12.0554 13.7927 12.4316 13.3158 12.4316V12.8316C14.0029 12.8316 14.5714 12.2868 14.5714 11.6053H14.1714ZM14.1714 10.2368V11.6053H14.5714V10.2368H14.1714ZM14.0195 10.0947C14.1087 10.0947 14.1714 10.1637 14.1714 10.2368H14.5714C14.5714 9.93227 14.3189 9.69474 14.0195 9.69474V10.0947ZM13.8677 10.2368C13.8677 10.1637 13.9304 10.0947 14.0195 10.0947V9.69474C13.7202 9.69474 13.4677 9.93227 13.4677 10.2368H13.8677ZM13.8677 11.6053V10.2368H13.4677V11.6053H13.8677ZM13.3158 12.1474C13.6151 12.1474 13.8677 11.9098 13.8677 11.6053H13.4677C13.4677 11.6784 13.4049 11.7474 13.3158 11.7474V12.1474ZM2.05564 12.1474H13.3158V11.7474H2.05564V12.1474ZM1.50376 11.6053C1.50376 11.9098 1.75629 12.1474 2.05564 12.1474V11.7474C1.96651 11.7474 1.90376 11.6784 1.90376 11.6053H1.50376ZM1.50376 10.2368V11.6053H1.90376V10.2368H1.50376ZM1.35188 10.0947C1.44101 10.0947 1.50376 10.1637 1.50376 10.2368H1.90376C1.90376 9.93227 1.65123 9.69474 1.35188 9.69474V10.0947ZM1.2 10.2368C1.2 10.1637 1.26275 10.0947 1.35188 10.0947V9.69474C1.05253 9.69474 0.8 9.93227 0.8 10.2368H1.2ZM1.2 11.6053V10.2368H0.8V11.6053H1.2ZM2.05564 12.4316C1.57874 12.4316 1.2 12.0554 1.2 11.6053H0.8C0.8 12.2868 1.36852 12.8316 2.05564 12.8316V12.4316Z" fill="#646F85"/>
</svg>
