<svg width="13" height="7" viewBox="0 0 13 7" fill="none" xmlns="http://www.w3.org/2000/svg">
<path fill-rule="evenodd" clip-rule="evenodd" d="M6.50587 6.49882C6.36056 6.49095 6.22244 6.4304 6.11532 6.32763L1.24131 1.63222C1.07734 1.4735 1.00697 1.23554 1.05671 1.00799C1.10644 0.78044 1.26872 0.597868 1.48242 0.529053C1.69611 0.460238 1.92875 0.515636 2.0927 0.674378L6.54102 4.95813L10.9893 0.674378C11.1533 0.515636 11.3859 0.460238 11.5996 0.529053C11.8133 0.597868 11.9756 0.78044 12.0253 1.00799C12.0751 1.23554 12.0047 1.4735 11.8407 1.63222L6.96671 6.32763C6.84176 6.44767 6.67539 6.50948 6.50587 6.49882Z" fill="#1D1E21" stroke="black" stroke-width="0.3"/>
</svg>
