<svg width="17" height="4" viewBox="0 0 17 4" fill="none" xmlns="http://www.w3.org/2000/svg">
<path fill-rule="evenodd" clip-rule="evenodd" d="M14.98 3.54C14.0025 3.54 13.21 2.74754 13.21 1.77C13.21 0.792456 14.0025 -1.20099e-07 14.98 -7.73692e-08C15.9575 -3.46394e-08 16.75 0.792456 16.75 1.77C16.75 2.74754 15.9575 3.54 14.98 3.54ZM8.785 3.54C7.80745 3.54 7.015 2.74754 7.015 1.77C7.015 0.792456 7.80746 -3.90891e-07 8.785 -3.48161e-07C9.76254 -3.05431e-07 10.555 0.792456 10.555 1.77C10.555 2.74754 9.76254 3.54 8.785 3.54ZM0.82 1.77C0.82 2.74754 1.61246 3.54 2.59 3.54C3.56754 3.54 4.36 2.74754 4.36 1.77C4.36 0.792455 3.56754 -5.76224e-07 2.59 -6.18953e-07C1.61246 -6.61683e-07 0.82 0.792455 0.82 1.77Z" fill="#3D4767"/>
</svg>
