<svg width="17" height="33" viewBox="0 0 17 33" fill="none" xmlns="http://www.w3.org/2000/svg">
<path d="M1.25879 9.07022L13.8395 9.07022L9.64526 14.06L10.5076 14.8916L15.6035 8.86231C15.7211 8.73757 15.7603 8.61283 15.7603 8.4465C15.7603 8.28018 15.7211 8.15543 15.6035 8.03069L10.5076 2.0014L9.64526 2.83303L13.8787 7.82278L1.25879 7.82278L1.25879 9.07022Z" stroke-width="1.4"/>
<path d="M15.7603 23.9322L3.17952 23.9322L7.37378 18.9425L6.51141 18.1108L1.41558 24.1401C1.29798 24.2649 1.25878 24.3896 1.25878 24.5559C1.25878 24.7223 1.29798 24.847 1.41558 24.9718L6.51141 31.001L7.37378 30.1694L3.14032 25.1797L15.7603 25.1797L15.7603 23.9322Z" stroke-width="1.4"/>
</svg>
