<svg width="20" height="18" viewBox="0 0 20 18" fill="none" xmlns="http://www.w3.org/2000/svg">
<path d="M7 6.60519L17.4106 6.60519L13.9398 10.5622L14.6534 11.2217L18.8702 6.44032C18.9676 6.34139 19 6.24247 19 6.11057C19 5.97867 18.9676 5.87974 18.8702 5.78082L14.6534 0.999459L13.9398 1.65896L17.443 5.61594L7 5.61595L7 6.60519Z" fill="#FF287D" stroke="#FF287D"/>
<path d="M13 11.397L2.58942 11.397L6.06018 7.44002L5.34657 6.78052L1.12975 11.5619C1.03244 11.6608 1.00001 11.7597 1.00001 11.8916C1.00001 12.0235 1.03244 12.1225 1.12975 12.2214L5.34657 17.0027L6.06018 16.3432L2.55698 12.3863L13 12.3863L13 11.397Z" fill="#FF287D" stroke="#FF287D"/>
</svg>
