<svg width="9" height="17" viewBox="0 0 9 17" fill="none" xmlns="http://www.w3.org/2000/svg">
<path d="M1 4.83871L7.07284 4.83871L5.04823 7.54839L5.46451 8L7.92431 4.72581C7.98108 4.65806 8 4.59032 8 4.5C8 4.40968 7.98108 4.34193 7.92431 4.27419L5.4645 1L5.04823 1.45161L7.09176 4.16129L1 4.16129L1 4.83871Z" fill="white" stroke="white"/>
<path d="M8 12.1613L1.92716 12.1613L3.95177 9.45161L3.5355 9L1.07569 12.2742C1.01892 12.3419 1 12.4097 1 12.5C1 12.5903 1.01892 12.6581 1.07569 12.7258L3.5355 16L3.95177 15.5484L1.90824 12.8387L8 12.8387L8 12.1613Z" fill="white" stroke="white"/>
</svg>
