<svg width="15" height="13" viewBox="0 0 15 13" fill="#646F85" xmlns="http://www.w3.org/2000/svg">
<path d="M11.1625 6.23216C11.0291 6.09874 10.8122 6.09874 10.6788 6.23216L7.84205 9.0689V1.34211C7.84205 1.15326 7.68879 1 7.49995 1C7.31111 1 7.15784 1.15326 7.15784 1.34211V9.0689L4.32111 6.23216C4.18769 6.09874 3.97079 6.09874 3.83737 6.23216C3.70395 6.36558 3.70395 6.58247 3.83737 6.71589L7.25842 10.1369C7.32548 10.204 7.41305 10.2368 7.50063 10.2368C7.58821 10.2368 7.67579 10.2033 7.74284 10.1363L11.1639 6.71521C11.2973 6.58179 11.2973 6.36489 11.1639 6.23147L11.1625 6.23216Z" stroke="#646F85" stroke-width="0.4"/>
<path d="M12.9737 12.6316H2.02632C1.46047 12.6316 1 12.1711 1 11.6053V10.2369C1 10.048 1.15326 9.89478 1.34211 9.89478C1.53095 9.89478 1.68421 10.048 1.68421 10.2369V11.6053C1.68421 11.7941 1.83747 11.9474 2.02632 11.9474H12.9737C13.1625 11.9474 13.3158 11.7941 13.3158 11.6053V10.2369C13.3158 10.048 13.4691 9.89478 13.6579 9.89478C13.8467 9.89478 14 10.048 14 10.2369V11.6053C14 12.1711 13.5395 12.6316 12.9737 12.6316Z" stroke="#646F85" stroke-width="0.4"/>
</svg>
