<svg width="15" height="16" viewBox="0 0 15 16" fill="none" xmlns="http://www.w3.org/2000/svg">
<path d="M7.8031 12.5954C8.47329 12.5954 9.10532 12.5141 9.69921 12.3516C10.2964 12.1923 10.8472 11.9816 11.3515 11.7195C11.8558 11.4541 12.307 11.1622 12.7051 10.8436C13.1066 10.5251 13.4483 10.2066 13.7303 9.88812C14.0123 9.5663 14.228 9.26936 14.3773 8.9973C14.5266 8.72193 14.6012 8.49964 14.6012 8.33043C14.6012 8.16122 14.5266 7.94059 14.3773 7.66853C14.228 7.39316 14.0123 7.09622 13.7303 6.77771C13.4483 6.45589 13.1066 6.13572 12.7051 5.81721C12.307 5.49871 11.8541 5.2084 11.3465 4.9463C10.8422 4.68088 10.2914 4.46854 9.69423 4.30929C9.10035 4.14672 8.46997 4.06543 7.8031 4.06543C7.14286 4.06543 6.5158 4.14672 5.92192 4.30929C5.33136 4.46854 4.78226 4.68088 4.27464 4.9463C3.77034 5.2084 3.31581 5.49871 2.91104 5.81721C2.50959 6.13572 2.1662 6.45589 1.88087 6.77771C1.59554 7.09622 1.37657 7.39316 1.22395 7.66853C1.07465 7.94059 1 8.16122 1 8.33043C1 8.49964 1.07465 8.72193 1.22395 8.9973C1.37657 9.26936 1.59554 9.5663 1.88087 9.88812C2.1662 10.2066 2.50959 10.5251 2.91104 10.8436C3.31249 11.1622 3.76537 11.4541 4.26967 11.7195C4.77729 11.9816 5.32638 12.1923 5.91694 12.3516C6.51082 12.5141 7.13954 12.5954 7.8031 12.5954ZM7.8031 11.8091C7.25567 11.8091 6.7298 11.7411 6.2255 11.6051C5.72119 11.469 5.24841 11.2899 4.80715 11.0676C4.36588 10.842 3.96609 10.5965 3.60777 10.331C3.24945 10.0656 2.93924 9.80352 2.67714 9.54474C2.41835 9.28263 2.21928 9.04375 2.07994 8.8281C1.94059 8.61244 1.87092 8.44655 1.87092 8.33043C1.87092 8.2309 1.94059 8.07828 2.07994 7.87258C2.21928 7.66687 2.41835 7.43297 2.67714 7.17087C2.93924 6.90545 3.24945 6.63836 3.60777 6.36962C3.96609 6.10088 4.36588 5.85205 4.80715 5.62313C5.24841 5.39088 5.72119 5.20509 6.2255 5.06574C6.7298 4.92307 7.25567 4.85174 7.8031 4.85174C8.34721 4.85174 8.86976 4.92307 9.37075 5.06574C9.87505 5.20509 10.3478 5.39088 10.7891 5.62313C11.2304 5.85205 11.6302 6.10088 11.9885 6.36962C12.3501 6.63836 12.6603 6.90545 12.9191 7.17087C13.1779 7.43297 13.377 7.66687 13.5163 7.87258C13.659 8.07828 13.7303 8.2309 13.7303 8.33043C13.7303 8.44655 13.659 8.61244 13.5163 8.8281C13.377 9.04375 13.1779 9.28263 12.9191 9.54474C12.6603 9.80352 12.3501 10.0656 11.9885 10.331C11.6302 10.5965 11.2304 10.842 10.7891 11.0676C10.3478 11.2899 9.87505 11.469 9.37075 11.6051C8.86976 11.7411 8.34721 11.8091 7.8031 11.8091ZM7.8031 11.1174C8.18796 11.1174 8.5496 11.0444 8.88801 10.8984C9.22642 10.7524 9.52336 10.5517 9.77883 10.2962C10.0343 10.0374 10.2334 9.74048 10.376 9.40539C10.522 9.06698 10.595 8.70866 10.595 8.33043C10.595 7.94225 10.522 7.57895 10.376 7.24054C10.2334 6.90213 10.0343 6.60685 9.77883 6.35469C9.52336 6.09923 9.22642 5.90016 8.88801 5.7575C8.5496 5.61483 8.18796 5.5435 7.8031 5.5435C7.4116 5.5435 7.04665 5.61483 6.70823 5.7575C6.36982 5.90016 6.07288 6.09923 5.81741 6.35469C5.56194 6.60685 5.36122 6.90213 5.21523 7.24054C5.07257 7.57895 5.00124 7.94225 5.00124 8.33043C5.00455 8.70866 5.07755 9.06698 5.22021 9.40539C5.36619 9.74048 5.56692 10.0374 5.82239 10.2962C6.07786 10.5517 6.37314 10.7524 6.70823 10.8984C7.04665 11.0444 7.4116 11.1174 7.8031 11.1174ZM7.8031 9.25609C7.54431 9.25609 7.32368 9.16485 7.1412 8.98237C6.95872 8.79989 6.86749 8.58258 6.86749 8.33043C6.86749 8.07496 6.95872 7.85765 7.1412 7.67849C7.32368 7.49601 7.54431 7.40477 7.8031 7.40477C8.05857 7.40477 8.27754 7.49601 8.46002 7.67849C8.6425 7.85765 8.73373 8.07496 8.73373 8.33043C8.73373 8.58258 8.6425 8.79989 8.46002 8.98237C8.27754 9.16485 8.05857 9.25609 7.8031 9.25609Z" fill="#9A99A2"/>
</svg>
