<svg width="30" height="30" viewBox="0 0 30 30" fill="none" xmlns="http://www.w3.org/2000/svg">
<g clip-path="url(#clip0_146_301)">
<path fill-rule="evenodd" clip-rule="evenodd" d="M15 29C22.732 29 29 22.732 29 15C29 7.26801 22.732 1 15 1C7.26801 1 1 7.26801 1 15C1 22.732 7.26801 29 15 29Z" stroke="url(#paint0_linear_146_301)" stroke-width="2"/>
<path fill-rule="evenodd" clip-rule="evenodd" d="M14.2929 15L8.64642 20.6465L9.35353 21.3536L15 15.7071L20.6464 21.3536L21.3535 20.6465L15.7071 15L21.3535 9.35356L20.6464 8.64645L15 14.2929L9.35353 8.64645L8.64642 9.35356L14.2929 15Z" fill="#A8AEB7"/>
</g>
<defs>
<linearGradient id="paint0_linear_146_301" x1="1" y1="14.7455" x2="29" y2="14.7455" gradientUnits="userSpaceOnUse">
<stop stop-color="#2CD2CF"/>
<stop offset="1" stop-color="#9D4DFA"/>
</linearGradient>
<clipPath id="clip0_146_301">
<rect width="30" height="30" fill="white"/>
</clipPath>
</defs>
</svg>
