<svg width="26" height="26" viewBox="0 0 26 26" fill="none" xmlns="http://www.w3.org/2000/svg">
<path d="M14.1255 17.9717L17.2139 13.5649C17.3522 13.3696 17.401 13.1621 17.3604 12.9424C17.3197 12.7227 17.2098 12.5518 17.0308 12.4297C16.8517 12.3076 16.6523 12.2669 16.4326 12.3076C16.2129 12.3402 16.0339 12.4541 15.8955 12.6494L12.8193 17.0439L14.1255 17.9717ZM12.624 20.6084C13.1611 20.6084 13.6169 20.4212 13.9912 20.0469C14.3737 19.6644 14.5649 19.2046 14.5649 18.6675C14.5649 18.1304 14.3737 17.6746 13.9912 17.3003C13.6169 16.9178 13.1611 16.7266 12.624 16.7266C12.0869 16.7266 11.6271 16.9178 11.2446 17.3003C10.8703 17.6746 10.6831 18.1304 10.6831 18.6675C10.6831 19.2046 10.8703 19.6644 11.2446 20.0469C11.6271 20.4212 12.0869 20.6084 12.624 20.6084ZM6.42285 11.3188C6.75651 11.3188 7.03727 11.2008 7.26514 10.9648C7.50114 10.7288 7.61914 10.4481 7.61914 10.1226C7.61914 9.7889 7.50114 9.50407 7.26514 9.26807C7.03727 9.03206 6.75651 8.91406 6.42285 8.91406C6.09733 8.91406 5.81657 9.03206 5.58057 9.26807C5.34456 9.50407 5.22656 9.7889 5.22656 10.1226C5.22656 10.4481 5.34456 10.7288 5.58057 10.9648C5.81657 11.2008 6.09733 11.3188 6.42285 11.3188ZM9.13281 8.74316C9.46647 8.74316 9.74723 8.62516 9.9751 8.38916C10.2111 8.15316 10.3291 7.86833 10.3291 7.53467C10.3291 7.20915 10.2111 6.92839 9.9751 6.69238C9.74723 6.45638 9.46647 6.33838 9.13281 6.33838C8.80729 6.33838 8.52653 6.45638 8.29053 6.69238C8.05452 6.92839 7.93652 7.20915 7.93652 7.53467C7.93652 7.86833 8.05452 8.15316 8.29053 8.38916C8.52653 8.62516 8.80729 8.74316 9.13281 8.74316ZM12.624 7.65674C12.9495 7.65674 13.2303 7.53874 13.4663 7.30273C13.7023 7.06673 13.8203 6.78597 13.8203 6.46045C13.8203 6.12679 13.7023 5.84603 13.4663 5.61816C13.2303 5.38216 12.9495 5.26416 12.624 5.26416C12.2904 5.26416 12.0055 5.38216 11.7695 5.61816C11.5417 5.84603 11.4277 6.12679 11.4277 6.46045C11.4277 6.78597 11.5417 7.06673 11.7695 7.30273C12.0055 7.53874 12.2904 7.65674 12.624 7.65674ZM16.1152 8.74316C16.4489 8.74316 16.7297 8.62516 16.9575 8.38916C17.1935 8.14502 17.3115 7.86019 17.3115 7.53467C17.3115 7.20101 17.1935 6.91618 16.9575 6.68018C16.7297 6.44417 16.4489 6.32617 16.1152 6.32617C15.7816 6.32617 15.4967 6.44417 15.2607 6.68018C15.0329 6.91618 14.9189 7.20101 14.9189 7.53467C14.9189 7.86019 15.0329 8.14502 15.2607 8.38916C15.4967 8.62516 15.7816 8.74316 16.1152 8.74316ZM18.8252 11.3188C19.1589 11.3188 19.4396 11.2008 19.6675 10.9648C19.9035 10.7288 20.0215 10.4481 20.0215 10.1226C20.0215 9.7889 19.9035 9.50407 19.6675 9.26807C19.4396 9.03206 19.1589 8.91406 18.8252 8.91406C18.4997 8.91406 18.2189 9.03206 17.9829 9.26807C17.7469 9.50407 17.6289 9.7889 17.6289 10.1226C17.6289 10.4481 17.7469 10.7288 17.9829 10.9648C18.2189 11.2008 18.4997 11.3188 18.8252 11.3188ZM12.6362 25.6377C14.3371 25.6377 15.9362 25.3122 17.4336 24.6611C18.9391 24.0101 20.2656 23.1108 21.4131 21.9634C22.5605 20.8159 23.4598 19.4935 24.1108 17.9961C24.7619 16.4906 25.0874 14.8874 25.0874 13.1865C25.0874 11.4857 24.7619 9.88656 24.1108 8.38916C23.4598 6.88363 22.5605 5.55713 21.4131 4.40967C20.2656 3.26221 18.9391 2.36296 17.4336 1.71191C15.9281 1.06087 14.3249 0.735352 12.624 0.735352C10.9232 0.735352 9.31999 1.06087 7.81445 1.71191C6.31706 2.36296 4.99463 3.26221 3.84717 4.40967C2.70785 5.55713 1.81266 6.88363 1.16162 8.38916C0.510579 9.88656 0.185059 11.4857 0.185059 13.1865C0.185059 14.8874 0.510579 16.4906 1.16162 17.9961C1.81266 19.4935 2.71191 20.8159 3.85938 21.9634C5.00684 23.1108 6.32926 24.0101 7.82666 24.6611C9.33219 25.3122 10.9354 25.6377 12.6362 25.6377ZM12.6362 23.5625C11.1958 23.5625 9.84896 23.2939 8.5957 22.7568C7.34245 22.2197 6.23975 21.4792 5.2876 20.5352C4.34359 19.583 3.60303 18.4803 3.06592 17.2271C2.53695 15.9738 2.27246 14.627 2.27246 13.1865C2.27246 11.7461 2.53695 10.3993 3.06592 9.146C3.60303 7.89274 4.34359 6.79004 5.2876 5.83789C6.23161 4.88574 7.33024 4.14518 8.5835 3.61621C9.83675 3.0791 11.1836 2.81055 12.624 2.81055C14.0645 2.81055 15.4113 3.0791 16.6646 3.61621C17.9259 4.14518 19.0286 4.88574 19.9727 5.83789C20.9248 6.79004 21.6694 7.89274 22.2065 9.146C22.7437 10.3993 23.0122 11.7461 23.0122 13.1865C23.0122 14.627 22.7437 15.9738 22.2065 17.2271C21.6776 18.4803 20.937 19.583 19.9849 20.5352C19.0327 21.4792 17.93 22.2197 16.6768 22.7568C15.4235 23.2939 14.0767 23.5625 12.6362 23.5625Z" fill="#3AB24D"/>
</svg>
