<svg width="19" height="16" viewBox="0 0 19 16" fill="none" xmlns="http://www.w3.org/2000/svg">
<path d="M2.71582 12.4298H4.33195V4.95401C4.33195 4.17152 4.54262 3.55155 4.96396 3.09409C5.39132 2.63664 5.93003 2.40791 6.5801 2.40791C7.23618 2.40791 7.78091 2.63664 8.21429 3.09409C8.64767 3.54553 8.86436 4.1655 8.86436 4.95401V11.1387C8.86436 12.0114 9.02988 12.7698 9.36094 13.4139C9.69801 14.0519 10.1585 14.5455 10.7423 14.8946C11.3322 15.2437 12.0033 15.4183 12.7557 15.4183C13.5081 15.4183 14.1732 15.2437 14.7511 14.8946C15.3349 14.5455 15.7924 14.0519 16.1234 13.4139C16.4545 12.7698 16.62 12.0114 16.62 11.1387V3.73513H15.0039V11.2651C15.0039 12.0415 14.7902 12.6585 14.3628 13.1159C13.9415 13.5734 13.4058 13.8021 12.7557 13.8021C12.0996 13.8021 11.5549 13.5764 11.1215 13.125C10.6882 12.6735 10.4715 12.0536 10.4715 11.2651V5.08041C10.4715 4.20763 10.3029 3.45223 9.96586 2.81421C9.63481 2.17016 9.17434 1.67358 8.58447 1.32447C8.00061 0.975361 7.33249 0.800807 6.5801 0.800807C5.82771 0.800807 5.15958 0.975361 4.57573 1.32447C3.99789 1.67358 3.54345 2.17016 3.21239 2.81421C2.88134 3.45223 2.71582 4.20763 2.71582 5.08041V12.4298ZM1.4518 11.7436C1.12677 11.7436 0.925125 11.8399 0.846877 12.0325C0.768628 12.2191 0.816781 12.4358 0.991336 12.6826L3.01376 15.5537C3.16424 15.7644 3.33579 15.8667 3.5284 15.8607C3.72101 15.8607 3.88955 15.7583 4.03401 15.5537L6.05643 12.6735C6.23099 12.4268 6.27613 12.2101 6.19186 12.0235C6.11361 11.8369 5.91498 11.7436 5.59597 11.7436H1.4518ZM13.7489 4.47549H17.884C18.203 4.47549 18.4017 4.38219 18.4799 4.1956C18.5642 4.00298 18.519 3.78329 18.3445 3.5365L16.3311 0.656348C16.1866 0.451697 16.0151 0.349372 15.8165 0.349372C15.6238 0.343353 15.4553 0.445678 15.3108 0.656348L13.2884 3.52747C13.1078 3.78028 13.0567 4.00298 13.1349 4.1956C13.2192 4.38219 13.4238 4.47549 13.7489 4.47549Z" fill="#9742FB"/>
</svg>
