<svg width="22" height="23" viewBox="0 0 22 23" fill="none" xmlns="http://www.w3.org/2000/svg">
<path d="M13.7696 18.5095C14.1433 18.5095 14.4831 18.416 14.7889 18.2291C15.1004 18.0479 15.3467 17.8016 15.5279 17.4901C15.7148 17.1843 15.8082 16.8445 15.8082 16.4708C15.8082 16.097 15.7148 15.7572 15.5279 15.4514C15.3467 15.14 15.1004 14.8936 14.7889 14.7124C14.4831 14.5255 14.1433 14.4321 13.7696 14.4321C13.3958 14.4321 13.0532 14.5255 12.7417 14.7124C12.4359 14.8936 12.1896 15.14 12.0027 15.4514C11.8158 15.7572 11.7224 16.097 11.7224 16.4708C11.7224 16.8445 11.8158 17.1843 12.0027 17.4901C12.1896 17.8016 12.4359 18.0479 12.7417 18.2291C13.0532 18.416 13.3958 18.5095 13.7696 18.5095ZM13.7696 17.4646C13.4921 17.4646 13.2571 17.3684 13.0645 17.1758C12.872 16.9833 12.7757 16.7483 12.7757 16.4708C12.7757 16.1876 12.872 15.9526 13.0645 15.7657C13.2571 15.5732 13.4921 15.4769 13.7696 15.4769C14.047 15.4769 14.2821 15.5732 14.4746 15.7657C14.6671 15.9526 14.7634 16.1876 14.7634 16.4708C14.7634 16.7483 14.6671 16.9833 14.4746 17.1758C14.2821 17.3684 14.047 17.4646 13.7696 17.4646ZM12.4189 15.7827H2.84564C2.65876 15.7827 2.49736 15.8507 2.36145 15.9866C2.2312 16.1168 2.16608 16.2782 2.16608 16.4708C2.16608 16.6577 2.2312 16.8191 2.36145 16.955C2.49736 17.0852 2.65876 17.1503 2.84564 17.1503H12.4189V15.7827ZM18.6284 15.7827H15.2476V17.1503H18.6284C18.804 17.1503 18.9569 17.0852 19.0871 16.955C19.2174 16.8191 19.2825 16.6577 19.2825 16.4708C19.2825 16.2782 19.2174 16.1168 19.0871 15.9866C18.9569 15.8507 18.804 15.7827 18.6284 15.7827ZM7.77244 13.3278C8.1462 13.3278 8.48598 13.2344 8.79178 13.0475C9.10325 12.8606 9.34959 12.6143 9.5308 12.3085C9.71768 11.997 9.81112 11.6544 9.81112 11.2806C9.81112 10.9069 9.71768 10.5671 9.5308 10.2613C9.34959 9.94984 9.10325 9.7035 8.79178 9.52229C8.48598 9.33541 8.1462 9.24197 7.77244 9.24197C7.39869 9.24197 7.05607 9.33541 6.74461 9.52229C6.43881 9.7035 6.19247 9.94984 6.00559 10.2613C5.82437 10.5671 5.73376 10.9069 5.73376 11.2806C5.73376 11.6544 5.82437 11.997 6.00559 12.3085C6.19247 12.6143 6.43881 12.8606 6.74461 13.0475C7.05607 13.2344 7.39869 13.3278 7.77244 13.3278ZM7.77244 12.2745C7.49496 12.2745 7.25994 12.1782 7.0674 11.9857C6.87486 11.7931 6.77859 11.5581 6.77859 11.2806C6.77859 10.9975 6.87486 10.7625 7.0674 10.5756C7.25994 10.3831 7.49496 10.2868 7.77244 10.2868C8.05559 10.2868 8.29061 10.3831 8.47749 10.5756C8.67003 10.7625 8.7663 10.9975 8.7663 11.2806C8.7663 11.5581 8.67003 11.7931 8.47749 11.9857C8.29061 12.1782 8.05559 12.2745 7.77244 12.2745ZM2.81166 10.5926C2.64177 10.5926 2.4917 10.6605 2.36145 10.7965C2.2312 10.9267 2.16608 11.0881 2.16608 11.2806C2.16608 11.4732 2.2312 11.6346 2.36145 11.7648C2.4917 11.8951 2.64177 11.9602 2.81166 11.9602H6.31139V10.5926H2.81166ZM18.5944 10.5926H9.12307V11.9602H18.5944C18.787 11.9602 18.9484 11.8951 19.0786 11.7648C19.2145 11.6346 19.2825 11.4732 19.2825 11.2806C19.2825 11.0881 19.2145 10.9267 19.0786 10.7965C18.9484 10.6605 18.787 10.5926 18.5944 10.5926ZM13.7696 8.12919C14.1433 8.12919 14.4831 8.03858 14.7889 7.85736C15.1004 7.67049 15.3467 7.42414 15.5279 7.11834C15.7148 6.80688 15.8082 6.46427 15.8082 6.09051C15.8082 5.71675 15.7148 5.37697 15.5279 5.07117C15.3467 4.7597 15.1004 4.51053 14.7889 4.32365C14.4831 4.13677 14.1433 4.04333 13.7696 4.04333C13.3958 4.04333 13.0532 4.13677 12.7417 4.32365C12.4359 4.51053 12.1896 4.7597 12.0027 5.07117C11.8158 5.37697 11.7224 5.71675 11.7224 6.09051C11.7224 6.46427 11.8158 6.80688 12.0027 7.11834C12.1896 7.42414 12.4359 7.67049 12.7417 7.85736C13.0532 8.03858 13.3958 8.12919 13.7696 8.12919ZM13.7696 7.08436C13.4921 7.08436 13.2571 6.98809 13.0645 6.79555C12.872 6.59735 12.7757 6.3595 12.7757 6.08201C12.7757 5.80453 12.872 5.56951 13.0645 5.37697C13.2571 5.18443 13.4921 5.08816 13.7696 5.08816C14.047 5.08816 14.2821 5.18443 14.4746 5.37697C14.6671 5.56951 14.7634 5.80453 14.7634 6.08201C14.7634 6.3595 14.6671 6.59735 14.4746 6.79555C14.2821 6.98809 14.047 7.08436 13.7696 7.08436ZM12.4614 5.41095H2.84564C2.65876 5.41095 2.49736 5.4789 2.36145 5.61482C2.2312 5.74507 2.16608 5.90363 2.16608 6.09051C2.16608 6.28305 2.2312 6.44728 2.36145 6.58319C2.49736 6.71344 2.65876 6.77856 2.84564 6.77856H12.4614V5.41095ZM18.6284 5.41095H15.1287V6.77856H18.6284C18.804 6.77856 18.9569 6.71344 19.0871 6.58319C19.2174 6.44728 19.2825 6.28305 19.2825 6.09051C19.2825 5.90363 19.2174 5.74507 19.0871 5.61482C18.9569 5.4789 18.804 5.41095 18.6284 5.41095Z" fill="#3D4767"/>
</svg>
