<svg width="108" height="109" viewBox="0 0 108 109" fill="none" xmlns="http://www.w3.org/2000/svg">
<path d="M78.2279 81.4334H28.6482C26.3603 81.4334 25.0485 79.8527 25.0485 77.0962V34.6906C25.0485 34.6498 25.0485 34.609 25.0485 34.5697C25.0485 34.4803 25.0485 34.3892 25.0485 34.2982C25.0487 34.2154 25.0603 34.133 25.0828 34.0533C25.314 31.6484 26.8788 30.2325 29.3682 30.2325H81.8073C82.0351 30.2325 82.2536 30.3235 82.4147 30.4854C82.5757 30.6473 82.6663 30.8669 82.6663 31.0959C82.6663 31.3248 82.5757 31.5444 82.4147 31.7064C82.2536 31.8683 82.0351 31.9592 81.8073 31.9592H29.3635C27.6659 31.9592 26.8148 32.8038 26.7679 34.5368C26.8679 36.1191 27.9814 36.9213 30.0788 36.9213H78.8229C80.6126 36.9213 82.4148 38.1645 82.4148 40.5411V77.4556C82.4226 79.8731 80.7844 81.4334 78.2279 81.4334ZM26.7664 77.1009C26.7664 79.7114 28.086 79.7114 28.6482 79.7114H78.2279C79.1524 79.7114 80.7047 79.4194 80.7047 77.4603V40.5411C80.7047 39.144 79.6912 38.648 78.8307 38.648H30.0788C28.7248 38.648 27.6035 38.3435 26.7664 37.7893V77.1009Z" fill="white"/>
<path d="M81.4838 66.8976H60.3648C58.522 66.8976 57.3772 65.8114 57.3772 64.0721V54.9926C57.3772 54.2077 57.3773 51.8169 60.3648 51.8169C62.153 51.8169 81.1356 51.7981 81.1356 51.7981V53.5248C81.1356 53.5248 62.1561 53.5437 60.3648 53.5437C59.3091 53.5437 59.0951 53.787 59.0951 54.9926V64.0642C59.0951 64.6387 59.2513 65.163 60.3648 65.163H81.4838C81.7116 65.163 81.9301 65.254 82.0912 65.4159C82.2523 65.5778 82.3428 65.7974 82.3428 66.0264C82.3428 66.2554 82.2523 66.475 82.0912 66.6369C81.9301 66.7988 81.7116 66.8898 81.4838 66.8898V66.8976Z" fill="white"/>
<path d="M65.5608 60.8112C66.4544 60.8112 67.1787 60.0831 67.1787 59.1849C67.1787 58.2868 66.4544 57.5587 65.5608 57.5587C64.6673 57.5587 63.9429 58.2868 63.9429 59.1849C63.9429 60.0831 64.6673 60.8112 65.5608 60.8112Z" fill="white"/>
<path d="M16.4851 22.7225C15.2011 22.7228 13.9457 22.3404 12.8779 21.6236C11.8101 20.9067 10.9778 19.8877 10.4862 18.6953C9.99455 17.503 9.86577 16.1909 10.1161 14.9249C10.3664 13.659 10.9846 12.4961 11.8925 11.5834C12.8003 10.6706 13.9571 10.049 15.2165 9.79705C16.4758 9.54514 17.7812 9.67427 18.9676 10.1681C20.154 10.662 21.168 11.4984 21.8814 12.5715C22.5948 13.6447 22.9756 14.9064 22.9756 16.197C22.9739 17.9269 22.2896 19.5855 21.0728 20.8089C19.8561 22.0322 18.2061 22.7205 16.4851 22.7225ZM16.4851 11.3999C15.5408 11.3995 14.6175 11.6808 13.8322 12.2079C13.0468 12.7351 12.4347 13.4846 12.0731 14.3615C11.7116 15.2384 11.6169 16.2034 11.8011 17.1344C11.9852 18.0654 12.44 18.9206 13.1077 19.5918C13.7755 20.2631 14.6263 20.7201 15.5526 20.9052C16.4788 21.0903 17.4389 20.9952 18.3113 20.6318C19.1837 20.2684 19.9293 19.6531 20.4538 18.8637C20.9782 18.0743 21.258 17.1463 21.2577 16.197C21.2561 14.9253 20.7527 13.706 19.858 12.8068C18.9634 11.9075 17.7504 11.4015 16.4851 11.3999Z" fill="white"/>
<path d="M54.4553 13.8667C53.1715 13.866 51.9166 13.4828 50.8494 12.7654C49.7822 12.048 48.9506 11.0286 48.4597 9.8362C47.9688 8.64376 47.8407 7.3318 48.0915 6.06619C48.3424 4.80057 48.9609 3.63813 49.869 2.72584C50.777 1.81355 51.9338 1.19237 53.1931 0.940833C54.4523 0.689299 55.7575 0.818709 56.9436 1.3127C58.1296 1.80669 59.1434 2.64308 59.8566 3.71613C60.5698 4.78917 60.9505 6.05069 60.9505 7.34117C60.9484 9.07175 60.2633 10.7308 59.0456 11.9542C57.8279 13.1776 56.177 13.8654 54.4553 13.8667ZM54.4553 2.54398C53.5112 2.5446 52.5884 2.82661 51.8036 3.35435C51.0189 3.8821 50.4075 4.63187 50.0466 5.50887C49.6858 6.38588 49.5918 7.35073 49.7765 8.28143C49.9612 9.21214 50.4163 10.0669 51.0843 10.7376C51.7522 11.4084 52.6031 11.865 53.5292 12.0497C54.4553 12.2344 55.4151 12.139 56.2872 11.7755C57.1594 11.4119 57.9047 10.7966 58.429 10.0073C58.9532 9.21803 59.2329 8.29021 59.2326 7.34117C59.2309 6.06857 58.7269 4.84864 57.8313 3.94922C56.9356 3.0498 55.7214 2.5444 54.4553 2.54398Z" fill="white"/>
<path d="M93.3338 22.7225C92.0497 22.7228 90.7944 22.3404 89.7266 21.6236C88.6588 20.9067 87.8264 19.8877 87.3348 18.6953C86.8432 17.503 86.7144 16.1909 86.9648 14.9249C87.2151 13.659 87.8333 12.4961 88.7411 11.5834C89.649 10.6706 90.8058 10.049 92.0651 9.79705C93.3245 9.54514 94.6299 9.67427 95.8163 10.1681C97.0026 10.662 98.0166 11.4984 98.73 12.5715C99.4434 13.6447 99.8242 14.9064 99.8242 16.197C99.8226 17.9269 99.1383 19.5855 97.9215 20.8089C96.7047 22.0322 95.0548 22.7205 93.3338 22.7225ZM93.3338 11.3999C92.3894 11.3995 91.4662 11.6808 90.6808 12.2079C89.8955 12.7351 89.2833 13.4846 88.9218 14.3615C88.5603 15.2384 88.4656 16.2034 88.6497 17.1344C88.8339 18.0654 89.2886 18.9206 89.9564 19.5918C90.6242 20.2631 91.475 20.7201 92.4012 20.9052C93.3275 21.0903 94.2875 20.9952 95.1599 20.6318C96.0323 20.2684 96.778 19.6531 97.3024 18.8637C97.8269 18.0743 98.1067 17.1463 98.1064 16.197C98.1047 14.9253 97.6014 13.706 96.7067 12.8068C95.812 11.9075 94.599 11.4015 93.3338 11.3999Z" fill="white"/>
<path d="M93.879 100.059C92.595 100.059 91.3397 99.6764 90.2721 98.9593C89.2044 98.2422 88.3723 97.223 87.881 96.0305C87.3897 94.838 87.2612 93.5259 87.5118 92.26C87.7625 90.9941 88.3809 89.8314 89.289 88.9189C90.1971 88.0063 91.354 87.3849 92.6134 87.1333C93.8729 86.8817 95.1783 87.0112 96.3645 87.5053C97.5508 87.9995 98.5646 88.8361 99.2777 89.9094C99.9909 90.9827 100.371 92.2445 100.371 93.5352C100.369 95.2651 99.6843 96.9235 98.4672 98.1466C97.2501 99.3697 95.6 100.057 93.879 100.059ZM93.879 88.7365C92.9348 88.7365 92.0118 89.0179 91.2266 89.5452C90.4415 90.0725 89.8296 90.8219 89.4683 91.6988C89.1069 92.5757 89.0124 93.5405 89.1966 94.4714C89.3808 95.4023 89.8355 96.2573 90.5032 96.9285C91.1709 97.5996 92.0215 98.0566 92.9476 98.2418C93.8737 98.4269 94.8336 98.3319 95.706 97.9687C96.5784 97.6055 97.324 96.9904 97.8486 96.2013C98.3732 95.4121 98.6532 94.4843 98.6532 93.5352C98.6528 92.2624 98.1497 91.0417 97.2546 90.1413C96.3595 89.241 95.1454 88.7346 93.879 88.7333V88.7365Z" fill="white"/>
<path d="M55.9092 108.916C54.6255 108.916 53.3707 108.533 52.3034 107.816C51.2361 107.1 50.4042 106.081 49.9129 104.889C49.4216 103.697 49.293 102.385 49.5433 101.12C49.7936 99.8541 50.4116 98.6917 51.3192 97.7792C52.2267 96.8668 53.3831 96.2453 54.642 95.9934C55.9009 95.7415 57.2059 95.8705 58.3919 96.364C59.5779 96.8575 60.5917 97.6935 61.305 98.7661C62.0184 99.8388 62.3993 101.1 62.3996 102.39C62.3984 104.12 61.7142 105.779 60.4974 107.002C59.2805 108.226 57.6303 108.914 55.9092 108.916ZM55.9092 97.5946C54.9652 97.5946 54.0424 97.876 53.2575 98.4032C52.4726 98.9303 51.8609 99.6796 51.4997 100.556C51.1385 101.433 51.0441 102.398 51.2284 103.328C51.4127 104.259 51.8674 105.114 52.535 105.784C53.2026 106.455 54.0531 106.912 54.979 107.097C55.9049 107.282 56.8646 107.187 57.7366 106.823C58.6087 106.46 59.354 105.845 59.8782 105.056C60.4024 104.267 60.6821 103.339 60.6818 102.39C60.6797 101.119 60.1762 99.8999 59.2815 99.0009C58.3869 98.102 57.1742 97.5962 55.9092 97.5946Z" fill="white"/>
<path d="M17.0306 100.059C15.7465 100.059 14.4911 99.677 13.4233 98.9601C12.3554 98.2431 11.5231 97.224 11.0315 96.0316C10.5399 94.8391 10.4112 93.5269 10.6617 92.261C10.9121 90.995 11.5305 89.8321 12.4385 88.9194C13.3465 88.0067 14.5034 87.3852 15.7629 87.1335C17.0224 86.8817 18.3278 87.0111 19.5142 87.5052C20.7005 87.9993 21.7144 88.8359 22.4276 89.9092C23.1409 90.9826 23.5214 92.2445 23.5211 93.5352C23.519 95.2648 22.8345 96.923 21.6178 98.146C20.401 99.3691 18.7514 100.057 17.0306 100.059ZM17.0306 88.7365C16.0863 88.7361 15.1631 89.0173 14.3778 89.5444C13.5925 90.0715 12.9804 90.8209 12.6188 91.6977C12.2572 92.5746 12.1624 93.5395 12.3464 94.4705C12.5305 95.4014 12.9851 96.2566 13.6527 96.9279C14.3203 97.5992 15.171 98.0564 16.0971 98.2417C17.0232 98.4269 17.9832 98.332 18.8557 97.9688C19.7281 97.6057 20.4738 96.9906 20.9985 96.2014C21.5232 95.4122 21.8032 94.4844 21.8032 93.5352C21.8028 92.2626 21.3 91.0422 20.4052 90.1419C19.5104 89.2416 18.2967 88.735 17.0306 88.7333V88.7365Z" fill="white"/>
<path d="M101.509 62.9889C100.225 62.9892 98.9699 62.6068 97.9021 61.8899C96.8343 61.1731 96.002 60.154 95.5104 58.9617C95.0188 57.7693 94.89 56.4572 95.1403 55.1913C95.3906 53.9254 96.0088 52.7625 96.9166 51.8497C97.8245 50.937 98.9813 50.3153 100.241 50.0634C101.5 49.8115 102.805 49.9406 103.992 50.4345C105.178 50.9283 106.192 51.7647 106.906 52.8379C107.619 53.911 108 55.1727 108 56.4634C107.998 58.1933 107.314 59.8519 106.097 61.0752C104.88 62.2986 103.23 62.9868 101.509 62.9889ZM101.509 51.6662C100.565 51.6659 99.6417 51.9471 98.8564 52.4743C98.071 53.0015 97.4589 53.7509 97.0973 54.6278C96.7358 55.5048 96.6411 56.4698 96.8253 57.4008C97.0094 58.3318 97.4642 59.187 98.1319 59.8582C98.7997 60.5294 99.6505 60.9865 100.577 61.1716C101.503 61.3567 102.463 61.2615 103.335 60.8981C104.208 60.5347 104.953 59.9194 105.478 59.13C106.002 58.3406 106.282 57.4126 106.282 56.4634C106.28 55.1916 105.777 53.9724 104.882 53.0731C103.988 52.1738 102.775 51.6679 101.509 51.6662Z" fill="white"/>
<path d="M6.4936 62.9889C5.20953 62.9892 3.95421 62.6068 2.88639 61.8899C1.81858 61.1731 0.986237 60.154 0.494631 58.9617C0.00302505 57.7693 -0.125766 56.4572 0.124554 55.1913C0.374874 53.9254 0.993059 52.7625 1.90092 51.8497C2.80879 50.937 3.96555 50.3153 5.22492 50.0634C6.4843 49.8115 7.78972 49.9406 8.97607 50.4345C10.1624 50.9283 11.1764 51.7647 11.8899 52.8379C12.6033 53.911 12.9841 55.1727 12.9841 56.4634C12.9824 58.1933 12.2981 59.8519 11.0813 61.0752C9.86452 62.2986 8.21461 62.9868 6.4936 62.9889ZM6.4936 51.6662C5.54922 51.6659 4.62598 51.9471 3.84063 52.4743C3.05529 53.0015 2.44313 53.7509 2.08159 54.6278C1.72005 55.5048 1.62538 56.4698 1.80954 57.4008C1.9937 58.3318 2.44843 59.187 3.11621 59.8582C3.78398 60.5294 4.63479 60.9865 5.56103 61.1716C6.48727 61.3567 7.44732 61.2615 8.31974 60.8981C9.19217 60.5347 9.93778 59.9194 10.4622 59.13C10.9867 58.3406 11.2665 57.4126 11.2662 56.4634C11.2645 55.1916 10.7612 53.9724 9.8665 53.0731C8.97183 52.1738 7.75886 51.6679 6.4936 51.6662Z" fill="white"/>
<path d="M6.4936 51.6662C6.41879 51.6661 6.34451 51.6562 6.27204 51.6376C6.05408 51.5776 5.86835 51.4338 5.75497 51.2373C5.64159 51.0408 5.60967 50.8074 5.6661 50.5874L13.4746 21.1874C13.5005 21.0744 13.5487 20.9678 13.6165 20.8739C13.6842 20.7801 13.77 20.7009 13.8689 20.6411C13.9677 20.5814 14.0775 20.5422 14.1917 20.526C14.3059 20.5098 14.4222 20.5169 14.5336 20.5468C14.6451 20.5768 14.7493 20.629 14.8403 20.7003C14.9312 20.7717 15.0069 20.8607 15.0628 20.9621C15.1188 21.0635 15.1539 21.1751 15.1659 21.2904C15.178 21.4057 15.1669 21.5223 15.1332 21.6332L7.32463 51.0332C7.27453 51.2158 7.16601 51.3767 7.01584 51.491C6.86566 51.6054 6.68199 51.6672 6.4936 51.6662Z" fill="white"/>
<path d="M21.7518 14.9618C21.5387 14.9624 21.3329 14.8833 21.1745 14.74C21.0161 14.5966 20.9165 14.3991 20.8949 14.186C20.8732 13.9728 20.9312 13.7592 21.0576 13.5867C21.1839 13.4141 21.3696 13.295 21.5785 13.2523L48.6491 7.59178C48.7596 7.56869 48.8735 7.56769 48.9843 7.58884C49.0951 7.60999 49.2007 7.65288 49.295 7.71505C49.3894 7.77722 49.4706 7.85745 49.5341 7.95118C49.5976 8.0449 49.6421 8.15027 49.665 8.26128C49.688 8.37229 49.689 8.48676 49.668 8.59815C49.6469 8.70955 49.6042 8.81568 49.5424 8.9105C49.4805 9.00533 49.4007 9.08697 49.3075 9.15078C49.2142 9.2146 49.1094 9.25932 48.999 9.28241L21.9298 14.943C21.8713 14.9555 21.8116 14.9618 21.7518 14.9618Z" fill="white"/>
<path d="M87.5212 14.5965C87.4556 14.5961 87.3901 14.5887 87.326 14.5746L59.893 8.18249C59.6767 8.12545 59.4911 7.98587 59.3755 7.79342C59.26 7.60096 59.2237 7.37081 59.2744 7.15187C59.325 6.93294 59.4586 6.74249 59.6467 6.621C59.8349 6.49951 60.0627 6.45656 60.2819 6.50128L87.7149 12.8918C87.9206 12.9394 88.1017 13.0614 88.2236 13.2347C88.3455 13.408 88.3996 13.6203 88.3757 13.8311C88.3517 14.042 88.2514 14.2365 88.0938 14.3777C87.9362 14.5189 87.7323 14.5968 87.5212 14.5965Z" fill="white"/>
<path d="M100.237 51.4841C100.035 51.4836 99.8403 51.412 99.6859 51.2818C99.5315 51.1515 99.4275 50.9709 99.392 50.7715L94.2805 21.9177C94.2405 21.6923 94.2913 21.4601 94.4216 21.2723C94.552 21.0845 94.7512 20.9564 94.9755 20.9162C95.1998 20.876 95.4307 20.927 95.6176 21.058C95.8044 21.1891 95.9319 21.3893 95.9718 21.6147L101.086 50.4685C101.106 50.5802 101.104 50.6947 101.08 50.8055C101.056 50.9163 101.01 51.0213 100.946 51.1143C100.881 51.2074 100.799 51.2867 100.704 51.3477C100.609 51.4088 100.503 51.4503 100.391 51.47C100.341 51.4796 100.289 51.4843 100.237 51.4841Z" fill="white"/>
<path d="M95.5159 88.733C95.4597 88.7326 95.4038 88.7268 95.3488 88.7157C95.1253 88.6713 94.9286 88.5396 94.8018 88.3494C94.6749 88.1593 94.6285 87.9262 94.6726 87.7016L99.6809 62.1679C99.7285 61.9467 99.8605 61.7532 100.049 61.6288C100.237 61.5045 100.466 61.4595 100.687 61.5033C100.908 61.5471 101.103 61.6763 101.23 61.8632C101.357 62.05 101.406 62.2795 101.366 62.5023L96.3545 88.0407C96.315 88.2354 96.2102 88.4104 96.0574 88.5365C95.9047 88.6625 95.7135 88.7319 95.5159 88.733Z" fill="white"/>
<path d="M61.5407 103.255C61.3308 103.255 61.1281 103.178 60.9709 103.038C60.8138 102.898 60.713 102.705 60.6876 102.496C60.6622 102.286 60.714 102.075 60.8332 101.901C60.9524 101.727 61.1308 101.604 61.3346 101.553L88.2241 94.8879C88.4441 94.8365 88.6754 94.8743 88.8679 94.993C89.0604 95.1118 89.1986 95.302 89.2526 95.5224C89.3066 95.7429 89.2721 95.9758 89.1564 96.1708C89.0408 96.3658 88.8534 96.5072 88.6349 96.5644L61.7469 103.23C61.6794 103.246 61.6102 103.255 61.5407 103.255Z" fill="white"/>
<path d="M50.2773 103.255C50.2116 103.255 50.1461 103.247 50.0821 103.231L22.4664 96.7499C22.3565 96.7241 22.2527 96.6768 22.1609 96.6107C22.0692 96.5447 21.9913 96.4611 21.9317 96.3647C21.8721 96.2683 21.8319 96.1611 21.8135 96.0492C21.7952 95.9372 21.7989 95.8228 21.8245 95.7123C21.8502 95.6018 21.8972 95.4974 21.963 95.4052C22.0287 95.313 22.1119 95.2347 22.2077 95.1748C22.3036 95.1149 22.4103 95.0745 22.5216 95.0561C22.633 95.0376 22.7469 95.0413 22.8568 95.0671L50.4725 101.55C50.6784 101.598 50.8596 101.72 50.9815 101.893C51.1034 102.067 51.1575 102.279 51.1333 102.49C51.1091 102.701 51.0085 102.896 50.8506 103.037C50.6927 103.178 50.4886 103.256 50.2773 103.255Z" fill="white"/>
<path d="M13.2182 89.6951C13.0268 89.6963 12.8404 89.6331 12.6888 89.5157C12.5371 89.3982 12.4288 89.2332 12.3811 89.0468L5.66579 62.3373C5.63491 62.2264 5.62643 62.1104 5.64083 61.9961C5.65523 61.8818 5.69224 61.7716 5.74966 61.6719C5.80709 61.5723 5.88378 61.4851 5.97521 61.4157C6.06664 61.3463 6.17098 61.296 6.28206 61.2677C6.39314 61.2394 6.50873 61.2337 6.62202 61.251C6.73531 61.2684 6.84401 61.3083 6.94172 61.3685C7.03942 61.4286 7.12417 61.5079 7.19095 61.6015C7.25773 61.695 7.3052 61.8011 7.33057 61.9135L14.0553 88.6198C14.0831 88.7299 14.089 88.8445 14.0726 88.9568C14.0563 89.0692 14.0179 89.1772 13.9599 89.2747C13.9018 89.3721 13.8252 89.4571 13.7344 89.5247C13.6435 89.5922 13.5403 89.6411 13.4306 89.6684C13.3613 89.6866 13.2899 89.6956 13.2182 89.6951Z" fill="white"/>
<path d="M54.4551 31.5591C54.2273 31.5591 54.0089 31.4681 53.8478 31.3062C53.6867 31.1443 53.5962 30.9247 53.5962 30.6957V13.0029C53.5962 12.774 53.6867 12.5544 53.8478 12.3924C54.0089 12.2305 54.2273 12.1396 54.4551 12.1396C54.683 12.1396 54.9014 12.2305 55.0625 12.3924C55.2236 12.5544 55.3141 12.774 55.3141 13.0029V30.6957C55.3141 30.9247 55.2236 31.1443 55.0625 31.3062C54.9014 31.4681 54.683 31.5591 54.4551 31.5591Z" fill="white"/>
<path d="M26.6398 31.9765C26.506 31.9767 26.3741 31.9454 26.2545 31.8851C26.1349 31.8249 26.031 31.7374 25.9511 31.6296L18.6829 21.8185C18.5519 21.6347 18.4979 21.4064 18.5325 21.183C18.5672 20.9595 18.6877 20.7586 18.8681 20.6235C19.0486 20.4884 19.2745 20.4298 19.4975 20.4605C19.7204 20.4911 19.9225 20.6084 20.0603 20.7872L27.3285 30.5982C27.424 30.7265 27.482 30.8789 27.4961 31.0385C27.5102 31.198 27.4798 31.3583 27.4083 31.5015C27.3368 31.6446 27.227 31.7649 27.0912 31.8488C26.9555 31.9327 26.7991 31.9769 26.6398 31.9765Z" fill="white"/>
<path d="M24.7702 57.3263H12.1203C11.8925 57.3263 11.674 57.2354 11.5129 57.0735C11.3519 56.9115 11.2614 56.6919 11.2614 56.463C11.2614 56.234 11.3519 56.0144 11.5129 55.8525C11.674 55.6905 11.8925 55.5996 12.1203 55.5996H24.7702C24.998 55.5996 25.2165 55.6905 25.3775 55.8525C25.5386 56.0144 25.6291 56.234 25.6291 56.463C25.6291 56.6919 25.5386 56.9115 25.3775 57.0735C25.2165 57.2354 24.998 57.3263 24.7702 57.3263Z" fill="white"/>
<path d="M20.6177 89.7937C20.4514 89.795 20.2884 89.747 20.1492 89.6556C20.0542 89.5944 19.9722 89.515 19.9078 89.4219C19.8433 89.3288 19.7978 89.2239 19.7737 89.1131C19.7496 89.0023 19.7475 88.8878 19.7674 88.7762C19.7874 88.6646 19.829 88.558 19.8899 88.4626L25.4965 79.6971C25.6197 79.5043 25.8141 79.3687 26.0368 79.3199C26.2595 79.2712 26.4924 79.3134 26.6842 79.4373C26.8759 79.5611 27.0109 79.7565 27.0594 79.9804C27.1078 80.2043 27.0659 80.4383 26.9426 80.6311L21.3361 89.3966C21.2589 89.5178 21.1527 89.6177 21.0272 89.6871C20.9017 89.7564 20.7609 89.7931 20.6177 89.7937Z" fill="white"/>
<path d="M54.88 97.5233C54.6523 97.5229 54.4341 97.4318 54.2731 97.27C54.1121 97.1082 54.0215 96.8888 54.0211 96.66V80.5809C54.0211 80.3519 54.1116 80.1323 54.2727 79.9704C54.4337 79.8085 54.6522 79.7175 54.88 79.7175C55.1078 79.7175 55.3263 79.8085 55.4874 79.9704C55.6484 80.1323 55.7389 80.3519 55.7389 80.5809V96.6537C55.7398 96.7676 55.7182 96.8805 55.6754 96.986C55.6326 97.0915 55.5694 97.1874 55.4896 97.2682C55.4098 97.3491 55.3148 97.4132 55.2102 97.457C55.1055 97.5008 54.9933 97.5233 54.88 97.5233Z" fill="white"/>
<path d="M89.1443 90.6289C89.0184 90.6286 88.8942 90.6003 88.7805 90.546C88.6668 90.4917 88.5665 90.4128 88.4868 90.315L80.3268 80.5542C80.1802 80.3787 80.1089 80.1519 80.1287 79.9236C80.1485 79.6953 80.2577 79.4842 80.4322 79.3369C80.6068 79.1895 80.8325 79.1179 81.0596 79.1377C81.2868 79.1576 81.4967 79.2673 81.6434 79.4428L89.8017 89.2036C89.9051 89.3295 89.9708 89.4824 89.9913 89.6444C90.0117 89.8064 89.986 89.9709 89.9172 90.1188C89.8484 90.2667 89.7392 90.392 89.6024 90.4801C89.4656 90.5681 89.3067 90.6154 89.1443 90.6164V90.6289Z" fill="white"/>
<path d="M95.8779 57.6516H81.6663C81.4385 57.6516 81.22 57.5606 81.0589 57.3987C80.8978 57.2368 80.8074 57.0172 80.8074 56.7882C80.8074 56.5592 80.8978 56.3396 81.0589 56.1777C81.22 56.0158 81.4385 55.9248 81.6663 55.9248H95.8779C96.1057 55.9248 96.3241 56.0158 96.4852 56.1777C96.6463 56.3396 96.7368 56.5592 96.7368 56.7882C96.7368 57.0172 96.6463 57.2368 96.4852 57.3987C96.3241 57.5606 96.1057 57.6516 95.8779 57.6516Z" fill="white"/>
<path d="M81.8022 31.9596C81.6391 31.9602 81.4792 31.914 81.3413 31.8264C81.2034 31.7388 81.0932 31.6135 81.0237 31.4651C80.9542 31.3168 80.9282 31.1516 80.9488 30.9889C80.9694 30.8263 81.0358 30.6729 81.14 30.5468L89.5186 20.3434C89.6636 20.1667 89.8725 20.0551 90.0993 20.0331C90.3261 20.0112 90.5524 20.0807 90.7282 20.2265C90.904 20.3722 91.015 20.5821 91.0368 20.8101C91.0587 21.0381 90.9895 21.2655 90.8445 21.4422L82.4644 31.6457C82.384 31.744 82.2829 31.8231 82.1684 31.8774C82.0539 31.9317 81.9288 31.9598 81.8022 31.9596Z" fill="white"/>
</svg>
