<svg width="16" height="20" viewBox="0 0 16 20" fill="none" xmlns="http://www.w3.org/2000/svg">
<path fill-rule="evenodd" clip-rule="evenodd" d="M0 1.46563C0 0.807869 0.533218 0.274651 1.19098 0.274651H14.0857C14.7435 0.274651 15.2767 0.807869 15.2767 1.46563C15.2767 2.12338 14.7435 2.6566 14.0857 2.6566H1.19098C0.533219 2.6566 0 2.12338 0 1.46563ZM0 9.08787C0 8.43011 0.533218 7.89689 1.19098 7.89689H14.0857C14.7435 7.89689 15.2767 8.43011 15.2767 9.08787C15.2767 9.74563 14.7435 10.2788 14.0857 10.2788H1.19098C0.533219 10.2788 0 9.74563 0 9.08787ZM1.19098 15.5191C0.533218 15.5191 0 16.0524 0 16.7101C0 17.3679 0.533219 17.9011 1.19098 17.9011H14.0857C14.7435 17.9011 15.2767 17.3679 15.2767 16.7101C15.2767 16.0524 14.7435 15.5191 14.0857 15.5191H1.19098Z" fill="#3D4767"/>
</svg>
