<svg width="21" height="22" viewBox="0 0 21 22" fill="none" xmlns="http://www.w3.org/2000/svg">
<path d="M14.4005 13.0291C13.5186 13.0291 12.7215 12.8966 12.009 12.6317C11.3009 12.3667 10.6928 11.9844 10.1845 11.4848C9.68059 10.9852 9.29397 10.3836 9.02463 9.67984C8.7553 8.97175 8.62063 8.1746 8.62063 7.2884C8.62063 7.04513 8.63801 6.78014 8.67276 6.49343C8.71186 6.20238 8.76181 5.92218 8.82263 5.65285C8.88345 5.38351 8.95295 5.15762 9.03115 4.97517C9.06156 4.90132 9.0811 4.8405 9.08979 4.79271C9.09848 4.74058 9.10282 4.69932 9.10282 4.66891C9.10282 4.58202 9.07024 4.49949 9.00508 4.42129C8.93992 4.33875 8.84435 4.29749 8.71837 4.29749C8.68362 4.29749 8.63149 4.304 8.56198 4.31703C8.49248 4.32572 8.4208 4.3431 8.34695 4.36916C7.54329 4.69063 6.83954 5.17282 6.23571 5.81575C5.63188 6.45434 5.16055 7.19283 4.82171 8.03125C4.48721 8.86966 4.31996 9.745 4.31996 10.6573C4.31996 11.6173 4.48938 12.497 4.82822 13.2963C5.17141 14.0956 5.64709 14.7907 6.25526 15.3815C6.86778 15.9679 7.58239 16.4219 8.39908 16.7434C9.22012 17.0648 10.1063 17.2256 11.0577 17.2256C11.7614 17.2256 12.4326 17.1256 13.0712 16.9258C13.7098 16.7303 14.2962 16.4566 14.8305 16.1048C15.3649 15.7572 15.8275 15.3532 16.2185 14.8928C16.6094 14.4279 16.9048 13.9305 17.1047 13.4006C17.1351 13.3224 17.1546 13.2507 17.1633 13.1855C17.172 13.116 17.1764 13.0661 17.1764 13.0357C17.1764 12.914 17.1351 12.8163 17.0525 12.7424C16.97 12.6686 16.8831 12.6317 16.7919 12.6317C16.718 12.6317 16.6246 12.6512 16.5117 12.6903C16.2597 12.7728 15.9448 12.851 15.5669 12.9249C15.1889 12.9944 14.8001 13.0291 14.4005 13.0291Z" fill="#7700D5"/>
</svg>
