<svg width="260" height="260" viewBox="0 0 260 260" fill="none" xmlns="http://www.w3.org/2000/svg">
<path d="M51.044 54.1492L51.0439 54.1482C51.0114 53.8423 50.8721 53.5568 50.6537 53.3377C50.4003 53.081 50.053 52.9283 49.6872 52.9198L49.6865 52.9198L40.6711 52.7215L40.6699 52.7215C40.185 52.712 39.7319 52.9575 39.4923 53.3756C39.2537 53.7921 39.273 54.2982 39.5193 54.703C39.7647 55.1063 40.2072 55.3641 40.6884 55.3738C40.6887 55.3738 40.6889 55.3738 40.6891 55.3738L48.4696 55.5463L49.2603 63.1366C49.2603 63.1369 49.2603 63.1371 49.2604 63.1374C49.3082 63.6069 49.6054 64.0189 50.0349 64.2269C50.4659 64.4356 50.982 64.4144 51.3866 64.1483C51.7929 63.8811 52.0067 63.4188 51.9587 62.9457L51.9585 62.9445L51.044 54.1492Z" fill="#8E65F1" stroke="#8E65F1"/>
<mask id="mask0_2070_4414" style="mask-type:alpha" maskUnits="userSpaceOnUse" x="-1" y="-1" width="262" height="262">
<path d="M122.2 130V0L213.2 35.6863L243.1 95.5882L260 146.569L236.6 247.255L122.2 260L37.05 240.882L0 179.706V103.235L37.05 46.5196L122.2 130Z" fill="#C4C4C4" stroke="black" stroke-linejoin="round"/>
</mask>
<g mask="url(#mask0_2070_4414)">
<path fill-rule="evenodd" clip-rule="evenodd" d="M130.5 243C192.632 243 243 192.632 243 130.5C243 68.368 192.632 18 130.5 18C68.368 18 18 68.368 18 130.5C18 192.632 68.368 243 130.5 243Z" stroke="url(#paint0_linear_2070_4414)" stroke-width="4"/>
</g>
<defs>
<linearGradient id="paint0_linear_2070_4414" x1="18" y1="128.455" x2="243" y2="128.455" gradientUnits="userSpaceOnUse">
<stop stop-color="#9C55F6"/>
<stop offset="1" stop-color="#2CD2CA"/>
</linearGradient>
</defs>
</svg>
