<svg width="118" height="18" viewBox="0 0 118 18" fill="none" xmlns="http://www.w3.org/2000/svg">
<g clip-path="url(#clip0_1245_52614)">
<path fill-rule="evenodd" clip-rule="evenodd" d="M51.5088 13.536H52.9118V3.98455H51.5088V13.536ZM53.1232 0.967053C53.1232 1.50715 52.724 1.92983 52.1956 1.92983C51.6673 1.92983 51.2681 1.51302 51.2681 0.967053C51.2681 0.403474 51.6673 0.00427246 52.1956 0.00427246C52.724 0.0101431 53.1232 0.409345 53.1232 0.967053Z" fill="white"/>
<path fill-rule="evenodd" clip-rule="evenodd" d="M63.7313 8.77493C63.7313 6.66738 62.2989 5.14102 60.2794 5.14102C58.2423 5.14102 56.8098 6.66738 56.8098 8.77493C56.8098 10.8825 58.2423 12.3912 60.2794 12.3912C62.2989 12.3971 63.7313 10.8825 63.7313 8.77493ZM65.1461 3.98451V17.0642H63.7313V11.4872C63.021 12.8315 61.7177 13.6123 60.0035 13.6123C57.2795 13.6123 55.3892 11.5987 55.3892 8.74558C55.3892 5.89246 57.2795 3.91406 59.98 3.91406C61.6883 3.91406 63.0151 4.69485 63.7196 6.05684V3.98451H65.1461Z" fill="white"/>
<path fill-rule="evenodd" clip-rule="evenodd" d="M76.9931 3.98462V13.542H75.5783V11.3816C74.9442 12.8669 73.6703 13.5831 71.9444 13.5948C69.7135 13.5948 68.3633 12.18 68.3633 9.86697V3.98462H69.7781V9.50887C69.7781 11.2172 70.7761 12.2328 72.4257 12.2328C74.41 12.1917 75.5724 10.7417 75.5724 8.66937V3.98462H76.9931Z" fill="white"/>
<path fill-rule="evenodd" clip-rule="evenodd" d="M87.8008 9.13896V8.411C87.6365 6.48544 86.2569 5.14107 84.3665 5.14107C82.3294 5.14107 80.897 6.66743 80.897 8.77498C80.897 10.8825 82.3294 12.3913 84.3665 12.3913C86.2569 12.3971 87.6365 11.0645 87.8008 9.13896ZM89.2157 3.98456V13.5419H87.795V11.5048C87.0846 12.8316 85.7814 13.6124 84.0906 13.6124C81.3667 13.6124 79.4763 11.5987 79.4763 8.74562C79.4763 5.91012 81.349 3.91411 84.0378 3.91411C85.7637 3.8965 87.0729 4.67729 87.795 6.02166V3.98456H89.2157Z" fill="white"/>
<path fill-rule="evenodd" clip-rule="evenodd" d="M97.4111 13.536H98.8142V3.98455H97.4111V13.536ZM99.0314 0.967053C99.0314 1.50715 98.6322 1.92983 98.1038 1.92983C97.5755 1.92983 97.1763 1.51302 97.1763 0.967053C97.1763 0.403474 97.5755 0.00427246 98.1038 0.00427246C98.6322 0.0101431 99.0314 0.409345 99.0314 0.967053Z" fill="white"/>
<path fill-rule="evenodd" clip-rule="evenodd" d="M106.622 12.8845C105.929 13.3424 105.19 13.5948 104.479 13.5948C103.023 13.5948 102.008 12.5792 102.008 10.5245V0.0336914H103.411V3.98461H106.252V5.38769H103.411V10.2897C103.411 11.6516 103.869 12.2857 104.702 12.2857C105.178 12.2857 105.689 12.1037 106.211 11.7984L106.622 12.8845Z" fill="white"/>
<path fill-rule="evenodd" clip-rule="evenodd" d="M92.4856 13.5184H93.8887V-0.00158691H92.4856V13.5184Z" fill="white"/>
<path fill-rule="evenodd" clip-rule="evenodd" d="M46.4365 13.5184H47.8396V-0.00158691H46.4365V13.5184Z" fill="white"/>
<path fill-rule="evenodd" clip-rule="evenodd" d="M117.412 4.06677V12.497C117.412 15.3383 115.669 17.0878 112.821 17.076C111.395 17.0408 109.886 16.4479 108.929 15.5262L109.358 14.4989C110.221 15.2914 111.465 15.8139 112.692 15.8726C114.759 15.8726 116.009 14.6104 116.009 12.4852V10.7417C115.381 12.0567 114.207 12.7435 112.528 12.7553C110.15 12.7553 108.712 11.3522 108.712 9.06266V4.06677H110.115V8.69869C110.115 10.3894 111.125 11.405 112.821 11.405C114.835 11.3698 116.009 10.002 116.009 7.76526V4.06677H117.412Z" fill="white"/>
<path fill-rule="evenodd" clip-rule="evenodd" d="M2.00188 1.9491C1.99014 1.96084 1.98427 1.96671 1.97253 1.97845C0.933427 3.03516 0.299401 4.35018 0.0880592 5.71216C0.0293531 6.05853 0 6.40489 0 6.763V6.80409C0 7.13872 0.0293531 7.47921 0.076318 7.81384C0.228954 8.85294 0.628156 9.86268 1.26218 10.7491C1.46765 11.0427 1.70835 11.3245 1.97253 11.5945C1.98427 11.6063 1.99014 11.6121 2.00188 11.6239C2.57133 12.1933 3.20535 12.6336 3.88048 12.9448C6.36374 14.0954 9.38711 13.567 11.6473 11.6415C11.6532 11.6356 11.659 11.6297 11.6649 11.6297C14.2186 9.44587 16.561 7.46747 19.0854 7.46747C21.6039 7.46747 23.9521 9.44587 26.4999 11.6297C27.1927 12.2227 27.9559 12.6864 28.7601 13.0035C29.8051 13.4261 30.9088 13.6081 31.9948 13.5318C33.5153 13.4261 34.983 12.8097 36.1688 11.6239C36.1806 11.6121 36.1865 11.6063 36.1982 11.5945C36.4624 11.3303 36.6972 11.0485 36.9085 10.7491C37.5426 9.85681 37.9418 8.84707 38.0944 7.81384C38.2001 7.12111 38.1942 6.41076 38.0885 5.71803C37.8772 4.35018 37.2432 3.04103 36.2041 1.98432C36.1923 1.97258 36.1865 1.96671 36.1747 1.95497C34.9947 0.774975 33.5271 0.158561 32.0007 0.0528901C30.9146 -0.0175572 29.8051 0.164432 28.7543 0.587116C27.9559 0.904129 27.1868 1.36791 26.4999 1.95497C23.9345 4.1271 21.6156 6.11723 19.0854 6.11723C16.5551 6.11723 14.2186 4.12122 11.659 1.9491C11.6532 1.94323 11.6473 1.93736 11.6473 1.93736C10.1796 0.698658 8.38911 0.0352783 6.63379 0.0352783C5.68275 0.0352783 4.74345 0.229009 3.8746 0.634081C3.20535 0.945223 2.56546 1.37965 2.00188 1.9491Z" fill="white"/>
</g>
<defs>
<clipPath id="clip0_1245_52614">
<rect width="117.412" height="17.06" fill="white"/>
</clipPath>
</defs>
</svg>
