<svg width="200" height="32" viewBox="0 0 200 32" fill="none" xmlns="http://www.w3.org/2000/svg">
    <path d="M70.0611 25.4196H73.1018V0H70.0611V25.4196Z" fill="white"/>
    <path d="M157.033 25.4196H154.013V0H157.033V25.4196Z" fill="white"/>
    <path d="M82.3522 25.4411H79.3115V7.35491H82.3522V25.4411Z" fill="white"/>
    <path d="M80.7999 4.04303C80.4012 4.05588 80.0077 3.94779 79.6703 3.73266C79.3328 3.51754 79.0666 3.2052 78.9061 2.83586C78.7456 2.46652 78.698 2.05707 78.7695 1.66017C78.8411 1.26327 79.0284 0.89707 79.3074 0.608714C79.5864 0.320358 79.9445 0.123033 80.3353 0.0420999C80.7261 -0.0388333 81.1317 0.000379523 81.5003 0.154628C81.8689 0.308877 82.1836 0.571127 82.4036 0.907656C82.6236 1.2442 82.7389 1.63961 82.7348 2.04302C82.7405 2.30362 82.6946 2.56273 82.5998 2.80515C82.5051 3.04757 82.3637 3.26842 82.1835 3.45473C82.0032 3.64103 81.7877 3.78905 81.5501 3.89008C81.3125 3.9911 81.0577 4.0431 80.7999 4.04303Z" fill="white"/>
    <path fill-rule="evenodd" clip-rule="evenodd" d="M104.637 31.9573H101.596V22.3013C100.866 23.3677 99.8806 24.2291 98.7313 24.8047C97.5819 25.3802 96.3067 25.651 95.0255 25.5916C92.7248 25.4323 90.5696 24.3956 88.9956 22.691C87.4216 20.9864 86.5462 18.741 86.5462 16.4087C86.5462 14.0764 87.4216 11.8311 88.9956 10.1265C90.5696 8.42193 92.7248 7.38521 95.0255 7.22588C96.3125 7.16311 97.594 7.43448 98.7479 8.01419C99.9017 8.59391 100.89 9.46265 101.618 10.5377V7.35491H104.637V31.9573ZM95.5359 9.97859C93.844 9.97859 92.2213 10.6583 91.025 11.8682C89.8286 13.0782 89.1565 14.7192 89.1565 16.4303C89.1565 18.1414 89.8286 19.7824 91.025 20.9923C92.2213 22.2022 93.844 22.8819 95.5359 22.8819C96.321 22.8998 97.1017 22.7586 97.8321 22.4669C98.5624 22.1751 99.2277 21.7386 99.7888 21.183C100.39 20.5588 100.861 19.8177 101.172 19.0045C101.482 18.1914 101.627 17.323 101.596 16.4518C101.649 15.6169 101.531 14.7801 101.25 13.9935C100.968 13.2069 100.529 12.4874 99.9606 11.88C99.3919 11.2725 98.7055 10.7902 97.9442 10.463C97.183 10.1359 96.363 9.97098 95.5359 9.97859Z" fill="white"/>
    <path d="M114.082 25.1273C114.947 25.466 115.875 25.6098 116.8 25.5486C118.071 25.642 119.342 25.383 120.478 24.7993C121.613 24.2157 122.57 23.3297 123.244 22.2368V25.4626H126.306V7.35491H123.244V16.2367C123.244 20.0647 121.138 22.5593 117.736 22.5593C117.108 22.6145 116.476 22.5277 115.885 22.3054C115.294 22.0831 114.76 21.7307 114.32 21.2737C113.88 20.8168 113.547 20.2668 113.343 19.6634C113.14 19.0601 113.071 18.4185 113.143 17.7851V7.35491H110.038V18.4518C109.944 19.3852 110.051 20.3283 110.354 21.2153C110.657 22.1022 111.147 22.9118 111.791 23.5875C112.434 24.2631 113.216 24.7886 114.082 25.1273Z" fill="white"/>
    <path fill-rule="evenodd" clip-rule="evenodd" d="M138.936 25.5916C136.636 25.4323 134.481 24.3956 132.907 22.691C131.333 20.9864 130.457 18.741 130.457 16.4087C130.457 14.0764 131.333 11.8311 132.907 10.1265C134.481 8.42192 136.636 7.3852 138.936 7.22587C140.221 7.16681 141.501 7.43516 142.656 8.00633C143.812 8.5775 144.807 9.43314 145.55 10.4947V7.35489H148.612V25.4626H145.55V22.3228C144.811 23.3887 143.816 24.2476 142.66 24.8193C141.503 25.3909 140.222 25.6567 138.936 25.5916ZM139.447 9.97857C137.755 9.97857 136.133 10.6583 134.936 11.8682C133.74 13.0781 133.068 14.7192 133.068 16.4303C133.068 18.1413 133.74 19.7823 134.936 20.9923C136.133 22.2022 137.755 22.8819 139.447 22.8819C140.995 22.911 142.492 22.3226 143.614 21.244C144.736 20.1654 145.393 18.6833 145.443 17.1184V15.7851C145.399 14.2145 144.745 12.7247 143.623 11.6381C142.501 10.5515 141.001 9.95533 139.447 9.97857Z" fill="white"/>
    <path d="M166.028 25.4411H162.987V7.35491H166.028V25.4411Z" fill="white"/>
    <path d="M164.475 4.04303C164.077 4.05588 163.684 3.94779 163.346 3.73266C163.009 3.51754 162.742 3.2052 162.582 2.83586C162.421 2.46652 162.374 2.05707 162.445 1.66017C162.517 1.26327 162.704 0.89707 162.983 0.608714C163.262 0.320358 163.62 0.123033 164.011 0.0420999C164.401 -0.0388333 164.808 0.000379523 165.176 0.154628C165.545 0.308877 165.859 0.571127 166.079 0.907656C166.299 1.2442 166.415 1.63961 166.411 2.04302C166.416 2.30362 166.37 2.56273 166.276 2.80515C166.181 3.04757 166.039 3.26842 165.859 3.45473C165.679 3.64103 165.464 3.78905 165.226 3.89008C164.988 3.9911 164.733 4.0431 164.475 4.04303Z" fill="white"/>
    <path d="M176.107 25.5486C173.13 25.5486 171.365 23.3981 171.365 19.6561V0.0645189H174.406V7.35491H179.573V10.4302H174.406V19.226C174.406 21.5271 175.086 22.6669 176.532 22.6669C177.473 22.6134 178.383 22.3092 179.169 21.7851L179.403 21.6561L180.318 24.1077L180.169 24.2153C178.974 25.0537 177.561 25.5174 176.107 25.5486Z" fill="white"/>
    <path fill-rule="evenodd" clip-rule="evenodd" d="M184.123 29.054C186.114 30.8797 188.689 31.9182 191.375 31.9788C192.516 32.06 193.662 31.9076 194.743 31.5307C195.825 31.1538 196.82 30.5601 197.669 29.7852C198.465 28.9233 199.081 27.9074 199.479 26.7988C199.878 25.6901 200.051 24.5114 199.987 23.3335V7.54845H196.946V14.6238C196.946 18.6023 194.862 21.0754 191.375 21.0754C190.741 21.1472 190.098 21.0737 189.496 20.8602C188.893 20.6468 188.346 20.2989 187.895 19.8424C187.443 19.3858 187.1 18.8324 186.888 18.2231C186.677 17.6139 186.605 16.9643 186.676 16.3227V7.54845H183.656V16.9679C183.592 17.9285 183.737 18.8915 184.079 19.79C184.421 20.6884 184.953 21.5005 185.637 22.17C186.321 22.8393 187.141 23.3499 188.04 23.666C188.94 23.9821 189.896 24.0961 190.843 24.0002C192.032 24.0827 193.222 23.8481 194.293 23.3197C195.364 22.7913 196.278 21.9878 196.946 20.9894V23.269C197.03 24.0648 196.94 24.8694 196.681 25.6257C196.422 26.3819 196.001 27.0711 195.449 27.6441C194.896 28.2171 194.226 28.6598 193.485 28.9407C192.744 29.2216 191.951 29.3337 191.162 29.2691C188.965 29.1479 186.873 28.2759 185.229 26.7959L184.974 26.5594L183.996 28.925L184.123 29.054ZM184.863 27.3184C184.843 27.302 184.824 27.2856 184.804 27.2691L184.733 27.6389L184.863 27.3184Z" fill="white"/>
    <path fill-rule="evenodd" clip-rule="evenodd" d="M2.72176 9.81651C2.70576 9.83249 2.69891 9.83934 2.68291 9.85531C1.26833 11.2909 0.406778 13.0756 0.118834 14.9265C0.0388496 15.3967 0 15.8668 0 16.3529V16.4077C0 16.8619 0.0388496 17.3252 0.102837 17.7794C0.310797 19.1921 0.854692 20.5615 1.71624 21.7665C1.99504 22.1659 2.32184 22.547 2.68291 22.9145C2.69891 22.9305 2.70576 22.9373 2.72176 22.9533C3.49646 23.727 4.35801 24.3249 5.27669 24.7472C8.65432 26.3105 12.7655 25.5916 15.8392 22.9784C15.8461 22.9715 15.8552 22.9624 15.8621 22.9624C19.3357 19.9977 22.5191 18.334 25.9515 18.334C29.3772 18.334 32.5697 19.9955 36.0342 22.9624C36.9757 23.7681 38.0132 24.398 39.1079 24.827C40.5293 25.4022 42.0307 25.6487 43.507 25.5437C45.5752 25.3999 47.5702 24.5623 49.1836 22.9533C49.1996 22.9373 49.2065 22.9305 49.2225 22.9145C49.5812 22.5562 49.9012 22.1727 50.1891 21.7665C51.0507 20.5546 51.5946 19.183 51.8025 17.7794C51.9465 16.8391 51.9374 15.8737 51.7957 14.9334C51.5077 13.0756 50.6462 11.2977 49.2339 9.86216C49.2179 9.84618 49.211 9.83934 49.195 9.82336C47.5908 8.2212 45.5957 7.38361 43.5184 7.23983C42.0376 7.14397 40.5293 7.39274 39.101 7.96559C38.0155 8.39694 36.9688 9.02685 36.0364 9.82336C32.5468 12.7721 29.3954 14.4495 25.9538 14.4495C22.5122 14.4495 19.3357 12.7652 15.8552 9.81651C15.8484 9.80967 15.8392 9.80054 15.8392 9.80054C13.8419 8.11622 11.4081 7.217 9.01997 7.217C7.7265 7.217 6.44904 7.47946 5.26755 8.02949C4.35801 8.45171 3.48961 9.04282 2.72176 9.81651Z" fill="white"/>
</svg>
