<svg width="136" height="84" viewBox="0 0 136 84" fill="none" xmlns="http://www.w3.org/2000/svg">
<mask id="mask0" style="mask-type:alpha" maskUnits="userSpaceOnUse" x="16" y="59" width="104" height="25">
<path d="M16.7402 59.082H119.147V83.0014H16.7402V59.082Z" fill="white"/>
</mask>
<g mask="url(#mask0)">
<path fill-rule="evenodd" clip-rule="evenodd" d="M24.0496 78.0495H26.068V64.6595H24.0496V78.0495ZM26.3826 60.4395C26.3826 61.2027 25.8058 61.788 25.0458 61.788C24.2852 61.788 23.7091 61.2027 23.7091 60.4395C23.7091 59.6498 24.2852 59.0903 25.0458 59.0903C25.8058 59.0903 26.3826 59.6498 26.3826 60.4395Z" fill="white"/>
<path fill-rule="evenodd" clip-rule="evenodd" d="M41.6894 71.3812C41.6894 68.4282 39.6186 66.2901 36.7096 66.2901C33.7739 66.2901 31.7024 68.4282 31.7024 71.3812C31.7024 74.3342 33.7739 76.4473 36.7096 76.4473C39.6186 76.4473 41.6894 74.3342 41.6894 71.3812ZM43.7336 64.6611V82.9895H41.6894V75.1742C40.6666 77.0571 38.7797 78.153 36.316 78.153C32.3841 78.153 29.6582 75.3269 29.6582 71.3303C29.6582 67.3337 32.3841 64.5586 36.2894 64.5586C38.7538 64.5586 40.6666 65.6532 41.6894 67.5625V64.6611H43.7336Z" fill="white"/>
<path fill-rule="evenodd" clip-rule="evenodd" d="M60.8234 64.6594V78.0494H58.7792V75.0204C57.8619 77.1076 56.0274 78.1003 53.5371 78.1255C50.3135 78.1255 48.3734 76.1401 48.3734 72.9066V64.6594H50.4177V72.3974C50.4177 74.7909 51.8599 76.2168 54.2447 76.2168C57.102 76.1645 58.7792 74.1282 58.7792 71.2274V64.6594H60.8234Z" fill="white"/>
<path fill-rule="evenodd" clip-rule="evenodd" d="M76.4187 71.8909V70.8724C76.1824 68.1734 74.1899 66.2905 71.4647 66.2905C68.5291 66.2905 66.4583 68.4287 66.4583 71.3817C66.4583 74.3347 68.5291 76.4477 71.4647 76.4477C74.1899 76.4477 76.1824 74.5893 76.4187 71.8909ZM78.4637 64.6615V78.0509H76.4187V75.1997C75.3966 77.0575 73.509 78.1534 71.0718 78.1534C67.1406 78.1534 64.4141 75.3274 64.4141 71.3307C64.4141 67.3592 67.1134 64.559 70.9928 64.559C73.4831 64.5339 75.37 65.6278 76.4187 67.512V64.6615H78.4637Z" fill="white"/>
<path fill-rule="evenodd" clip-rule="evenodd" d="M90.2875 78.0495H92.3066V64.6595H90.2875V78.0495ZM92.6212 60.4395C92.6212 61.2027 92.0444 61.788 91.2838 61.788C90.5238 61.788 89.9478 61.2027 89.9478 60.4395C89.9478 59.6498 90.5238 59.0903 91.2838 59.0903C92.0444 59.0903 92.6212 59.6498 92.6212 60.4395Z" fill="white"/>
<path fill-rule="evenodd" clip-rule="evenodd" d="M103.577 77.1327C102.581 77.7689 101.506 78.1254 100.484 78.1254C98.3875 78.1254 96.9208 76.6988 96.9208 73.8232V59.1282H98.9378V64.6594H103.037V66.619H98.9378V73.4925C98.9378 75.4012 99.5935 76.2928 100.799 76.2928C101.48 76.2928 102.215 76.0381 102.975 75.6056L103.577 77.1327Z" fill="white"/>
<path fill-rule="evenodd" clip-rule="evenodd" d="M83.1846 78.0209H85.2029V59.082H83.1846V78.0209Z" fill="white"/>
<path fill-rule="evenodd" clip-rule="evenodd" d="M16.7402 78.0209H18.7586V59.082H16.7402V78.0209Z" fill="white"/>
<path fill-rule="evenodd" clip-rule="evenodd" d="M119.148 64.7773V76.59C119.148 80.5785 116.628 83.0283 112.521 83.0032C110.467 82.953 108.284 82.1198 106.906 80.8324L107.53 79.3923C108.777 80.5038 110.57 81.2358 112.338 81.3118C115.327 81.3118 117.121 79.5444 117.121 76.5649V74.1177C116.211 75.9606 114.522 76.9193 112.104 76.9444C108.674 76.9444 106.594 74.976 106.594 71.7697V64.7773H108.621V71.2652C108.621 73.6377 110.077 75.0514 112.521 75.0514C115.432 75.0011 117.121 73.0816 117.121 69.952V64.7773H119.148Z" fill="white"/>
</g>
<path d="M7.10935 6.61116C7.07278 6.64669 7.03621 6.68223 6.99964 6.71776C3.29454 10.3633 1.0605 14.8909 0.297539 19.5993C0.103058 20.7962 0.00332446 22.0043 0 23.2125V23.3515C0.00332446 24.5128 0.094747 25.6742 0.272605 26.8242C0.829452 30.4084 2.23736 33.8925 4.49467 36.9663C5.24101 37.9823 6.08043 38.9546 7.00962 39.8705C7.04286 39.9028 7.07611 39.9335 7.10935 39.9658C9.12896 41.9299 11.3846 43.4401 13.7799 44.524C22.6013 48.5071 33.3393 46.6593 41.3712 40.0191C41.3912 40.0013 41.4128 39.9835 41.4344 39.9658C50.5018 32.4258 58.8229 25.5966 67.779 25.5966C76.7335 25.5966 85.0546 32.4258 94.122 39.9658C96.5854 42.0123 99.3032 43.6081 102.144 44.721C105.862 46.1796 109.79 46.8111 113.628 46.5495C119.026 46.1828 124.243 44.0507 128.449 39.9658C128.482 39.9335 128.514 39.9028 128.545 39.8705C129.478 38.9546 130.317 37.9823 131.063 36.9663C133.321 33.8925 134.729 30.4084 135.284 26.8242C135.656 24.432 135.648 21.9914 135.261 19.5993C134.498 14.8909 132.262 10.3633 128.558 6.71776C128.52 6.68223 128.485 6.64508 128.447 6.61116C124.243 2.52623 119.026 0.41027 113.628 0.054918C109.785 -0.198674 105.852 0.440959 102.132 1.89467C99.2965 3.00595 96.5805 4.58727 94.122 6.61116C85.0197 14.1042 76.7783 20.9819 67.779 20.9819C58.7797 20.9819 50.5384 14.1042 41.4344 6.61116C41.4177 6.59662 41.4028 6.5837 41.3862 6.57078C36.1718 2.29686 29.8121 0 23.5787 0C20.206 0 16.8716 0.671938 13.7732 2.06427C11.3796 3.14163 9.1273 4.64865 7.10935 6.61116Z" fill="url(#paint0_radial)"/>
<defs>
<radialGradient id="paint0_radial" cx="0" cy="0" r="1" gradientUnits="userSpaceOnUse" gradientTransform="translate(-3.27083 12.9276) scale(155.219 81.9033)">
<stop stop-color="#1CE5C3"/>
<stop offset="0.10253" stop-color="#1CE5C3"/>
<stop offset="0.474728" stop-color="#5440D7"/>
<stop offset="0.630807" stop-color="#8B2CE4"/>
<stop offset="0.795714" stop-color="#D421EB"/>
<stop offset="1" stop-color="#AC39FD"/>
</radialGradient>
</defs>
</svg>
