<svg width="11" height="11" viewBox="0 0 11 11" fill="none" xmlns="http://www.w3.org/2000/svg">
<path d="M0 5.23682C0 5.39339 0.055013 5.52669 0.165039 5.63672C0.279297 5.74674 0.412598 5.80176 0.564941 5.80176C3.89347 5.80176 6.57626 5.80176 9.90869 5.80176C10.061 5.80176 10.1922 5.74674 10.3022 5.63672C10.4165 5.52669 10.4736 5.39339 10.4736 5.23682C10.4736 5.08024 10.4165 4.94694 10.3022 4.83691C10.1922 4.72266 10.061 4.66553 9.90869 4.66553C6.71084 4.66553 3.75514 4.66553 0.564941 4.66553C0.412598 4.66553 0.279297 4.72266 0.165039 4.83691C0.055013 4.94694 0 5.08024 0 5.23682Z" fill="#646F85"/>
</svg>
