<svg width="25" height="26" viewBox="0 0 25 26" fill="none" xmlns="http://www.w3.org/2000/svg">
<path d="M4.93666 20.356C5.05214 20.4651 5.18365 20.5389 5.33121 20.5774C5.47876 20.6158 5.62632 20.6158 5.77387 20.5774C5.92142 20.5389 6.04973 20.4651 6.15879 20.356L12.3176 14.1973L18.4763 20.356C18.5854 20.4651 18.7137 20.5389 18.8613 20.5774C19.0088 20.6158 19.1564 20.6158 19.3039 20.5774C19.4579 20.5453 19.5894 20.4715 19.6985 20.356C19.8075 20.247 19.8781 20.1187 19.9102 19.9711C19.9487 19.8235 19.9487 19.676 19.9102 19.5284C19.8781 19.3809 19.8075 19.2526 19.6985 19.1435L13.5397 12.9751L19.6985 6.81635C19.8075 6.70728 19.8813 6.57898 19.9198 6.43142C19.9583 6.28387 19.9583 6.13632 19.9198 5.98876C19.8813 5.84121 19.8075 5.7129 19.6985 5.60384C19.583 5.48836 19.4515 5.41458 19.3039 5.38251C19.1564 5.34401 19.0088 5.34401 18.8613 5.38251C18.7137 5.41458 18.5854 5.48836 18.4763 5.60384L12.3176 11.7626L6.15879 5.60384C6.04973 5.48836 5.91822 5.41458 5.76425 5.38251C5.61669 5.34401 5.46914 5.34401 5.32159 5.38251C5.17403 5.41458 5.04572 5.48836 4.93666 5.60384C4.8276 5.7129 4.75382 5.84121 4.71533 5.98876C4.68325 6.13632 4.68325 6.28387 4.71533 6.43142C4.75382 6.57898 4.8276 6.70728 4.93666 6.81635L11.0954 12.9751L4.93666 19.1435C4.8276 19.2526 4.75382 19.3809 4.71533 19.5284C4.67684 19.676 4.67363 19.8235 4.70571 19.9711C4.7442 20.1187 4.82119 20.247 4.93666 20.356Z" fill="#9742FB"/>
</svg>
