<svg width="24" height="25" viewBox="0 0 24 25" fill="none" xmlns="http://www.w3.org/2000/svg">
<path d="M6.12453 18.873H19.4678C19.6712 18.873 19.8438 18.799 19.9856 18.651C20.1336 18.5092 20.2075 18.3366 20.2075 18.1332C20.2075 17.9298 20.1336 17.7541 19.9856 17.6061C19.8438 17.4582 19.6712 17.3842 19.4678 17.3842H7.62253L6.12453 18.873ZM5.19985 18.0222L15.2882 7.94313L13.67 6.31568L3.57239 16.404L2.69394 18.4568C2.65079 18.5678 2.67236 18.6695 2.75867 18.762C2.85114 18.8606 2.95285 18.8884 3.06381 18.8452L5.19985 18.0222ZM16.1019 7.1479L17.0359 6.23246C17.2701 5.99204 17.3934 5.75162 17.4057 5.5112C17.4181 5.27078 17.3194 5.04269 17.1098 4.82693L16.7954 4.51254C16.5858 4.30294 16.3578 4.20739 16.1112 4.22588C15.8708 4.24438 15.6334 4.36767 15.3992 4.59576L14.4652 5.52045L16.1019 7.1479Z" fill="#9742FB"/>
</svg>
