<svg width="239" height="216" viewBox="0 0 239 216" fill="none" xmlns="http://www.w3.org/2000/svg">
<path d="M20.528 47.864C14.72 47.864 10.304 46.268 7.28 43.076C4.256 39.86 2.744 35.264 2.744 29.288V18.668C2.744 12.716 4.256 8.144 7.28 4.952C10.304 1.736 14.72 0.127998 20.528 0.127998C26.336 0.127998 30.752 1.736 33.776 4.952C36.8 8.144 38.312 12.716 38.312 18.668V29.288C38.312 35.264 36.8 39.86 33.776 43.076C30.752 46.268 26.336 47.864 20.528 47.864ZM20.528 42.86C24.416 42.86 27.344 41.708 29.312 39.404C31.28 37.076 32.264 33.788 32.264 29.54V18.416C32.264 14.168 31.28 10.892 29.312 8.588C27.344 6.284 24.416 5.132 20.528 5.132C16.664 5.132 13.748 6.284 11.78 8.588C9.812 10.892 8.828 14.168 8.828 18.416V29.54C8.828 33.788 9.812 37.076 11.78 39.404C13.748 41.708 16.664 42.86 20.528 42.86ZM47.5376 0.991996H56.6096L75.2936 40.592H75.7256L75.4736 20.504V0.991996H81.3056V47H72.4496L53.5496 7.076H53.1176L53.3696 28.1V47H47.5376V0.991996ZM98.09 47H92.186V0.991996H98.09V47ZM120.878 47H93.95V41.996H120.878V47ZM120.122 26.012H95.57V21.044H120.122V26.012ZM120.662 5.996H93.914V0.991996H120.662V5.996ZM20.348 103H10.844L1.34 56.992H7.46L14.156 91.372L15.416 97.996H16.064L17.288 91.372L24.02 58.18H32.84L39.572 91.372L40.796 97.996H41.444L42.74 91.372L49.436 56.992H55.484L46.016 103H36.584L31.256 76.54L28.736 63.112H28.16L25.604 76.54L20.348 103ZM62.1479 103H56.0999L70.4999 56.992H79.9319L94.3679 103H88.3199L75.6839 61.024H74.7839L62.1479 103ZM85.6919 89.428H64.7399V84.46H85.6919V89.428ZM107.514 56.992V103H101.538V56.992H107.514ZM104.742 103V97.924H129.006V103H104.742ZM141.685 56.992V103H135.709V56.992H141.685ZM138.913 103V97.924H163.177V103H138.913ZM176.418 103H170.514V56.992H176.418V103ZM199.206 103H172.278V97.996H199.206V103ZM198.45 82.012H173.898V77.044H198.45V82.012ZM198.99 61.996H172.242V56.992H198.99V61.996ZM224.799 103H218.823V57.964H224.799V103ZM238.587 61.996H205.035V56.992H238.587V61.996ZM6.812 159H0.764L15.164 112.992H24.596L39.032 159H32.984L20.348 117.024H19.448L6.812 159ZM30.356 145.428H9.404V140.46H30.356V145.428ZM52.1776 112.992V159H46.2016V112.992H52.1776ZM49.4056 159V153.924H73.6696V159H49.4056ZM86.3495 112.992V159H80.3735V112.992H86.3495ZM83.5775 159V153.924H107.842V159H83.5775ZM19.808 215.828C14.12 215.828 9.848 214.232 6.992 211.04C4.16 207.848 2.744 203.312 2.744 197.432V186.524C2.744 180.644 4.16 176.12 6.992 172.952C9.824 169.76 14.072 168.164 19.736 168.164C21.56 168.164 23.216 168.332 24.704 168.668C26.216 169.004 27.56 169.436 28.736 169.964C29.912 170.492 30.908 171.044 31.724 171.62L32.228 177.164C30.812 176.156 29.144 175.28 27.224 174.536C25.328 173.768 23.096 173.384 20.528 173.384C16.664 173.384 13.748 174.536 11.78 176.84C9.812 179.12 8.828 182.372 8.828 186.596V197.216C8.828 201.416 9.824 204.68 11.816 207.008C13.808 209.312 16.784 210.464 20.744 210.464C23.288 210.464 25.532 210.092 27.476 209.348C29.444 208.604 31.148 207.692 32.588 206.612L32.084 212.3C31.268 212.876 30.26 213.44 29.06 213.992C27.86 214.544 26.48 214.988 24.92 215.324C23.384 215.66 21.68 215.828 19.808 215.828ZM46.9745 168.992V215H40.9985V168.992H46.9745ZM74.7665 168.992V215H68.7905V168.992H74.7665ZM44.4185 193.796V188.756H71.1665V193.796H44.4185ZM88.0229 215H81.9749L96.3749 168.992H105.807L120.243 215H114.195L101.559 173.024H100.659L88.0229 215ZM111.567 201.428H90.6149V196.46H111.567V201.428ZM133.461 168.992V215H127.485V168.992H133.461ZM144.428 168.992H153.5L172.184 208.592H172.616L172.364 188.504V168.992H178.196V215H169.34L150.44 175.076H150.008L150.26 196.1V215H144.428V168.992ZM201.893 215.828C199.685 215.828 197.657 215.648 195.809 215.288C193.985 214.928 192.353 214.484 190.913 213.956C189.473 213.428 188.273 212.9 187.313 212.372L186.701 206.432C188.549 207.536 190.721 208.508 193.217 209.348C195.737 210.164 198.473 210.572 201.425 210.572C204.977 210.572 207.605 209.948 209.309 208.7C211.013 207.428 211.865 205.532 211.865 203.012V202.436C211.865 200.78 211.529 199.424 210.857 198.368C210.185 197.312 209.045 196.424 207.437 195.704C205.853 194.984 203.693 194.312 200.957 193.688C197.501 192.872 194.729 191.912 192.641 190.808C190.577 189.68 189.077 188.276 188.141 186.596C187.229 184.916 186.773 182.828 186.773 180.332V180.008C186.773 176.24 188.009 173.336 190.481 171.296C192.953 169.232 196.697 168.2 201.713 168.2C205.001 168.2 207.797 168.536 210.101 169.208C212.429 169.88 214.325 170.624 215.789 171.44L216.329 176.912C214.625 175.904 212.633 175.052 210.353 174.356C208.097 173.636 205.505 173.276 202.577 173.276C200.249 173.276 198.365 173.552 196.925 174.104C195.485 174.656 194.441 175.448 193.793 176.48C193.145 177.512 192.821 178.76 192.821 180.224V180.368C192.821 181.856 193.133 183.128 193.757 184.184C194.405 185.24 195.521 186.152 197.105 186.92C198.713 187.688 200.993 188.432 203.945 189.152C207.329 189.944 210.041 190.856 212.081 191.888C214.121 192.92 215.597 194.264 216.509 195.92C217.445 197.576 217.913 199.736 217.913 202.4V203.156C217.913 207.308 216.569 210.464 213.881 212.624C211.217 214.76 207.221 215.828 201.893 215.828Z" fill="url(#paint0_linear_1245_52609)"/>
<defs>
<linearGradient id="paint0_linear_1245_52609" x1="120" y1="-6.92308" x2="120" y2="254.985" gradientUnits="userSpaceOnUse">
<stop stop-color="white"/>
<stop offset="1" stop-color="#8EAEFF"/>
</linearGradient>
</defs>
</svg>
