<svg width="23" height="8" viewBox="0 0 23 8" fill="none" xmlns="http://www.w3.org/2000/svg">
    <path fill-rule="evenodd" clip-rule="evenodd" d="M1.18502 1.13329C1.17806 1.14025 1.17507 1.14324 1.16811 1.1502C0.552216 1.77604 0.177107 2.55412 0.0517391 3.36105C0.0169147 3.56602 0 3.77099 0 3.98292V4.0068C0 4.2048 0.0169147 4.40678 0.0447742 4.60478C0.135318 5.22068 0.372124 5.81767 0.747232 6.34302C0.86862 6.51714 1.0109 6.6833 1.16811 6.84349C1.17507 6.85046 1.17806 6.85344 1.18502 6.86041C1.52232 7.19771 1.89743 7.45839 2.29742 7.64246C3.768 8.32403 5.55797 8.01061 6.89623 6.87135C6.89921 6.86837 6.90319 6.86439 6.90618 6.86439C8.41855 5.5719 9.80456 4.84656 11.299 4.84656C12.7905 4.84656 14.1805 5.57091 15.6889 6.86439C16.0988 7.21562 16.5505 7.49023 17.0271 7.67729C17.646 7.92802 18.2997 8.03548 18.9425 7.98971C19.8429 7.92703 20.7116 7.56187 21.414 6.86041C21.421 6.85344 21.424 6.85046 21.4309 6.84349C21.5871 6.68728 21.7264 6.52012 21.8518 6.34302C22.2269 5.81468 22.4637 5.2167 22.5543 4.60478C22.617 4.19485 22.613 3.77397 22.5513 3.36404C22.4259 2.55412 22.0508 1.77903 21.4359 1.15319C21.4289 1.14622 21.426 1.14324 21.419 1.13627C20.7205 0.437793 19.8519 0.0726338 18.9475 0.00994983C18.3027 -0.0318395 17.646 0.0766137 17.0242 0.326354C16.5515 0.514406 16.0958 0.789021 15.6899 1.13627C14.1705 2.42179 12.7985 3.1531 11.3 3.1531C9.80158 3.1531 8.41855 2.4188 6.90319 1.13329C6.90021 1.1303 6.89623 1.12632 6.89623 1.12632C6.02661 0.392023 4.96695 0 3.9272 0C3.36404 0 2.80784 0.114423 2.29344 0.354214C1.89743 0.538286 1.51934 0.795986 1.18502 1.13329Z" fill="#3D4767"/>
</svg>
