<svg width="27" height="10" viewBox="0 0 27 10" fill="none" xmlns="http://www.w3.org/2000/svg">
<path d="M13.5 5.24638C15.2828 5.24638 16.9404 6.64631 18.7469 8.19136C20.7812 9.93283 23.6949 10.0792 25.584 8.19136C26.0329 7.74257 26.389 7.20973 26.632 6.62329C26.875 6.03684 27 5.40827 27 4.77348C27 4.13869 26.875 3.51012 26.632 2.92367C26.389 2.33722 26.0329 1.80439 25.584 1.3556C23.6949 -0.533494 20.7812 -0.368354 18.7469 1.3556C16.9329 2.89064 15.2915 4.30058 13.5 4.30058C11.7085 4.30058 10.0721 2.89064 8.25308 1.36185C6.21762 -0.362101 3.30392 -0.52724 1.41608 1.36185C0.967144 1.81064 0.611018 2.34348 0.368047 2.92992C0.125076 3.51637 0 4.14495 0 4.77974C0 5.41452 0.125076 6.04309 0.368047 6.62954C0.611018 7.21599 0.967144 7.74883 1.41608 8.19762C3.30392 10.0855 6.21762 9.93909 8.25308 8.19762C10.0584 6.65257 11.716 5.25263 13.5 5.25263" fill="#3D4767"/>
</svg>
