<svg width="128" height="181" viewBox="0 0 128 181" fill="none" xmlns="http://www.w3.org/2000/svg">
<path d="M54.945 36.869L54.014 80.234H47.399L46.468 36.869H54.945ZM50.682 100.422C49.016 100.422 47.7747 99.9646 46.958 99.05C46.1414 98.1026 45.733 96.7796 45.733 95.081V94.591C45.733 92.925 46.1414 91.6346 46.958 90.72C47.7747 89.8053 49.016 89.348 50.682 89.348C52.3807 89.348 53.6384 89.8053 54.455 90.72C55.2717 91.6346 55.68 92.925 55.68 94.591V95.081C55.68 96.7796 55.2717 98.1026 54.455 99.05C53.6384 99.9646 52.3807 100.422 50.682 100.422Z" fill="#3D4767"/>
<path d="M0 155.394C0 162.431 1.84886 167.799 5.54658 171.497C9.30394 175.194 14.7312 177.043 21.8285 177.043H83.2354C82.5197 176.029 81.804 174.956 81.0883 173.823C80.4323 172.749 79.8359 171.646 79.2991 170.513H22.3652C16.9379 170.513 12.942 169.26 10.3775 166.755C7.87256 164.25 6.62011 160.314 6.62011 154.946V22.0969C6.62011 16.7292 7.87256 12.7929 10.3775 10.288C12.942 7.7831 16.9379 6.53065 22.3652 6.53065H32.8322C33.9653 6.53065 34.5319 7.09723 34.5319 8.23041V9.30394C34.5319 10.7353 34.9792 11.8983 35.8738 12.7929C36.7685 13.6875 37.9016 14.1348 39.2734 14.1348H61.6386C63.07 14.1348 64.2031 13.6875 65.0381 12.7929C65.9327 11.8983 66.38 10.7353 66.38 9.30394V8.23041C66.38 7.09723 66.9466 6.53065 68.0798 6.53065H78.5467C83.974 6.53065 87.9401 7.7831 90.445 10.288C93.0096 12.7929 94.2918 16.7292 94.2918 22.0969L94.3813 110.458C94.9181 110.339 95.4548 110.279 95.9916 110.279C96.588 110.22 97.1844 110.19 97.7808 110.19C98.2579 110.19 98.7649 110.22 99.3017 110.279C99.8981 110.279 100.465 110.279 101.001 110.279V21.5601C101.001 14.5821 99.1227 9.2443 95.3654 5.54658C91.608 1.84886 86.2105 0 79.1729 0H21.8285C14.7312 0 9.30394 1.84886 5.54658 5.54658C1.84886 9.2443 0 14.5821 0 21.5601V155.394Z" fill="#FD0000"/>
<path d="M69.8727 122.397C71.3343 120.935 72.9686 119.842 74.7755 119.117C76.5708 118.38 78.4295 118.017 80.3515 118.029C82.262 118.029 84.1207 118.392 85.9276 119.117C87.723 119.83 89.3515 120.918 90.8131 122.379C92.2862 123.852 93.4026 125.533 94.1622 127.42C94.8988 129.308 95.2498 131.258 95.2153 133.273C95.1577 135.287 94.6743 137.243 93.7651 139.142L110.597 155.974C110.747 156.123 110.873 156.296 110.977 156.492C111.08 156.71 111.126 156.952 111.115 157.217V162.741C111.126 163.006 111.057 163.224 110.908 163.397C110.747 163.581 110.516 163.673 110.217 163.673H99.6519C99.4102 163.662 99.2146 163.581 99.065 163.432C98.9154 163.282 98.8348 163.086 98.8233 162.845L98.8578 155.87L89.3975 155.905C89.1788 155.893 89.0004 155.807 88.8623 155.646C88.7127 155.496 88.6379 155.295 88.6379 155.042L88.6034 145.409C84.9321 147.1 81.4621 147.751 78.1936 147.359C74.9251 146.968 72.1457 145.627 69.8554 143.337C68.4053 141.887 67.3177 140.258 66.5926 138.452C65.8676 136.645 65.5108 134.78 65.5223 132.858C65.5223 130.948 65.8848 129.089 66.6099 127.282C67.3349 125.475 68.4225 123.847 69.8727 122.397ZM80.1098 132.634C80.9154 131.828 81.3183 130.861 81.3183 129.734C81.3068 128.594 80.8924 127.616 80.0753 126.799C79.2812 126.005 78.3259 125.602 77.2096 125.59C76.0702 125.579 75.0919 125.982 74.2748 126.799C73.4807 127.593 73.0836 128.565 73.0836 129.716C73.0836 130.867 73.4749 131.834 74.2575 132.617C75.0747 133.434 76.0587 133.842 77.2096 133.842C78.349 133.831 79.3157 133.428 80.1098 132.634Z" fill="#3D4767"/>
</svg>
