<svg width="11" height="11" viewBox="0 0 11 11" fill="none" xmlns="http://www.w3.org/2000/svg">
<path d="M0.473633 5.23682C0.473633 5.39339 0.528646 5.52669 0.638672 5.63672C0.75293 5.74674 0.88623 5.80176 1.03857 5.80176H5.14551V9.90869C5.14551 10.061 5.20052 10.1922 5.31055 10.3022C5.42057 10.4165 5.55387 10.4736 5.71045 10.4736C5.86702 10.4736 6.00033 10.4165 6.11035 10.3022C6.22461 10.1922 6.28174 10.061 6.28174 9.90869V5.80176H10.3823C10.5347 5.80176 10.6659 5.74674 10.7759 5.63672C10.8901 5.52669 10.9473 5.39339 10.9473 5.23682C10.9473 5.08024 10.8901 4.94694 10.7759 4.83691C10.6659 4.72266 10.5347 4.66553 10.3823 4.66553H6.28174V0.564941C6.28174 0.412598 6.22461 0.281413 6.11035 0.171387C6.00033 0.0571289 5.86702 0 5.71045 0C5.55387 0 5.42057 0.0571289 5.31055 0.171387C5.20052 0.281413 5.14551 0.412598 5.14551 0.564941V4.66553H1.03857C0.88623 4.66553 0.75293 4.72266 0.638672 4.83691C0.528646 4.94694 0.473633 5.08024 0.473633 5.23682Z" fill="#646F85"/>
</svg>
