<svg width="37" height="52" viewBox="0 0 37 52" fill="none" xmlns="http://www.w3.org/2000/svg">
<path d="M18.3955 1V5L14.3955 6" stroke="#105BFB" stroke-width="2" stroke-miterlimit="10" stroke-linecap="round" stroke-linejoin="round"/>
<path d="M14.2081 21.3563C15.0361 19.9213 14.5451 18.0863 13.1101 17.2583C11.6751 16.4303 9.84008 16.9213 9.01208 18.3563L4.01208 27.0163C-0.129923 34.1903 2.32807 43.3643 9.50207 47.5063C16.6761 51.6483 25.8501 49.1903 29.9921 42.0163L33.9921 35.0883C34.8201 33.6533 34.3291 31.8183 32.8941 30.9903C31.4591 30.1623 29.6241 30.6533 28.7961 32.0883L29.7961 30.3563C30.6241 28.9213 30.1331 27.0863 28.6981 26.2583C27.2631 25.4303 25.4281 25.9213 24.6001 27.3563L25.6001 25.6243C26.4281 24.1893 25.9371 22.3543 24.5021 21.5263C23.0671 20.6983 21.2321 21.1893 20.4041 22.6243L27.4041 10.5003C28.2321 9.06528 27.7411 7.23028 26.3061 6.40228C24.8711 5.57428 23.0361 6.06528 22.2081 7.50028L10.7081 27.4193L14.2081 21.3563Z" fill="#D9D9D9" stroke="#FF007A" stroke-width="4" stroke-miterlimit="10" stroke-linecap="round" stroke-linejoin="round"/>
</svg>
