<svg width="48" height="93" viewBox="0 0 48 93" fill="none" xmlns="http://www.w3.org/2000/svg">
<path d="M23.897 0.323242C20.631 0.323242 17.5837 0.927572 14.7549 2.13623C11.9261 3.31917 9.4445 4.99072 7.31006 7.15088C5.17562 9.28532 3.50407 11.7669 2.29541 14.5957C1.08675 17.3988 0.482422 20.4333 0.482422 23.6992C0.482422 26.9909 1.11247 30.1154 2.37256 33.0728C3.65837 36.0044 5.44564 38.576 7.73438 40.7876C10.0488 42.9735 12.7747 44.6193 15.9121 45.7251V83.335C15.9121 83.6693 15.9635 84.0036 16.0664 84.3379C16.195 84.6979 16.4136 85.0194 16.7222 85.3022L22.894 91.4741C23.1769 91.7827 23.4984 91.9499 23.8584 91.9756C24.2441 92.0013 24.6042 91.847 24.9385 91.5127L36.7422 79.709C36.9993 79.4261 37.1279 79.1175 37.1279 78.7832C37.1279 78.4489 36.9993 78.1403 36.7422 77.8574L28.9116 70.104L39.5195 59.5732C39.751 59.3161 39.8538 59.0203 39.8281 58.686C39.8281 58.3517 39.6867 58.0431 39.4038 57.7603L28.6802 46.9595C34.672 44.7479 39.2752 41.5977 42.4897 37.5088C45.7043 33.4199 47.3115 28.8167 47.3115 23.6992C47.3115 20.459 46.7072 17.4245 45.4985 14.5957C44.2899 11.7669 42.6055 9.28532 40.4453 7.15088C38.3109 5.01644 35.8293 3.34489 33.0005 2.13623C30.1717 0.927572 27.1372 0.323242 23.897 0.323242ZM23.897 23.1978C22.0968 23.1978 20.5667 22.5677 19.3066 21.3076C18.0465 20.0218 17.4165 18.466 17.4165 16.6401C17.4165 14.8657 18.0337 13.3485 19.2681 12.0884C20.5282 10.8026 22.0711 10.1597 23.897 10.1597C25.6714 10.1597 27.2015 10.8026 28.4873 12.0884C29.7731 13.3742 30.416 14.8914 30.416 16.6401C30.416 18.466 29.7731 20.0218 28.4873 21.3076C27.2015 22.5677 25.6714 23.1978 23.897 23.1978Z" fill="#3D4767"/>
</svg>
