<svg width="18" height="19" viewBox="0 0 18 19" fill="none" xmlns="http://www.w3.org/2000/svg">
<path d="M1.6706 8.3154H6.35573C6.90347 8.3154 7.31754 8.17846 7.59793 7.90459C7.87832 7.6242 8.01851 7.19709 8.01851 6.62327V1.98703C8.01851 1.41321 7.87832 0.989363 7.59793 0.715493C7.31754 0.441623 6.90347 0.304688 6.35573 0.304688H1.6706C1.12286 0.304688 0.70879 0.441623 0.428399 0.715493C0.148008 0.989363 0.0078125 1.41321 0.0078125 1.98703V6.62327C0.0078125 7.19709 0.148008 7.6242 0.428399 7.90459C0.70879 8.17846 1.12286 8.3154 1.6706 8.3154ZM1.69016 7.23948C1.48149 7.23948 1.32826 7.19057 1.23045 7.09276C1.13264 6.98843 1.08373 6.82867 1.08373 6.61349V1.99682C1.08373 1.78163 1.13264 1.62513 1.23045 1.52732C1.32826 1.42951 1.48149 1.38061 1.69016 1.38061H6.33617C6.54483 1.38061 6.69807 1.42951 6.79588 1.52732C6.89369 1.62513 6.9426 1.78163 6.9426 1.99682V6.61349C6.9426 6.82867 6.89369 6.98843 6.79588 7.09276C6.69807 7.19057 6.54483 7.23948 6.33617 7.23948H1.69016ZM3.21601 5.29304H4.80054C4.93095 5.29304 4.99616 5.22131 4.99616 5.07786V3.53245C4.99616 3.39551 4.93095 3.32704 4.80054 3.32704H3.21601C3.09211 3.32704 3.03017 3.39551 3.03017 3.53245V5.07786C3.03017 5.22131 3.09211 5.29304 3.21601 5.29304ZM11.3636 8.3154H16.0488C16.5965 8.3154 17.0106 8.17846 17.291 7.90459C17.5714 7.6242 17.7116 7.19709 17.7116 6.62327V1.98703C17.7116 1.41321 17.5714 0.989363 17.291 0.715493C17.0106 0.441623 16.5965 0.304688 16.0488 0.304688H11.3636C10.8159 0.304688 10.4018 0.441623 10.1214 0.715493C9.84106 0.989363 9.70086 1.41321 9.70086 1.98703V6.62327C9.70086 7.19709 9.84106 7.6242 10.1214 7.90459C10.4018 8.17846 10.8159 8.3154 11.3636 8.3154ZM11.393 7.23948C11.1778 7.23948 11.0213 7.19057 10.9235 7.09276C10.8257 6.98843 10.7768 6.82867 10.7768 6.61349V1.99682C10.7768 1.78163 10.8257 1.62513 10.9235 1.52732C11.0213 1.42951 11.1778 1.38061 11.393 1.38061H16.0292C16.2444 1.38061 16.3976 1.42951 16.4889 1.52732C16.5867 1.62513 16.6356 1.78163 16.6356 1.99682V6.61349C16.6356 6.82867 16.5867 6.98843 16.4889 7.09276C16.3976 7.19057 16.2444 7.23948 16.0292 7.23948H11.393ZM12.9384 5.29304H14.5327C14.6631 5.29304 14.7283 5.22131 14.7283 5.07786V3.53245C14.7283 3.39551 14.6631 3.32704 14.5327 3.32704H12.9384C12.821 3.32704 12.7623 3.39551 12.7623 3.53245V5.07786C12.7623 5.22131 12.821 5.29304 12.9384 5.29304ZM1.6706 18.0085H6.35573C6.90347 18.0085 7.31754 17.8715 7.59793 17.5976C7.87832 17.3238 8.01851 16.8967 8.01851 16.3163V11.6801C8.01851 11.1063 7.87832 10.6824 7.59793 10.4085C7.31754 10.1282 6.90347 9.98796 6.35573 9.98796H1.6706C1.12286 9.98796 0.70879 10.1282 0.428399 10.4085C0.148008 10.6824 0.0078125 11.1063 0.0078125 11.6801V16.3163C0.0078125 16.8967 0.148008 17.3238 0.428399 17.5976C0.70879 17.8715 1.12286 18.0085 1.6706 18.0085ZM1.69016 16.9325C1.48149 16.9325 1.32826 16.8804 1.23045 16.776C1.13264 16.6782 1.08373 16.5217 1.08373 16.3065V11.6997C1.08373 11.4779 1.13264 11.3182 1.23045 11.2204C1.32826 11.1226 1.48149 11.0737 1.69016 11.0737H6.33617C6.54483 11.0737 6.69807 11.1226 6.79588 11.2204C6.89369 11.3182 6.9426 11.4779 6.9426 11.6997V16.3065C6.9426 16.5217 6.89369 16.6782 6.79588 16.776C6.69807 16.8804 6.54483 16.9325 6.33617 16.9325H1.69016ZM3.21601 14.9861H4.80054C4.93095 14.9861 4.99616 14.9111 4.99616 14.7611V13.2255C4.99616 13.0886 4.93095 13.0201 4.80054 13.0201H3.21601C3.09211 13.0201 3.03017 13.0886 3.03017 13.2255V14.7611C3.03017 14.9111 3.09211 14.9861 3.21601 14.9861ZM10.3073 12.3843H11.9016C12.0255 12.3843 12.0874 12.3126 12.0874 12.1691V10.6237C12.0874 10.4868 12.0255 10.4183 11.9016 10.4183H10.3073C10.1899 10.4183 10.1312 10.4868 10.1312 10.6237V12.1691C10.1312 12.3126 10.1899 12.3843 10.3073 12.3843ZM15.501 12.3843H17.0954C17.2192 12.3843 17.2812 12.3126 17.2812 12.1691V10.6237C17.2812 10.4868 17.2192 10.4183 17.0954 10.4183H15.501C15.3837 10.4183 15.325 10.4868 15.325 10.6237V12.1691C15.325 12.3126 15.3837 12.3843 15.501 12.3843ZM12.9286 14.9861H14.5229C14.6468 14.9861 14.7088 14.9111 14.7088 14.7611V13.2255C14.7088 13.0886 14.6468 13.0201 14.5229 13.0201H12.9286C12.8112 13.0201 12.7526 13.0886 12.7526 13.2255V14.7611C12.7526 14.9111 12.8112 14.9861 12.9286 14.9861ZM10.3073 17.5781H11.9016C12.0255 17.5781 12.0874 17.5064 12.0874 17.3629V15.8175C12.0874 15.6806 12.0255 15.6121 11.9016 15.6121H10.3073C10.1899 15.6121 10.1312 15.6806 10.1312 15.8175V17.3629C10.1312 17.5064 10.1899 17.5781 10.3073 17.5781ZM15.501 17.5781H17.0954C17.2192 17.5781 17.2812 17.5064 17.2812 17.3629V15.8175C17.2812 15.6806 17.2192 15.6121 17.0954 15.6121H15.501C15.3837 15.6121 15.325 15.6806 15.325 15.8175V17.3629C15.325 17.5064 15.3837 17.5781 15.501 17.5781Z" fill="#9742FB"/>
</svg>
