<svg width="82" height="33" viewBox="0 0 82 33" fill="none" xmlns="http://www.w3.org/2000/svg">
<path d="M75.3056 0.382935H0V25.3404L6.69445 32.6808H82V7.72336L75.3056 0.382935Z" fill="#9742FB"/>
<path d="M40.5612 8.53333C40.3018 8.53333 40.0895 8.60927 39.9244 8.76115C39.7641 8.91304 39.6839 9.11266 39.6839 9.36002V17.0802L39.7759 19.3389L40.2924 19.0655L38.0636 16.7417L36.4646 15.2836C36.3844 15.2098 36.2924 15.1512 36.1887 15.1078C36.0849 15.0644 35.9693 15.0427 35.842 15.0427C35.6014 15.0427 35.4009 15.1165 35.2406 15.2641C35.0802 15.4116 35 15.5982 35 15.8239C35 16.0408 35.092 16.2361 35.2759 16.4097L39.9103 20.6864C39.9952 20.7645 40.0943 20.8253 40.2075 20.8687C40.3254 20.9121 40.4433 20.9338 40.5612 20.9338C40.6839 20.9338 40.8018 20.9121 40.915 20.8687C41.0329 20.8253 41.1343 20.7645 41.2192 20.6864L45.8536 16.4097C46.0376 16.2361 46.1295 16.0408 46.1295 15.8239C46.1295 15.5982 46.0493 15.4116 45.889 15.2641C45.7286 15.1165 45.5281 15.0427 45.2876 15.0427C45.1602 15.0427 45.0423 15.0644 44.9338 15.1078C44.83 15.1512 44.738 15.2098 44.6579 15.2836L43.0588 16.7417L40.823 19.0655L41.3466 19.3389L41.4386 17.0802V9.36002C41.4386 9.11266 41.356 8.91304 41.1909 8.76115C41.0306 8.60927 40.8207 8.53333 40.5612 8.53333Z" fill="white"/>
</svg>
