<svg width="24" height="25" viewBox="0 0 24 25" fill="none" xmlns="http://www.w3.org/2000/svg">
<path d="M0.987139 10.6508C1.14364 10.8073 1.31819 10.8825 1.5108 10.8765C1.70943 10.8645 1.88399 10.7832 2.03447 10.6327L2.90122 9.77502L4.23747 8.35752V18.2169C4.23747 19.1498 4.47522 19.848 4.95074 20.3115C5.42625 20.781 6.13349 21.0157 7.07248 21.0157H14.4218C14.6807 21.0157 14.8793 20.9525 15.0177 20.8261C15.1622 20.6997 15.2314 20.5222 15.2254 20.2935C15.2254 20.0587 15.1562 19.8781 15.0177 19.7517C14.8793 19.6253 14.6807 19.5621 14.4218 19.5621H7.09957C6.64813 19.5621 6.29902 19.4448 6.05224 19.21C5.81147 18.9692 5.69109 18.6141 5.69109 18.1446V8.33946L7.03636 9.77502L7.90312 10.6327C8.05962 10.7832 8.23417 10.8645 8.42678 10.8765C8.6194 10.8825 8.79395 10.8073 8.95045 10.6508C9.10093 10.5003 9.17315 10.3258 9.16714 10.1271C9.16714 9.92851 9.08889 9.75396 8.93239 9.60348L5.88972 6.56984C5.59478 6.28092 5.28781 6.13646 4.96879 6.13646C4.6558 6.13646 4.35183 6.28092 4.0569 6.56984L1.01423 9.60348C0.857728 9.75396 0.77647 9.92851 0.770451 10.1271C0.764432 10.3258 0.836661 10.5003 0.987139 10.6508ZM8.67056 5.11622C8.67658 5.35096 8.74881 5.53154 8.88725 5.65794C9.02569 5.78434 9.22131 5.84754 9.47411 5.84754H16.8054C17.2568 5.84754 17.6029 5.96792 17.8437 6.20869C18.0845 6.44343 18.2049 6.79555 18.2049 7.26505V17.0702L16.8596 15.6256L15.9928 14.7769C15.8363 14.6264 15.6618 14.5482 15.4692 14.5422C15.2766 14.5301 15.102 14.5994 14.9455 14.7498C14.795 14.9063 14.7198 15.0839 14.7198 15.2825C14.7258 15.4751 14.8071 15.6497 14.9636 15.8062L18.0062 18.8308C18.3012 19.1257 18.6081 19.2732 18.9272 19.2732C19.2462 19.2732 19.5531 19.1257 19.8481 18.8308L22.8817 15.8062C23.0382 15.6497 23.1195 15.4751 23.1255 15.2825C23.1315 15.0839 23.0593 14.9063 22.9088 14.7498C22.7523 14.5994 22.5778 14.5301 22.3851 14.5422C22.1925 14.5482 22.018 14.6264 21.8615 14.7769L20.9947 15.6256L19.6585 17.0521V7.19282C19.6585 6.25985 19.4207 5.56163 18.9452 5.09816C18.4757 4.62867 17.7685 4.39392 16.8235 4.39392H9.47411C9.22131 4.39392 9.02268 4.45712 8.87822 4.58352C8.73376 4.70993 8.66454 4.88749 8.67056 5.11622Z" fill="#3D4767"/>
</svg>
