<svg width="14" height="16" viewBox="0 0 14 16" fill="none" xmlns="http://www.w3.org/2000/svg">
<path d="M13.2344 9.49903C13.2344 10.4035 13.0681 11.2493 12.7357 12.0365C12.3983 12.8187 11.9339 13.5081 11.3423 14.1046C10.7507 14.6962 10.0638 15.1582 9.28153 15.4906C8.49439 15.8231 7.65102 15.9893 6.75142 15.9893C5.85671 15.9893 5.01823 15.8231 4.23598 15.4906C3.44883 15.1582 2.75947 14.6962 2.16788 14.1046C1.57141 13.5081 1.10695 12.8187 0.774489 12.0365C0.44203 11.2493 0.275801 10.4035 0.275801 9.49903C0.275801 9.32302 0.332026 9.17879 0.444474 9.06635C0.556924 8.94901 0.703597 8.89034 0.884494 8.89034C1.0605 8.89034 1.19984 8.94901 1.30251 9.06635C1.40518 9.17879 1.45652 9.32302 1.45652 9.49903C1.45652 10.2373 1.59341 10.9291 1.8672 11.5745C2.14099 12.2149 2.5199 12.7796 3.00392 13.2685C3.48794 13.7526 4.05019 14.129 4.69066 14.3979C5.33114 14.6717 6.01805 14.8086 6.75142 14.8086C7.48968 14.8086 8.17904 14.6717 8.81951 14.3979C9.45999 14.129 10.0222 13.7526 10.5063 13.2685C10.9903 12.7796 11.3692 12.2149 11.643 11.5745C11.9168 10.9291 12.0537 10.2373 12.0537 9.49903C12.0537 8.76567 11.9168 8.07875 11.643 7.43827C11.3692 6.7978 10.9903 6.23555 10.5063 5.75153C10.0222 5.26751 9.45999 4.8886 8.81951 4.61481C8.17904 4.34102 7.48968 4.20413 6.75142 4.20413C6.47274 4.20413 6.20629 4.21635 5.95205 4.2408C5.69293 4.26524 5.45581 4.30191 5.24069 4.3508L7.43345 6.52157C7.48723 6.58023 7.52879 6.64624 7.55812 6.71957C7.58746 6.78802 7.60213 6.86136 7.60213 6.93958C7.60213 7.10581 7.5459 7.24515 7.43345 7.3576C7.321 7.47005 7.18411 7.52628 7.02277 7.52628C6.84187 7.52628 6.70009 7.47005 6.59741 7.3576L3.57595 4.32147C3.51239 4.25791 3.46594 4.18946 3.43661 4.11613C3.40727 4.04279 3.3926 3.96456 3.3926 3.88145C3.3926 3.71522 3.45372 3.56855 3.57595 3.44143L6.59741 0.375959C6.70497 0.25862 6.84676 0.199951 7.02277 0.199951C7.189 0.199951 7.32834 0.25862 7.44078 0.375959C7.54835 0.488408 7.60213 0.630193 7.60213 0.801311C7.60213 0.874648 7.5899 0.947984 7.56546 1.02132C7.53612 1.09466 7.49457 1.16066 7.44078 1.21933L5.49003 3.14808C5.68071 3.10897 5.8836 3.07963 6.09873 3.06008C6.30896 3.03563 6.52652 3.02341 6.75142 3.02341C7.65102 3.02341 8.49439 3.19208 9.28153 3.52943C10.0638 3.86189 10.7507 4.32391 11.3423 4.91549C11.9339 5.50708 12.3983 6.19644 12.7357 6.98359C13.0681 7.76584 13.2344 8.60432 13.2344 9.49903Z" fill="#3D4767"/>
</svg>
