<svg width="15" height="15" viewBox="0 0 15 15" fill="none" xmlns="http://www.w3.org/2000/svg">
<path fill-rule="evenodd" clip-rule="evenodd" d="M1.1961 7.11115C1.1961 10.03 3.53132 12.3961 6.41196 12.3961C9.2926 12.3961 11.6278 10.03 11.6278 7.11115C11.6278 4.19234 9.2926 1.82618 6.41196 1.82618C3.53132 1.82618 1.1961 4.19234 1.1961 7.11115ZM6.41196 13.6081C2.87073 13.6081 0 10.6993 0 7.11115C0 3.523 2.87073 0.614227 6.41196 0.614227C9.95319 0.614227 12.8239 3.523 12.8239 7.11115C12.8239 8.54462 12.3658 9.86966 11.5897 10.9441L14.7763 13.5357C15.0339 13.7452 15.0751 14.1265 14.8683 14.3875C14.6615 14.6485 14.2852 14.6903 14.0276 14.4808L10.817 11.8698C10.8099 11.8639 10.803 11.858 10.7962 11.852C9.64957 12.9411 8.10761 13.6081 6.41196 13.6081Z" fill="#646F85"/>
</svg>
