<svg width="82" height="33" viewBox="0 0 82 33" fill="none" xmlns="http://www.w3.org/2000/svg">
<path d="M75.3056 0H0V24.9574L6.69445 32.2979H82V7.34043L75.3056 0Z" fill="#9742FB"/>
<path d="M40.5612 22.5088C40.3018 22.5088 40.0895 22.4328 39.9244 22.281C39.7641 22.1291 39.6839 21.9295 39.6839 21.6821V13.9619L39.7759 11.7032L40.2924 11.9766L38.0636 14.3004L36.4646 15.7585C36.3844 15.8323 36.2924 15.8909 36.1887 15.9343C36.0849 15.9777 35.9693 15.9994 35.842 15.9994C35.6014 15.9994 35.4009 15.9256 35.2406 15.7781C35.0802 15.6305 35 15.4439 35 15.2183C35 15.0013 35.092 14.806 35.2759 14.6324L39.9103 10.3557C39.9952 10.2776 40.0943 10.2169 40.2075 10.1735C40.3254 10.1301 40.4433 10.1084 40.5612 10.1084C40.6839 10.1084 40.8018 10.1301 40.915 10.1735C41.0329 10.2169 41.1343 10.2776 41.2192 10.3557L45.8536 14.6324C46.0376 14.806 46.1295 15.0013 46.1295 15.2183C46.1295 15.4439 46.0493 15.6305 45.889 15.7781C45.7286 15.9256 45.5281 15.9994 45.2876 15.9994C45.1602 15.9994 45.0423 15.9777 44.9338 15.9343C44.83 15.8909 44.738 15.8323 44.6579 15.7585L43.0588 14.3004L40.823 11.9766L41.3466 11.7032L41.4386 13.9619V21.6821C41.4386 21.9295 41.356 22.1291 41.1909 22.281C41.0306 22.4328 40.8207 22.5088 40.5612 22.5088Z" fill="white"/>
</svg>
