<svg width="15" height="16" viewBox="0 0 15 16" fill="none" xmlns="http://www.w3.org/2000/svg">
<path d="M6.6377 15.3242H7.88867C8.09375 15.3242 8.26693 15.2673 8.4082 15.1533C8.54948 15.0439 8.6429 14.889 8.68848 14.6885L9.03027 13.2324C9.14876 13.1914 9.2627 13.1481 9.37207 13.1025C9.486 13.0615 9.5931 13.0182 9.69336 12.9727L10.9648 13.7451C11.1335 13.8499 11.3089 13.8932 11.4912 13.875C11.6735 13.8613 11.8353 13.7839 11.9766 13.6426L12.8516 12.7744C12.9928 12.6331 13.0726 12.4691 13.0908 12.2822C13.109 12.0908 13.0612 11.9108 12.9473 11.7422L12.168 10.4844C12.2227 10.3796 12.2705 10.2747 12.3115 10.1699C12.3525 10.0605 12.3913 9.95117 12.4277 9.8418L13.8975 9.49316C14.0934 9.45215 14.2461 9.361 14.3555 9.21973C14.4694 9.07389 14.5264 8.89844 14.5264 8.69336V7.46973C14.5264 7.26921 14.4694 7.09831 14.3555 6.95703C14.2461 6.8112 14.0934 6.71777 13.8975 6.67676L12.4414 6.32812C12.4004 6.20508 12.3571 6.08887 12.3115 5.97949C12.266 5.87012 12.2227 5.76758 12.1816 5.67188L12.9609 4.39355C13.0703 4.22493 13.1182 4.04948 13.1045 3.86719C13.0908 3.6849 13.0111 3.52311 12.8652 3.38184L11.9697 2.5C11.8285 2.3724 11.6712 2.2972 11.498 2.27441C11.3294 2.25163 11.1608 2.28809 10.9922 2.38379L9.69336 3.18359C9.59766 3.13346 9.49284 3.08789 9.37891 3.04688C9.26953 3.0013 9.15332 2.95801 9.03027 2.91699L8.68848 1.44043C8.6429 1.24447 8.54948 1.08952 8.4082 0.975586C8.26693 0.857096 8.09375 0.797852 7.88867 0.797852H6.6377C6.43717 0.797852 6.264 0.857096 6.11816 0.975586C5.97689 1.08952 5.88346 1.24447 5.83789 1.44043L5.49609 2.90332C5.3776 2.94434 5.26139 2.98763 5.14746 3.0332C5.03353 3.07878 4.92643 3.12663 4.82617 3.17676L3.53418 2.38379C3.36556 2.28809 3.19466 2.25163 3.02148 2.27441C2.85286 2.29264 2.69564 2.37012 2.5498 2.50684L1.66797 3.38184C1.52214 3.52311 1.4401 3.6849 1.42188 3.86719C1.4082 4.04948 1.45605 4.22493 1.56543 4.39355L2.33789 5.67188C2.29688 5.76758 2.25358 5.87012 2.20801 5.97949C2.16243 6.08887 2.12142 6.20508 2.08496 6.32812L0.635742 6.67676C0.435221 6.71777 0.277995 6.8112 0.164062 6.95703C0.0546875 7.09831 0 7.26921 0 7.46973V8.69336C0 8.89844 0.0546875 9.07389 0.164062 9.21973C0.277995 9.361 0.435221 9.45215 0.635742 9.49316L2.09863 9.8418C2.13053 9.95117 2.16927 10.0605 2.21484 10.1699C2.26042 10.2747 2.30599 10.3796 2.35156 10.4844L1.5791 11.7422C1.46973 11.9108 1.42415 12.0908 1.44238 12.2822C1.46061 12.4691 1.54036 12.6331 1.68164 12.7744L2.5498 13.6426C2.69108 13.7839 2.85286 13.8613 3.03516 13.875C3.21745 13.8932 3.3929 13.8499 3.56152 13.7451L4.83301 12.9727C4.93327 13.0182 5.03809 13.0615 5.14746 13.1025C5.26139 13.1481 5.3776 13.1914 5.49609 13.2324L5.83789 14.6885C5.88346 14.889 5.97689 15.0439 6.11816 15.1533C6.264 15.2673 6.43717 15.3242 6.6377 15.3242ZM7.2666 10.457C6.8291 10.457 6.42806 10.3499 6.06348 10.1357C5.69889 9.91699 5.40951 9.62533 5.19531 9.26074C4.98112 8.89616 4.87402 8.49512 4.87402 8.05762C4.87402 7.62012 4.98112 7.22135 5.19531 6.86133C5.41406 6.5013 5.70345 6.21419 6.06348 6C6.42806 5.78125 6.8291 5.67188 7.2666 5.67188C7.7041 5.67188 8.10286 5.78125 8.46289 6C8.82747 6.21419 9.11686 6.5013 9.33105 6.86133C9.54525 7.22135 9.65234 7.62012 9.65234 8.05762C9.65234 8.49512 9.54525 8.89616 9.33105 9.26074C9.11686 9.62533 8.82747 9.91699 8.46289 10.1357C8.10286 10.3499 7.7041 10.457 7.2666 10.457Z" fill="#3D4767"/>
</svg>
