<svg width="13" height="16" viewBox="0 0 13 16" fill="none" xmlns="http://www.w3.org/2000/svg">
<path d="M2.22819 15.9468H10.259C10.9918 15.9468 11.5403 15.765 11.9043 15.4015C12.2731 15.038 12.4575 14.4974 12.4575 13.7796V6.80277C12.4575 6.08504 12.2731 5.54442 11.9043 5.18089C11.5403 4.81737 10.9918 4.63561 10.259 4.63561H8.30554V5.76113H10.238C10.5834 5.76113 10.8518 5.85434 11.0431 6.04077C11.2345 6.22719 11.3302 6.50216 11.3302 6.86569V13.7167C11.3302 14.0802 11.2345 14.3552 11.0431 14.5416C10.8518 14.7281 10.5834 14.8213 10.238 14.8213H2.2422C1.89212 14.8213 1.62373 14.7281 1.43702 14.5416C1.25031 14.3552 1.15696 14.0802 1.15696 13.7167V6.86569C1.15696 6.50216 1.25031 6.22719 1.43702 6.04077C1.62373 5.85434 1.89212 5.76113 2.2422 5.76113H4.18163V4.63561H2.22819C1.49537 4.63561 0.944578 4.81737 0.57583 5.18089C0.211749 5.53976 0.0297089 6.08038 0.0297089 6.80277V13.7796C0.0297089 14.502 0.211749 15.0426 0.57583 15.4015C0.944578 15.765 1.49537 15.9468 2.22819 15.9468ZM6.24008 10.473C6.39411 10.473 6.52481 10.4194 6.63217 10.3122C6.74419 10.205 6.8002 10.0768 6.8002 9.92768V2.74808L6.7582 1.69945L7.2273 2.1958L8.29153 3.32832C8.38956 3.44017 8.51558 3.4961 8.66962 3.4961C8.81432 3.4961 8.93568 3.44949 9.0337 3.35628C9.13172 3.26307 9.18073 3.14423 9.18073 2.99975C9.18073 2.86925 9.12472 2.74808 9.01269 2.63623L6.64617 0.35721C6.57616 0.287301 6.50847 0.238365 6.44313 0.210402C6.38245 0.182439 6.31476 0.168457 6.24008 0.168457C6.17007 0.168457 6.10238 0.182439 6.03704 0.210402C5.97636 0.238365 5.90867 0.287301 5.83399 0.35721L3.46747 2.63623C3.36011 2.74808 3.30643 2.86925 3.30643 2.99975C3.30643 3.14423 3.35311 3.26307 3.44646 3.35628C3.53982 3.44949 3.66118 3.4961 3.81054 3.4961C3.96925 3.4961 4.09761 3.44017 4.19563 3.32832L5.25286 2.1958L5.72897 1.69945L5.68696 2.74808V9.92768C5.68696 10.0768 5.74064 10.205 5.84799 10.3122C5.96002 10.4194 6.09071 10.473 6.24008 10.473Z" fill="#9742FB"/>
</svg>
