<svg width="141" height="177" viewBox="0 0 141 177" fill="none" xmlns="http://www.w3.org/2000/svg">
<path d="M54.9155 36.8592L53.9845 80.2242H47.3695L46.4385 36.8592H54.9155ZM50.6525 100.412C48.9865 100.412 47.7452 99.9549 46.9285 99.0402C46.1118 98.0929 45.7035 96.7699 45.7035 95.0712V94.5812C45.7035 92.9152 46.1118 91.6249 46.9285 90.7102C47.7452 89.7955 48.9865 89.3382 50.6525 89.3382C52.3512 89.3382 53.6088 89.7955 54.4255 90.7102C55.2422 91.6249 55.6505 92.9152 55.6505 94.5812V95.0712C55.6505 96.7699 55.2422 98.0929 54.4255 99.0402C53.6088 99.9549 52.3512 100.412 50.6525 100.412Z" fill="#3D4767"/>
<path d="M0 155.303C0 162.337 1.84778 167.701 5.54335 171.397C9.29852 175.092 14.7227 176.94 21.8158 176.94H83.1869C82.4716 175.927 81.7563 174.854 81.0411 173.721C80.3854 172.648 79.7893 171.546 79.2529 170.413H22.3522C16.9281 170.413 12.9345 169.161 10.3714 166.658C7.86798 164.155 6.61625 160.221 6.61625 154.856V22.084C6.61625 16.7194 7.86798 12.7855 10.3714 10.282C12.9345 7.77857 16.9281 6.52684 22.3522 6.52684H32.813C33.9455 6.52684 34.5118 7.0931 34.5118 8.22561V9.29851C34.5118 10.7291 34.9588 11.8914 35.8529 12.7855C36.747 13.6795 37.8795 14.1266 39.2505 14.1266H61.6027C63.0332 14.1266 64.1657 13.6795 65.0002 12.7855C65.8943 11.8914 66.3413 10.7291 66.3413 9.29851V8.22561C66.3413 7.0931 66.9076 6.52684 68.0401 6.52684H78.5009C83.9251 6.52684 87.8889 7.77857 90.3923 10.282C92.9554 12.7855 94.2369 16.7194 94.2369 22.084L94.3263 110.394C94.8628 110.275 95.3992 110.215 95.9357 110.215C96.5317 110.156 97.1278 110.126 97.7238 110.126C98.2007 110.126 98.7073 110.156 99.2438 110.215C99.8398 110.215 100.406 110.215 100.943 110.215V21.5475C100.943 14.5736 99.065 9.23891 95.3098 5.54335C91.5546 1.84778 86.1603 0 79.1268 0H21.8158C14.7227 0 9.29852 1.84778 5.54335 5.54335C1.84778 9.23891 0 14.5736 0 21.5475V155.303Z" fill="#FD0000"/>
<path d="M89.0948 128.495H129.958C130.545 128.495 131.047 128.294 131.462 127.893C131.877 127.478 132.085 126.977 132.085 126.389C132.085 125.816 131.877 125.33 131.462 124.928C131.047 124.513 130.545 124.305 129.958 124.305H89.0948C88.5219 124.305 88.0277 124.513 87.6124 124.928C87.2113 125.33 87.0108 125.816 87.0108 126.389C87.0108 126.977 87.2113 127.478 87.6124 127.893C88.0277 128.294 88.5219 128.495 89.0948 128.495ZM89.0948 139.753H113.136C113.709 139.753 114.196 139.552 114.597 139.151C115.012 138.736 115.22 138.234 115.22 137.647C115.22 137.06 115.012 136.566 114.597 136.165C114.196 135.764 113.709 135.563 113.136 135.563H89.0948C88.5219 135.563 88.0277 135.764 87.6124 136.165C87.2113 136.566 87.0108 137.06 87.0108 137.647C87.0108 138.234 87.2113 138.736 87.6124 139.151C88.0277 139.552 88.5219 139.753 89.0948 139.753ZM89.0948 150.989H129.958C130.545 150.989 131.047 150.788 131.462 150.387C131.877 149.986 132.085 149.492 132.085 148.905C132.085 148.318 131.877 147.824 131.462 147.423C131.047 147.022 130.545 146.821 129.958 146.821H89.0948C88.5219 146.821 88.0277 147.022 87.6124 147.423C87.2113 147.824 87.0108 148.318 87.0108 148.905C87.0108 149.492 87.2113 149.986 87.6124 150.387C88.0277 150.788 88.5219 150.989 89.0948 150.989ZM89.0948 162.225H113.136C113.709 162.225 114.196 162.025 114.597 161.624C115.012 161.223 115.22 160.729 115.22 160.141C115.22 159.568 115.012 159.081 114.597 158.68C114.196 158.265 113.709 158.057 113.136 158.057H89.0948C88.5219 158.057 88.0277 158.265 87.6124 158.68C87.2113 159.081 87.0108 159.568 87.0108 160.141C87.0108 160.729 87.2113 161.223 87.6124 161.624C88.0277 162.025 88.5219 162.225 89.0948 162.225Z" fill="black"/>
</svg>
