<svg width="33" height="33" viewBox="0 0 33 33" fill="none" xmlns="http://www.w3.org/2000/svg">
<path fill-rule="evenodd" clip-rule="evenodd" d="M15 31.4973C22.732 31.4973 29 24.7076 29 16.3321C29 7.95666 22.732 1.16699 15 1.16699C7.26801 1.16699 1 7.95666 1 16.3321C1 24.7076 7.26801 31.4973 15 31.4973Z" stroke="url(#paint0_linear_2609_5116)" stroke-width="2"/>
<path d="M12.4308 20.8395L22.106 10.4089C22.2817 10.2195 22.5697 10.2162 22.7493 10.4015C22.9289 10.5868 22.932 10.8905 22.7563 11.0799L12.756 21.8611C12.5775 22.0535 12.284 22.0535 12.1056 21.8611L7.66098 17.0695C7.48528 16.8801 7.48845 16.5763 7.66805 16.391C7.84765 16.2057 8.13567 16.2091 8.31136 16.3985L12.4308 20.8395Z" stroke="#2CD2CF"/>
    <defs>
<linearGradient id="paint0_linear_2609_5116" x1="1" y1="16.0564" x2="29" y2="16.0564" gradientUnits="userSpaceOnUse">
<stop stop-color="#2CD2CF"/>
<stop offset="1" stop-color="#9D4DFA"/>
</linearGradient>
</defs>
</svg>
