<svg width="26" height="21" viewBox="0 0 26 21" fill="none" xmlns="http://www.w3.org/2000/svg">
<path d="M3.99492 16.1519H11.0631V14.6141H4.01402C3.53644 14.6141 3.1703 14.4867 2.91559 14.232C2.66088 13.9773 2.53353 13.6016 2.53353 13.1049V3.61067C2.53353 3.11399 2.66088 2.73829 2.91559 2.48359C3.1703 2.22888 3.53644 2.10152 4.01402 2.10152H17.902C18.3732 2.10152 18.7362 2.22888 18.9909 2.48359C19.252 2.73829 19.3825 3.11399 19.3825 3.61067V9.14103H20.9203V3.52471C20.9203 2.54408 20.6688 1.80542 20.1657 1.30874C19.669 0.812061 18.924 0.563721 17.9307 0.563721H3.99492C2.99519 0.563721 2.2438 0.812061 1.74075 1.30874C1.24407 1.79906 0.995728 2.53771 0.995728 3.52471V13.1909C0.995728 14.1779 1.24407 14.9197 1.74075 15.4164C2.2438 15.9067 2.99519 16.1519 3.99492 16.1519ZM13.365 20.5743H22.7542C23.7476 20.5743 24.4926 20.3259 24.9893 19.8292C25.4923 19.3325 25.7438 18.5939 25.7438 17.6133V11.4239C25.7438 10.4369 25.4923 9.6982 24.9893 9.20789C24.4926 8.71121 23.7476 8.46287 22.7542 8.46287H13.365C12.3653 8.46287 11.6139 8.71121 11.1108 9.20789C10.6142 9.6982 10.3658 10.4369 10.3658 11.4239V17.6133C10.3658 18.6003 10.6142 19.3389 11.1108 19.8292C11.6139 20.3259 12.3653 20.5743 13.365 20.5743ZM8.51281 4.63269C8.48734 4.48623 8.39819 4.36524 8.24537 4.26973C8.09254 4.16785 7.92061 4.20924 7.72958 4.3939L6.66936 5.44457L5.11245 3.87811C4.99783 3.7635 4.85774 3.70619 4.69218 3.70619C4.52662 3.70619 4.38653 3.7635 4.27191 3.87811C4.1573 3.99273 4.09999 4.13282 4.09999 4.29838C4.09999 4.46394 4.1573 4.60403 4.27191 4.71865L5.83837 6.27556L4.7877 7.33578C4.60304 7.52681 4.55846 7.69874 4.65398 7.85157C4.75586 8.00439 4.88003 8.09354 5.02649 8.11901L8.4746 8.6539C8.64016 8.67937 8.78662 8.63479 8.91398 8.52018C9.02859 8.39282 9.07317 8.24636 9.0477 8.0808L8.51281 4.63269ZM13.642 14.8338L13.0976 11.3856C13.0785 11.2201 13.123 11.0736 13.2313 10.9463C13.3586 10.8317 13.5051 10.7871 13.6707 10.8126L17.1283 11.3474C17.2748 11.3665 17.3958 11.4557 17.4913 11.6149C17.5932 11.7741 17.5518 11.946 17.3671 12.1307L16.3164 13.1909L17.8829 14.7478C17.9975 14.8624 18.0548 15.0025 18.0548 15.1681C18.0548 15.3336 17.9975 15.4737 17.8829 15.5883C17.7619 15.703 17.6186 15.7603 17.4531 15.7603C17.2939 15.7603 17.157 15.703 17.0424 15.5883L15.4759 14.0219L14.4157 15.0725C14.231 15.2636 14.0591 15.3082 13.8999 15.2063C13.7471 15.1044 13.6611 14.9802 13.642 14.8338Z" fill="#3D4767"/>
</svg>
