<svg width="14" height="19" viewBox="0 0 14 19" fill="none" xmlns="http://www.w3.org/2000/svg">
<path d="M0.480646 4.77178L4.16172 1.02373C4.29991 0.885189 4.45716 0.815918 4.63347 0.815918C4.82407 0.815918 4.97894 0.875293 5.09807 0.994043C5.21243 1.11774 5.26962 1.27607 5.26962 1.46904C5.26962 1.65212 5.20767 1.80798 5.08378 1.93662L3.54702 3.48037L2.21754 4.67529L3.86866 4.60107L13.0535 4.60107C13.2393 4.60107 13.3918 4.66292 13.5109 4.78662C13.6348 4.91032 13.6968 5.07113 13.6968 5.26904C13.6968 5.46201 13.6348 5.62034 13.5109 5.74404C13.3918 5.86774 13.2393 5.92959 13.0535 5.92959L3.86866 5.92959L2.21754 5.86279L3.54702 7.05029L5.08378 8.60146C5.20767 8.72516 5.26962 8.87855 5.26962 9.06162C5.26962 9.25459 5.21243 9.41045 5.09807 9.5292C4.97894 9.6529 4.82408 9.71475 4.63347 9.71475C4.45716 9.71475 4.29991 9.64548 4.16172 9.50693L0.480646 5.76631C0.337692 5.62777 0.266215 5.46201 0.266215 5.26904C0.26145 5.07607 0.332927 4.91032 0.480646 4.77178ZM13.4895 14.2347L9.79412 17.9753C9.6607 18.1138 9.50345 18.1831 9.32237 18.1831C9.13177 18.1831 8.97928 18.1213 8.86492 17.9976C8.75055 17.8788 8.69337 17.7229 8.69337 17.53C8.69337 17.3469 8.75294 17.1935 8.87207 17.0698L10.4088 15.5261L11.7454 14.3312L10.0943 14.3979L0.90951 14.3979C0.723669 14.3979 0.571184 14.3361 0.452056 14.2124C0.328162 14.0887 0.266215 13.9304 0.266215 13.7374C0.266215 13.5444 0.328162 13.3836 0.452056 13.255C0.571184 13.1313 0.723669 13.0694 0.90951 13.0694L10.0943 13.0694L11.7454 13.1437L10.4088 11.9487L8.87207 10.405C8.75294 10.2763 8.69337 10.1229 8.69337 9.94482C8.69337 9.75185 8.75055 9.59352 8.86492 9.46982C8.97928 9.34613 9.13177 9.28428 9.32237 9.28428C9.50345 9.28428 9.6607 9.35602 9.79412 9.49951L13.4895 13.2401C13.6277 13.3787 13.6968 13.542 13.6968 13.73C13.7015 13.9229 13.6324 14.0912 13.4895 14.2347Z" fill="white"/>
</svg>
