<svg width="19" height="23" viewBox="0 0 19 23" fill="none" xmlns="http://www.w3.org/2000/svg">
<path d="M0.283235 5.02269C0.0944115 5.20522 0 5.41922 0 5.66469C0 5.90387 0.0944115 6.11157 0.283235 6.28781L5.14543 11.0461C5.32796 11.2287 5.53566 11.3199 5.76854 11.3199C6.02031 11.3199 6.22172 11.2413 6.37278 11.0839C6.53013 10.9266 6.60881 10.7251 6.60881 10.4797C6.60881 10.2531 6.52698 10.058 6.36334 9.89433L4.33349 7.93057L2.57743 6.41054L4.75834 6.50495H17.3717C17.6172 6.50495 17.8186 6.42628 17.976 6.26892C18.1333 6.10528 18.212 5.90072 18.212 5.65525C18.212 5.40978 18.1333 5.20837 17.976 5.05102C17.8186 4.89366 17.6172 4.81499 17.3717 4.81499H4.75834L2.57743 4.89996L4.33349 3.38937L6.36334 1.41617C6.52698 1.25882 6.60881 1.0637 6.60881 0.830821C6.60881 0.585351 6.53013 0.387087 6.37278 0.236029C6.22172 0.0786763 6.02031 0 5.76854 0C5.53566 0 5.32796 0.0881174 5.14543 0.264352L0.283235 5.02269ZM17.9382 17.2773C18.127 17.0948 18.2183 16.8808 18.212 16.6353C18.212 16.3898 18.1207 16.179 17.9382 16.0028L13.076 11.2444C12.8935 11.0682 12.6826 10.9801 12.4434 10.9801C12.198 10.9801 11.9966 11.0587 11.8392 11.2161C11.6881 11.3671 11.6126 11.5654 11.6126 11.8109C11.6126 12.0438 11.6913 12.2389 11.8486 12.3962L13.8879 14.3694L15.644 15.8895L13.4631 15.795H0.849704C0.604234 15.795 0.399675 15.8737 0.236029 16.0311C0.0786763 16.1884 0 16.3898 0 16.6353C0 16.8871 0.0786763 17.0916 0.236029 17.249C0.399675 17.4063 0.604234 17.485 0.849704 17.485H13.4631L15.644 17.3906L13.8879 18.9106L11.8486 20.8744C11.6913 21.038 11.6126 21.2363 11.6126 21.4692C11.6126 21.7146 11.6881 21.9129 11.8392 22.064C11.9966 22.2213 12.198 22.3 12.4434 22.3C12.6826 22.3 12.8935 22.2119 13.076 22.0356L17.9382 17.2773Z" fill="#E40000"/>
</svg>
