<svg width="82" height="33" viewBox="0 0 82 33" fill="none" xmlns="http://www.w3.org/2000/svg">
<path d="M75.3056 0.191406H0V25.1489L6.69445 32.4893H82V7.53183L75.3056 0.191406Z" fill="#9742FB"/>
<path d="M34.2651 20.0928C34.0884 19.9287 34 19.7335 34 19.5073C34 19.2856 34.0884 19.0926 34.2651 18.9285L37.7658 15.5821C37.9335 15.4225 38.1261 15.3426 38.3436 15.3426C38.5793 15.3426 38.7696 15.4136 38.9146 15.5555C39.0642 15.7019 39.1389 15.8882 39.1389 16.1144C39.1389 16.3317 39.0619 16.5135 38.9078 16.6599L37.4667 18.0171L36.5695 18.7755L37.9358 18.729H46.6026C46.8292 18.729 47.0172 18.8021 47.1668 18.9485C47.3163 19.0993 47.3911 19.2878 47.3911 19.514C47.3911 19.7358 47.3163 19.9198 47.1668 20.0662C47.0172 20.2126 46.8292 20.2857 46.6026 20.2857H37.9358L36.5695 20.2458L37.4667 20.9976L38.9078 22.3681C39.0619 22.51 39.1389 22.6896 39.1389 22.907C39.1389 23.1332 39.0642 23.3172 38.9146 23.4592C38.7696 23.6055 38.5793 23.6787 38.3436 23.6787C38.1261 23.6787 37.9335 23.5989 37.7658 23.4392L34.2651 20.0928ZM47.1396 11.1646C47.3118 11.3287 47.3956 11.5239 47.3911 11.7501C47.3911 11.9763 47.3073 12.1692 47.1396 12.3289L43.6321 15.6753C43.4689 15.8349 43.2741 15.9148 43.0475 15.9148C42.8164 15.9148 42.626 15.8416 42.4765 15.6952C42.3315 15.5533 42.259 15.3692 42.259 15.143C42.259 14.9257 42.3338 14.7461 42.4833 14.6042L43.938 13.2403L44.8352 12.4819L43.4621 12.5285H34.8021C34.571 12.5285 34.3784 12.4553 34.2243 12.3089C34.0748 12.1626 34 11.9763 34 11.7501C34 11.5239 34.0748 11.3354 34.2243 11.1846C34.3784 11.0382 34.571 10.965 34.8021 10.965H43.4621L44.8352 11.0116L43.938 10.2598L42.4833 8.89598C42.3338 8.74962 42.259 8.56777 42.259 8.35045C42.259 8.12425 42.3315 7.94018 42.4765 7.79826C42.626 7.65189 42.8164 7.57871 43.0475 7.57871C43.2741 7.57871 43.4689 7.65854 43.6321 7.81821L47.1396 11.1646Z" fill="white"/>
</svg>
