<svg width="29" height="25" viewBox="0 0 29 25" fill="none" xmlns="http://www.w3.org/2000/svg">
<path d="M28.2925 10.7452C28.0175 10.4544 27.5704 10.4544 27.2954 10.7452L25.6751 12.4588C25.6031 9.38659 24.4369 6.50822 22.3736 4.32781C20.2427 2.07433 17.4095 0.833496 14.3958 0.833496C10.2017 0.833496 6.37709 3.27191 4.41542 7.19574C4.2335 7.55964 4.36466 8.01153 4.70876 8.20392C5.05286 8.39631 5.48017 8.25761 5.66209 7.89371C7.37838 4.45905 10.7249 2.32488 14.3958 2.32488C19.7393 2.32488 24.1054 6.8393 24.2634 12.4499L22.6515 10.7452C22.3765 10.4544 21.9294 10.4544 21.6544 10.7452C21.3794 11.0361 21.3794 11.5088 21.6544 11.7997L24.4749 14.7824C24.6131 14.9286 24.7937 15.0002 24.9742 15.0002C25.1547 15.0002 25.3352 14.9271 25.4734 14.7824L28.2939 11.7997C28.5689 11.5088 28.5689 11.0361 28.2939 10.7452H28.2925Z" fill="#0BB6B3"/>
<path d="M24.7768 16.7964C24.4208 16.6041 23.9788 16.7427 23.7906 17.1066C22.015 20.5412 18.5528 22.6753 14.7551 22.6753C9.22709 22.6753 4.71011 18.161 4.5467 12.5506L6.21431 14.2552C6.35729 14.4013 6.54404 14.4729 6.73079 14.4729C6.91754 14.4729 7.10428 14.3998 7.24726 14.2552C7.53176 13.9644 7.53176 13.4916 7.24726 13.2008L4.32932 10.2181C4.04482 9.9273 3.58232 9.9273 3.29782 10.2181L0.379879 13.2008C0.095379 13.4916 0.095379 13.9644 0.379879 14.2552C0.664378 14.546 1.12687 14.546 1.41137 14.2552L3.08773 12.5416C3.16214 15.6138 4.36871 18.4921 6.50319 20.6724C8.7077 22.9259 11.6388 24.1667 14.7566 24.1667C19.0956 24.1667 23.0523 21.7283 25.0817 17.8046C25.27 17.4407 25.1343 16.9888 24.7783 16.7964H24.7768Z" fill="#0BB6B3"/>
<path fill-rule="evenodd" clip-rule="evenodd" d="M14.3335 17.5C17.0949 17.5 19.3335 15.2614 19.3335 12.5C19.3335 9.73858 17.0949 7.5 14.3335 7.5C11.5721 7.5 9.3335 9.73858 9.3335 12.5C9.3335 15.2614 11.5721 17.5 14.3335 17.5Z" stroke="#646F85"/>
</svg>
