<svg width="20" height="21" viewBox="0 0 20 21" fill="none" xmlns="http://www.w3.org/2000/svg">
<ellipse cx="9.89474" cy="10.29" rx="9.89474" ry="10.29" fill="white"/>
<path d="M19.2895 10.29C19.2895 15.7155 15.065 20.08 9.89474 20.08C4.72445 20.08 0.5 15.7155 0.5 10.29C0.5 4.86449 4.72445 0.5 9.89474 0.5C15.065 0.5 19.2895 4.86449 19.2895 10.29Z" stroke="#A8AEB7"/>
<path d="M6.46364 11.227L6.77888 8.76378L4.04449 6.78973L6.54287 7.66981L7.13291 6.72837L9.28738 5.33812L14.0363 8.05902L14.2824 12.2105L12.1667 15.268L10.4944 15.5345L11.3592 13.8883V12.3034L10.7304 11.0657L10.0915 10.6256L9.10868 11.6793V12.7943L8.34163 13.5411L7.36723 13.6639L6.93566 13.9181L6.22762 13.6831L5.9326 12.5787L6.46364 11.802V11.227Z" fill="white"/>
<path d="M10.8297 6.76877C10.3088 6.65657 9.73899 6.68637 9.73899 6.68637C9.73899 6.68637 9.55186 7.58574 8.39202 7.82242C8.40045 7.82242 9.92443 8.36414 10.8297 6.76877Z" fill="#94A6C3"/>
<path d="M11.3022 14.9298C11.931 14.4178 12.403 13.7131 12.6205 12.9154C12.6306 12.8856 12.7183 12.833 12.7773 12.7927C12.875 12.7313 12.9745 12.6805 12.9931 12.5981C13.0318 12.3631 13.0521 12.1177 13.0521 11.8722C13.0521 11.7811 12.9627 11.6882 12.875 11.597C12.8059 11.5356 12.7368 11.4638 12.7368 11.4129C12.639 10.482 12.226 9.61243 11.5669 8.97954L11.4977 9.05142C12.1367 9.67554 12.5497 10.5241 12.639 11.4234C12.6491 11.5058 12.7267 11.5865 12.8059 11.6689C12.875 11.7302 12.9543 11.8232 12.9543 11.8635C12.9543 12.0984 12.9341 12.3333 12.8953 12.5683C12.8852 12.6086 12.7975 12.6507 12.7284 12.691C12.6306 12.7418 12.5413 12.7927 12.5227 12.8751C12.2867 13.7446 11.7456 14.502 11.0274 14.9929C11.1555 14.7071 11.5584 13.7762 11.7742 13.3046L11.7354 11.7916L10.4862 10.5346L9.77821 10.6363L9.00105 11.9459C9.00105 11.9459 9.36518 12.4262 8.85269 12.989C8.35201 13.5413 7.95753 13.664 7.95753 13.664L7.59339 13.4589C7.70128 13.3151 7.91875 13.1012 8.08565 12.9575C8.37055 12.712 8.65545 12.691 8.65545 12.4262C8.66726 11.8722 8.09576 12.0248 8.09576 12.0248L7.88841 12.2299L7.80075 12.9873L7.36918 13.55L7.32029 13.5395L6.61225 13.3765C6.61225 13.3765 7.0455 13.1415 7.11462 12.8751C7.18374 12.6191 6.97638 11.7706 6.96627 11.7197C6.97638 11.7302 7.17362 11.9038 7.26129 12.1896C7.41807 11.739 7.62542 11.3095 7.68443 11.2692C7.74343 11.2288 8.53913 10.7888 8.53913 10.7888L8.27446 11.5146L8.4717 11.4024L8.94373 10.1962C8.94373 10.1962 9.40564 9.96131 9.74955 9.96131C10.3682 9.95079 11.2836 9.16362 10.8706 7.75233C10.9886 7.80317 13.0335 8.86734 13.3875 10.9536C13.6522 12.5577 12.7773 14.0602 11.3022 14.9298Z" fill="#94A6C3"/>
<path d="M8.96161 6.99339C9.18751 6.71639 9.09985 6.30791 9.09985 6.30791L8.44069 7.32123C8.43058 7.32123 8.67502 7.33175 8.96161 6.99339Z" fill="#1B314F"/>
<path d="M6.74865 12.5261L6.82788 12.1176C6.82788 12.1176 6.50252 12.7101 6.47386 12.7925C6.44351 12.8855 6.49409 13.0485 6.62053 13.038C6.74865 13.0275 6.90543 12.8329 6.90543 12.6909C6.90543 12.5068 6.74865 12.5261 6.74865 12.5261Z" fill="#1B314F"/>
<path d="M12.5904 6.02213C12.5904 6.02213 13.0827 6.04317 13.5935 6.10453C12.4421 5.16309 11.3513 4.88784 10.4663 4.88784C9.24744 4.88784 8.42139 5.41028 8.37081 5.44008L8.75518 4.80544C8.75518 4.80544 7.22109 4.65116 6.67994 6.33945C6.5417 5.98181 6.41527 5.45937 6.41527 5.45937C6.41527 5.45937 5.61788 6.18693 5.99213 7.3931C5.07673 7.04597 3.77022 6.56386 3.71965 6.55509C3.65053 6.54457 3.6303 6.57613 3.6303 6.57613C3.6303 6.57613 3.61007 6.60593 3.66907 6.65853C3.77865 6.74794 5.84378 8.33454 6.29726 8.64134C6.19948 9.00951 6.19948 9.18307 6.29726 9.35663C6.4355 9.59155 6.44393 9.71427 6.42538 9.88784C6.40515 10.0614 6.22814 11.5656 6.18937 11.7497C6.15059 11.9338 5.73757 12.5877 5.75611 12.7823C5.77634 12.9769 6.0309 13.8044 6.25849 13.8973C6.42538 13.9587 6.83841 14.0919 7.11319 14.0919C7.21097 14.0919 7.30032 14.0709 7.33909 14.0305C7.50599 13.878 7.55488 13.8465 7.67288 13.8465C7.683 13.8465 7.69311 13.8465 7.70154 13.8465C7.75043 13.8465 7.80944 13.857 7.87855 13.857C8.03534 13.857 8.24269 13.8254 8.38936 13.6834C8.60514 13.459 8.97939 13.1522 9.0974 13.0085C9.24575 12.8139 9.3233 12.5491 9.28452 12.2826C9.25418 12.0372 9.3823 11.8216 9.53065 11.6077C9.71778 11.3517 10.0617 10.8924 10.0617 10.8924C10.7411 11.4218 11.1642 12.2301 11.1642 13.1294C11.1642 14.7248 9.82736 16.0134 8.17526 16.0134C7.91901 16.0134 7.67457 15.9836 7.42844 15.9222C8.18537 16.1974 8.8243 16.2904 9.3469 16.2904C10.4579 16.2904 11.0479 15.8714 11.0479 15.8714C11.0479 15.8714 10.8422 16.1484 10.5067 16.4639C10.5169 16.4639 10.5169 16.4639 10.5169 16.4639C12.3561 16.1974 13.2512 14.6231 13.2512 14.6231C13.2512 14.6231 13.1821 15.135 13.0945 15.4822C15.5406 13.5695 15.1276 11.1764 15.1174 11.0958C15.1377 11.1256 15.3838 11.4324 15.5102 11.5972C15.9047 7.38258 12.5904 6.02213 12.5904 6.02213ZM8.8243 12.7525C8.78552 12.8033 8.61863 12.9576 8.50062 13.0698C8.38261 13.182 8.25449 13.2942 8.15671 13.3977C8.11794 13.438 8.03871 13.459 7.9207 13.459C7.88193 13.459 7.84147 13.459 7.81281 13.459C7.79258 13.459 7.77403 13.459 7.7538 13.459C7.73357 13.459 7.72346 13.459 7.71503 13.459C7.68469 13.459 7.65603 13.459 7.62568 13.459C7.77403 13.2539 8.2056 12.784 8.35395 12.6824C8.53097 12.5596 8.62031 12.4369 8.51074 12.223C8.40284 12.0074 8.11794 12.06 8.11794 12.06C8.11794 12.06 8.28484 11.9881 8.43319 11.9881C8.24606 11.9373 8.01005 11.9881 7.90216 12.1003C7.78415 12.2125 7.80438 12.6122 7.75549 12.8664C7.7066 13.1329 7.53971 13.2662 7.28346 13.5116C7.14523 13.6448 7.04745 13.6852 6.96821 13.6852C6.80132 13.6554 6.60408 13.6028 6.46584 13.5519C6.36806 13.4187 6.21971 12.9786 6.18094 12.7946C6.2096 12.6929 6.32761 12.4772 6.38661 12.3545C6.50462 12.1196 6.57373 11.9864 6.59396 11.8636C6.63274 11.6901 6.76086 10.6154 6.80975 10.1666C6.93787 10.3402 7.11488 10.6277 7.07442 10.8117C7.35932 10.3927 7.15365 9.98251 7.05419 9.81946C6.96653 9.65642 6.84852 9.32858 6.9463 8.98146C7.04408 8.63433 7.3981 7.67185 7.3981 7.67185C7.3981 7.67185 7.5161 7.88749 7.683 7.84541C7.8499 7.80509 9.19686 5.6978 9.19686 5.6978C9.19686 5.6978 9.561 6.52529 9.17663 7.13012C8.78384 7.73321 8.39947 7.84541 8.39947 7.84541C8.39947 7.84541 8.94062 7.94709 9.44131 7.56841C9.64698 8.06982 9.84422 8.5905 9.85433 8.66238C9.82399 8.73426 9.43119 9.71603 9.39242 9.77739C9.37219 9.79843 9.23564 9.83875 9.13617 9.85979C8.96928 9.91063 8.8715 9.94218 8.83104 9.97199C8.76192 10.0333 8.44667 10.9327 8.30001 11.3728C8.123 11.4236 7.94599 11.527 7.81787 11.7304C7.88698 11.6796 8.10277 11.648 8.26123 11.6287C8.39947 11.6182 8.82093 11.8531 8.9305 12.2932C8.9305 12.3037 8.9305 12.3037 8.9305 12.3142C8.95242 12.4755 8.90353 12.6298 8.8243 12.7525ZM7.90047 12.8752C7.98982 12.742 7.9797 12.5176 7.98982 12.4457C7.99993 12.3738 8.01848 12.2406 8.09771 12.2213C8.17694 12.2002 8.36407 12.2318 8.36407 12.3738C8.36407 12.5071 8.22583 12.5369 8.12806 12.6298C8.05725 12.6999 7.91901 12.8542 7.90047 12.8752ZM11.8234 10.9204C11.9211 10.3998 11.9313 9.9492 11.9026 9.58104C12.2853 10.1122 12.5213 10.7574 12.5904 11.4218C12.6005 11.5042 12.6781 11.5849 12.7573 11.6673C12.8264 11.7286 12.9057 11.811 12.9057 11.8619C12.9057 12.0968 12.8854 12.3317 12.8467 12.5684C12.8365 12.5982 12.7489 12.6508 12.6798 12.6911C12.582 12.742 12.4926 12.7928 12.4741 12.8752C12.2583 13.6624 11.7947 14.3584 11.176 14.8493C12.0897 13.857 12.5314 12.2195 11.8234 10.9204ZM11.2047 14.9404C11.8436 14.4285 12.3358 13.7132 12.5516 12.905C12.5617 12.8752 12.6494 12.8226 12.7084 12.7823C12.8062 12.7315 12.9057 12.6701 12.9242 12.5877C12.963 12.3528 12.9832 12.1073 12.9832 11.8619C12.9832 11.7707 12.8939 11.6778 12.8062 11.5866C12.7573 11.5253 12.6781 11.4534 12.6781 11.4026C12.5988 10.6557 12.3139 9.95095 11.8723 9.36715C11.675 8.13994 10.8894 7.76126 10.8692 7.75074C10.8894 7.7823 11.4002 8.54843 11.0462 9.44779C10.6821 10.3577 9.74812 10.2157 9.66889 10.2244C9.58966 10.2244 9.28621 10.6329 8.90184 11.3903C8.85296 11.3693 8.6456 11.3184 8.40959 11.3605C8.5866 10.8486 8.85296 10.1228 8.90184 10.0614C8.92207 10.0404 9.06874 10 9.1682 9.97023C9.35533 9.91939 9.44299 9.88784 9.47334 9.84751C9.49357 9.81596 9.59134 9.58104 9.68912 9.33559C9.77847 9.33559 10.0044 9.31456 10.0229 9.30404C10.0431 9.283 10.2303 8.78335 10.2303 8.72199C10.2303 8.67115 9.8459 7.67886 9.69924 7.30018C9.76835 7.21778 9.83747 7.1161 9.9049 7.0039C11.9211 7.23005 13.4957 9.00951 13.4957 11.1659C13.4957 12.8226 12.5617 14.2655 11.2047 14.9404Z" fill="#1B314F"/>
<path d="M8.58822 9.41808C8.77535 9.19368 8.67757 8.77468 8.33198 8.7028C8.42133 8.48891 8.54776 8.05939 8.54776 8.05939C8.54776 8.05939 7.5447 9.69508 7.45704 9.72664C7.36769 9.7582 7.28003 9.3988 7.28003 9.3988C7.0929 10.1456 7.59528 10.2473 7.65428 10.0124C7.92907 9.93877 8.4011 9.63197 8.58822 9.41808Z" fill="#1B314F"/>
<path d="M7.73148 9.81583L8.24228 8.90595C8.24228 8.90595 8.53729 9.06023 8.38894 9.30567C8.2035 9.59143 7.73148 9.81583 7.73148 9.81583Z" fill="#FFD923"/>
<path d="M14.0554 14.0306C13.907 14.2357 13.7401 14.4496 13.5446 14.6547C14.8123 12.1179 13.6036 9.79669 13.5547 9.70553C13.644 9.79845 13.7317 9.90013 13.8109 9.99129C14.7836 11.1151 14.9016 12.8034 14.0554 14.0306Z" fill="#D82122"/>
<path d="M15.2357 10.7677C14.7923 9.52996 14.1635 8.47631 12.7777 7.5261C11.4409 6.60569 10.0046 6.67757 9.92534 6.68809C9.91523 6.68809 9.90511 6.68809 9.90511 6.68809C9.954 6.66705 10.0029 6.65654 10.0518 6.64777C10.3569 6.54609 10.7497 6.46369 11.1442 6.41285C12.1877 6.25682 13.2397 6.62498 13.9578 7.4139C13.9679 7.42442 13.9679 7.42442 13.978 7.43494C14.794 8.33431 15.2171 9.45808 15.2357 10.7677Z" fill="#D82122"/>
<path d="M12.4621 5.70459C10.9971 5.41883 10.0531 5.56083 9.37368 5.82731C9.35345 5.74492 9.28433 5.58187 9.22532 5.44863C9.02134 5.70459 8.80387 6.0114 8.66732 6.206C8.29307 6.47248 8.13629 6.72844 8.13629 6.72844C8.35207 5.96055 8.98257 5.38903 9.74961 5.24527C9.9654 5.20494 10.2014 5.18391 10.4577 5.18391C11.1354 5.19443 11.8131 5.36799 12.4621 5.70459Z" fill="#D82122"/>
<path d="M7.04392 7.66809C5.89419 7.62776 6.27687 6.23576 6.2971 6.15511C6.2971 6.16563 6.37465 7.24908 7.04392 7.66809Z" fill="#D82122"/>
<path d="M8.17451 5.16287C7.28946 5.71512 7.46647 7.03349 7.46647 7.03349C6.62019 5.69583 8.10539 5.19443 8.17451 5.16287Z" fill="#D82122"/>
<path d="M6.72007 8.03639C6.77907 8.08724 6.83807 8.18015 6.76895 8.31339C6.73018 8.38527 6.67118 8.37475 6.58183 8.33443C6.46382 8.27307 5.75578 7.84355 5.11686 7.4035C5.84513 7.66998 6.58183 7.95575 6.69984 8.01711C6.69984 8.01711 6.70995 8.02763 6.72007 8.03639Z" fill="white"/>
</svg>
