<svg width="23" height="24" viewBox="0 0 23 24" fill="none" xmlns="http://www.w3.org/2000/svg">
<path d="M3.41266 16.5134H9.50706V15.1874H3.42913C3.01735 15.1874 2.70165 15.0776 2.48203 14.858C2.26241 14.6384 2.1526 14.3145 2.1526 13.8862V5.69993C2.1526 5.27168 2.26241 4.94774 2.48203 4.72812C2.70165 4.50851 3.01735 4.3987 3.42913 4.3987H15.4038C15.8101 4.3987 16.1231 4.50851 16.3427 4.72812C16.5678 4.94774 16.6803 5.27168 16.6803 5.69993V10.4684H18.0063V5.62581C18.0063 4.78028 17.7894 4.14339 17.3557 3.71514C16.9274 3.28688 16.285 3.07275 15.4285 3.07275H3.41266C2.55066 3.07275 1.90279 3.28688 1.46904 3.71514C1.04079 4.1379 0.82666 4.77479 0.82666 5.62581V13.9603C0.82666 14.8113 1.04079 15.451 1.46904 15.8792C1.90279 16.302 2.55066 16.5134 3.41266 16.5134ZM11.4919 20.3265H19.5875C20.444 20.3265 21.0864 20.1124 21.5147 19.6841C21.9484 19.2559 22.1653 18.619 22.1653 17.7734V12.4367C22.1653 11.5857 21.9484 10.9488 21.5147 10.526C21.0864 10.0978 20.444 9.88366 19.5875 9.88366H11.4919C10.6299 9.88366 9.98199 10.0978 9.54824 10.526C9.11999 10.9488 8.90586 11.5857 8.90586 12.4367V17.7734C8.90586 18.6245 9.11999 19.2613 9.54824 19.6841C9.98199 20.1124 10.6299 20.3265 11.4919 20.3265ZM7.30814 6.58115C7.28618 6.45487 7.20931 6.35055 7.07754 6.2682C6.94577 6.18035 6.79753 6.21604 6.63281 6.37526L5.71865 7.28118L4.37624 5.93053C4.27741 5.83171 4.15662 5.78229 4.01387 5.78229C3.87112 5.78229 3.75033 5.83171 3.6515 5.93053C3.55267 6.02936 3.50326 6.15015 3.50326 6.2929C3.50326 6.43566 3.55267 6.55644 3.6515 6.65527L5.00215 7.99769L4.09622 8.91185C3.937 9.07656 3.89857 9.2248 3.98092 9.35658C4.06877 9.48835 4.17584 9.56521 4.30212 9.58717L7.2752 10.0484C7.41795 10.0703 7.54423 10.0319 7.65404 9.93307C7.75286 9.82326 7.7913 9.69698 7.76934 9.55423L7.30814 6.58115ZM11.7307 15.3769L11.2613 12.4038C11.2448 12.261 11.2832 12.1347 11.3766 12.0249C11.4864 11.9261 11.6127 11.8877 11.7554 11.9096L14.7367 12.3708C14.863 12.3873 14.9673 12.4642 15.0497 12.6014C15.1375 12.7387 15.1018 12.8869 14.9426 13.0462L14.0367 13.9603L15.3873 15.3027C15.4862 15.4016 15.5356 15.5224 15.5356 15.6651C15.5356 15.8079 15.4862 15.9286 15.3873 16.0275C15.283 16.1263 15.1595 16.1757 15.0167 16.1757C14.8795 16.1757 14.7614 16.1263 14.6626 16.0275L13.3119 14.6768L12.3978 15.5827C12.2386 15.7475 12.0903 15.7859 11.9531 15.698C11.8213 15.6102 11.7472 15.5031 11.7307 15.3769Z" fill="#3D4767"/>
</svg>
