<svg width="108" height="127" viewBox="0 0 108 127" fill="none" xmlns="http://www.w3.org/2000/svg">
<path d="M5.68754 32.452C5.48641 32.4366 5.2892 32.3564 5.09199 32.2761C4.54174 31.908 4.38381 31.179 4.75243 30.6532C10.5142 22.2627 18.5025 15.4767 27.8639 11.0445C37.4738 6.40324 48.3028 4.42993 59.1642 5.26179C74.7187 6.4531 89.4584 13.8718 100.636 26.1668C101.078 26.6569 101.035 27.3706 100.536 27.8212C100.039 28.2394 99.3016 28.183 98.8263 27.6903C88.0923 15.8529 73.9404 8.73994 59.0228 7.59741C38.2387 6.00557 18.2067 15.3563 6.76013 31.9802C6.50387 32.319 6.08982 32.4829 5.68754 32.452Z" fill="white"/>
<path d="M99.6196 28.0343L84.6512 26.8757C83.9769 26.8235 83.4691 26.2541 83.5086 25.5947C83.5481 24.9352 84.1191 24.4494 84.7934 24.5016L98.5818 25.5689L99.3876 12.1157C99.4271 11.4563 99.9981 10.9705 100.672 11.0226C101.347 11.0748 101.854 11.6442 101.815 12.3036L100.938 26.9438C100.831 27.5981 100.26 28.0839 99.6196 28.0343Z" fill="white"/>
<path d="M48.8285 121.313C39.1052 120.531 29.9562 117.608 21.6413 112.698C13.7185 107.983 6.81863 101.491 1.74276 93.8728C1.37345 93.3211 1.51946 92.6153 2.0807 92.269C2.64193 91.9227 3.37336 92.0795 3.74266 92.6312C13.9615 107.872 30.4694 117.487 49.0107 118.979C72.2123 120.847 94.0812 109.234 104.68 89.3734C104.985 88.8108 105.672 88.6052 106.295 88.8836C106.882 89.1919 107.109 89.8625 106.835 90.4603C95.7426 111.194 73.0025 123.26 48.8285 121.313Z" fill="white"/>
<path d="M2.03503 106.484C1.36065 106.429 0.854372 105.858 0.8959 105.199L1.63301 93.5017C1.67454 92.8426 2.24727 92.3593 2.92164 92.4141L14.8918 93.387C15.5662 93.4418 16.0725 94.0129 16.031 94.6719C15.9894 95.3309 15.4167 95.8142 14.7423 95.7594L3.9523 94.8824L3.28786 105.427C3.24841 106.053 2.67569 106.536 2.03503 106.484Z" fill="white"/>
<path fill-rule="evenodd" clip-rule="evenodd" d="M21.9986 89.7352C32.1457 89.7352 40.3716 81.5092 40.3716 71.3621C40.3716 61.2149 32.1457 52.989 21.9986 52.989C11.8514 52.989 3.62549 61.2149 3.62549 71.3621C3.62549 81.5092 11.8514 89.7352 21.9986 89.7352ZM15.7548 71.8452L22.1463 61.3462L28.5362 71.8452L28.5378 71.8459L28.5369 71.8464L28.5378 71.8478L28.536 71.847L22.1463 75.5868L15.7551 71.847L15.7533 71.8478L15.7541 71.8464L15.7533 71.8459L15.7548 71.8452ZM22.1463 76.7886V81.9681L22.1456 76.7878L15.7533 73.0486L22.1463 81.9681L28.542 73.0486L22.1463 76.7886Z" fill="white"/>
<path d="M52.342 24.0305C45.7444 24.0305 39.8149 25.3667 35.4722 27.5381C31.0459 29.7095 28.1229 32.883 28.1229 36.5576C28.1229 49.4188 28.1229 63.5326 28.1229 76.6443C28.1229 80.3189 31.0459 83.4925 35.4722 85.6638C39.8149 87.8352 45.7444 89.1714 52.342 89.1714C58.0209 89.1714 63.1988 88.1692 67.291 86.499C70.548 88.2527 74.3061 89.1714 78.2313 89.1714C91.176 89.1714 101.615 78.7322 101.615 65.7875C101.615 52.8428 91.176 42.4036 78.2313 42.4036C77.6467 42.4036 77.0621 42.4036 76.561 42.4871C76.561 38.2279 76.561 39.8982 76.561 36.5576C76.561 32.883 73.638 29.7095 69.2118 27.5381C64.8691 25.3667 58.9396 24.0305 52.342 24.0305ZM52.342 25.7008C58.689 25.7008 64.4515 27.037 68.4602 29.0414C72.5523 31.0457 74.8907 33.8016 74.8907 36.5576C74.8907 39.3136 72.5523 42.0695 68.4602 44.0739C64.368 46.0782 58.689 47.4144 52.342 47.4144C45.9949 47.4144 40.2324 46.1617 36.1403 44.0739C32.0481 42.0695 29.7932 39.3136 29.7932 36.5576C29.7932 33.8016 32.0481 31.0457 36.1403 29.0414C40.2324 27.037 45.9949 25.7008 52.342 25.7008ZM29.7932 41.2344C31.0459 42.9047 33.0502 44.4079 35.4722 45.5771C39.8149 47.7485 45.7444 49.0847 52.342 49.0847C56.3506 49.0847 60.1088 48.5836 63.4493 47.665C60.3593 50.1704 57.9374 53.4274 56.5177 57.1856C55.0979 57.3526 53.7617 57.4361 52.342 57.4361C45.9949 57.4361 40.2324 56.0999 36.2238 54.0955C32.1316 52.0912 29.7932 49.4188 29.7932 46.5793V41.2344ZM74.8907 41.2344V42.6541C74.3061 42.7376 73.8051 42.8212 73.2205 42.9882C73.8051 42.4036 74.3897 41.819 74.8907 41.2344ZM78.2313 44.0739C90.2573 44.0739 99.9449 53.7615 99.9449 65.7875C99.9449 77.8135 90.2573 87.5011 78.2313 87.5011C66.2053 87.5011 56.5177 77.8135 56.5177 65.7875C56.5177 53.7615 66.2053 44.0739 78.2313 44.0739ZM29.7932 51.2561C31.0459 52.9263 33.0502 54.4296 35.4722 55.5988C39.8149 57.7701 45.7444 59.1064 52.342 59.1064C53.5112 59.1064 54.6804 59.0229 55.8496 58.9393C55.1814 61.1107 54.8474 63.4491 54.8474 65.7875C54.8474 66.2886 54.8474 66.8732 54.9309 67.3743C54.0958 67.4578 53.1771 67.4578 52.342 67.4578C45.9949 67.4578 40.2324 66.1215 36.2238 64.1172C32.1316 62.1129 29.7932 59.4404 29.7932 56.601V51.2561ZM29.7932 61.2777C31.0459 62.948 33.0502 64.4513 35.4722 65.6205C39.8149 67.7918 45.7444 69.128 52.342 69.128C53.2606 69.128 54.1793 69.128 55.0979 69.0445C55.5155 71.9675 56.4342 74.64 57.7704 77.1454C56.0166 77.3959 54.2628 77.4794 52.342 77.4794C45.9949 77.4794 40.2324 76.1432 36.2238 74.1389C32.2151 72.1345 29.7932 69.4621 29.7932 66.6226V61.2777ZM29.7932 71.2994C31.0459 72.9697 33.0502 74.4729 35.4722 75.7257C39.8149 77.8135 45.7444 79.1497 52.342 79.1497C54.5968 79.1497 56.6847 78.9827 58.7725 78.6486C60.5263 81.3211 62.8647 83.6595 65.5372 85.4133C61.8626 86.7495 57.2693 87.5011 52.342 87.5011C45.9949 87.5011 40.2324 86.1649 36.2238 84.1606C32.2151 82.1562 29.7932 79.4838 29.7932 76.6443V71.2994Z" fill="white"/>
<path d="M87.3824 60.6503C87.1071 57.7318 84.6364 56.7538 81.5141 56.4748V52.4249H79.0981V56.3667C78.4638 56.3667 77.814 56.3789 77.1694 56.3929V52.4249H74.7534L74.7516 56.4713C74.2284 56.4818 73.7138 56.4923 73.2128 56.4923V56.4801L69.8803 56.4783V59.1108C69.8803 59.1108 71.6653 59.076 71.6346 59.1091C72.6143 59.1091 72.9324 59.6879 73.0247 60.1883V64.8013C73.0931 64.8013 73.1803 64.8048 73.2795 64.8187H73.0247L73.023 71.2815C72.9802 71.5953 72.799 72.0956 72.115 72.0974C72.1458 72.1253 70.359 72.0974 70.359 72.0974L69.8785 75.0402H73.0247C73.6095 75.0402 74.1857 75.0507 74.7499 75.0542L74.7516 79.1494H77.166V75.0978C77.8277 75.1117 78.4689 75.1169 79.0964 75.1169L79.0947 79.1494H81.5107V75.0629C85.5734 74.8258 88.4203 73.7815 88.7725 69.8902C89.0581 66.7574 87.6132 65.3574 85.3066 64.7926C86.7104 64.0673 87.5876 62.7859 87.3824 60.6503ZM84.0003 69.4056C84.0003 72.4652 78.8622 72.1183 77.2224 72.1183V66.6911C78.8622 66.6946 84.0003 66.2152 84.0003 69.4056ZM82.8752 61.7503C82.8752 64.5345 78.5869 64.2085 77.2224 64.2103V59.2904C78.5886 59.2904 82.8769 58.8476 82.8752 61.7503Z" fill="white"/>
</svg>
