<svg width="27" height="27" viewBox="0 0 27 27" fill="none" xmlns="http://www.w3.org/2000/svg">
<path fill-rule="evenodd" clip-rule="evenodd" d="M13.5002 25.1668C19.9435 25.1668 25.1668 19.9435 25.1668 13.5002C25.1668 7.05684 19.9435 1.8335 13.5002 1.8335C7.05684 1.8335 1.8335 7.05684 1.8335 13.5002C1.8335 19.9435 7.05684 25.1668 13.5002 25.1668Z" stroke="#0BB6B3" stroke-width="2"/>
<path d="M11.3608 16.9674L19.4234 8.94302C19.5698 8.7973 19.8099 8.79474 19.9595 8.93729C20.1092 9.07983 20.1118 9.31352 19.9654 9.45923L11.6318 17.7533C11.4831 17.9013 11.2385 17.9013 11.0898 17.7533L7.38594 14.067C7.23953 13.9213 7.24216 13.6876 7.39183 13.5451C7.5415 13.4026 7.78151 13.4051 7.92792 13.5508L11.3608 16.9674Z" stroke="#0BB6B3"/>
</svg>
