<svg width="25" height="26" viewBox="0 0 25 26" fill="none" xmlns="http://www.w3.org/2000/svg">
<path fill-rule="evenodd" clip-rule="evenodd" d="M1.46221 7.87302L11.1138 2.10461L20.7534 7.86587L20.7572 7.8636V7.86817L20.7919 7.88888V7.93214L20.7572 7.95285V17.4939L11.1138 23.2516V23.282L11.0883 23.2668L11.0794 23.2721V23.2615L1.43567 17.4977V7.93214V7.88888V7.8573L1.46221 7.87302ZM10.992 6.76002C11.3706 6.76002 11.6776 7.06695 11.6776 7.44555V8.82394C11.9615 8.87626 12.221 8.96454 12.456 9.08878C12.862 9.30341 13.1746 9.60883 13.3938 10.0051C13.6211 10.393 13.7348 10.8594 13.7348 11.4043H12.4195C12.4195 10.9337 12.2977 10.5746 12.0541 10.327C11.8105 10.0794 11.4655 9.95554 11.0189 9.95554C10.5724 9.95554 10.2232 10.0794 9.97154 10.327C9.72796 10.5746 9.60618 10.9296 9.60618 11.3919V13.3524C9.60618 13.8147 9.72796 14.1737 9.97154 14.4296C10.2232 14.6773 10.5724 14.8011 11.0189 14.8011C11.4655 14.8011 11.8105 14.6773 12.0541 14.4296C12.2977 14.1737 12.4195 13.8147 12.4195 13.3524H13.7348C13.7348 13.889 13.6211 14.3553 13.3938 14.7516C13.1746 15.1478 12.862 15.4532 12.456 15.6679C12.221 15.7921 11.9615 15.8804 11.6776 15.9327V17.3105C11.6776 17.6891 11.3706 17.996 10.992 17.996C10.6134 17.996 10.3065 17.6891 10.3065 17.3105V15.9254C10.0405 15.8742 9.79485 15.7925 9.56964 15.6802C9.16368 15.4656 8.84703 15.1602 8.61969 14.764C8.40047 14.3595 8.29086 13.889 8.29086 13.3524V11.4043C8.29086 10.8594 8.40047 10.3889 8.61969 9.99268C8.84703 9.59645 9.16368 9.29515 9.56964 9.08878C9.79485 8.97205 10.0405 8.88707 10.3065 8.83382V7.44556C10.3065 7.06695 10.6134 6.76002 10.992 6.76002Z" fill="#9742FB"/>
</svg>
