<svg width="23" height="25" viewBox="0 0 23 25" fill="none" xmlns="http://www.w3.org/2000/svg">
<path d="M11.3292 21.389H12.8937C13.1502 21.389 13.3668 21.3177 13.5435 21.1752C13.7201 21.0385 13.837 20.8447 13.894 20.5939L14.3214 18.7729C14.4696 18.7216 14.6121 18.6675 14.7489 18.6105C14.8914 18.5592 15.0253 18.505 15.1507 18.448L16.7409 19.4141C16.9518 19.5452 17.1712 19.5993 17.3992 19.5765C17.6271 19.5594 17.8295 19.4625 18.0062 19.2859L19.1005 18.2001C19.2772 18.0234 19.3769 17.8182 19.3997 17.5846C19.4225 17.3452 19.3626 17.12 19.2202 16.9092L18.2455 15.3361C18.3139 15.205 18.3738 15.0739 18.4251 14.9428C18.4764 14.806 18.5248 14.6693 18.5704 14.5325L20.4085 14.0965C20.6536 14.0452 20.8445 13.9312 20.9813 13.7545C21.1238 13.5721 21.195 13.3527 21.195 13.0962V11.5659C21.195 11.3151 21.1238 11.1014 20.9813 10.9247C20.8445 10.7423 20.6536 10.6255 20.4085 10.5742L18.5875 10.1382C18.5362 9.98427 18.4821 9.83893 18.4251 9.70214C18.3681 9.56535 18.3139 9.43711 18.2626 9.31742L19.2373 7.71871C19.374 7.50783 19.4339 7.2884 19.4168 7.06042C19.3997 6.83244 19.3 6.63011 19.1176 6.45342L17.9976 5.35057C17.8209 5.19098 17.6243 5.09694 17.4077 5.06844C17.1968 5.03994 16.986 5.08554 16.7751 5.20523L15.1507 6.20549C15.031 6.1428 14.8999 6.0858 14.7574 6.03451C14.6207 5.97751 14.4753 5.92337 14.3214 5.87207L13.894 4.02543C13.837 3.78035 13.7201 3.58657 13.5435 3.44408C13.3668 3.2959 13.1502 3.2218 12.8937 3.2218H11.3292C11.0784 3.2218 10.8618 3.2959 10.6795 3.44408C10.5028 3.58657 10.3859 3.78035 10.3289 4.02543L9.90147 5.85497C9.75328 5.90627 9.60794 5.96041 9.46546 6.01741C9.32297 6.0744 9.18903 6.13425 9.06364 6.19694L7.44783 5.20523C7.23695 5.08554 7.02322 5.03994 6.80664 5.06844C6.59575 5.09124 6.39912 5.18813 6.21674 5.35912L5.11388 6.45342C4.9315 6.63011 4.82891 6.83244 4.80611 7.06042C4.78901 7.2884 4.84885 7.50783 4.98564 7.71871L5.95171 9.31742C5.90041 9.43711 5.84627 9.56535 5.78927 9.70214C5.73228 9.83893 5.68098 9.98427 5.63539 10.1382L3.82294 10.5742C3.57217 10.6255 3.37553 10.7423 3.23304 10.9247C3.09626 11.1014 3.02786 11.3151 3.02786 11.5659V13.0962C3.02786 13.3527 3.09626 13.5721 3.23304 13.7545C3.37553 13.9312 3.57217 14.0452 3.82294 14.0965L5.65249 14.5325C5.69238 14.6693 5.74083 14.806 5.79782 14.9428C5.85482 15.0739 5.91181 15.205 5.96881 15.3361L5.00274 16.9092C4.86595 17.12 4.80896 17.3452 4.83176 17.5846C4.85455 17.8182 4.9543 18.0234 5.13098 18.2001L6.21674 19.2859C6.39342 19.4625 6.59575 19.5594 6.82373 19.5765C7.05171 19.5993 7.27115 19.5452 7.48203 19.4141L9.07219 18.448C9.19758 18.505 9.32867 18.5592 9.46546 18.6105C9.60794 18.6675 9.75328 18.7216 9.90147 18.7729L10.3289 20.5939C10.3859 20.8447 10.5028 21.0385 10.6795 21.1752C10.8618 21.3177 11.0784 21.389 11.3292 21.389ZM12.1157 15.3019C11.5686 15.3019 11.067 15.168 10.6111 14.9001C10.1551 14.6265 9.79318 14.2617 9.5253 13.8058C9.25742 13.3498 9.12348 12.8483 9.12348 12.3011C9.12348 11.754 9.25742 11.2553 9.5253 10.805C9.79888 10.3547 10.1608 9.99567 10.6111 9.72779C11.067 9.45421 11.5686 9.31742 12.1157 9.31742C12.6629 9.31742 13.1616 9.45421 13.6118 9.72779C14.0678 9.99567 14.4297 10.3547 14.6976 10.805C14.9655 11.2553 15.0994 11.754 15.0994 12.3011C15.0994 12.8483 14.9655 13.3498 14.6976 13.8058C14.4297 14.2617 14.0678 14.6265 13.6118 14.9001C13.1616 15.168 12.6629 15.3019 12.1157 15.3019Z" fill="#9742FB"/>
</svg>
