<svg width="23" height="25" viewBox="0 0 23 25" fill="none" xmlns="http://www.w3.org/2000/svg">
<path d="M18.1672 3.52783C18.8251 3.52783 19.3567 4.06051 19.3567 4.71735C19.3567 5.37419 18.8251 5.90687 18.1672 5.90687H4.48773C4.15912 5.90687 3.89297 6.17451 3.89297 6.50163C3.89297 6.82874 4.15912 7.09639 4.48773 7.09639H18.1672C19.4794 7.09639 20.5462 8.16323 20.5462 9.47542V17.802C20.5462 19.1142 19.4794 20.1811 18.1672 20.1811H3.89297C2.57892 20.1811 1.51393 19.1142 1.51393 17.802V5.90687C1.51393 4.59282 2.57892 3.52783 3.89297 3.52783H18.1672ZM16.9777 14.8282C17.6356 14.8282 18.1672 14.2967 18.1672 13.6387C18.1672 12.9808 17.6356 12.4492 16.9777 12.4492C16.3197 12.4492 15.7881 12.9808 15.7881 13.6387C15.7881 14.2967 16.3197 14.8282 16.9777 14.8282Z" fill="#A8AEB7"/>
</svg>
