<svg width="21" height="20" viewBox="0 0 21 20" fill="none" xmlns="http://www.w3.org/2000/svg">
<path d="M17.3624 4.83739L13.4876 1.03782C13.3421 0.897371 13.1766 0.827148 12.991 0.827148C12.7904 0.827148 12.6274 0.88734 12.502 1.00772C12.3816 1.13312 12.3214 1.29363 12.3214 1.48925C12.3214 1.67484 12.3866 1.83284 12.517 1.96326L14.1347 3.52823L15.5341 4.73958L13.7961 4.66434L4.12786 4.66434C3.93224 4.66434 3.77173 4.72704 3.64633 4.85244C3.51592 4.97784 3.45071 5.14086 3.45071 5.34149C3.45071 5.53712 3.51592 5.69763 3.64633 5.82302C3.77173 5.94842 3.93224 6.01112 4.12786 6.01112L13.7961 6.01112L15.5341 5.94341L14.1347 7.14723L12.517 8.71973C12.3866 8.84513 12.3214 9.00062 12.3214 9.18621C12.3214 9.38183 12.3816 9.53984 12.502 9.66022C12.6274 9.78562 12.7904 9.84832 12.991 9.84832C13.1766 9.84832 13.3421 9.77809 13.4876 9.63765L17.3624 5.8456C17.5129 5.70515 17.5881 5.53712 17.5881 5.3415C17.5932 5.14587 17.5179 4.97784 17.3624 4.83739ZM3.66891 14.4304L7.55877 18.2224C7.69922 18.3629 7.86474 18.4331 8.05535 18.4331C8.25598 18.4331 8.41649 18.3704 8.53688 18.245C8.65726 18.1246 8.71745 17.9666 8.71745 17.771C8.71745 17.5854 8.65475 17.4299 8.52935 17.3045L6.91171 15.7395L5.50474 14.5282L7.24276 14.5959L16.911 14.5959C17.1066 14.5959 17.2671 14.5332 17.3925 14.4078C17.5229 14.2824 17.5881 14.1219 17.5881 13.9263C17.5881 13.7307 17.5229 13.5676 17.3925 13.4372C17.2671 13.3118 17.1066 13.2491 16.911 13.2491L7.24276 13.2491L5.50474 13.3244L6.91171 12.113L8.52935 10.548C8.65475 10.4176 8.71745 10.2621 8.71745 10.0816C8.71745 9.88594 8.65726 9.72543 8.53688 9.60003C8.41649 9.47463 8.25598 9.41193 8.05535 9.41193C7.86474 9.41193 7.69922 9.48466 7.55877 9.63012L3.66891 13.4222C3.52344 13.5626 3.45071 13.7281 3.45071 13.9188C3.4457 14.1144 3.51843 14.2849 3.66891 14.4304Z" fill="#9742FB"/>
</svg>
