<svg width="34" height="35" viewBox="0 0 34 35" fill="none" xmlns="http://www.w3.org/2000/svg">
<path d="M16.6322 5.41162C16.294 5.41162 16.0164 5.52003 15.7996 5.73684C15.5828 5.94498 15.4744 6.21817 15.4744 6.5564V23.689L15.6045 27.5657L16.333 27.3055L11.6758 22.193L8.7098 19.279C8.60573 19.175 8.47998 19.0969 8.33254 19.0449C8.19378 18.9929 8.04635 18.9668 7.89024 18.9668C7.56936 18.9668 7.30051 19.0752 7.0837 19.2921C6.87556 19.5089 6.77148 19.7777 6.77148 20.0986C6.77148 20.4108 6.8929 20.6927 7.13573 20.9442L15.7606 29.5951C15.8907 29.7252 16.0294 29.8206 16.1769 29.8813C16.3243 29.9506 16.4761 29.9853 16.6322 29.9853C16.797 29.9853 16.9531 29.9506 17.1005 29.8813C17.2479 29.8206 17.3824 29.7252 17.5038 29.5951L26.1416 20.9442C26.3758 20.6927 26.4929 20.4108 26.4929 20.0986C26.4929 19.7777 26.3845 19.5089 26.1677 19.2921C25.9595 19.0752 25.695 18.9668 25.3741 18.9668C25.218 18.9668 25.0662 18.9929 24.9188 19.0449C24.7801 19.0969 24.6586 19.175 24.5546 19.279L21.5886 22.193L16.9184 27.3055L17.6599 27.5657L17.79 23.689V6.5564C17.79 6.21817 17.6816 5.94498 17.4647 5.73684C17.2479 5.52003 16.9704 5.41162 16.6322 5.41162Z" fill="#8835E7"/>
</svg>
