<svg width="11" height="12" viewBox="0 0 11 12" fill="none" xmlns="http://www.w3.org/2000/svg">
<path d="M10.615 8.35458L10.6081 1.16536C10.6081 0.960501 10.5486 0.793753 10.4296 0.665119C10.3106 0.536485 10.148 0.472168 9.94202 0.472168H3.03363C2.84135 0.472168 2.68569 0.538867 2.56666 0.672266C2.44763 0.8009 2.38811 0.950973 2.38811 1.12249C2.38811 1.294 2.44992 1.44407 2.57353 1.5727C2.70171 1.69657 2.84593 1.75851 3.00616 1.75851H5.39594L8.74713 1.64417L7.46983 2.80902L0.664449 9.90534C0.536262 10.0387 0.472168 10.1888 0.472168 10.3556C0.472168 10.4699 0.501926 10.5795 0.561441 10.6843C0.620957 10.7843 0.698785 10.8653 0.794926 10.9273C0.891066 10.9892 0.996363 11.0202 1.11082 11.0202C1.27563 11.0202 1.41984 10.9559 1.54345 10.8272L8.36257 3.73805L9.49565 2.40168L9.37204 5.73902V8.38317C9.37204 8.54992 9.43156 8.69999 9.55059 8.83339C9.6742 8.96679 9.8207 9.03349 9.99009 9.03349C10.1549 9.03349 10.2991 8.96917 10.4227 8.84053C10.5509 8.7119 10.615 8.54992 10.615 8.35458Z" fill="#9742FB"/>
</svg>
