<svg width="10" height="11" viewBox="0 0 10 11" fill="#646F85" xmlns="http://www.w3.org/2000/svg">
<path fill-rule="evenodd" clip-rule="evenodd" d="M4.54653 5.47571C4.55369 5.34382 4.60872 5.21846 4.70215 5.12124L8.97071 0.697416C9.115 0.548595 9.33133 0.484725 9.53819 0.529865C9.74505 0.575006 9.91103 0.722299 9.97359 0.916256C10.0361 1.11021 9.98579 1.32137 9.84147 1.47017L5.94715 5.50761L9.84147 9.54506C9.98578 9.69386 10.0361 9.90501 9.97359 10.099C9.91103 10.2929 9.74505 10.4402 9.53819 10.4854C9.33132 10.5305 9.115 10.4666 8.97071 10.3178L4.70215 5.89399C4.59302 5.78058 4.53684 5.62957 4.54653 5.47571V5.47571Z"/>
<path fill-rule="evenodd" clip-rule="evenodd" d="M5.45347 5.5238C5.44631 5.65569 5.39128 5.78105 5.29785 5.87827L1.02929 10.3021C0.884999 10.4509 0.668675 10.5148 0.46181 10.4696C0.254945 10.4245 0.0889706 10.2772 0.0264116 10.0833C-0.0361474 9.8893 0.0142146 9.67815 0.158525 9.52934L4.05285 5.4919L0.158525 1.45445C0.0142142 1.30565 -0.0361478 1.0945 0.0264111 0.900541C0.0889701 0.706584 0.254945 0.559291 0.46181 0.514151C0.668674 0.46901 0.884998 0.53288 1.02929 0.681701L5.29785 5.10552C5.40698 5.21893 5.46316 5.36994 5.45347 5.5238Z"/>
</svg>
