<svg width="102" height="33" viewBox="0 0 102 33" fill="none" xmlns="http://www.w3.org/2000/svg">
<g clip-path="url(#clip0_2415_70257)">
<path d="M16.12 32.24C25.0229 32.24 32.24 25.0228 32.24 16.12C32.24 7.21717 25.0229 0 16.12 0C7.21718 0 0 7.21717 0 16.12C0 25.0228 7.21718 32.24 16.12 32.24Z" fill="url(#paint0_linear_2415_70257)"/>
<path d="M26.2987 15.1347L21.7456 10.5816L21.7373 10.5733L21.7193 10.5575C21.6899 10.5309 21.659 10.5058 21.6269 10.4824C21.6044 10.4644 21.5819 10.4471 21.5578 10.4313C21.5473 10.4238 21.5368 10.4178 21.5255 10.4111C21.266 10.2411 20.9519 10.1749 20.6458 10.2257C20.3397 10.2765 20.0639 10.4405 19.8731 10.6852L12.7918 17.7673V11.4581C12.7918 11.1264 12.66 10.8083 12.4255 10.5738C12.191 10.3393 11.8729 10.2075 11.5412 10.2075C11.2096 10.2075 10.8915 10.3393 10.6569 10.5738C10.4224 10.8083 10.2907 11.1264 10.2907 11.4581V17.7673L7.70539 15.182C7.46907 14.9567 7.154 14.8327 6.8275 14.8366C6.501 14.8405 6.18897 14.9719 5.95808 15.2028C5.72719 15.4337 5.59577 15.7457 5.59189 16.0722C5.588 16.3987 5.71197 16.7138 5.93731 16.9501L10.6572 21.67C10.6869 21.7 10.7182 21.7284 10.7511 21.7549C10.7826 21.7804 10.8157 21.8052 10.8487 21.83C11.0193 21.9405 11.2142 22.0078 11.4165 22.026H11.4218C11.4624 22.0298 11.5029 22.032 11.5435 22.032H11.5623C11.5963 22.032 11.6301 22.0305 11.6637 22.0275H11.6884C11.7207 22.0237 11.753 22.02 11.7846 22.0132H11.7989C11.8342 22.0057 11.8695 21.9975 11.904 21.9869H11.91C11.9477 21.9756 11.9848 21.9623 12.0212 21.9471C12.073 21.9257 12.1232 21.9006 12.1714 21.872L12.1999 21.8555C12.2472 21.8266 12.2924 21.7945 12.3351 21.7594L12.3479 21.7481C12.3742 21.7256 12.4005 21.703 12.423 21.6775L19.6035 14.4925V20.7822C19.6035 21.1139 19.7352 21.432 19.9698 21.6665C20.2043 21.901 20.5224 22.0328 20.8541 22.0328C21.1857 22.0328 21.5038 21.901 21.7383 21.6665C21.9729 21.432 22.1046 21.1139 22.1046 20.7822V14.473L24.5307 16.9035C24.7662 17.1334 25.0828 17.2612 25.4119 17.2592C25.741 17.2572 26.056 17.1255 26.2887 16.8927C26.5214 16.66 26.6529 16.3449 26.6548 16.0158C26.6567 15.6867 26.5287 15.3701 26.2987 15.1347Z" fill="white"/>
<path d="M37.8716 12.3568H41.582V22.0489H43.8045V12.3568H47.5149V10.2808H37.8716V12.3568Z" fill="#1461DB"/>
<path d="M52.385 13.2028C52.1219 13.221 51.8615 13.2676 51.6084 13.3417C51.3646 13.4126 51.1312 13.5154 50.9144 13.6474C50.6415 13.8067 50.4027 14.018 50.2113 14.2693C50.1211 14.3886 50.0392 14.5141 49.9665 14.6449V13.223H48.0054V22.0492H50.2481V17.5381C50.2422 17.2285 50.2876 16.9202 50.3826 16.6255C50.4686 16.3647 50.6083 16.1249 50.7928 15.9215C50.9773 15.7181 51.2025 15.5557 51.4536 15.4448C51.7297 15.3156 52.0275 15.2391 52.3317 15.2194C52.6188 15.191 52.9087 15.2165 53.1864 15.2946V13.223C52.9206 13.19 52.6522 13.1832 52.385 13.2028Z" fill="#1461DB"/>
<path d="M61.6197 14.5796C61.3305 14.0108 60.8416 13.5687 60.2467 13.3381C59.6423 13.0977 58.9503 12.9775 58.1706 12.9775C57.1086 12.9775 56.2696 13.2066 55.6537 13.6648C55.0503 14.1046 54.6082 14.7306 54.3956 15.4464L56.4056 16.0833C56.5478 15.6797 56.7956 15.3993 57.1491 15.2421C57.469 15.0916 57.8172 15.0107 58.1706 15.0047C58.7595 15.0047 59.1791 15.1274 59.4295 15.3728C59.6255 15.5643 59.7427 15.8445 59.7847 16.2065C59.4092 16.2628 59.0524 16.3162 58.7182 16.365C58.1469 16.4496 57.6349 16.5382 57.1822 16.6309C56.7854 16.7086 56.3948 16.815 56.0135 16.9493C55.5974 17.0913 55.2129 17.313 54.8816 17.602C54.61 17.8475 54.4011 18.1545 54.2725 18.4973C54.1439 18.8563 54.0803 19.2352 54.0847 19.6165C54.0795 20.0865 54.1965 20.5498 54.4242 20.9609C54.6562 21.375 55.0021 21.7139 55.4209 21.9374C55.8595 22.1802 56.3948 22.3014 57.0267 22.3009C57.7898 22.3009 58.4205 22.1687 58.9187 21.9043C59.3466 21.6658 59.7252 21.3479 60.0341 20.9677V22.056H61.9794V16.6549C61.9812 16.2895 61.9646 15.9243 61.9299 15.5606C61.8921 15.2163 61.7867 14.883 61.6197 14.5796ZM59.5436 19.3686C59.452 19.5382 59.3381 19.6949 59.2049 19.8343C59.0136 20.0385 58.7865 20.206 58.5349 20.3285C58.2124 20.4822 57.8577 20.5564 57.5007 20.5448C57.2748 20.5504 57.0499 20.5116 56.8389 20.4307C56.6667 20.3649 56.5176 20.25 56.4101 20.1002C56.3068 19.9472 56.2543 19.7656 56.2599 19.5812C56.258 19.442 56.2905 19.3045 56.3545 19.1808C56.4265 19.0499 56.5268 18.9368 56.6482 18.8496C56.8105 18.7333 56.9872 18.6386 57.1739 18.5679C57.3904 18.4894 57.6113 18.4239 57.8357 18.3719C58.086 18.3118 58.4157 18.245 58.8248 18.1714C59.0855 18.1248 59.4039 18.0692 59.7675 18.0076C59.763 18.1646 59.7562 18.3336 59.7442 18.5334C59.7322 18.8222 59.6641 19.1059 59.5436 19.3686Z" fill="#1461DB"/>
<path d="M72.1532 15.3277C72.0447 14.9257 71.8696 14.5449 71.6349 14.201C71.3734 13.8255 71.024 13.5197 70.6172 13.3102C70.1815 13.0764 69.6177 12.9595 68.9257 12.9595C68.0594 12.9595 67.3416 13.1472 66.7723 13.5228C66.5112 13.6954 66.2736 13.9011 66.0655 14.1349V13.2231H64.0879V22.0492H66.3412V17.5712C66.3412 17.0204 66.4023 16.579 66.5244 16.247C66.6466 15.915 66.8044 15.6632 66.9976 15.4914C67.1718 15.3289 67.3817 15.2098 67.6105 15.1437C67.8099 15.0862 68.016 15.0559 68.2234 15.0535C68.6971 15.0535 69.0634 15.1599 69.3223 15.3727C69.5782 15.5805 69.772 15.8546 69.8826 16.1651C69.9943 16.4688 70.063 16.7866 70.0869 17.1093C70.1089 17.4222 70.1197 17.6796 70.1192 17.8814V22.0492H72.3725V17.0965C72.3725 16.9463 72.362 16.7157 72.3402 16.3935C72.3119 16.0331 72.2493 15.6762 72.1532 15.3277Z" fill="#1461DB"/>
<path d="M80.4767 17.3766C80.0701 17.1462 79.5321 16.9434 78.8626 16.7682C78.1761 16.5939 77.6654 16.4522 77.3304 16.3431C76.9954 16.2339 76.7748 16.1277 76.6687 16.0246C76.6166 15.9752 76.5755 15.9155 76.548 15.8493C76.5204 15.783 76.507 15.7117 76.5087 15.64C76.5087 15.3839 76.6326 15.1894 76.8805 15.0519C77.1284 14.9145 77.4573 14.8619 77.8652 14.8889C78.2848 14.9215 78.6173 15.0331 78.8626 15.2239C78.9832 15.3171 79.0832 15.4341 79.1564 15.5678C79.2295 15.7014 79.2743 15.8488 79.2878 16.0006L81.5598 15.5912C81.4929 15.0796 81.2816 14.5976 80.9507 14.2017C80.6014 13.7959 80.1559 13.4842 79.655 13.2951C79.068 13.0729 78.444 12.9646 77.8164 12.9759C77.1028 12.9759 76.4832 13.0891 75.9574 13.3154C75.4658 13.514 75.0412 13.8492 74.7339 14.2813C74.44 14.7162 74.2888 15.2317 74.3012 15.7565C74.2892 16.1606 74.3879 16.5603 74.5866 16.9124C74.7774 17.2319 75.0881 17.5058 75.5188 17.7341C75.9494 17.9624 76.5252 18.1695 77.2463 18.3552C77.8832 18.5245 78.3529 18.6607 78.6553 18.7638C78.9558 18.8675 79.1526 18.9719 79.2397 19.0785C79.3315 19.1989 79.3778 19.3479 79.3704 19.4992C79.3754 19.6263 79.348 19.7525 79.2909 19.8662C79.2337 19.9798 79.1487 20.0771 79.0436 20.1489C78.8243 20.3036 78.5144 20.3809 78.1138 20.3809C77.6231 20.3809 77.2185 20.2638 76.9 20.0294C76.5793 19.7928 76.3592 19.4443 76.2834 19.053L74.0083 19.4045C74.1555 20.3254 74.5709 21.0379 75.2544 21.5421C75.9379 22.0464 76.8354 22.2982 77.947 22.2977C79.1022 22.2977 80.0066 22.0389 80.66 21.5211C81.3135 21.0033 81.6414 20.2913 81.6439 19.385C81.6559 18.9763 81.5601 18.5717 81.366 18.2118C81.1793 17.8883 80.8828 17.6099 80.4767 17.3766Z" fill="#1461DB"/>
<path d="M90.4835 14.5796C90.1942 14.0109 89.7053 13.5689 89.1105 13.3381C88.5056 13.0977 87.8136 12.9775 87.0344 12.9775C85.9724 12.9775 85.1334 13.2066 84.5175 13.6648C83.9141 14.1047 83.4718 14.7307 83.2587 15.4464L85.2694 16.0833C85.4116 15.6797 85.6594 15.3993 86.013 15.2421C86.3328 15.0916 86.681 15.0107 87.0344 15.0047C87.6233 15.0047 88.0429 15.1274 88.2933 15.3728C88.4893 15.5643 88.6057 15.8445 88.6486 16.2065C88.273 16.2628 87.9162 16.3162 87.582 16.365C87.0107 16.4496 86.4987 16.5382 86.046 16.6309C85.6492 16.7086 85.2587 16.815 84.8773 16.9493C84.4036 17.1246 84.0263 17.3412 83.7454 17.599C83.4738 17.8445 83.2649 18.1515 83.1363 18.4943C83.0074 18.8532 82.9438 19.2322 82.9485 19.6135C82.9433 20.0835 83.0603 20.5468 83.288 20.9579C83.5199 21.3721 83.8658 21.711 84.2847 21.9344C84.7233 22.1772 85.2586 22.2984 85.8905 22.2979C86.6536 22.2979 87.2843 22.1657 87.7825 21.9013C88.2104 21.6628 88.589 21.3449 88.8979 20.9647V22.053H90.8433V16.6549C90.845 16.2895 90.8284 15.9243 90.7937 15.5606C90.7559 15.2163 90.6505 14.883 90.4835 14.5796ZM88.4075 19.3686C88.3158 19.5383 88.2019 19.6949 88.0687 19.8343C87.8774 20.0385 87.6503 20.206 87.3987 20.3285C87.0762 20.4822 86.7215 20.5564 86.3645 20.5448C86.1386 20.5504 85.9137 20.5116 85.7028 20.4307C85.5305 20.3649 85.3814 20.25 85.2739 20.1002C85.1706 19.9472 85.1181 19.7656 85.1237 19.5812C85.1218 19.442 85.1543 19.3045 85.2183 19.1808C85.29 19.0497 85.3904 18.9365 85.512 18.8496C85.6743 18.7333 85.851 18.6386 86.0377 18.5679C86.2541 18.4892 86.4751 18.4238 86.6995 18.3719C86.9498 18.3118 87.2796 18.245 87.6887 18.1714C87.9493 18.1248 88.2677 18.0692 88.6313 18.0076C88.6268 18.1646 88.6193 18.3336 88.608 18.5334C88.5953 18.8221 88.5272 19.1056 88.4075 19.3686Z" fill="#1461DB"/>
<path d="M97.7732 17.6355L100.96 13.2228H98.2141L95.2232 17.4725V10.2808H92.9677L92.9512 22.0489H95.2232V17.7992L98.2794 22.0489H101.173L97.7732 17.6355Z" fill="#1461DB"/>
</g>
<defs>
<linearGradient id="paint0_linear_2415_70257" x1="2.15715" y1="8.0585" x2="30.0829" y2="24.1808" gradientUnits="userSpaceOnUse">
<stop offset="0.13" stop-color="#348BED"/>
<stop offset="0.31" stop-color="#2B80E8"/>
<stop offset="0.64" stop-color="#1461DB"/>
<stop offset="0.72" stop-color="#0E57D7"/>
</linearGradient>
<clipPath id="clip0_2415_70257">
<rect width="101.173" height="32.24" fill="white"/>
</clipPath>
</defs>
</svg>
