<svg width="181" height="114" viewBox="0 0 181 114" fill="none" xmlns="http://www.w3.org/2000/svg">
<path fill-rule="evenodd" clip-rule="evenodd" d="M46.672 90.4934C46.873 90.3517 47.1182 90.2684 47.3829 90.2684H47.8723C48.2461 90.2684 48.5812 90.4345 48.8076 90.697H53.0619C53.2884 90.4345 53.6234 90.2684 53.9973 90.2684L54.4866 90.2684C54.8605 90.2684 55.1956 90.4345 55.422 90.697H59.6763C59.9028 90.4345 60.2378 90.2684 60.6117 90.2684H61.101C61.4749 90.2684 61.8099 90.4345 62.0364 90.697H66.2906C66.517 90.4345 66.8521 90.2684 67.226 90.2684H67.7153C68.0891 90.2684 68.4242 90.4345 68.6507 90.697H72.9049C73.1314 90.4345 73.4665 90.2684 73.8403 90.2684H74.3297C74.7035 90.2684 75.0386 90.4345 75.265 90.697H79.5192C79.7457 90.4345 80.0807 90.2684 80.4546 90.2684H80.9439C81.3178 90.2684 81.6528 90.4345 81.8793 90.697H86.1336C86.36 90.4345 86.6951 90.2684 87.069 90.2684H87.5583C87.9322 90.2684 88.2672 90.4345 88.4937 90.697L130.67 90.697C132.879 90.697 134.67 88.9062 134.67 86.697V34.0209L117.598 34.0209C117.046 34.0209 116.598 33.5731 116.598 33.0209C116.598 32.4686 117.046 32.0209 117.598 32.0209L134.67 32.0209V18.4024L95.2063 18.4024L99.8632 23.0592C100.254 23.4498 100.254 24.0829 99.8632 24.4734C99.4727 24.864 98.8395 24.864 98.449 24.4734L92.085 18.1095C91.6945 17.719 91.6945 17.0858 92.085 16.6953L98.449 10.3313C98.8395 9.94078 99.4727 9.94078 99.8632 10.3313C100.254 10.7218 100.254 11.355 99.8632 11.7455L95.2063 16.4024L134.67 16.4024V5.99995C134.67 3.79081 132.879 1.99995 130.67 1.99995L47.9353 1.99994C45.7261 1.99994 43.9353 3.7908 43.9353 5.99995V13.9781C48.0752 14.6563 52.0586 16.4352 55.4325 19.3547C62.9036 25.8194 65.2693 36.0454 62.252 45.1022C62.3061 45.2412 62.3359 45.3924 62.3359 45.5506V46.0399C62.3359 46.6066 61.9541 47.0842 61.4337 47.2294C60.4371 49.505 59.0825 51.6773 57.365 53.6622C56.1718 55.041 54.864 56.2596 53.4697 57.3154C53.6297 57.2397 53.8086 57.1973 53.9973 57.1973H54.4866C55.1686 57.1973 55.7215 57.7502 55.7215 58.4322V58.9215C55.7215 59.6035 55.1686 60.1563 54.4866 60.1563H53.9973C53.3153 60.1563 52.7625 59.6035 52.7625 58.9215V58.4322C52.7625 58.113 52.8836 57.8221 53.0823 57.6029C50.2897 59.6345 47.1679 61.0267 43.9353 61.7603L43.9352 86.697C43.9352 88.4647 45.0819 89.9646 46.672 90.4934ZM136.67 86.697V34.0209L176.739 34.0209L172.082 38.6777C171.692 39.0682 171.692 39.7014 172.082 40.0919C172.473 40.4825 173.106 40.4825 173.496 40.0919L179.86 33.728C180.251 33.3374 180.251 32.7043 179.86 32.3138L173.496 25.9498C173.106 25.5593 172.473 25.5593 172.082 25.9498C171.692 26.3403 171.692 26.9735 172.082 27.364L176.739 32.0209L136.67 32.0209V18.4024L151.591 18.4024C152.143 18.4024 152.591 17.9547 152.591 17.4024C152.591 16.8501 152.143 16.4024 151.591 16.4024L136.67 16.4024V5.99995C136.67 2.68624 133.983 -5.36406e-05 130.67 -5.39303e-05L47.9353 -6.11632e-05C44.6216 -6.14529e-05 41.9353 2.68623 41.9353 5.99995V13.7367C34.4163 13.1491 26.6257 16.1048 21.2033 22.3713C16.72 27.5525 14.7091 34.0107 15.0863 40.2503C7.10219 40.4436 0.689241 46.9764 0.68924 55.007C0.689239 63.1594 7.298 69.7681 15.4503 69.7681C21.6754 69.7681 27.0005 65.9147 29.1703 60.4631C33.2068 62.1977 37.6283 62.7381 41.9353 62.1283V64.0137C41.7408 63.8859 41.5081 63.8116 41.258 63.8116H40.7687C40.0867 63.8116 39.5338 64.3644 39.5338 65.0464V65.5357C39.5338 66.2177 40.0867 66.7706 40.7687 66.7706H41.258C41.5081 66.7706 41.7408 66.6963 41.9353 66.5685V70.6279C41.7408 70.5002 41.5081 70.4258 41.258 70.4258H40.7687C40.0867 70.4258 39.5338 70.9787 39.5338 71.6607V72.15C39.5338 72.832 40.0867 73.3848 40.7687 73.3848H41.258C41.5081 73.3848 41.7408 73.3105 41.9353 73.1827L41.9352 77.242C41.7408 77.1142 41.5081 77.0399 41.258 77.0399H40.7687C40.0867 77.0399 39.5338 77.5927 39.5338 78.2747V78.764C39.5338 79.446 40.0867 79.9989 40.7687 79.9989H41.258C41.5081 79.9989 41.7408 79.9246 41.9352 79.7968V83.8562C41.7408 83.7285 41.5081 83.6541 41.258 83.6541H40.7687C40.0867 83.6541 39.5338 84.207 39.5338 84.889V85.3783C39.5338 86.0603 40.0867 86.6132 40.7687 86.6132H41.258C41.5081 86.6132 41.7408 86.5388 41.9352 86.411V86.697C41.9352 89.4209 43.7503 91.7208 46.2369 92.4533C46.4195 92.9071 46.8638 93.2274 47.3829 93.2274H47.8722C48.2924 93.2274 48.6635 93.0176 48.8866 92.697H52.983C53.206 93.0176 53.5772 93.2274 53.9973 93.2274H54.4866C54.9068 93.2274 55.2779 93.0176 55.501 92.697H59.5974C59.8204 93.0176 60.1916 93.2274 60.6117 93.2274H61.101C61.5212 93.2274 61.8923 93.0176 62.1153 92.697H66.2116C66.4347 93.0176 66.8058 93.2274 67.2259 93.2274H67.7153C68.1354 93.2274 68.5065 93.0176 68.7296 92.697H72.826C73.049 93.0176 73.4202 93.2274 73.8403 93.2274H74.3297C74.7498 93.2274 75.1209 93.0176 75.344 92.697H79.4402C79.6633 93.0176 80.0344 93.2274 80.4546 93.2274H80.9439C81.3641 93.2274 81.7352 93.0176 81.9582 92.697H86.0546C86.2777 93.0176 86.6488 93.2274 87.069 93.2274H87.5583C87.9784 93.2274 88.3496 93.0176 88.5726 92.697L130.67 92.697C133.983 92.697 136.67 90.0107 136.67 86.697ZM60.7666 44.3157H60.6117C59.9297 44.3157 59.3768 44.8686 59.3768 45.5506V46.0399C59.3768 46.3902 59.5227 46.7065 59.757 46.9312C58.8449 48.9277 57.6335 50.8342 56.1192 52.5842C54.0767 54.9446 51.6733 56.8006 49.0718 58.1376C48.9397 57.5979 48.4528 57.1973 47.8723 57.1973H47.3829C46.7009 57.1973 46.1481 57.7502 46.1481 58.4322V58.9215C46.1481 59.0782 46.1772 59.228 46.2305 59.3659C45.475 59.6342 44.7088 59.8621 43.9353 60.0493L43.9353 15.6893C47.6748 16.3586 51.2656 17.9976 54.3199 20.6405C57.9139 23.7504 60.239 27.7951 61.2596 32.1416C61.2077 32.1349 61.1548 32.1315 61.101 32.1315H60.6117C59.9297 32.1315 59.3768 32.6843 59.3768 33.3663V33.8556C59.3768 34.5376 59.9297 35.0905 60.6117 35.0905H61.101C61.3308 35.0905 61.5459 35.0277 61.7301 34.9184C61.8542 36.0911 61.8869 37.2755 61.8277 38.4601C61.6238 38.3114 61.3727 38.2237 61.101 38.2237H60.6117C59.9297 38.2237 59.3768 38.7766 59.3768 39.4586V39.9479C59.3768 40.6299 59.9297 41.1828 60.6117 41.1828H61.101C61.2564 41.1828 61.4051 41.154 61.5421 41.1016C61.3617 42.1832 61.1034 43.2576 60.7666 44.3157ZM16.7671 40.3039C16.3581 34.4301 18.225 28.3309 22.4491 23.4493C27.5418 17.5638 34.8781 14.8148 41.9353 15.4247V32.3336C41.7408 32.2058 41.5081 32.1315 41.258 32.1315H40.7687C40.0867 32.1315 39.5338 32.6843 39.5338 33.3663V33.8556C39.5338 34.5376 40.0867 35.0905 40.7687 35.0905H41.258C41.5081 35.0905 41.7408 35.0162 41.9353 34.8884L41.9353 38.4258C41.7408 38.2981 41.5081 38.2237 41.258 38.2237H40.7687C40.0867 38.2237 39.5338 38.7766 39.5338 39.4586V39.9479C39.5338 40.6299 40.0867 41.1828 40.7687 41.1828H41.258C41.5081 41.1828 41.7408 41.1084 41.9353 40.9806V44.5178C41.7408 44.3901 41.5081 44.3157 41.258 44.3157H40.7687C40.0867 44.3157 39.5338 44.8686 39.5338 45.5506V46.0399C39.5338 46.7219 40.0867 47.2748 40.7687 47.2748H41.258C41.5081 47.2748 41.7408 47.2004 41.9353 47.0726V50.7852C41.7408 50.6574 41.5081 50.583 41.258 50.583H40.7687C40.0867 50.583 39.5338 51.1359 39.5338 51.8179V52.3072C39.5338 52.9892 40.0867 53.5421 40.7687 53.5421H41.258C41.5081 53.5421 41.7408 53.4677 41.9353 53.34V57.3994C41.7408 57.2716 41.5081 57.1973 41.258 57.1973H40.7687C40.0867 57.1973 39.5338 57.7502 39.5338 58.4322V58.9215C39.5338 59.6035 40.0867 60.1563 40.7687 60.1563H41.258C41.5081 60.1563 41.7408 60.082 41.9353 59.9542V60.4404C37.8106 61.0583 33.5653 60.5421 29.707 58.8469C30.036 57.6226 30.2114 56.3353 30.2114 55.007C30.2114 47.2985 24.3025 40.97 16.7671 40.3039ZM15.1673 41.2488C7.69791 41.3995 1.68924 47.5016 1.68924 55.007C1.68924 62.6071 7.85029 68.7681 15.4503 68.7681C21.271 68.7681 26.2477 65.1543 28.2589 60.0478C27.9874 59.917 27.7179 59.7806 27.4506 59.6386C25.5915 64.4522 20.9197 67.8666 15.4503 67.8666C8.34813 67.8666 2.59069 62.1092 2.59069 55.007C2.59069 47.9631 8.25409 42.2419 15.2758 42.1485C15.2341 41.8494 15.1979 41.5495 15.1673 41.2488ZM16.9855 42.2381C16.9375 41.9322 16.8958 41.6252 16.8605 41.3173C23.7981 42.0235 29.2114 47.8831 29.2114 55.007C29.2114 56.1837 29.0637 57.3259 28.7859 58.416C28.5094 58.2786 28.2351 58.135 27.9633 57.985C28.19 57.0292 28.3099 56.0321 28.3099 55.007C28.3099 48.4243 23.3639 42.9969 16.9855 42.2381ZM15.4366 43.1474C8.89304 43.1548 3.59069 48.4617 3.59069 55.007C3.59069 61.5569 8.90042 66.8666 15.4503 66.8666C20.5448 66.8666 24.8891 63.6543 26.5681 59.1447C26.3044 58.9895 26.043 58.8286 25.784 58.662C24.2791 62.9169 20.2206 65.9651 15.4503 65.9651C9.39825 65.9651 4.49213 61.059 4.49213 55.007C4.49213 48.955 9.39825 44.0488 15.4503 44.0488C15.5067 44.0488 15.5631 44.0493 15.6193 44.0501C15.5527 43.7504 15.4918 43.4495 15.4366 43.1474ZM17.3883 44.2197C17.3094 43.9052 17.2374 43.5891 17.1723 43.2715C22.9061 44.1055 27.3099 49.042 27.3099 55.007C27.3099 55.8464 27.2227 56.6654 27.0569 57.4555C26.7819 57.2858 26.5099 57.1093 26.2409 56.9261C26.351 56.303 26.4084 55.6617 26.4084 55.007C26.4084 49.6163 22.5159 45.1347 17.3883 44.2197ZM15.8663 45.0574C15.7283 45.0517 15.5896 45.0488 15.4503 45.0488C9.95054 45.0488 5.49213 49.5072 5.49213 55.007C5.49213 60.5067 9.95054 64.9651 15.4503 64.9651C19.8771 64.9651 23.6292 62.0766 24.9247 58.0815C24.312 57.6474 23.7149 57.1799 23.1358 56.6788C19.478 53.5137 17.044 49.447 15.8663 45.0574ZM25.3291 56.2697C24.9621 55.9909 24.6017 55.6986 24.2484 55.393C21.0461 52.622 18.8512 49.1089 17.6888 45.3014C22.1106 46.3172 25.4084 50.2769 25.4084 55.007C25.4084 55.4347 25.3814 55.8562 25.3291 56.2697ZM101.314 57.2641C100.061 58.1676 102.597 63.0035 112.227 68.2555C107.157 59.1223 102.567 56.4504 101.314 57.2641ZM112.227 68.2555C121.181 63.2769 123.943 58.7757 123.218 57.4325C122.404 55.9999 117.568 58.446 112.227 68.2555ZM112.227 68.2555C117.476 77.5675 122.156 80.1492 123.229 79.1568C124.211 78.075 121.586 73.4191 112.227 68.2555ZM101.595 79.3463C102.944 79.8787 107.42 77.0752 112.227 68.2555C102.287 73.7773 99.9763 78.7253 101.595 79.3463ZM150.832 88.0295C148.621 88.0295 146.829 89.822 146.829 92.0332C146.829 93.5391 147.66 94.8508 148.889 95.5344C149.414 92.7613 151.157 90.4188 153.539 89.0833C152.827 88.4289 151.876 88.0295 150.832 88.0295ZM154.989 88.4257C153.98 87.264 152.492 86.5295 150.832 86.5295C147.793 86.5295 145.329 88.9936 145.329 92.0332C145.329 94.3266 146.731 96.2924 148.726 97.1193C148.725 97.1782 148.724 97.2371 148.724 97.2962C148.724 102.492 152.937 106.705 158.133 106.705C163.329 106.705 167.541 102.492 167.541 97.2962C167.541 92.1 163.329 87.8877 158.133 87.8877C157.03 87.8877 155.972 88.0773 154.989 88.4257ZM154.442 90.2997C152.297 91.4336 150.736 93.5254 150.329 96.0055C150.494 96.0262 150.662 96.0369 150.832 96.0369C153.044 96.0369 154.836 94.2444 154.836 92.0332C154.836 91.4122 154.695 90.8242 154.442 90.2997ZM150.227 97.504C150.426 97.5257 150.628 97.5369 150.832 97.5369C153.872 97.5369 156.336 95.0728 156.336 92.0332C156.336 91.21 156.155 90.429 155.831 89.7278C156.56 89.5066 157.332 89.3877 158.133 89.3877C162.5 89.3877 166.041 92.9285 166.041 97.2962C166.041 101.664 162.5 105.205 158.133 105.205C153.834 105.205 150.337 101.776 150.227 97.504ZM55.7215 33.8556C55.7215 34.5376 55.1686 35.0905 54.4866 35.0905H53.9973C53.3153 35.0905 52.7625 34.5376 52.7625 33.8556V33.3663C52.7625 32.6843 53.3153 32.1315 53.9973 32.1315H54.4866C55.1686 32.1315 55.7215 32.6843 55.7215 33.3663V33.8556ZM87.5583 35.0905C88.2403 35.0905 88.7932 34.5376 88.7932 33.8557V33.3663C88.7932 32.6843 88.2403 32.1315 87.5583 32.1315H87.069C86.387 32.1315 85.8341 32.6843 85.8341 33.3663V33.8556C85.8341 34.5376 86.387 35.0905 87.069 35.0905H87.5583ZM88.7932 39.9479C88.7932 40.6299 88.2403 41.1828 87.5583 41.1828H87.069C86.387 41.1828 85.8341 40.6299 85.8341 39.9479V39.4586C85.8341 38.7766 86.387 38.2237 87.069 38.2237H87.5583C88.2403 38.2237 88.7932 38.7766 88.7932 39.4586V39.9479ZM87.5583 47.2748C88.2403 47.2748 88.7932 46.7219 88.7932 46.0399V45.5506C88.7932 44.8686 88.2403 44.3157 87.5583 44.3157H87.069C86.387 44.3157 85.8341 44.8686 85.8341 45.5506L85.8341 46.0399C85.8341 46.7219 86.387 47.2748 87.069 47.2748H87.5583ZM88.7932 52.3072C88.7932 52.9892 88.2403 53.5421 87.5583 53.5421H87.069C86.387 53.5421 85.8341 52.9892 85.8341 52.3072V51.8179C85.8341 51.1359 86.387 50.5831 87.069 50.5831H87.5583C88.2403 50.5831 88.7932 51.1359 88.7932 51.8179V52.3072ZM87.5583 60.1563C88.2403 60.1563 88.7932 59.6035 88.7932 58.9215V58.4322C88.7932 57.7502 88.2403 57.1973 87.5583 57.1973H87.069C86.387 57.1973 85.8341 57.7502 85.8341 58.4322V58.9215C85.8341 59.6035 86.387 60.1563 87.069 60.1563H87.5583ZM88.7932 65.5357C88.7932 66.2177 88.2403 66.7706 87.5583 66.7706H87.069C86.387 66.7706 85.8341 66.2177 85.8341 65.5357V65.0464C85.8341 64.3644 86.387 63.8116 87.069 63.8116H87.5583C88.2403 63.8116 88.7932 64.3644 88.7932 65.0464V65.5357ZM87.5583 73.3848C88.2403 73.3848 88.7931 72.832 88.7931 72.15V71.6606C88.7931 70.9786 88.2403 70.4258 87.5583 70.4258H87.069C86.387 70.4258 85.8341 70.9786 85.8341 71.6606V72.15C85.8341 72.8319 86.387 73.3848 87.069 73.3848H87.5583ZM54.4866 79.9989C55.1686 79.9989 55.7215 79.446 55.7215 78.7641V78.2747C55.7215 77.5927 55.1686 77.0399 54.4866 77.0399L53.9973 77.0399C53.3153 77.0399 52.7625 77.5927 52.7625 78.2747V78.7641C52.7625 79.446 53.3153 79.9989 53.9973 79.9989H54.4866ZM88.7932 78.7641C88.7932 79.446 88.2403 79.9989 87.5583 79.9989H87.069C86.387 79.9989 85.8341 79.446 85.8341 78.7641V78.2747C85.8341 77.5927 86.387 77.0399 87.069 77.0399H87.5583C88.2403 77.0399 88.7932 77.5927 88.7932 78.2747V78.7641ZM34.6436 86.6132C35.3256 86.6132 35.8785 86.0603 35.8785 85.3783V84.889C35.8785 84.207 35.3256 83.6541 34.6436 83.6541L34.1543 83.6541C33.4723 83.6541 32.9194 84.207 32.9194 84.889V85.3783C32.9194 86.0603 33.4723 86.6132 34.1543 86.6132H34.6436ZM87.5583 86.6132C88.2403 86.6132 88.7932 86.0603 88.7932 85.3783V84.889C88.7932 84.207 88.2403 83.6541 87.5583 83.6541H87.069C86.387 83.6541 85.8341 84.207 85.8341 84.889V85.3783C85.8341 86.0603 86.387 86.6132 87.069 86.6132H87.5583ZM82.1788 98.6068C82.1788 99.2888 81.6259 99.8417 80.9439 99.8417H80.4546C79.7726 99.8417 79.2197 99.2888 79.2197 98.6068V98.1175C79.2197 97.4355 79.7726 96.8826 80.4546 96.8826H80.9439C81.6259 96.8826 82.1788 97.4355 82.1788 98.1175V98.6068ZM87.5583 99.8417C88.2403 99.8417 88.7931 99.2888 88.7931 98.6068V98.1175C88.7931 97.4355 88.2403 96.8826 87.5583 96.8826H87.069C86.387 96.8826 85.8341 97.4355 85.8341 98.1175V98.6068C85.8341 99.2888 86.387 99.8417 87.069 99.8417H87.5583ZM88.7931 105.221C88.7931 105.903 88.2403 106.456 87.5583 106.456H87.069C86.387 106.456 85.8341 105.903 85.8341 105.221V104.732C85.8341 104.05 86.387 103.497 87.069 103.497H87.5583C88.2403 103.497 88.7931 104.05 88.7931 104.732V105.221ZM88.7931 111.835C88.7931 112.517 88.2403 113.07 87.5583 113.07H87.069C86.387 113.07 85.8341 112.517 85.8341 111.835V111.346C85.8341 110.664 86.387 110.111 87.069 110.111H87.5583C88.2403 110.111 88.7931 110.664 88.7931 111.346V111.835ZM82.1788 111.835C82.1788 112.517 81.6259 113.07 80.9439 113.07H80.4546C79.7726 113.07 79.2197 112.517 79.2197 111.835V111.346C79.2197 110.664 79.7726 110.111 80.4546 110.111H80.9439C81.6259 110.111 82.1788 110.664 82.1788 111.346V111.835ZM74.3297 113.07C75.0116 113.07 75.5645 112.517 75.5645 111.835V111.346C75.5645 110.664 75.0116 110.111 74.3297 110.111H73.8403C73.1583 110.111 72.6055 110.664 72.6055 111.346V111.835C72.6055 112.517 73.1583 113.07 73.8403 113.07H74.3297ZM68.9501 111.835C68.9501 112.517 68.3973 113.07 67.7153 113.07H67.2259C66.544 113.07 65.9911 112.517 65.9911 111.835V111.346C65.9911 110.664 66.544 110.111 67.2259 110.111H67.7153C68.3973 110.111 68.9501 110.664 68.9501 111.346V111.835ZM61.101 113.07C61.783 113.07 62.3359 112.517 62.3359 111.835V111.346C62.3359 110.664 61.783 110.111 61.101 110.111H60.6117C59.9297 110.111 59.3768 110.664 59.3768 111.346V111.835C59.3768 112.517 59.9297 113.07 60.6117 113.07H61.101ZM55.7215 111.835C55.7215 112.517 55.1686 113.07 54.4866 113.07H53.9973C53.3153 113.07 52.7625 112.517 52.7625 111.835V111.346C52.7625 110.664 53.3153 110.111 53.9973 110.111H54.4866C55.1686 110.111 55.7215 110.664 55.7215 111.346L55.7215 111.835ZM47.8722 113.07C48.5542 113.07 49.1071 112.517 49.1071 111.835L49.1071 111.346C49.1071 110.664 48.5542 110.111 47.8722 110.111H47.3829C46.7009 110.111 46.1481 110.664 46.1481 111.346V111.835C46.1481 112.517 46.7009 113.07 47.3829 113.07H47.8722ZM42.4929 111.835C42.4929 112.517 41.94 113.07 41.258 113.07H40.7687C40.0867 113.07 39.5338 112.517 39.5338 111.835V111.346C39.5338 110.664 40.0867 110.111 40.7687 110.111H41.258C41.94 110.111 42.4929 110.664 42.4929 111.346V111.835ZM34.6436 113.07C35.3256 113.07 35.8785 112.517 35.8785 111.835V111.346C35.8785 110.664 35.3256 110.111 34.6436 110.111H34.1543C33.4723 110.111 32.9194 110.664 32.9194 111.346V111.835C32.9194 112.517 33.4723 113.07 34.1543 113.07H34.6436ZM80.9439 106.456C81.6259 106.456 82.1788 105.903 82.1788 105.221V104.732C82.1788 104.05 81.6259 103.497 80.9439 103.497H80.4546C79.7726 103.497 79.2197 104.05 79.2197 104.732V105.221C79.2197 105.903 79.7726 106.456 80.4546 106.456H80.9439ZM75.5645 105.221C75.5645 105.903 75.0116 106.456 74.3297 106.456H73.8403C73.1583 106.456 72.6055 105.903 72.6055 105.221V104.732C72.6055 104.05 73.1583 103.497 73.8403 103.497H74.3297C75.0116 103.497 75.5645 104.05 75.5645 104.732V105.221ZM67.7153 106.456C68.3973 106.456 68.9501 105.903 68.9501 105.221V104.732C68.9501 104.05 68.3973 103.497 67.7153 103.497H67.2259C66.544 103.497 65.9911 104.049 65.9911 104.732V105.221C65.9911 105.903 66.544 106.456 67.2259 106.456H67.7153ZM62.3359 105.221C62.3359 105.903 61.783 106.456 61.101 106.456H60.6117C59.9297 106.456 59.3768 105.903 59.3768 105.221V104.732C59.3768 104.049 59.9297 103.497 60.6117 103.497H61.101C61.783 103.497 62.3359 104.05 62.3359 104.732V105.221ZM54.4866 106.456C55.1686 106.456 55.7215 105.903 55.7215 105.221V104.732C55.7215 104.05 55.1686 103.497 54.4866 103.497H53.9973C53.3153 103.497 52.7625 104.049 52.7625 104.732V105.221C52.7625 105.903 53.3153 106.456 53.9973 106.456H54.4866ZM49.1071 105.221C49.1071 105.903 48.5542 106.456 47.8722 106.456H47.3829C46.7009 106.456 46.1481 105.903 46.1481 105.221V104.732C46.1481 104.049 46.7009 103.497 47.3829 103.497H47.8722C48.5542 103.497 49.1071 104.049 49.1071 104.732V105.221ZM41.258 106.456C41.94 106.456 42.4929 105.903 42.4929 105.221V104.732C42.4929 104.049 41.94 103.497 41.258 103.497H40.7687C40.0867 103.497 39.5338 104.049 39.5338 104.732V105.221C39.5338 105.903 40.0867 106.456 40.7687 106.456H41.258ZM35.8785 105.221C35.8785 105.903 35.3256 106.456 34.6436 106.456H34.1543C33.4723 106.456 32.9194 105.903 32.9194 105.221V104.732C32.9194 104.049 33.4723 103.497 34.1543 103.497H34.6436C35.3256 103.497 35.8785 104.049 35.8785 104.732V105.221ZM74.3297 99.8417C75.0116 99.8417 75.5645 99.2888 75.5645 98.6068V98.1175C75.5645 97.4355 75.0116 96.8826 74.3297 96.8826H73.8403C73.1583 96.8826 72.6055 97.4355 72.6055 98.1175V98.6068C72.6055 99.2888 73.1583 99.8417 73.8403 99.8417H74.3297ZM68.9501 98.6068C68.9501 99.2888 68.3973 99.8417 67.7153 99.8417H67.2259C66.544 99.8417 65.9911 99.2888 65.9911 98.6068V98.1175C65.9911 97.4355 66.544 96.8826 67.226 96.8826H67.7153C68.3973 96.8826 68.9501 97.4355 68.9501 98.1175V98.6068ZM61.101 99.8417C61.783 99.8417 62.3359 99.2888 62.3359 98.6068V98.1175C62.3359 97.4355 61.783 96.8826 61.101 96.8826H60.6117C59.9297 96.8826 59.3768 97.4355 59.3768 98.1175V98.6068C59.3768 99.2888 59.9297 99.8417 60.6117 99.8417H61.101ZM55.7215 98.6068C55.7215 99.2888 55.1686 99.8417 54.4866 99.8417H53.9973C53.3153 99.8417 52.7625 99.2888 52.7625 98.6068V98.1175C52.7625 97.4355 53.3153 96.8826 53.9973 96.8826H54.4866C55.1686 96.8826 55.7215 97.4355 55.7215 98.1175V98.6068ZM47.8722 99.8417C48.5542 99.8417 49.1071 99.2888 49.1071 98.6068V98.1175C49.1071 97.4355 48.5542 96.8826 47.8723 96.8826H47.3829C46.7009 96.8826 46.1481 97.4355 46.1481 98.1175V98.6068C46.1481 99.2888 46.7009 99.8417 47.3829 99.8417H47.8722ZM42.4929 98.6068C42.4929 99.2888 41.94 99.8417 41.258 99.8417H40.7687C40.0867 99.8417 39.5338 99.2888 39.5338 98.6068V98.1175C39.5338 97.4355 40.0867 96.8826 40.7687 96.8826H41.258C41.94 96.8826 42.4929 97.4355 42.4929 98.1175V98.6068ZM34.6436 99.8417C35.3256 99.8417 35.8785 99.2888 35.8785 98.6068V98.1175C35.8785 97.4355 35.3256 96.8826 34.6436 96.8826H34.1543C33.4723 96.8826 32.9194 97.4355 32.9194 98.1175V98.6068C32.9194 99.2888 33.4723 99.8417 34.1543 99.8417H34.6436ZM41.258 93.2274C41.94 93.2274 42.4929 92.6746 42.4929 91.9926V91.5032C42.4929 90.8212 41.94 90.2684 41.258 90.2684H40.7687C40.0867 90.2684 39.5338 90.8212 39.5338 91.5032V91.9926C39.5338 92.6746 40.0867 93.2274 40.7687 93.2274H41.258ZM35.8785 91.9926C35.8785 92.6746 35.3256 93.2274 34.6436 93.2274H34.1543C33.4723 93.2274 32.9194 92.6746 32.9194 91.9926V91.5032C32.9194 90.8212 33.4723 90.2684 34.1543 90.2684H34.6436C35.3256 90.2684 35.8785 90.8212 35.8785 91.5032V91.9926ZM82.1788 85.3783C82.1788 86.0603 81.6259 86.6132 80.9439 86.6132H80.4546C79.7726 86.6132 79.2197 86.0603 79.2197 85.3783V84.889C79.2197 84.207 79.7726 83.6541 80.4546 83.6541H80.9439C81.6259 83.6541 82.1788 84.207 82.1788 84.889V85.3783ZM74.3297 86.6132C75.0116 86.6132 75.5645 86.0603 75.5645 85.3783V84.889C75.5645 84.207 75.0116 83.6541 74.3297 83.6541H73.8403C73.1583 83.6541 72.6055 84.207 72.6055 84.889V85.3783C72.6055 86.0603 73.1583 86.6132 73.8403 86.6132H74.3297ZM68.9501 85.3783C68.9501 86.0603 68.3973 86.6132 67.7153 86.6132H67.2259C66.544 86.6132 65.9911 86.0603 65.9911 85.3783V84.889C65.9911 84.207 66.544 83.6541 67.226 83.6541H67.7153C68.3973 83.6541 68.9501 84.207 68.9501 84.889V85.3783ZM61.101 86.6132C61.783 86.6132 62.3359 86.0603 62.3359 85.3783V84.889C62.3359 84.207 61.783 83.6541 61.101 83.6541H60.6117C59.9297 83.6541 59.3768 84.207 59.3768 84.889V85.3783C59.3768 86.0603 59.9297 86.6132 60.6117 86.6132H61.101ZM55.7215 85.3783C55.7215 86.0603 55.1686 86.6132 54.4866 86.6132H53.9973C53.3153 86.6132 52.7625 86.0603 52.7625 85.3783V84.889C52.7625 84.207 53.3153 83.6541 53.9973 83.6541H54.4866C55.1686 83.6541 55.7215 84.207 55.7215 84.889V85.3783ZM47.8722 86.6132C48.5542 86.6132 49.1071 86.0603 49.1071 85.3783V84.889C49.1071 84.207 48.5542 83.6541 47.8723 83.6541H47.3829C46.7009 83.6541 46.1481 84.207 46.1481 84.889V85.3783C46.1481 86.0603 46.7009 86.6132 47.3829 86.6132H47.8722ZM80.9439 79.9989C81.6259 79.9989 82.1788 79.446 82.1788 78.7641V78.2747C82.1788 77.5927 81.6259 77.0399 80.9439 77.0399H80.4546C79.7726 77.0399 79.2197 77.5927 79.2197 78.2747V78.7641C79.2197 79.446 79.7726 79.9989 80.4546 79.9989H80.9439ZM75.5645 78.7641C75.5645 79.446 75.0116 79.9989 74.3297 79.9989H73.8403C73.1583 79.9989 72.6055 79.446 72.6055 78.7641V78.2747C72.6055 77.5927 73.1583 77.0399 73.8403 77.0399H74.3297C75.0116 77.0399 75.5645 77.5927 75.5645 78.2747V78.7641ZM67.7153 79.9989C68.3973 79.9989 68.9501 79.446 68.9501 78.7641V78.2747C68.9501 77.5927 68.3973 77.0399 67.7153 77.0399H67.226C66.544 77.0399 65.9911 77.5927 65.9911 78.2747V78.7641C65.9911 79.446 66.544 79.9989 67.226 79.9989H67.7153ZM62.3359 78.7641C62.3359 79.446 61.783 79.9989 61.101 79.9989H60.6117C59.9297 79.9989 59.3768 79.446 59.3768 78.7641V78.2747C59.3768 77.5927 59.9297 77.0399 60.6117 77.0399H61.101C61.783 77.0399 62.3359 77.5927 62.3359 78.2747V78.7641ZM49.1071 78.7641C49.1071 79.446 48.5542 79.9989 47.8723 79.9989H47.3829C46.7009 79.9989 46.1481 79.446 46.1481 78.764V78.2747C46.1481 77.5927 46.7009 77.0399 47.3829 77.0399H47.8723C48.5542 77.0399 49.1071 77.5927 49.1071 78.2747V78.7641ZM35.8785 78.764C35.8785 79.446 35.3256 79.9989 34.6436 79.9989H34.1543C33.4723 79.9989 32.9194 79.446 32.9194 78.764V78.2747C32.9194 77.5927 33.4723 77.0399 34.1543 77.0399H34.6436C35.3256 77.0399 35.8785 77.5927 35.8785 78.2747V78.764ZM82.1788 72.15C82.1788 72.832 81.6259 73.3849 80.9439 73.3849H80.4546C79.7726 73.3849 79.2197 72.832 79.2197 72.15V71.6607C79.2197 70.9787 79.7726 70.4258 80.4546 70.4258H80.9439C81.6259 70.4258 82.1788 70.9787 82.1788 71.6607V72.15ZM80.9439 66.7706C81.6259 66.7706 82.1788 66.2177 82.1788 65.5357V65.0464C82.1788 64.3644 81.6259 63.8116 80.9439 63.8116H80.4546C79.7726 63.8116 79.2197 64.3644 79.2197 65.0464V65.5357C79.2197 66.2177 79.7726 66.7706 80.4546 66.7706H80.9439ZM82.1788 58.9215C82.1788 59.6035 81.6259 60.1563 80.9439 60.1563H80.4546C79.7726 60.1563 79.2197 59.6035 79.2197 58.9215V58.4322C79.2197 57.7502 79.7726 57.1973 80.4546 57.1973H80.9439C81.6259 57.1973 82.1788 57.7502 82.1788 58.4322V58.9215ZM80.9439 53.5421C81.6259 53.5421 82.1788 52.9892 82.1788 52.3072V51.8179C82.1788 51.1359 81.6259 50.583 80.9439 50.583H80.4546C79.7726 50.583 79.2197 51.1359 79.2197 51.8179V52.3072C79.2197 52.9892 79.7726 53.5421 80.4546 53.5421H80.9439ZM82.1788 46.0399C82.1788 46.7219 81.6259 47.2748 80.9439 47.2748H80.4546C79.7726 47.2748 79.2197 46.7219 79.2197 46.0399V45.5506C79.2197 44.8686 79.7726 44.3157 80.4546 44.3157H80.9439C81.6259 44.3157 82.1788 44.8686 82.1788 45.5506V46.0399ZM80.9439 41.1828C81.6259 41.1828 82.1788 40.6299 82.1788 39.9479V39.4586C82.1788 38.7766 81.6259 38.2237 80.9439 38.2237H80.4546C79.7726 38.2237 79.2197 38.7766 79.2197 39.4586V39.9479C79.2197 40.6299 79.7726 41.1828 80.4546 41.1828H80.9439ZM82.1788 33.8557C82.1788 34.5376 81.6259 35.0905 80.9439 35.0905H80.4546C79.7726 35.0905 79.2197 34.5376 79.2197 33.8556V33.3663C79.2197 32.6843 79.7726 32.1315 80.4546 32.1315H80.9439C81.6259 32.1315 82.1788 32.6843 82.1788 33.3663V33.8557ZM74.3297 73.3849C75.0116 73.3849 75.5645 72.832 75.5645 72.15V71.6607C75.5645 70.9787 75.0116 70.4258 74.3297 70.4258H73.8403C73.1583 70.4258 72.6055 70.9787 72.6055 71.6607V72.15C72.6055 72.832 73.1583 73.3849 73.8403 73.3849H74.3297ZM75.5645 65.5357C75.5645 66.2177 75.0116 66.7706 74.3297 66.7706H73.8403C73.1583 66.7706 72.6055 66.2177 72.6055 65.5357V65.0464C72.6055 64.3644 73.1583 63.8116 73.8403 63.8116H74.3297C75.0117 63.8116 75.5645 64.3644 75.5645 65.0464V65.5357ZM74.3297 60.1563C75.0116 60.1563 75.5645 59.6035 75.5645 58.9215V58.4322C75.5645 57.7502 75.0117 57.1973 74.3297 57.1973H73.8403C73.1583 57.1973 72.6055 57.7502 72.6055 58.4322V58.9215C72.6055 59.6035 73.1583 60.1563 73.8403 60.1563H74.3297ZM75.5645 52.3072C75.5645 52.9892 75.0117 53.5421 74.3297 53.5421L73.8403 53.5421C73.1583 53.5421 72.6055 52.9892 72.6055 52.3072V51.8179C72.6055 51.1359 73.1583 50.583 73.8403 50.583H74.3297C75.0117 50.583 75.5645 51.1359 75.5645 51.8179V52.3072ZM74.3297 47.2748C75.0117 47.2748 75.5645 46.7219 75.5645 46.0399V45.5506C75.5645 44.8686 75.0117 44.3157 74.3297 44.3157H73.8403C73.1583 44.3157 72.6055 44.8686 72.6055 45.5506V46.0399C72.6055 46.7219 73.1583 47.2748 73.8403 47.2748H74.3297ZM75.5645 39.9479C75.5645 40.6299 75.0117 41.1828 74.3297 41.1828H73.8403C73.1583 41.1828 72.6055 40.6299 72.6055 39.9479V39.4586C72.6055 38.7766 73.1583 38.2237 73.8403 38.2237H74.3297C75.0117 38.2237 75.5645 38.7766 75.5645 39.4586V39.9479ZM74.3297 35.0905C75.0117 35.0905 75.5645 34.5376 75.5645 33.8557V33.3663C75.5645 32.6843 75.0117 32.1315 74.3297 32.1315H73.8403C73.1583 32.1315 72.6055 32.6843 72.6055 33.3663V33.8556C72.6055 34.5376 73.1583 35.0905 73.8403 35.0905H74.3297ZM68.9501 72.15C68.9501 72.832 68.3973 73.3849 67.7153 73.3849H67.226C66.544 73.3849 65.9911 72.832 65.9911 72.15V71.6607C65.9911 70.9787 66.544 70.4258 67.226 70.4258H67.7153C68.3973 70.4258 68.9501 70.9787 68.9501 71.6607V72.15ZM67.7153 66.7706C68.3973 66.7706 68.9501 66.2177 68.9501 65.5357V65.0464C68.9501 64.3644 68.3973 63.8116 67.7153 63.8116H67.226C66.544 63.8116 65.9911 64.3644 65.9911 65.0464V65.5357C65.9911 66.2177 66.544 66.7706 67.226 66.7706H67.7153ZM68.9501 58.9215C68.9501 59.6035 68.3973 60.1563 67.7153 60.1563H67.226C66.544 60.1563 65.9911 59.6035 65.9911 58.9215V58.4322C65.9911 57.7502 66.544 57.1973 67.226 57.1973H67.7153C68.3973 57.1973 68.9501 57.7502 68.9501 58.4322V58.9215ZM67.7153 53.5421C68.3973 53.5421 68.9501 52.9892 68.9501 52.3072V51.8179C68.9501 51.1359 68.3973 50.583 67.7153 50.583H67.226C66.544 50.583 65.9911 51.1359 65.9911 51.8179V52.3072C65.9911 52.9892 66.544 53.5421 67.226 53.5421H67.7153ZM68.9501 46.0399C68.9501 46.7219 68.3973 47.2748 67.7153 47.2748H67.226C66.544 47.2748 65.9911 46.7219 65.9911 46.0399V45.5506C65.9911 44.8686 66.544 44.3157 67.226 44.3157H67.7153C68.3973 44.3157 68.9501 44.8686 68.9501 45.5506V46.0399ZM67.7153 41.1828C68.3973 41.1828 68.9501 40.6299 68.9501 39.9479V39.4586C68.9501 38.7766 68.3973 38.2237 67.7153 38.2237H67.226C66.544 38.2237 65.9911 38.7766 65.9911 39.4586V39.9479C65.9911 40.6299 66.544 41.1828 67.226 41.1828H67.7153ZM68.9501 33.8556C68.9501 34.5376 68.3973 35.0905 67.7153 35.0905H67.226C66.544 35.0905 65.9911 34.5376 65.9911 33.8556V33.3663C65.9911 32.6843 66.544 32.1315 67.226 32.1315H67.7153C68.3973 32.1315 68.9501 32.6843 68.9501 33.3663V33.8556ZM61.101 73.3849C61.783 73.3849 62.3359 72.832 62.3359 72.15V71.6607C62.3359 70.9787 61.783 70.4258 61.101 70.4258H60.6117C59.9297 70.4258 59.3768 70.9787 59.3768 71.6607V72.15C59.3768 72.832 59.9297 73.3849 60.6117 73.3849H61.101ZM62.3359 65.5357C62.3359 66.2177 61.783 66.7706 61.101 66.7706H60.6117C59.9297 66.7706 59.3768 66.2177 59.3768 65.5357V65.0464C59.3768 64.3644 59.9297 63.8116 60.6117 63.8116H61.101C61.783 63.8116 62.3359 64.3644 62.3359 65.0464V65.5357ZM61.101 60.1563C61.783 60.1563 62.3359 59.6035 62.3359 58.9215V58.4322C62.3359 57.7502 61.783 57.1973 61.101 57.1973H60.6117C59.9297 57.1973 59.3768 57.7502 59.3768 58.4322V58.9215C59.3768 59.6035 59.9297 60.1563 60.6117 60.1563H61.101ZM62.3359 52.3072C62.3359 52.9892 61.783 53.5421 61.101 53.5421H60.6117C59.9297 53.5421 59.3768 52.9892 59.3768 52.3072V51.8179C59.3768 51.1359 59.9297 50.583 60.6117 50.583H61.101C61.783 50.583 62.3359 51.1359 62.3359 51.8179V52.3072ZM55.7215 72.15C55.7215 72.832 55.1686 73.3849 54.4866 73.3849H53.9973C53.3153 73.3849 52.7625 72.832 52.7625 72.15V71.6607C52.7625 70.9787 53.3153 70.4258 53.9973 70.4258H54.4866C55.1686 70.4258 55.7215 70.9787 55.7215 71.6607V72.15ZM54.4866 66.7706C55.1686 66.7706 55.7215 66.2177 55.7215 65.5357V65.0464C55.7215 64.3644 55.1686 63.8116 54.4866 63.8116L53.9973 63.8116C53.3153 63.8116 52.7625 64.3644 52.7625 65.0464V65.5357C52.7625 66.2177 53.3153 66.7706 53.9973 66.7706H54.4866ZM54.4866 53.5421C55.1686 53.5421 55.7215 52.9892 55.7215 52.3072V51.8179C55.7215 51.1359 55.1686 50.583 54.4866 50.583H53.9973C53.3153 50.583 52.7625 51.1359 52.7625 51.8179V52.3072C52.7625 52.9892 53.3153 53.5421 53.9973 53.5421H54.4866ZM55.7215 46.0399C55.7215 46.7219 55.1686 47.2748 54.4866 47.2748H53.9973C53.3153 47.2748 52.7625 46.7219 52.7625 46.0399V45.5506C52.7625 44.8686 53.3153 44.3157 53.9973 44.3157H54.4866C55.1686 44.3157 55.7215 44.8686 55.7215 45.5506V46.0399ZM54.4866 41.1828C55.1686 41.1828 55.7215 40.6299 55.7215 39.9479V39.4586C55.7215 38.7766 55.1686 38.2237 54.4866 38.2237H53.9973C53.3153 38.2237 52.7625 38.7766 52.7625 39.4586V39.9479C52.7625 40.6299 53.3153 41.1828 53.9973 41.1828H54.4866ZM47.8723 73.3849C48.5542 73.3849 49.1071 72.832 49.1071 72.15V71.6607C49.1071 70.9787 48.5542 70.4258 47.8723 70.4258H47.3829C46.7009 70.4258 46.1481 70.9787 46.1481 71.6607V72.15C46.1481 72.832 46.7009 73.3849 47.3829 73.3849H47.8723ZM49.1071 65.5357C49.1071 66.2177 48.5542 66.7706 47.8723 66.7706H47.3829C46.7009 66.7706 46.1481 66.2177 46.1481 65.5357V65.0464C46.1481 64.3644 46.7009 63.8116 47.3829 63.8116H47.8723C48.5542 63.8116 49.1071 64.3644 49.1071 65.0464V65.5357ZM49.1071 52.3072C49.1071 52.9892 48.5542 53.5421 47.8723 53.5421H47.3829C46.7009 53.5421 46.1481 52.9892 46.1481 52.3072V51.8179C46.1481 51.1359 46.7009 50.583 47.3829 50.583H47.8723C48.5542 50.583 49.1071 51.1359 49.1071 51.8179V52.3072ZM47.8723 47.2748C48.5542 47.2748 49.1071 46.7219 49.1071 46.0399V45.5506C49.1071 44.8686 48.5542 44.3157 47.8723 44.3157H47.3829C46.7009 44.3157 46.1481 44.8686 46.1481 45.5506V46.0399C46.1481 46.7219 46.7009 47.2748 47.3829 47.2748H47.8723ZM49.1071 39.9479C49.1071 40.6299 48.5542 41.1828 47.8723 41.1828H47.3829C46.7009 41.1828 46.1481 40.6299 46.1481 39.9479V39.4586C46.1481 38.7766 46.7009 38.2237 47.3829 38.2237H47.8723C48.5542 38.2237 49.1071 38.7766 49.1071 39.4586V39.9479ZM47.8723 35.0905C48.5542 35.0905 49.1071 34.5376 49.1071 33.8556V33.3663C49.1071 32.6843 48.5542 32.1315 47.8723 32.1315H47.3829C46.7009 32.1315 46.1481 32.6843 46.1481 33.3663V33.8556C46.1481 34.5376 46.7009 35.0905 47.3829 35.0905H47.8723ZM34.6436 73.3848C35.3256 73.3848 35.8785 72.832 35.8785 72.15V71.6607C35.8785 70.9787 35.3256 70.4258 34.6436 70.4258H34.1543C33.4723 70.4258 32.9194 70.9787 32.9194 71.6607V72.15C32.9194 72.832 33.4723 73.3848 34.1543 73.3848H34.6436ZM35.8785 65.5357C35.8785 66.2177 35.3256 66.7706 34.6436 66.7706H34.1543C33.4723 66.7706 32.9194 66.2177 32.9194 65.5357V65.0464C32.9194 64.3644 33.4723 63.8116 34.1543 63.8116H34.6436C35.3256 63.8116 35.8785 64.3644 35.8785 65.0464V65.5357ZM34.6436 60.1563C35.3256 60.1563 35.8785 59.6035 35.8785 58.9215V58.4322C35.8785 57.7502 35.3256 57.1973 34.6436 57.1973H34.1543C33.4723 57.1973 32.9194 57.7502 32.9194 58.4322V58.9215C32.9194 59.6035 33.4723 60.1563 34.1543 60.1563L34.6436 60.1563ZM35.8785 52.3072C35.8785 52.9892 35.3256 53.5421 34.6436 53.5421H34.1543C33.4723 53.5421 32.9194 52.9892 32.9194 52.3072V51.8179C32.9194 51.1359 33.4723 50.583 34.1543 50.583H34.6436C35.3256 50.583 35.8785 51.1359 35.8785 51.8179V52.3072ZM34.6436 47.2748C35.3256 47.2748 35.8785 46.7219 35.8785 46.0399V45.5506C35.8785 44.8686 35.3256 44.3157 34.6436 44.3157H34.1543C33.4723 44.3157 32.9194 44.8686 32.9194 45.5506V46.0399C32.9194 46.7219 33.4723 47.2748 34.1543 47.2748L34.6436 47.2748ZM35.8785 39.9479C35.8785 40.6299 35.3256 41.1828 34.6436 41.1828H34.1543C33.4723 41.1828 32.9194 40.6299 32.9194 39.9479V39.4586C32.9194 38.7766 33.4723 38.2237 34.1543 38.2237H34.6436C35.3256 38.2237 35.8785 38.7766 35.8785 39.4586V39.9479ZM34.6436 35.0905C35.3256 35.0905 35.8785 34.5376 35.8785 33.8556V33.3663C35.8785 32.6843 35.3256 32.1315 34.6436 32.1315H34.1543C33.4723 32.1315 32.9194 32.6843 32.9194 33.3663V33.8556C32.9194 34.5376 33.4723 35.0905 34.1543 35.0905H34.6436ZM5.68781 27.108L1.41417 22.8344L5.68781 18.5608L9.96144 22.8344L5.68781 27.108ZM5.68781 28.5222L4.9807 27.8151L0.707066 23.5415L-4.10422e-05 22.8344L0.707066 22.1273L4.9807 17.8537L5.68781 17.1466L6.39491 17.8537L10.6685 22.1273L11.3757 22.8344L10.6685 23.5415L6.39491 27.8151L5.68781 28.5222Z" fill="white"/>
</svg>
