<svg width="32" height="32" viewBox="0 0 32 32" fill="none" xmlns="http://www.w3.org/2000/svg">
<g opacity="0.54">
<mask id="mask0_4566_1273" style="mask-type:alpha" maskUnits="userSpaceOnUse" x="0" y="3" width="32" height="29">
<path d="M11.198 3C9.71306 3 8.28893 3.61107 7.23891 4.69878C6.1889 5.78649 5.599 7.26174 5.599 8.8C5.599 10.3383 6.1889 11.8135 7.23891 12.9012C8.28893 13.9889 9.71306 14.6 11.198 14.6C12.683 14.6 14.1071 13.9889 15.1571 12.9012C16.2071 11.8135 16.797 10.3383 16.797 8.8C16.797 7.26174 16.2071 5.78649 15.1571 4.69878C14.1071 3.61107 12.683 3 11.198 3ZM11.198 17.5C7.46067 17.5 0 19.4285 0 23.3V26.2H15.5092C15.4392 25.7215 15.3973 25.243 15.3973 24.75C15.3973 22.575 16.0971 20.4 17.3709 18.66C15.2293 17.906 12.8497 17.5 11.198 17.5ZM23.7958 17.5C23.6138 17.5 23.4598 17.6305 23.4318 17.8045L23.1659 19.7185C22.7459 19.907 22.34 20.139 21.9761 20.4L20.2404 19.675C20.0864 19.675 19.9045 19.675 19.8065 19.8635L18.4067 22.372C18.3227 22.5315 18.3507 22.72 18.4907 22.836L19.9744 24.025C19.9464 24.2715 19.9324 24.5035 19.9324 24.75C19.9324 24.9965 19.9464 25.2285 19.9744 25.475L18.4907 26.664C18.3647 26.78 18.3227 26.9685 18.4067 27.128L19.8065 29.6365C19.8905 29.825 20.0724 29.825 20.2404 29.825L21.9761 29.1C22.34 29.361 22.7319 29.6075 23.1659 29.7815L23.4318 31.6955C23.4598 31.8695 23.5998 32 23.7958 32H26.5953C26.7492 32 26.9032 31.8695 26.9312 31.6955L27.1972 29.7815C27.6171 29.593 27.995 29.361 28.3729 29.1L30.0946 29.825C30.2766 29.825 30.4586 29.825 30.5566 29.6365L31.9563 27.128C32.0403 26.9685 31.9983 26.78 31.8723 26.664L30.3746 25.475C30.4026 25.2285 30.4306 24.9965 30.4306 24.75C30.4306 24.5035 30.4166 24.2715 30.3746 24.025L31.8583 22.836C31.9843 22.72 32.0263 22.5315 31.9423 22.372L30.5426 19.8635C30.4586 19.675 30.2766 19.675 30.0946 19.675L28.3729 20.4C27.995 20.139 27.6171 19.8925 27.1832 19.7185L26.9172 17.8045C26.9032 17.6305 26.7492 17.5 26.5953 17.5H23.7958ZM25.1955 22.575C25.7524 22.575 26.2864 22.8042 26.6802 23.212C27.0739 23.6199 27.2951 24.1732 27.2951 24.75C27.2951 25.3268 27.0739 25.8801 26.6802 26.288C26.2864 26.6958 25.7524 26.925 25.1955 26.925C24.0197 26.925 23.0959 25.9535 23.0959 24.75C23.0959 24.1732 23.3171 23.6199 23.7109 23.212C24.1046 22.8042 24.6387 22.575 25.1955 22.575Z" fill="#5F5F5F"/>
</mask>
<g mask="url(#mask0_4566_1273)">
<rect width="32" height="32" fill="#5F5F5F"/>
</g>
</g>
</svg>
