<svg width="24" height="25" viewBox="0 0 24 25" fill="none" xmlns="http://www.w3.org/2000/svg">
<path d="M4.71582 16.4298H6.33195V8.95401C6.33195 8.17152 6.54262 7.55155 6.96396 7.09409C7.39132 6.63664 7.93003 6.40791 8.5801 6.40791C9.23618 6.40791 9.78091 6.63664 10.2143 7.09409C10.6477 7.54553 10.8644 8.1655 10.8644 8.95401V15.1387C10.8644 16.0114 11.0299 16.7698 11.3609 17.4139C11.698 18.0519 12.1585 18.5455 12.7423 18.8946C13.3322 19.2437 14.0033 19.4183 14.7557 19.4183C15.5081 19.4183 16.1732 19.2437 16.7511 18.8946C17.3349 18.5455 17.7924 18.0519 18.1234 17.4139C18.4545 16.7698 18.62 16.0114 18.62 15.1387V7.73513H17.0039V15.2651C17.0039 16.0415 16.7902 16.6585 16.3628 17.1159C15.9415 17.5734 15.4058 17.8021 14.7557 17.8021C14.0996 17.8021 13.5549 17.5764 13.1215 17.125C12.6882 16.6735 12.4715 16.0536 12.4715 15.2651V9.08041C12.4715 8.20763 12.3029 7.45223 11.9659 6.81421C11.6348 6.17016 11.1743 5.67358 10.5845 5.32447C10.0006 4.97536 9.33249 4.80081 8.5801 4.80081C7.82771 4.80081 7.15958 4.97536 6.57573 5.32447C5.99789 5.67358 5.54345 6.17016 5.21239 6.81421C4.88134 7.45223 4.71582 8.20763 4.71582 9.08041V16.4298ZM3.4518 15.7436C3.12677 15.7436 2.92513 15.8399 2.84688 16.0325C2.76863 16.2191 2.81678 16.4358 2.99134 16.6826L5.01376 19.5537C5.16424 19.7644 5.33579 19.8667 5.5284 19.8607C5.72101 19.8607 5.88955 19.7583 6.03401 19.5537L8.05643 16.6735C8.23099 16.4268 8.27613 16.2101 8.19186 16.0235C8.11361 15.8369 7.91498 15.7436 7.59597 15.7436H3.4518ZM15.7489 8.47549H19.884C20.203 8.47549 20.4017 8.38219 20.4799 8.1956C20.5642 8.00298 20.519 7.78329 20.3445 7.5365L18.3311 4.65635C18.1866 4.4517 18.0151 4.34937 17.8165 4.34937C17.6238 4.34335 17.4553 4.44568 17.3108 4.65635L15.2884 7.52747C15.1078 7.78028 15.0567 8.00298 15.1349 8.1956C15.2192 8.38219 15.4238 8.47549 15.7489 8.47549Z" fill="#9742FB"/>
</svg>
