<svg width="31" height="31" viewBox="0 0 31 31" fill="none" xmlns="http://www.w3.org/2000/svg">
	<path d="M30.0547 15.5317C30.0547 23.5399 23.5628 30.0317 15.5547 30.0317C7.54656 30.0317 1.05469 23.5399 1.05469 15.5317C1.05469 7.52361 7.54656 1.03174 15.5547 1.03174C23.5628 1.03174 30.0547 7.52361 30.0547 15.5317Z" fill="white" stroke="#28A0F0"/>
	<path d="M22.8017 18.4458C22.8021 18.8261 22.7023 19.1998 22.5123 19.5292C22.3223 19.8586 22.0489 20.1321 21.7196 20.3223L16.6335 23.2441C16.3054 23.4326 15.9336 23.5318 15.5552 23.5318C15.1767 23.5318 14.8049 23.4326 14.4768 23.2441L9.39074 20.3223C9.06141 20.1321 8.788 19.8586 8.59803 19.5292C8.40805 19.1998 8.30822 18.8261 8.30859 18.4458V12.6174C8.30822 12.2372 8.40805 11.8635 8.59803 11.5341C8.788 11.2047 9.06141 10.9311 9.39074 10.741L14.4768 7.8192C14.8048 7.63085 15.1764 7.53174 15.5546 7.53174C15.9328 7.53174 16.3045 7.63085 16.6324 7.8192L21.7185 10.741C22.0478 10.9311 22.3212 11.2047 22.5112 11.5341C22.7012 11.8635 22.801 12.2372 22.8006 12.6174L22.8017 18.4458Z" fill="#1D86CC"/>
	<path d="M14.9264 8.63144L9.90528 11.5327C9.71511 11.6423 9.55705 11.8 9.44691 11.9899C9.33677 12.1798 9.2784 12.3953 9.27764 12.6148V18.4216C9.2784 18.641 9.33665 18.8563 9.44658 19.0462C9.55652 19.2361 9.7143 19.3938 9.9042 19.5037L14.9318 22.4093C15.1225 22.5199 15.339 22.5781 15.5595 22.5781C15.7799 22.5781 15.9964 22.5199 16.1871 22.4093L21.2083 19.5102C21.3984 19.4005 21.5564 19.2428 21.6665 19.0529C21.7766 18.863 21.835 18.6476 21.8359 18.4281V12.6213C21.835 12.4018 21.7766 12.1864 21.6665 11.9965C21.5564 11.8066 21.3984 11.6489 21.2083 11.5392L16.1817 8.63252C15.9908 8.52245 15.7744 8.46451 15.5541 8.46451C15.3337 8.46451 15.1173 8.52245 14.9264 8.63252V8.63144Z" fill="white"/>
	<path d="M13.2688 20.456C13.276 20.4163 13.2931 20.379 13.3186 20.3478C14.8206 17.799 16.323 15.2505 17.8257 12.7024C17.8463 12.6667 17.8657 12.631 17.8831 12.5996C17.8701 12.5758 17.8549 12.5812 17.8419 12.5812C17.2002 12.5812 16.5585 12.5877 15.9157 12.5812C15.8882 12.5805 15.8612 12.5884 15.8383 12.6037C15.8154 12.619 15.7979 12.641 15.788 12.6667C15.3054 13.474 14.8206 14.2777 14.3336 15.0777C13.3056 16.7745 12.2772 18.4713 11.2484 20.1681C11.2398 20.1833 11.23 20.1974 11.2214 20.2136C11.2041 20.2482 11.1824 20.2536 11.1456 20.2331C10.9866 20.1378 10.821 20.0469 10.6554 19.9495L15.2329 12.6094C15.2232 12.5791 15.2026 12.5867 15.1874 12.5867C14.9418 12.5791 14.6962 12.5683 14.4516 12.5661C14.1075 12.5561 13.7646 12.6112 13.4409 12.7284C13.1463 12.8372 12.8959 13.0404 12.7288 13.3063C11.892 14.6113 11.0519 15.9139 10.2085 17.2139L10.1685 17.2756C10.1198 17.2756 10.1273 17.2355 10.123 17.2074C10.1198 17.1656 10.1198 17.1237 10.123 17.0819C10.123 15.6426 10.123 14.2045 10.123 12.7663C10.1152 12.6423 10.1448 12.5188 10.2081 12.4119C10.2714 12.3049 10.3655 12.2195 10.478 12.1668C11.5839 11.537 12.6823 10.8931 13.785 10.2557C14.2774 9.97219 14.7708 9.69084 15.2589 9.39974C15.351 9.33841 15.4593 9.3057 15.57 9.3057C15.6807 9.3057 15.7889 9.33841 15.8811 9.39974C16.7793 9.92674 17.685 10.4418 18.5865 10.9613L20.6306 12.1365C20.6793 12.1635 20.7269 12.1938 20.7756 12.2209C20.8555 12.2631 20.9216 12.3274 20.9661 12.406C21.0106 12.4846 21.0316 12.5744 21.0267 12.6646C21.0267 14.2293 21.0267 15.7941 21.0267 17.3589C21.0287 17.3955 21.0244 17.4321 21.0137 17.4671C20.9596 17.5191 20.9401 17.4606 20.9206 17.4325C20.8395 17.3189 20.767 17.1987 20.6912 17.0808C20.0874 16.135 19.4814 15.1906 18.8732 14.2477C18.6687 13.9296 18.462 13.6114 18.2596 13.2922C18.212 13.2175 18.2045 13.2165 18.1514 13.2922C17.8463 13.8088 17.5415 14.3249 17.237 14.8408C17.2202 14.8694 17.2129 14.9027 17.2162 14.9357C17.2196 14.9688 17.2333 15 17.2554 15.0247C17.5065 15.4294 17.759 15.8349 18.0129 16.241L19.2963 18.3166C19.4695 18.5972 19.643 18.8775 19.8168 19.1574C19.8488 19.1953 19.8668 19.2431 19.8677 19.2927C19.8331 19.3609 19.7595 19.3803 19.7 19.4117C19.6006 19.4835 19.4912 19.5404 19.3753 19.5805C19.3137 19.5654 19.2909 19.5091 19.2617 19.4626C18.8646 18.8436 18.4728 18.2203 18.0778 17.5991C17.672 16.9607 17.2684 16.32 16.8604 15.6827C16.8085 15.6004 16.7998 15.6004 16.7522 15.6827C16.3984 16.2789 16.0488 16.8784 15.6928 17.4747C15.6747 17.5026 15.6659 17.5354 15.6674 17.5686C15.669 17.6018 15.6809 17.6337 15.7015 17.6597C16.1809 18.3978 16.6483 19.1423 17.1223 19.8835C17.2543 20.0902 17.3874 20.2969 17.5173 20.5047C17.5422 20.5458 17.5768 20.5858 17.5541 20.64C17.43 20.7371 17.2957 20.8205 17.1537 20.8888L15.8216 21.6702C15.7509 21.7167 15.6681 21.7415 15.5835 21.7415C15.4989 21.7415 15.4161 21.7167 15.3454 21.6702C14.6962 21.2928 14.0422 20.9173 13.3835 20.5436C13.338 20.5254 13.2984 20.4951 13.2688 20.456Z" fill="#2D374B"/>
	<path d="M20.9884 17.4887C20.9884 17.4498 20.9884 17.4108 20.9884 17.3729C20.9884 15.8118 20.9884 14.2506 20.9884 12.6894C20.9941 12.5948 20.972 12.5006 20.9249 12.4183C20.8778 12.336 20.8077 12.2693 20.7233 12.2263C19.0842 11.2884 17.4458 10.3466 15.8082 9.40079C15.7343 9.35308 15.6483 9.3277 15.5604 9.3277C15.4725 9.3277 15.3864 9.35308 15.3126 9.40079C14.4064 9.92815 13.4978 10.4566 12.5866 10.9861L10.3931 12.2511C10.3147 12.2918 10.2498 12.3543 10.2062 12.4312C10.1626 12.508 10.1422 12.5958 10.1475 12.684C10.1518 14.1817 10.154 15.6794 10.154 17.1771C10.154 17.2106 10.141 17.2474 10.1702 17.2766C9.99708 17.5655 9.80662 17.8426 9.62374 18.125C9.53284 18.2693 9.44122 18.41 9.34887 18.5471C9.33372 18.5698 9.31749 18.5903 9.28827 18.6315C9.28827 18.5838 9.28827 18.5579 9.28827 18.5319C9.28827 16.5574 9.28827 14.5821 9.28827 12.6061C9.28204 12.3866 9.33666 12.1696 9.4461 11.9792C9.55553 11.7888 9.71552 11.6323 9.90834 11.5272C10.5446 11.1495 11.1885 10.7859 11.8281 10.4158C12.3691 10.1031 12.9102 9.78819 13.4513 9.47437C13.9545 9.1822 14.4523 8.88136 14.9663 8.60866C15.1623 8.49954 15.384 8.44508 15.6082 8.45098C15.8325 8.45688 16.051 8.52293 16.241 8.64221C16.6523 8.87487 17.0613 9.11294 17.4714 9.34885L18.6207 10.0122L20.7449 11.2329C20.9007 11.3216 21.0555 11.4114 21.2092 11.5023C21.3792 11.5983 21.5255 11.7315 21.6369 11.8919C21.7484 12.0523 21.8223 12.2357 21.853 12.4286C21.8606 12.4842 21.8628 12.5404 21.8595 12.5964C21.8595 14.5399 21.8595 16.4838 21.8595 18.428C21.8613 18.6136 21.8218 18.7972 21.7439 18.9656C21.6661 19.134 21.5518 19.2831 21.4093 19.4019C21.3282 19.4633 21.2412 19.5166 21.1496 19.561C20.6223 19.8683 20.0949 20.1742 19.5675 20.4787L17.8826 21.4526C17.343 21.7657 16.8019 22.0795 16.2594 22.3941C16.1255 22.4845 15.9745 22.5467 15.8158 22.577C15.5521 22.6284 15.2789 22.5935 15.0366 22.4774C14.7682 22.3335 14.5064 22.1776 14.2423 22.0261L13.1753 21.4126L12.8745 21.2405C12.8377 21.2189 12.8128 21.1983 12.8409 21.1496C12.974 20.9278 13.105 20.7038 13.237 20.4808C13.237 20.4722 13.2532 20.4689 13.2619 20.4624C13.3852 20.52 13.5045 20.5858 13.619 20.6594C14.1998 20.9905 14.7791 21.3238 15.3569 21.6593C15.4234 21.7022 15.5008 21.725 15.5798 21.725C15.6589 21.725 15.7363 21.7022 15.8028 21.6593C16.3525 21.3347 16.9044 21.0187 17.4552 20.6994L17.5385 20.654C17.5905 20.5878 17.6598 20.5372 17.7387 20.5079C18.2365 20.2233 18.731 19.9322 19.2288 19.6422C19.27 19.6184 19.3078 19.5816 19.3619 19.5881L19.8489 19.3056C19.8792 19.2429 19.943 19.2234 19.9961 19.1974C20.2406 19.0557 20.4841 18.9107 20.7319 18.7732C20.8035 18.7355 20.8626 18.678 20.9024 18.6076C20.9421 18.5372 20.9607 18.4568 20.9559 18.3761C20.9559 18.1272 20.9559 17.8794 20.9559 17.6305C20.9512 17.6059 20.9516 17.5806 20.9572 17.5562C20.9628 17.5318 20.9734 17.5088 20.9884 17.4887Z" fill="#96BEDC"/>
	<path d="M20.9896 17.4876C20.9896 17.796 20.9972 18.1055 20.9896 18.4128C20.9913 18.4849 20.9731 18.556 20.937 18.6184C20.9009 18.6809 20.8484 18.7321 20.7851 18.7667C20.4745 18.942 20.1694 19.1281 19.8566 19.2991C19.7322 19.0718 19.5883 18.8554 19.4519 18.6347C18.7449 17.4883 18.0372 16.343 17.3287 15.1988C17.2865 15.1307 17.2476 15.0593 17.2 14.9943C17.1851 14.9753 17.1771 14.9519 17.1771 14.9278C17.1771 14.9037 17.1851 14.8802 17.2 14.8612C17.3699 14.5788 17.5354 14.2942 17.7032 14.0107L18.1674 13.2218C18.1761 13.2033 18.1905 13.1881 18.2085 13.1785C18.2901 13.3033 18.3712 13.4288 18.452 13.5551C18.9411 14.3155 19.4299 15.0766 19.9183 15.8384L20.9128 17.3869C20.931 17.4256 20.9572 17.4599 20.9896 17.4876Z" fill="#28A0F0"/>
	<path d="M19.3684 19.5812C19.1671 19.7132 18.9529 19.8258 18.7451 19.9492C18.3674 20.1656 17.9876 20.3885 17.6099 20.6082L17.5461 20.6428C17.5405 20.6081 17.5256 20.5755 17.5028 20.5487C17.1652 20.0191 16.8283 19.4896 16.4921 18.9601L15.6588 17.6615C15.6398 17.6391 15.6288 17.611 15.6274 17.5816C15.626 17.5523 15.6344 17.5233 15.6513 17.4992C16.0235 16.8723 16.3943 16.2443 16.7637 15.6152C16.7724 15.6011 16.7789 15.5838 16.8005 15.5795C16.8221 15.5751 16.8384 15.6163 16.8524 15.639L18.8652 18.8097L19.2981 19.4849C19.3166 19.5227 19.3419 19.5569 19.3728 19.5856L19.3684 19.5812Z" fill="#28A0F0"/>
</svg>
