<svg width="31" height="31" viewBox="0 0 31 31" fill="none" xmlns="http://www.w3.org/2000/svg">
    <path d="M30.3906 15.4155C30.3906 23.4237 23.8988 29.9155 15.8906 29.9155C7.8825 29.9155 1.39062 23.4237 1.39062 15.4155C1.39062 7.4074 7.8825 0.915527 15.8906 0.915527C23.8988 0.915527 30.3906 7.4074 30.3906 15.4155Z" fill="white" stroke="#28A0F0"/>
    <path d="M23.1377 18.3296C23.138 18.7099 23.0382 19.0836 22.8482 19.413C22.6583 19.7424 22.3848 20.0159 22.0555 20.2061L16.9695 23.1278C16.6413 23.3164 16.2695 23.4156 15.8911 23.4156C15.5127 23.4156 15.1409 23.3164 14.8127 23.1278L9.72667 20.2061C9.39735 20.0159 9.12394 19.7424 8.93396 19.413C8.74399 19.0836 8.64416 18.7099 8.64453 18.3296V12.5012C8.64416 12.1209 8.74399 11.7473 8.93396 11.4179C9.12394 11.0885 9.39735 10.8149 9.72667 10.6248L14.8127 7.70299C15.1407 7.51464 15.5123 7.41553 15.8906 7.41553C16.2688 7.41553 16.6404 7.51464 16.9684 7.70299L22.0544 10.6248C22.3838 10.8149 22.6572 11.0885 22.8472 11.4179C23.0371 11.7473 23.137 12.1209 23.1366 12.5012L23.1377 18.3296Z" fill="#1D86CC"/>
    <path d="M15.2624 8.51523L10.2412 11.4165C10.051 11.5261 9.89299 11.6838 9.78285 11.8737C9.6727 12.0636 9.61434 12.2791 9.61357 12.4986V18.3054C9.61433 18.5248 9.67258 18.7401 9.78252 18.93C9.89246 19.1199 10.0502 19.2776 10.2401 19.3875L15.2678 22.2931C15.4585 22.4037 15.675 22.4619 15.8954 22.4619C16.1158 22.4619 16.3324 22.4037 16.5231 22.2931L21.5442 19.394C21.7343 19.2843 21.8923 19.1266 22.0024 18.9367C22.1126 18.7468 22.171 18.5314 22.1718 18.3119V12.5051C22.171 12.2856 22.1126 12.0701 22.0024 11.8803C21.8923 11.6904 21.7343 11.5327 21.5442 11.4229L16.5176 8.51631C16.3268 8.40624 16.1103 8.3483 15.89 8.3483C15.6697 8.3483 15.4532 8.40624 15.2624 8.51631V8.51523Z" fill="white"/>
    <path d="M13.6047 20.3398C13.6119 20.3001 13.629 20.2628 13.6545 20.2316C15.1565 17.6828 16.6589 15.1343 18.1616 12.5862C18.1822 12.5505 18.2017 12.5148 18.219 12.4834C18.206 12.4596 18.1909 12.465 18.1779 12.465C17.5362 12.465 16.8945 12.4715 16.2517 12.465C16.2242 12.4643 16.1971 12.4722 16.1742 12.4875C16.1514 12.5028 16.1338 12.5248 16.124 12.5505C15.6413 13.3578 15.1565 14.1615 14.6696 14.9615C13.6415 16.6583 12.6131 18.3551 11.5844 20.0519C11.5757 20.0671 11.566 20.0811 11.5573 20.0974C11.54 20.132 11.5184 20.1374 11.4816 20.1169C11.3225 20.0216 11.1569 19.9307 10.9914 19.8333L15.5688 12.4932C15.5591 12.4629 15.5385 12.4704 15.5234 12.4704C15.2777 12.4629 15.0321 12.452 14.7875 12.4499C14.4434 12.4399 14.1005 12.495 13.7768 12.6122C13.4822 12.721 13.2318 12.9241 13.0648 13.1901C12.2279 14.4951 11.3878 15.7977 10.5444 17.0977L10.5044 17.1594C10.4557 17.1594 10.4633 17.1193 10.459 17.0912C10.4557 17.0494 10.4557 17.0074 10.459 16.9657C10.459 15.5264 10.459 14.0882 10.459 12.6501C10.4511 12.5261 10.4808 12.4026 10.5441 12.2956C10.6074 12.1887 10.7014 12.1033 10.8139 12.0506C11.9198 11.4208 13.0182 10.7769 14.1209 10.1395C14.6133 9.85598 15.1068 9.57463 15.5948 9.28353C15.687 9.2222 15.7952 9.18948 15.9059 9.18948C16.0166 9.18948 16.1249 9.2222 16.217 9.28353C17.1152 9.81053 18.021 10.3256 18.9224 10.8451L20.9666 12.0203C21.0153 12.0473 21.0629 12.0776 21.1116 12.1047C21.1914 12.1469 21.2575 12.2112 21.302 12.2898C21.3465 12.3684 21.3675 12.4581 21.3626 12.5484C21.3626 14.1131 21.3626 15.6779 21.3626 17.2427C21.3647 17.2792 21.3603 17.3159 21.3496 17.3509C21.2955 17.4028 21.2761 17.3444 21.2566 17.3163C21.1754 17.2026 21.1029 17.0825 21.0272 16.9646C20.4233 16.0188 19.8173 15.0744 19.2092 14.1315C19.0046 13.8134 18.7979 13.4952 18.5956 13.176C18.548 13.1013 18.5404 13.1002 18.4874 13.176C18.1822 13.6925 17.8774 14.2087 17.573 14.7245C17.5562 14.7532 17.5489 14.7865 17.5522 14.8195C17.5555 14.8526 17.5692 14.8837 17.5914 14.9085C17.8424 15.3132 18.0949 15.7187 18.3489 16.1248L19.6323 18.2004C19.8054 18.481 19.9789 18.7613 20.1528 19.0412C20.1847 19.0791 20.2027 19.1269 20.2036 19.1765C20.169 19.2447 20.0954 19.2641 20.0359 19.2955C19.9365 19.3673 19.8271 19.4242 19.7113 19.4643C19.6496 19.4492 19.6269 19.3929 19.5976 19.3464C19.2005 18.7274 18.8088 18.1041 18.4138 17.4829C18.008 16.8445 17.6043 16.2038 17.1964 15.5664C17.1444 15.4842 17.1358 15.4842 17.0882 15.5664C16.7343 16.1627 16.3848 16.7622 16.0287 17.3585C16.0107 17.3864 16.0018 17.4192 16.0034 17.4524C16.0049 17.4856 16.0168 17.5174 16.0374 17.5435C16.5168 18.2815 16.9843 19.0261 17.4583 19.7673C17.5903 19.974 17.7234 20.1807 17.8532 20.3885C17.8781 20.4296 17.9128 20.4696 17.89 20.5237C17.7659 20.6209 17.6317 20.7043 17.4896 20.7726L16.1575 21.5539C16.0868 21.6005 16.0041 21.6253 15.9194 21.6253C15.8348 21.6253 15.7521 21.6005 15.6814 21.5539C15.0321 21.1766 14.3781 20.8011 13.7195 20.4274C13.674 20.4091 13.6343 20.3788 13.6047 20.3398Z" fill="#2D374B"/>
    <path d="M21.3243 17.3725C21.3243 17.3335 21.3243 17.2946 21.3243 17.2567C21.3243 15.6955 21.3243 14.1344 21.3243 12.5732C21.33 12.4786 21.308 12.3843 21.2609 12.3021C21.2138 12.2198 21.1437 12.1531 21.0592 12.11C19.4201 11.1722 17.7818 10.2304 16.1441 9.28458C16.0703 9.23687 15.9842 9.21149 15.8963 9.21149C15.8084 9.21149 15.7223 9.23687 15.6485 9.28458C14.7424 9.81194 13.8337 10.3404 12.9226 10.8699L10.7291 12.1349C10.6507 12.1756 10.5857 12.2381 10.5421 12.315C10.4985 12.3918 10.4781 12.4796 10.4834 12.5678C10.4878 14.0655 10.4899 15.5632 10.4899 17.0608C10.4899 17.0944 10.4769 17.1312 10.5062 17.1604C10.333 17.4493 10.1426 17.7264 9.95967 18.0088C9.86877 18.1531 9.77715 18.2938 9.68481 18.4308C9.66966 18.4536 9.65343 18.4741 9.62421 18.5152C9.62421 18.4676 9.62421 18.4417 9.62421 18.4157C9.62421 16.4411 9.62421 14.4659 9.62421 12.4899C9.61798 12.2703 9.6726 12.0534 9.78204 11.863C9.89147 11.6725 10.0515 11.5161 10.2443 11.411C10.8806 11.0333 11.5245 10.6697 12.164 10.2996C12.7051 9.98689 13.2461 9.67198 13.7872 9.35816C14.2904 9.06598 14.7882 8.76515 15.3022 8.49245C15.4982 8.38333 15.7199 8.32887 15.9442 8.33477C16.1684 8.34067 16.387 8.40672 16.577 8.526C16.9882 8.75866 17.3972 8.99673 17.8074 9.23263L18.9566 9.89599L21.0809 11.1166C21.2367 11.2054 21.3914 11.2952 21.5451 11.3861C21.7152 11.4821 21.8614 11.6153 21.9729 11.7757C22.0843 11.9361 22.1582 12.1195 22.189 12.3124C22.1966 12.368 22.1987 12.4242 22.1955 12.4801C22.1955 14.4237 22.1955 16.3676 22.1955 18.3118C22.1972 18.4973 22.1577 18.681 22.0799 18.8494C22.002 19.0178 21.8877 19.1668 21.7453 19.2857C21.6641 19.3471 21.5771 19.4004 21.4856 19.4448C20.9582 19.7521 20.4308 20.058 19.9035 20.3625L18.2186 21.3364C17.679 21.6495 17.1379 21.9633 16.5954 22.2779C16.4614 22.3683 16.3105 22.4305 16.1517 22.4607C15.888 22.5122 15.6148 22.4773 15.3726 22.3612C15.1042 22.2173 14.8423 22.0614 14.5783 21.9099L13.5113 21.2964L13.2104 21.1243C13.1736 21.1026 13.1487 21.0821 13.1769 21.0334C13.31 20.8116 13.4409 20.5876 13.5729 20.3646C13.5729 20.356 13.5892 20.3527 13.5978 20.3462C13.7212 20.4038 13.8405 20.4696 13.9549 20.5432C14.5357 20.8743 15.115 21.2076 15.6929 21.5431C15.7593 21.5859 15.8367 21.6087 15.9158 21.6087C15.9949 21.6087 16.0723 21.5859 16.1387 21.5431C16.6884 21.2184 17.2403 20.9025 17.7911 20.5832L17.8745 20.5378C17.9265 20.4716 17.9957 20.421 18.0747 20.3917C18.5724 20.1071 19.067 19.816 19.5648 19.526C19.6059 19.5022 19.6438 19.4654 19.6979 19.4719L20.1848 19.1894C20.2151 19.1267 20.279 19.1072 20.332 19.0812C20.5766 18.9394 20.8201 18.7944 21.0679 18.657C21.1394 18.6193 21.1986 18.5618 21.2383 18.4914C21.278 18.421 21.2966 18.3406 21.2919 18.2599C21.2919 18.011 21.2919 17.7632 21.2919 17.5143C21.2871 17.4897 21.2875 17.4644 21.2931 17.44C21.2987 17.4155 21.3093 17.3926 21.3243 17.3725Z" fill="#96BEDC"/>
    <path d="M21.3256 17.3714C21.3256 17.6798 21.3331 17.9893 21.3256 18.2966C21.3272 18.3687 21.309 18.4398 21.273 18.5022C21.2369 18.5646 21.1843 18.6159 21.121 18.6505C20.8105 18.8258 20.5053 19.0119 20.1926 19.1829C20.0681 18.9556 19.9242 18.7392 19.7878 18.5184C19.0808 17.3721 18.3731 16.2268 17.6647 15.0826C17.6225 15.0145 17.5835 14.943 17.5359 14.8781C17.5211 14.8591 17.513 14.8357 17.513 14.8116C17.513 14.7874 17.5211 14.764 17.5359 14.745C17.7058 14.4626 17.8714 14.178 18.0391 13.8944L18.5033 13.1056C18.512 13.0871 18.5264 13.0719 18.5445 13.0623C18.626 13.1871 18.7071 13.3126 18.7879 13.4389C19.2771 14.1992 19.7658 14.9604 20.2543 15.7222L21.2487 17.2707C21.2669 17.3093 21.2931 17.3437 21.3256 17.3714Z" fill="#28A0F0"/>
    <path d="M19.7044 19.465C19.5031 19.597 19.2888 19.7096 19.081 19.8329C18.7034 20.0494 18.3235 20.2723 17.9459 20.492L17.882 20.5266C17.8765 20.4919 17.8615 20.4593 17.8387 20.4325C17.5011 19.9029 17.1642 19.3734 16.828 18.8439L15.9948 17.5453C15.9758 17.5229 15.9647 17.4948 15.9633 17.4654C15.962 17.4361 15.9704 17.4071 15.9872 17.383C16.3595 16.7561 16.7303 16.1281 17.0996 15.499C17.1083 15.4849 17.1148 15.4676 17.1364 15.4633C17.1581 15.4589 17.1743 15.5 17.1884 15.5228L19.2012 18.6934L19.634 19.3687C19.6525 19.4065 19.6778 19.4407 19.7087 19.4693L19.7044 19.465Z" fill="#28A0F0"/>
</svg>
