<svg width="31" height="31" viewBox="0 0 31 31" fill="none" xmlns="http://www.w3.org/2000/svg">
	<rect x="0.695312" y="1.03174" width="29" height="29" rx="4.5" fill="white" stroke="#28A0F0"/>
	<path d="M22.4424 18.4458C22.4427 18.8261 22.3429 19.1998 22.1529 19.5292C21.9629 19.8586 21.6895 20.1321 21.3602 20.3223L16.2741 23.2441C15.946 23.4326 15.5742 23.5318 15.1958 23.5318C14.8174 23.5318 14.4455 23.4326 14.1174 23.2441L9.03136 20.3223C8.70204 20.1321 8.42863 19.8586 8.23865 19.5292C8.04868 19.1998 7.94885 18.8261 7.94922 18.4458V12.6174C7.94885 12.2372 8.04868 11.8635 8.23865 11.5341C8.42863 11.2047 8.70204 10.9311 9.03136 10.741L14.1174 7.81921C14.4454 7.63085 14.817 7.53174 15.1952 7.53174C15.5735 7.53174 15.9451 7.63085 16.2731 7.81921L21.3591 10.741C21.6884 10.9311 21.9619 11.2047 22.1518 11.5341C22.3418 11.8635 22.4416 12.2372 22.4413 12.6174L22.4424 18.4458Z" fill="#1D86CC"/>
	<path d="M14.567 8.63144L9.54591 11.5327C9.35573 11.6423 9.19767 11.8 9.08753 11.9899C8.97739 12.1798 8.91902 12.3953 8.91826 12.6148V18.4216C8.91902 18.641 8.97727 18.8563 9.08721 19.0462C9.19714 19.2361 9.35492 19.3938 9.54482 19.5037L14.5725 22.4093C14.7631 22.5199 14.9797 22.5781 15.2001 22.5781C15.4205 22.5781 15.6371 22.5199 15.8277 22.4093L20.8489 19.5102C21.039 19.4005 21.197 19.2428 21.3071 19.0529C21.4172 18.863 21.4757 18.6476 21.4765 18.4281V12.6213C21.4757 12.4018 21.4172 12.1864 21.3071 11.9965C21.197 11.8066 21.039 11.6489 20.8489 11.5392L15.8223 8.63252C15.6315 8.52245 15.415 8.46452 15.1947 8.46452C14.9744 8.46452 14.7579 8.52245 14.567 8.63252V8.63144Z" fill="white"/>
	<path d="M12.9094 20.456C12.9166 20.4163 12.9337 20.379 12.9592 20.3478C14.4612 17.799 15.9636 15.2505 17.4663 12.7024C17.4869 12.6667 17.5064 12.631 17.5237 12.5996C17.5107 12.5758 17.4956 12.5812 17.4826 12.5812C16.8409 12.5812 16.1991 12.5877 15.5564 12.5812C15.5288 12.5805 15.5018 12.5884 15.4789 12.6037C15.4561 12.619 15.4385 12.641 15.4287 12.6667C14.946 13.474 14.4612 14.2777 13.9743 15.0777C12.9462 16.7745 11.9178 18.4713 10.8891 20.1681C10.8804 20.1833 10.8707 20.1974 10.862 20.2136C10.8447 20.2482 10.8231 20.2536 10.7863 20.2331C10.6272 20.1378 10.4616 20.0469 10.2961 19.9495L14.8735 12.6094C14.8638 12.5791 14.8432 12.5867 14.8281 12.5867C14.5824 12.5791 14.3368 12.5683 14.0922 12.5661C13.7481 12.5561 13.4052 12.6112 13.0815 12.7284C12.7869 12.8372 12.5365 13.0404 12.3694 13.3063C11.5326 14.6113 10.6925 15.9139 9.84913 17.2139L9.80909 17.2756C9.7604 17.2756 9.76797 17.2355 9.76364 17.2074C9.76042 17.1656 9.76042 17.1237 9.76364 17.0819C9.76364 15.6426 9.76364 14.2045 9.76364 12.7663C9.7558 12.6423 9.78546 12.5188 9.84876 12.4119C9.91207 12.3049 10.0061 12.2195 10.1186 12.1668C11.2245 11.537 12.3229 10.8931 13.4256 10.2557C13.918 9.97219 14.4114 9.69084 14.8995 9.39974C14.9917 9.33842 15.0999 9.30569 15.2106 9.30569C15.3213 9.30569 15.4296 9.33842 15.5217 9.39974C16.4199 9.92675 17.3257 10.4418 18.2271 10.9613L20.2712 12.1365C20.3199 12.1635 20.3676 12.1938 20.4163 12.2209C20.4961 12.2631 20.5622 12.3274 20.6067 12.406C20.6512 12.4846 20.6722 12.5744 20.6673 12.6646C20.6673 14.2293 20.6673 15.7941 20.6673 17.3589C20.6694 17.3955 20.665 17.4321 20.6543 17.4671C20.6002 17.5191 20.5807 17.4606 20.5613 17.4325C20.4801 17.3189 20.4076 17.1987 20.3318 17.0808C19.728 16.135 19.122 15.1906 18.5138 14.2477C18.3093 13.9296 18.1026 13.6114 17.9003 13.2922C17.8527 13.2175 17.8451 13.2165 17.7921 13.2922C17.4869 13.8087 17.1821 14.3249 16.8776 14.8408C16.8608 14.8694 16.8536 14.9027 16.8569 14.9357C16.8602 14.9688 16.8739 15 16.896 15.0247C17.1471 15.4294 17.3996 15.8349 17.6535 16.241L18.937 18.3166C19.1101 18.5972 19.2836 18.8775 19.4575 19.1574C19.4894 19.1953 19.5074 19.2431 19.5083 19.2927C19.4737 19.3609 19.4001 19.3803 19.3406 19.4117C19.2412 19.4835 19.1318 19.5404 19.016 19.5805C18.9543 19.5654 18.9316 19.5091 18.9023 19.4626C18.5052 18.8436 18.1135 18.2203 17.7185 17.5991C17.3127 16.9607 16.909 16.32 16.5011 15.6827C16.4491 15.6004 16.4405 15.6004 16.3928 15.6827C16.039 16.2789 15.6895 16.8784 15.3334 17.4747C15.3154 17.5026 15.3065 17.5354 15.308 17.5686C15.3096 17.6018 15.3215 17.6337 15.3421 17.6597C15.8215 18.3978 16.289 19.1423 16.7629 19.8835C16.895 20.0902 17.0281 20.2969 17.1579 20.5047C17.1828 20.5458 17.2174 20.5858 17.1947 20.64C17.0706 20.7371 16.9364 20.8205 16.7943 20.8888L15.4622 21.6702C15.3915 21.7167 15.3088 21.7415 15.2241 21.7415C15.1395 21.7415 15.0567 21.7167 14.9861 21.6702C14.3368 21.2928 13.6828 20.9173 13.0241 20.5436C12.9787 20.5254 12.939 20.4951 12.9094 20.456Z" fill="#2D374B"/>
	<path d="M20.629 17.4887C20.629 17.4498 20.629 17.4108 20.629 17.3729C20.629 15.8118 20.629 14.2506 20.629 12.6894C20.6347 12.5948 20.6126 12.5006 20.5656 12.4183C20.5185 12.336 20.4484 12.2693 20.3639 12.2263C18.7248 11.2884 17.0864 10.3466 15.4488 9.40079C15.375 9.35308 15.2889 9.32771 15.201 9.32771C15.1131 9.32771 15.027 9.35308 14.9532 9.40079C14.0471 9.92815 13.1384 10.4566 12.2273 10.9861L10.0338 12.2512C9.95534 12.2918 9.89039 12.3543 9.84679 12.4312C9.80319 12.508 9.78281 12.5958 9.78812 12.684C9.79245 14.1817 9.79461 15.6794 9.79461 17.1771C9.79461 17.2106 9.78163 17.2474 9.81084 17.2766C9.6377 17.5656 9.44724 17.8426 9.26436 18.125C9.17346 18.2693 9.08184 18.41 8.9895 18.5471C8.97435 18.5698 8.95812 18.5903 8.9289 18.6315C8.9289 18.5838 8.9289 18.5579 8.9289 18.5319C8.9289 16.5574 8.9289 14.5821 8.9289 12.6061C8.92267 12.3866 8.97729 12.1696 9.08672 11.9792C9.19616 11.7888 9.35614 11.6323 9.54897 11.5272C10.1853 11.1495 10.8291 10.7859 11.4687 10.4158C12.0098 10.1031 12.5508 9.78819 13.0919 9.47437C13.5951 9.18219 14.0929 8.88137 14.6069 8.60867C14.8029 8.49954 15.0246 8.44508 15.2489 8.45098C15.4731 8.45688 15.6917 8.52293 15.8817 8.64221C16.2929 8.87487 16.7019 9.11294 17.1121 9.34885L18.2613 10.0122L20.3855 11.2329C20.5414 11.3216 20.6961 11.4114 20.8498 11.5023C21.0199 11.5983 21.1661 11.7315 21.2776 11.8919C21.389 12.0523 21.4629 12.2357 21.4937 12.4286C21.5012 12.4842 21.5034 12.5404 21.5001 12.5964C21.5001 14.5399 21.5001 16.4838 21.5001 18.428C21.5019 18.6136 21.4624 18.7972 21.3846 18.9656C21.3067 19.134 21.1924 19.2831 21.05 19.4019C20.9688 19.4633 20.8818 19.5166 20.7903 19.561C20.2629 19.8683 19.7355 20.1742 19.2082 20.4787L17.5233 21.4526C16.9836 21.7657 16.4426 22.0795 15.9001 22.3941C15.7661 22.4845 15.6152 22.5467 15.4564 22.577C15.1927 22.6284 14.9195 22.5935 14.6772 22.4774C14.4089 22.3335 14.147 22.1776 13.8829 22.0261L12.816 21.4126L12.5151 21.2405C12.4783 21.2189 12.4534 21.1983 12.4816 21.1496C12.6147 20.9278 12.7456 20.7038 12.8776 20.4808C12.8776 20.4722 12.8939 20.4689 12.9025 20.4624C13.0259 20.52 13.1452 20.5858 13.2596 20.6594C13.8404 20.9905 14.4197 21.3238 14.9976 21.6593C15.064 21.7022 15.1414 21.725 15.2205 21.725C15.2995 21.725 15.3769 21.7022 15.4434 21.6593C15.9931 21.3347 16.545 21.0187 17.0958 20.6994L17.1791 20.654C17.2311 20.5878 17.3004 20.5372 17.3793 20.5079C17.8771 20.2233 18.3717 19.9322 18.8695 19.6422C18.9106 19.6184 18.9485 19.5816 19.0026 19.5881L19.4895 19.3056C19.5198 19.2429 19.5837 19.2234 19.6367 19.1974C19.8813 19.0557 20.1247 18.9107 20.3726 18.7732C20.4441 18.7355 20.5033 18.678 20.543 18.6076C20.5827 18.5372 20.6013 18.4568 20.5966 18.3761C20.5966 18.1272 20.5966 17.8794 20.5966 17.6305C20.5918 17.6059 20.5922 17.5806 20.5978 17.5562C20.6034 17.5318 20.614 17.5088 20.629 17.4887Z" fill="#96BEDC"/>
	<path d="M20.6303 17.4876C20.6303 17.796 20.6378 18.1055 20.6303 18.4128C20.6319 18.4849 20.6137 18.556 20.5776 18.6184C20.5416 18.6809 20.489 18.7321 20.4257 18.7667C20.1152 18.942 19.81 19.1281 19.4973 19.2991C19.3728 19.0718 19.2289 18.8554 19.0925 18.6347C18.3855 17.4883 17.6778 16.343 16.9694 15.1989C16.9272 15.1307 16.8882 15.0593 16.8406 14.9943C16.8258 14.9753 16.8177 14.9519 16.8177 14.9278C16.8177 14.9037 16.8258 14.8802 16.8406 14.8612C17.0105 14.5788 17.1761 14.2942 17.3438 14.0107L17.808 13.2218C17.8167 13.2033 17.8311 13.1881 17.8492 13.1785C17.9307 13.3033 18.0118 13.4288 18.0926 13.5551C18.5818 14.3155 19.0705 15.0766 19.5589 15.8384L20.5534 17.3869C20.5716 17.4256 20.5978 17.4599 20.6303 17.4876Z" fill="#28A0F0"/>
	<path d="M19.009 19.5812C18.8078 19.7133 18.5935 19.8258 18.3857 19.9492C18.0081 20.1656 17.6282 20.3885 17.2506 20.6082L17.1867 20.6428C17.1812 20.6081 17.1662 20.5755 17.1434 20.5487C16.8058 20.0191 16.4689 19.4896 16.1327 18.9601L15.2995 17.6615C15.2805 17.6391 15.2694 17.611 15.268 17.5816C15.2667 17.5523 15.275 17.5233 15.2919 17.4992C15.6641 16.8723 16.035 16.2443 16.4043 15.6152C16.413 15.6011 16.4195 15.5838 16.4411 15.5795C16.4628 15.5751 16.479 15.6163 16.4931 15.639L18.5059 18.8097L18.9387 19.4849C18.9572 19.5228 18.9825 19.5569 19.0134 19.5856L19.009 19.5812Z" fill="#28A0F0"/>
</svg>
