<svg width="31" height="30" viewBox="0 0 31 30" fill="none" xmlns="http://www.w3.org/2000/svg">
    <path d="M30.3906 15C30.3906 23.0081 23.8988 29.5 15.8906 29.5C7.8825 29.5 1.39062 23.0081 1.39062 15C1.39062 6.99187 7.8825 0.5 15.8906 0.5C23.8988 0.5 30.3906 6.99187 30.3906 15Z" fill="white" stroke="#E84142"/>
    <path fill-rule="evenodd" clip-rule="evenodd" d="M12.3074 20.6981H9.88763C9.37911 20.6981 9.12809 20.6981 8.97452 20.6001C8.89351 20.5474 8.82606 20.4763 8.77763 20.3927C8.7292 20.309 8.70116 20.2152 8.69578 20.1186C8.68665 19.938 8.81199 19.7174 9.06335 19.2764L15.0382 8.7458C15.2924 8.29871 15.4211 8.07508 15.5834 7.99241C15.6698 7.94861 15.7653 7.92578 15.8622 7.92578C15.959 7.92578 16.0545 7.94861 16.1409 7.99241C16.3033 8.07542 16.432 8.29871 16.6861 8.7458L17.9147 10.8899L17.921 10.9009C18.1956 11.3807 18.3347 11.6239 18.3956 11.8793C18.4629 12.1591 18.4629 12.4509 18.3956 12.7308C18.3344 12.9881 18.1964 13.2331 17.9177 13.7201L14.7799 19.2676L14.7718 19.2819C14.4955 19.7655 14.3554 20.0107 14.1613 20.195C13.9511 20.3961 13.6959 20.5441 13.4169 20.6267C13.1619 20.6981 12.877 20.6981 12.3074 20.6981ZM18.4179 20.6981H21.885C22.3965 20.6981 22.6539 20.6981 22.8071 20.5971C22.8886 20.5443 22.9563 20.4729 23.0048 20.3887C23.0533 20.3046 23.0811 20.2101 23.0859 20.1132C23.0947 19.9383 22.9718 19.7263 22.7311 19.311C22.7228 19.2969 22.7145 19.2824 22.706 19.2678L20.9693 16.296L20.9495 16.2628C20.7055 15.8503 20.5823 15.6418 20.4241 15.5612C20.3382 15.5175 20.2433 15.4946 20.1469 15.4946C20.0505 15.4946 19.9556 15.5175 19.8697 15.5612C19.7104 15.6443 19.5819 15.8614 19.3275 16.2994L17.5971 19.2711L17.5911 19.2814C17.3378 19.7187 17.2111 19.9372 17.2202 20.1165C17.2256 20.2134 17.2536 20.3077 17.302 20.3918C17.3504 20.4759 17.4179 20.5475 17.499 20.6008C17.6491 20.6981 17.9064 20.6981 18.4179 20.6981Z" fill="#E84142"/>
</svg>
