<svg width="31" height="31" viewBox="0 0 31 31" fill="none" xmlns="http://www.w3.org/2000/svg">
    <rect x="0.695312" y="0.559082" width="29" height="29" rx="4.5" fill="white" stroke="#E84142"/>
    <path fill-rule="evenodd" clip-rule="evenodd" d="M11.6121 20.7571H9.19232C8.6838 20.7571 8.43278 20.7571 8.27921 20.6592C8.1982 20.6065 8.13074 20.5354 8.08231 20.4518C8.03389 20.3681 8.00585 20.2742 8.00047 20.1777C7.99133 19.9971 8.11668 19.7765 8.36803 19.3355L14.3429 8.80488C14.5971 8.35779 14.7258 8.13417 14.8881 8.05149C14.9745 8.00769 15.07 7.98486 15.1669 7.98486C15.2637 7.98486 15.3592 8.00769 15.4456 8.05149C15.608 8.1345 15.7366 8.35779 15.9908 8.80488L17.2194 10.949L17.2257 10.96C17.5003 11.4398 17.6394 11.683 17.7003 11.9383C17.7676 12.2182 17.7676 12.51 17.7003 12.7899C17.6391 13.0472 17.5011 13.2922 17.2224 13.7792L14.0846 19.3267L14.0765 19.341C13.8002 19.8246 13.6601 20.0698 13.466 20.2541C13.2558 20.4552 13.0005 20.6032 12.7216 20.6858C12.4666 20.7571 12.1817 20.7571 11.6121 20.7571ZM17.7226 20.7571H21.1897C21.7012 20.7571 21.9586 20.7571 22.1118 20.6562C22.1933 20.6034 22.261 20.532 22.3095 20.4478C22.358 20.3637 22.3857 20.2692 22.3906 20.1723C22.3994 19.9974 22.2765 19.7854 22.0358 19.37C22.0275 19.3559 22.0192 19.3415 22.0107 19.3269L20.274 16.3551L20.2542 16.3219C20.0102 15.9094 19.887 15.7008 19.7288 15.6203C19.6429 15.5765 19.5479 15.5537 19.4516 15.5537C19.3552 15.5537 19.2603 15.5765 19.1744 15.6203C19.015 15.7033 18.8865 15.9205 18.6322 16.3584L16.9018 19.3302L16.8958 19.3405C16.6425 19.7778 16.5158 19.9963 16.5249 20.1756C16.5303 20.2725 16.5583 20.3667 16.6067 20.4508C16.6551 20.535 16.7226 20.6065 16.8037 20.6599C16.9537 20.7571 17.2111 20.7571 17.7226 20.7571Z" fill="#E84142"/>
</svg>
