<svg width="31" height="30" viewBox="0 0 31 30" fill="none" xmlns="http://www.w3.org/2000/svg">
    <path d="M29.75 15C29.75 22.8701 23.3701 29.25 15.5 29.25C7.62994 29.25 1.25 22.8701 1.25 15C1.25 7.12994 7.62994 0.75 15.5 0.75C23.3701 0.75 29.75 7.12994 29.75 15Z" fill="#E84142" stroke="#E84142" stroke-width="1.5"/>
    <path fill-rule="evenodd" clip-rule="evenodd" d="M11.9167 20.6981H9.49701C8.98849 20.6981 8.73747 20.6981 8.5839 20.6001C8.50289 20.5474 8.43543 20.4763 8.387 20.3927C8.33857 20.309 8.31053 20.2152 8.30515 20.1186C8.29602 19.938 8.42137 19.7174 8.67272 19.2764L14.6476 8.7458C14.9018 8.29871 15.0304 8.07508 15.1928 7.99241C15.2792 7.94861 15.3747 7.92578 15.4716 7.92578C15.5684 7.92578 15.6639 7.94861 15.7503 7.99241C15.9127 8.07542 16.0413 8.29871 16.2955 8.7458L17.5241 10.8899L17.5304 10.9009C17.805 11.3807 17.9441 11.6239 18.005 11.8793C18.0723 12.1591 18.0723 12.4509 18.005 12.7308C17.9438 12.9881 17.8058 13.2331 17.527 13.7201L14.3893 19.2676L14.3811 19.2819C14.1049 19.7655 13.9648 20.0107 13.7707 20.195C13.5604 20.3961 13.3052 20.5441 13.0263 20.6267C12.7712 20.6981 12.4864 20.6981 11.9167 20.6981ZM18.0273 20.6981H21.4944C22.0059 20.6981 22.2633 20.6981 22.4165 20.5971C22.498 20.5443 22.5657 20.4729 22.6142 20.3887C22.6626 20.3046 22.6904 20.2101 22.6952 20.1132C22.704 19.9383 22.5812 19.7263 22.3405 19.311C22.3322 19.2969 22.3239 19.2824 22.3154 19.2678L20.5787 16.296L20.5589 16.2628C20.3148 15.8503 20.1917 15.6418 20.0334 15.5612C19.9476 15.5175 19.8526 15.4946 19.7563 15.4946C19.6599 15.4946 19.5649 15.5175 19.4791 15.5612C19.3197 15.6443 19.1912 15.8614 18.9369 16.2994L17.2065 19.2711L17.2005 19.2814C16.9471 19.7187 16.8205 19.9372 16.8296 20.1165C16.835 20.2134 16.863 20.3077 16.9114 20.3918C16.9598 20.4759 17.0273 20.5475 17.1083 20.6008C17.2584 20.6981 17.5158 20.6981 18.0273 20.6981Z" fill="white"/>
</svg>
