<svg width="31" height="31" viewBox="0 0 31 31" fill="none" xmlns="http://www.w3.org/2000/svg">
    <path d="M30.3926 15.2273C30.3926 23.2354 23.9007 29.7273 15.8926 29.7273C7.88445 29.7273 1.39258 23.2354 1.39258 15.2273C1.39258 7.21917 7.88445 0.727295 15.8926 0.727295C23.9007 0.727295 30.3926 7.21917 30.3926 15.2273Z" fill="white" stroke="#F2892E"/>
    <path d="M21.4575 13.6619C21.7141 11.9829 20.4089 11.0801 18.6255 10.4777L19.2042 8.2028L17.7919 7.85835L17.228 10.0732C16.8569 9.9819 16.476 9.89699 16.096 9.81208L16.664 7.5828L15.2517 7.23755L14.6731 9.51169C14.3658 9.4428 14.0634 9.37552 13.7708 9.30342L13.7724 9.29621L11.824 8.8196L11.448 10.2983C11.448 10.2983 12.4966 10.5338 12.4746 10.5482C13.0467 10.6884 13.1497 11.0593 13.1325 11.3541L12.4737 13.9454C12.513 13.955 12.5637 13.9695 12.6209 13.9911L12.4713 13.955L11.5478 17.5853C11.4775 17.7552 11.3001 18.0107 10.8996 17.9138C10.9143 17.9338 9.87311 17.663 9.87311 17.663L9.17188 19.2475L11.0108 19.6969C11.3524 19.781 11.6875 19.8691 12.0169 19.9516L11.4325 22.2522L12.844 22.5966L13.4226 20.3217C13.8084 20.4234 14.1827 20.5179 14.5489 20.6077L13.9719 22.873L15.3841 23.2174L15.9685 20.9217C18.3779 21.3686 20.189 21.1884 20.9516 19.0528C21.5662 17.3338 20.9213 16.3413 19.6537 15.6949C20.5772 15.4866 21.2719 14.8915 21.4575 13.6619ZM18.2291 18.098C17.7935 19.8178 14.839 18.8878 13.8811 18.6547L14.6576 15.6068C15.6154 15.8415 18.686 16.3053 18.2291 18.098ZM18.6664 13.637C18.2684 15.2015 15.8099 14.406 15.0131 14.2114L15.716 11.4478C16.5128 11.6425 19.0816 12.0053 18.6664 13.637Z" fill="#F2892E"/>
</svg>
