<svg width="31" height="31" viewBox="0 0 31 31" fill="none" xmlns="http://www.w3.org/2000/svg">
    <rect x="0.695312" y="0.843506" width="29" height="29" rx="4.5" fill="white" stroke="#F2892E"/>
    <path d="M20.9477 13.7781C21.2043 12.0991 19.8991 11.1963 18.1158 10.594L18.6944 8.31901L17.2821 7.97456L16.7182 10.1894C16.3471 10.0981 15.9663 10.0132 15.5862 9.92829L16.1543 7.69901L14.742 7.35376L14.1633 9.6279C13.856 9.55902 13.5536 9.49173 13.261 9.41964L13.2627 9.41243L11.3142 8.93581L10.9383 10.4145C10.9383 10.4145 11.9869 10.65 11.9648 10.6644C12.5369 10.8046 12.6399 11.1755 12.6227 11.4703L11.964 14.0616C12.0032 14.0713 12.0539 14.0857 12.1111 14.1073L11.9615 14.0713L11.038 17.7016C10.9677 17.8714 10.7903 18.1269 10.3899 18.03C10.4046 18.05 9.36335 17.7793 9.36335 17.7793L8.66211 19.3637L10.501 19.8131C10.8427 19.8972 11.1777 19.9853 11.5071 20.0678L10.9227 22.3684L12.3342 22.7128L12.9129 20.4379C13.2986 20.5396 13.6729 20.6342 14.0391 20.7239L13.4621 22.9892L14.8744 23.3337L15.4587 21.0379C17.8681 21.4849 19.6792 21.3046 20.4418 19.1691C21.0564 17.45 20.4115 16.4575 19.1439 15.8111C20.0675 15.6028 20.7622 15.0077 20.9477 13.7781ZM17.7194 18.2142C17.2838 19.934 14.3292 19.004 13.3714 18.7709L14.1478 15.723C15.1057 15.9577 18.1762 16.4215 17.7194 18.2142ZM18.1566 13.7532C17.7586 15.3177 15.3002 14.5222 14.5033 14.3276L15.2062 11.564C16.0031 11.7587 18.5718 12.1215 18.1566 13.7532Z" fill="#F2892E"/>
</svg>
