<svg width="31" height="31" viewBox="0 0 31 31" fill="none" xmlns="http://www.w3.org/2000/svg">
    <path d="M15.5 30.8135C23.7843 30.8135 30.5 24.0977 30.5 15.8135C30.5 7.5292 23.7843 0.813477 15.5 0.813477C7.21573 0.813477 0.5 7.5292 0.5 15.8135C0.5 24.0977 7.21573 30.8135 15.5 30.8135Z" fill="#F3BA2F"/>
    <path d="M18.6069 14.5365L15.4992 11.4288L12.39 14.5381L10.5817 12.7298L15.4992 7.81226L20.4152 12.7282L18.6069 14.5365ZM23.5004 15.8134L21.6921 14.0052L19.8839 15.8134L21.6921 17.6217L23.5004 15.8134ZM18.6069 17.0904L15.4992 20.1981L12.39 17.0888L10.5817 18.8963L15.4992 23.8146L20.4176 18.8963L18.6069 17.0904ZM11.1146 15.8134L9.30631 14.0052L7.49805 15.8134L9.30631 17.6217L11.1146 15.8134ZM13.6654 15.8118H13.6638V15.8134L15.4992 17.6489L17.3355 15.8134L17.3323 15.811L17.0115 15.4894L15.4992 13.978L13.6646 15.8126L13.6654 15.8118Z" fill="white"/>
</svg>
