<svg width="31" height="31" viewBox="0 0 31 31" fill="none" xmlns="http://www.w3.org/2000/svg">
    <rect x="0.695312" y="1.31348" width="29" height="29" rx="4.5" fill="white" stroke="#F3BA2F"/>
    <path d="M18.3022 14.5365L15.1945 11.4288L12.0853 14.5381L10.277 12.7298L15.1945 7.81226L20.1105 12.7282L18.3022 14.5365ZM23.1957 15.8134L21.3875 14.0052L19.5792 15.8134L21.3875 17.6217L23.1957 15.8134ZM18.3022 17.0904L15.1945 20.1981L12.0853 17.0888L10.277 18.8963L15.1945 23.8146L20.1129 18.8963L18.3022 17.0904ZM10.8099 15.8134L9.00163 14.0052L7.19336 15.8134L9.00163 17.6217L10.8099 15.8134ZM13.3607 15.8118H13.3591V15.8134L15.1945 17.6489L17.0308 15.8134L17.0276 15.811L16.7068 15.4894L15.1945 13.978L13.3599 15.8126L13.3607 15.8118Z" fill="#F3BA2F"/>
</svg>
