<svg width="31" height="31" viewBox="0 0 31 31" fill="none" xmlns="http://www.w3.org/2000/svg">
    <path d="M30.3906 15.6973C30.3906 23.7054 23.8988 30.1973 15.8906 30.1973C7.8825 30.1973 1.39062 23.7054 1.39062 15.6973C1.39062 7.68914 7.8825 1.19727 15.8906 1.19727C23.8988 1.19727 30.3906 7.68914 30.3906 15.6973Z" fill="white" stroke="#F3BA2F"/>
    <path d="M18.9975 14.4202L15.8899 11.3126L12.7806 14.4218L10.9723 12.6136L15.8899 7.69604L20.8058 12.612L18.9975 14.4202ZM23.891 15.6972L22.0828 13.889L20.2745 15.6972L22.0828 17.5055L23.891 15.6972ZM18.9975 16.9742L15.8899 20.0819L12.7806 16.9726L10.9723 18.7801L15.8899 23.6984L20.8082 18.7801L18.9975 16.9742ZM11.5052 15.6972L9.69694 13.889L7.88867 15.6972L9.69694 17.5055L11.5052 15.6972ZM14.056 15.6956H14.0544V15.6972L15.8899 17.5327L17.7261 15.6972L17.7229 15.6948L17.4021 15.3732L15.8899 13.8618L14.0552 15.6964L14.056 15.6956Z" fill="#F3BA2F"/>
</svg>
