<svg width="31" height="31" viewBox="0 0 31 31" fill="none" xmlns="http://www.w3.org/2000/svg">
    <path d="M15.5 30.3435C23.7843 30.3435 30.5 23.6278 30.5 15.3435C30.5 7.05923 23.7843 0.343506 15.5 0.343506C7.21573 0.343506 0.5 7.05923 0.5 15.3435C0.5 23.6278 7.21573 30.3435 15.5 30.3435Z" fill="#F2892E"/>
    <path d="M21.0649 13.7781C21.3215 12.0991 20.0163 11.1963 18.233 10.594L18.8116 8.31901L17.3993 7.97456L16.8354 10.1894C16.4643 10.0981 16.0835 10.0132 15.7034 9.92829L16.2714 7.69901L14.8592 7.35376L14.2805 9.6279C13.9732 9.55901 13.6708 9.49173 13.3782 9.41964L13.3799 9.41243L11.4314 8.93581L11.0555 10.4145C11.0555 10.4145 12.1041 10.65 12.082 10.6644C12.6541 10.8046 12.7571 11.1755 12.7399 11.4703L12.0812 14.0616C12.1204 14.0713 12.1711 14.0857 12.2283 14.1073L12.0787 14.0713L11.1552 17.7016C11.0849 17.8714 10.9075 18.1269 10.5071 18.03C10.5218 18.05 9.48054 17.7793 9.48054 17.7793L8.7793 19.3637L10.6182 19.8131C10.9598 19.8972 11.2949 19.9853 11.6243 20.0678L11.0399 22.3684L12.4514 22.7128L13.03 20.4379C13.4158 20.5396 13.7901 20.6342 14.1563 20.7239L13.5793 22.9892L14.9916 23.3337L15.5759 21.0379C17.9853 21.4849 19.7964 21.3046 20.559 19.1691C21.1736 17.45 20.5287 16.4575 19.2611 15.8111C20.1847 15.6028 20.8794 15.0077 21.0649 13.7781ZM17.8366 18.2142C17.4009 19.934 14.4464 19.004 13.4886 18.7709L14.265 15.723C15.2229 15.9577 18.2934 16.4215 17.8366 18.2142ZM18.2738 13.7532C17.8758 15.3177 15.4174 14.5222 14.6205 14.3276L15.3234 11.564C16.1202 11.7587 18.689 12.1215 18.2738 13.7532Z" fill="white"/>
</svg>
