<svg width="31" height="31" viewBox="0 0 31 31" fill="none" xmlns="http://www.w3.org/2000/svg">
    <path d="M30.3906 15.3301C30.3906 23.3382 23.8988 29.8301 15.8906 29.8301C7.8825 29.8301 1.39062 23.3382 1.39062 15.3301C1.39062 7.32195 7.8825 0.830078 15.8906 0.830078C23.8988 0.830078 30.3906 7.32195 30.3906 15.3301Z" fill="white" stroke="#F5AC37"/>
    <path d="M16.0804 16.1766H20.6373C20.7339 16.1766 20.7805 16.1766 20.7872 16.05C20.8238 15.587 20.8238 15.1207 20.7872 14.656C20.7872 14.5661 20.7422 14.5294 20.6439 14.5294H11.5769C11.4653 14.5294 11.4337 14.5661 11.4337 14.6727V16.0067C11.4337 16.1211 11.4937 16.1783 11.6136 16.1783H16.0804V16.1766ZM20.2775 12.9688C20.2908 12.9355 20.2908 12.8972 20.2775 12.8639C20.2009 12.699 20.111 12.5408 20.006 12.3909C19.8478 12.1378 19.6629 11.9029 19.4514 11.6931C19.3515 11.5665 19.2366 11.4516 19.1067 11.355C18.4588 10.8037 17.6877 10.4123 16.8582 10.2158C16.4402 10.1225 16.0122 10.0775 15.5841 10.0809H11.5603C11.4487 10.0809 11.4337 10.1258 11.4337 10.2241V12.8839C11.4337 12.9955 11.4337 13.0271 11.5769 13.0271H20.2259C20.2259 13.0271 20.3008 13.0122 20.3158 12.9672H20.2792L20.2775 12.9688ZM20.2775 17.7355C20.1509 17.7222 20.021 17.7222 19.8944 17.7355H11.5836C11.472 17.7355 11.4337 17.7355 11.4337 17.8854V20.4869C11.4337 20.6068 11.4337 20.6368 11.5836 20.6368H15.4209C15.6041 20.6501 15.7873 20.6368 15.9672 20.6002C16.5235 20.5602 17.0714 20.4386 17.5944 20.2404C17.7843 20.1738 17.9675 20.0889 18.1407 19.9856H18.1923C19.0917 19.5176 19.8228 18.7831 20.2842 17.8804C20.2842 17.8804 20.3358 17.7672 20.2775 17.7372V17.7355ZM9.92642 17.8404C9.92642 17.7422 9.92642 17.7288 9.80651 17.7288H8.17931C8.08938 17.7288 8.05273 17.7288 8.05273 17.6089V16.1849H9.79152C9.88812 16.1849 9.92642 16.1849 9.92642 16.0584V14.6493C9.92642 14.5594 9.92642 14.5377 9.80651 14.5377H8.17931C8.08938 14.5377 8.05273 14.5377 8.05273 14.4178V13.0988C8.05273 13.0155 8.05273 12.9938 8.17265 12.9938H9.78319C9.89478 12.9938 9.92642 12.9938 9.92642 12.8506V8.81176C9.92642 8.69184 9.92642 8.66187 10.0763 8.66187H15.6974C16.1054 8.67852 16.5101 8.72349 16.9115 8.79677C17.7376 8.95 18.5321 9.24479 19.2566 9.66616C19.7379 9.9493 20.1809 10.2924 20.5756 10.6854C20.8721 10.9936 21.1402 11.3267 21.3767 11.6814C21.6132 12.0412 21.8081 12.4259 21.963 12.8289C21.9813 12.9339 22.0829 13.0038 22.1862 12.9872H23.5269C23.6413 12.9872 23.7012 13.0421 23.7068 13.1521V14.3812C23.7068 14.5011 23.6618 14.5311 23.5419 14.5311H22.5076C22.4027 14.5311 22.3727 14.5311 22.381 14.666C22.4227 15.1223 22.4227 15.5804 22.381 16.0367C22.381 16.1633 22.381 16.1799 22.5243 16.1799H23.7084C23.7601 16.2482 23.7084 16.3148 23.7084 16.3831C23.7168 16.4697 23.7168 16.558 23.7084 16.6446V17.5523C23.7084 17.6789 23.6718 17.7172 23.5585 17.7172H22.1412C22.0429 17.6989 21.9463 17.7622 21.923 17.8604C21.5849 18.7381 21.0453 19.5243 20.3491 20.1538C20.0943 20.3837 19.8262 20.5985 19.548 20.7984C19.2482 20.9716 18.9568 21.1515 18.6486 21.293C18.0824 21.5478 17.4895 21.736 16.8799 21.8543C16.302 21.9576 15.714 22.0042 15.1261 21.9975H9.92476V21.9892H9.92642V17.8404Z" fill="#F5AC37"/>
</svg>
