<svg width="31" height="31" viewBox="0 0 31 31" fill="none" xmlns="http://www.w3.org/2000/svg">
    <path d="M15.5 30.6294C23.7843 30.6294 30.5 23.9137 30.5 15.6294C30.5 7.34512 23.7843 0.629395 15.5 0.629395C7.21573 0.629395 0.5 7.34512 0.5 15.6294C0.5 23.9137 7.21573 30.6294 15.5 30.6294Z" fill="#627EEA"/>
    <path d="M15.4971 6.87378V13.3472L20.9861 15.7919L15.4971 6.87378Z" fill="white" fill-opacity="0.6"/>
    <path d="M15.4971 6.87378L10.0078 15.7916L15.4971 13.3472V6.87378Z" fill="white"/>
    <path d="M15.4971 19.9864V24.3848L20.9898 16.8104L15.4971 19.9864Z" fill="white" fill-opacity="0.6"/>
    <path d="M15.4971 24.3848V19.9864L10.0078 16.8104L15.4971 24.3848Z" fill="white"/>
    <path d="M15.4971 18.9685L20.9861 15.7919L15.4971 13.3472V18.9685Z" fill="white" fill-opacity="0.2"/>
    <path d="M10.0078 15.7916L15.4971 18.9685V13.3472L10.0078 15.7916Z" fill="white" fill-opacity="0.6"/>
</svg>
