<svg width="31" height="31" viewBox="0 0 31 31" fill="none" xmlns="http://www.w3.org/2000/svg">
    <path d="M30.3926 15.5132C30.3926 23.5213 23.9007 30.0132 15.8926 30.0132C7.88445 30.0132 1.39258 23.5213 1.39258 15.5132C1.39258 7.50505 7.88445 1.01318 15.8926 1.01318C23.9007 1.01318 30.3926 7.50505 30.3926 15.5132Z" fill="white" stroke="#627EEA"/>
    <path d="M15.8891 6.75757V13.2306L21.3602 15.6753L15.8891 6.75757Z" fill="#627EEA" fill-opacity="0.602"/>
    <path d="M15.8917 6.75757L10.4199 15.6753L15.8917 13.2306V6.75757Z" fill="#627EEA"/>
    <path d="M15.8891 19.8703V24.2687L21.3638 16.6944L15.8891 19.8703Z" fill="#627EEA" fill-opacity="0.602"/>
    <path d="M15.8917 24.2687V19.8696L10.4199 16.6944L15.8917 24.2687Z" fill="#627EEA"/>
    <path d="M15.8891 18.8507L21.3602 15.674L15.8891 13.2306V18.8507Z" fill="#627EEA" fill-opacity="0.4"/>
    <path d="M10.4199 15.674L15.8917 18.8507V13.2306L10.4199 15.674Z" fill="#627EEA" fill-opacity="0.602"/>
</svg>
