<svg width="31" height="31" viewBox="0 0 31 31" fill="none" xmlns="http://www.w3.org/2000/svg">
    <path d="M29.75 15.3074C29.75 23.1774 23.3701 29.5574 15.5 29.5574C7.62994 29.5574 1.25 23.1774 1.25 15.3074C1.25 7.43731 7.62994 1.05737 15.5 1.05737C23.3701 1.05737 29.75 7.43731 29.75 15.3074Z" fill="#8247E5" stroke="#8247E5" stroke-width="1.5"/>
    <path d="M19.5677 12.5738C19.4152 12.4916 19.245 12.4486 19.0722 12.4486C18.8993 12.4486 18.7291 12.4916 18.5766 12.5738L16.264 13.9509L14.6948 14.8272L12.4235 16.2043C12.271 16.2865 12.1008 16.3295 11.928 16.3295C11.7552 16.3295 11.585 16.2865 11.4324 16.2043L9.65673 15.1193C9.50589 15.0294 9.38085 14.9012 9.29395 14.7476C9.20705 14.5939 9.16129 14.42 9.16119 14.243V12.1565C9.1625 11.9798 9.20877 11.8063 9.29555 11.6529C9.38233 11.4994 9.50671 11.3711 9.65673 11.2802L11.4324 10.2369C11.585 10.1547 11.7552 10.1117 11.928 10.1117C12.1008 10.1117 12.271 10.1547 12.4235 10.2369L14.1993 11.3219C14.3501 11.4119 14.4752 11.54 14.5621 11.6937C14.649 11.8473 14.6947 12.0212 14.6948 12.1982V13.5753L16.264 12.6573V11.2384C16.2627 11.0617 16.2165 10.8883 16.1297 10.7348C16.0429 10.5813 15.9185 10.453 15.7685 10.3621L12.4648 8.40082C12.3123 8.31863 12.1421 8.27563 11.9693 8.27563C11.7964 8.27563 11.6263 8.31863 11.4737 8.40082L8.0875 10.4039C7.93579 10.482 7.80889 10.6018 7.72127 10.7493C7.63364 10.8969 7.58884 11.0664 7.59195 11.2384V15.161C7.59326 15.3378 7.63953 15.5112 7.72631 15.6647C7.81309 15.8182 7.93747 15.9465 8.0875 16.0374L11.4324 17.9987C11.585 18.0809 11.7552 18.1239 11.928 18.1239C12.1008 18.1239 12.271 18.0809 12.4235 17.9987L14.6948 16.6633L16.264 15.7453L18.5353 14.4099C18.6878 14.3277 18.858 14.2847 19.0309 14.2847C19.2037 14.2847 19.3739 14.3277 19.5264 14.4099L21.3021 15.4531C21.453 15.5431 21.578 15.6712 21.6649 15.8249C21.7518 15.9786 21.7976 16.1525 21.7977 16.3295V18.416C21.7964 18.5927 21.7501 18.7661 21.6633 18.9196C21.5765 19.0731 21.4521 19.2014 21.3021 19.2923L19.5677 20.3355C19.4152 20.4177 19.245 20.4607 19.0722 20.4607C18.8993 20.4607 18.7291 20.4177 18.5766 20.3355L16.8009 19.2923C16.65 19.2023 16.525 19.0742 16.4381 18.9205C16.3512 18.7669 16.3054 18.593 16.3053 18.416V17.0806L14.7361 17.9987V19.3757C14.7374 19.5525 14.7837 19.7259 14.8705 19.8794C14.9573 20.0329 15.0816 20.1612 15.2317 20.2521L18.5766 22.2134C18.7291 22.2956 18.8993 22.3386 19.0722 22.3386C19.245 22.3386 19.4152 22.2956 19.5677 22.2134L22.9127 20.2521C23.0635 20.1621 23.1885 20.034 23.2754 19.8803C23.3623 19.7266 23.4081 19.5527 23.4082 19.3757V15.4114C23.4069 15.2347 23.3606 15.0612 23.2738 14.9078C23.1871 14.7543 23.0627 14.626 22.9127 14.5351L19.5677 12.5738Z" fill="white"/>
</svg>
