<svg width="31" height="31" viewBox="0 0 31 31" fill="none" xmlns="http://www.w3.org/2000/svg">
    <path d="M15.5 30.5693C23.7843 30.5693 30.5 23.8536 30.5 15.5693C30.5 7.28506 23.7843 0.569336 15.5 0.569336C7.21573 0.569336 0.5 7.28506 0.5 15.5693C0.5 23.8536 7.21573 30.5693 15.5 30.5693Z" fill="#E2E7EC"/>
    <path d="M19.1723 10.04L16.6306 13.8582C16.5938 13.9136 16.5783 13.9807 16.5871 14.0469C16.5958 14.1131 16.6281 14.1738 16.678 14.2176C16.7278 14.2613 16.7918 14.2851 16.8578 14.2844C16.9237 14.2837 16.9872 14.2587 17.0362 14.214L19.5373 12.0107C19.5518 11.9974 19.57 11.9888 19.5894 11.9861C19.6088 11.9834 19.6286 11.9867 19.6461 11.9956C19.6637 12.0045 19.6781 12.0185 19.6877 12.0359C19.6972 12.0532 19.7013 12.073 19.6995 12.0928V18.9763C19.6993 18.9969 19.6929 19.0168 19.6813 19.0336C19.6698 19.0505 19.6535 19.0634 19.6345 19.0708C19.6156 19.0782 19.595 19.0796 19.5752 19.075C19.5555 19.0703 19.5376 19.0598 19.5238 19.0448L11.9528 9.87582C11.8336 9.72798 11.6829 9.60933 11.512 9.52876C11.3411 9.44818 11.1544 9.40777 10.9659 9.41053H10.6955C10.3534 9.41342 10.0263 9.5532 9.7857 9.79934C9.54506 10.0455 9.41041 10.378 9.41114 10.7243V20.4133C9.4109 20.6999 9.50331 20.9788 9.67427 21.2074C9.84523 21.436 10.0854 21.6016 10.358 21.6792C10.6307 21.7567 10.9209 21.7418 11.1845 21.6368C11.448 21.5318 11.6703 21.3424 11.8176 21.0975L14.3593 17.2794C14.3961 17.224 14.4116 17.1568 14.4028 17.0906C14.3941 17.0244 14.3618 16.9637 14.3119 16.92C14.262 16.8763 14.1981 16.8525 14.1321 16.8531C14.0662 16.8538 14.0027 16.8789 13.9537 16.9236L11.4526 19.1132C11.4381 19.1265 11.4199 19.1351 11.4005 19.1377C11.3811 19.1404 11.3613 19.1371 11.3438 19.1282C11.3262 19.1194 11.3117 19.1054 11.3022 19.088C11.2927 19.0707 11.2886 19.0508 11.2904 19.0311V12.1612C11.2906 12.1407 11.297 12.1207 11.3085 12.1039C11.3201 12.0871 11.3364 12.0741 11.3553 12.0668C11.3743 12.0594 11.3949 12.0579 11.4147 12.0626C11.4344 12.0672 11.4523 12.0777 11.4661 12.0928L19.0371 21.2617C19.1573 21.4084 19.3081 21.5263 19.4788 21.6068C19.6495 21.6872 19.8357 21.7283 20.024 21.727H20.2944C20.6386 21.727 20.9687 21.5886 21.2121 21.3422C21.4555 21.0958 21.5923 20.7617 21.5923 20.4133V10.7243C21.59 10.4372 21.4956 10.1586 21.3232 9.93057C21.1508 9.70255 20.9099 9.53746 20.6367 9.46021C20.3635 9.38297 20.0729 9.39776 19.8087 9.50235C19.5446 9.60695 19.3212 9.79567 19.1723 10.04Z" fill="black"/>
</svg>
