<svg width="31" height="31" viewBox="0 0 31 31" fill="none" xmlns="http://www.w3.org/2000/svg">
    <path d="M30.3906 15.5693C30.3906 23.5775 23.8988 30.0693 15.8906 30.0693C7.8825 30.0693 1.39062 23.5775 1.39062 15.5693C1.39062 7.56121 7.8825 1.06934 15.8906 1.06934C23.8988 1.06934 30.3906 7.56121 30.3906 15.5693Z" fill="white" stroke="black"/>
    <path d="M19.5629 10.04L17.0212 13.8582C16.9844 13.9136 16.969 13.9807 16.9777 14.0469C16.9864 14.1131 17.0187 14.1738 17.0686 14.2176C17.1185 14.2613 17.1824 14.2851 17.2484 14.2844C17.3144 14.2837 17.3778 14.2587 17.4268 14.214L19.9279 12.0107C19.9425 11.9974 19.9606 11.9888 19.98 11.9861C19.9995 11.9834 20.0192 11.9867 20.0368 11.9956C20.0543 12.0045 20.0688 12.0185 20.0783 12.0359C20.0878 12.0532 20.092 12.073 20.0902 12.0928V18.9763C20.0899 18.9969 20.0836 19.0168 20.072 19.0336C20.0604 19.0505 20.0441 19.0634 20.0252 19.0708C20.0062 19.0782 19.9856 19.0796 19.9658 19.075C19.9461 19.0703 19.9282 19.0598 19.9144 19.0448L12.3434 9.87582C12.2242 9.72798 12.0735 9.60933 11.9026 9.52876C11.7317 9.44818 11.545 9.40777 11.3565 9.41053H11.0861C10.744 9.41342 10.417 9.5532 10.1763 9.79934C9.93569 10.0455 9.80103 10.378 9.80176 10.7243V20.4133C9.80152 20.6999 9.89394 20.9788 10.0649 21.2074C10.2359 21.436 10.476 21.6016 10.7487 21.6792C11.0213 21.7567 11.3115 21.7418 11.5751 21.6368C11.8386 21.5318 12.061 21.3424 12.2082 21.0975L14.7499 17.2794C14.7867 17.224 14.8022 17.1568 14.7935 17.0906C14.7847 17.0244 14.7524 16.9637 14.7025 16.92C14.6527 16.8763 14.5887 16.8525 14.5228 16.8531C14.4568 16.8538 14.3933 16.8789 14.3443 16.9236L11.8432 19.1132C11.8287 19.1265 11.8105 19.1351 11.7911 19.1377C11.7717 19.1404 11.7519 19.1371 11.7344 19.1282C11.7168 19.1194 11.7024 19.1054 11.6928 19.088C11.6833 19.0707 11.6792 19.0508 11.681 19.0311V12.1612C11.6812 12.1407 11.6876 12.1207 11.6992 12.1039C11.7107 12.0871 11.7271 12.0741 11.746 12.0668C11.7649 12.0594 11.7856 12.0579 11.8053 12.0626C11.825 12.0672 11.843 12.0777 11.8567 12.0928L19.4277 21.2617C19.5479 21.4084 19.6988 21.5263 19.8694 21.6068C20.0401 21.6872 20.2263 21.7283 20.4146 21.727H20.685C21.0292 21.727 21.3594 21.5886 21.6028 21.3422C21.8462 21.0958 21.9829 20.7617 21.9829 20.4133V10.7243C21.9807 10.4372 21.8862 10.1586 21.7138 9.93057C21.5415 9.70255 21.3005 9.53746 21.0273 9.46021C20.7541 9.38297 20.4635 9.39776 20.1994 9.50235C19.9352 9.60695 19.7118 9.79567 19.5629 10.04Z" fill="black"/>
</svg>
