<svg width="31" height="31" viewBox="0 0 31 31" fill="none" xmlns="http://www.w3.org/2000/svg">
    <rect x="0.693359" y="1.12842" width="29" height="29" rx="4.5" fill="white" stroke="black"/>
    <path d="M18.8646 10.0992L16.323 13.9174C16.2862 13.9728 16.2707 14.0399 16.2794 14.1061C16.2882 14.1723 16.3205 14.233 16.3704 14.2768C16.4202 14.3205 16.4842 14.3443 16.5501 14.3436C16.6161 14.343 16.6796 14.3179 16.7286 14.2732L19.2297 12.0699C19.2442 12.0566 19.2624 12.048 19.2818 12.0453C19.3012 12.0426 19.321 12.0459 19.3385 12.0548C19.356 12.0637 19.3705 12.0777 19.38 12.0951C19.3896 12.1124 19.3937 12.1322 19.3919 12.152V19.0355C19.3916 19.0561 19.3853 19.076 19.3737 19.0929C19.3621 19.1097 19.3458 19.1226 19.3269 19.13C19.308 19.1374 19.2873 19.1388 19.2676 19.1342C19.2479 19.1295 19.2299 19.119 19.2162 19.104L11.6452 9.93503C11.526 9.78718 11.3753 9.66854 11.2044 9.58796C11.0335 9.50739 10.8468 9.46697 10.6583 9.46974H10.3879C10.0458 9.47263 9.71872 9.6124 9.47808 9.85855C9.23745 10.1047 9.10279 10.4372 9.10352 10.7835V20.4725C9.10328 20.7591 9.19569 21.038 9.36665 21.2666C9.53762 21.4952 9.77774 21.6608 10.0504 21.7384C10.3231 21.8159 10.6133 21.801 10.8768 21.696C11.1404 21.591 11.3627 21.4016 11.51 21.1567L14.0517 17.3386C14.0885 17.2832 14.1039 17.216 14.0952 17.1498C14.0865 17.0836 14.0541 17.0229 14.0043 16.9792C13.9544 16.9355 13.8905 16.9117 13.8245 16.9123C13.7585 16.913 13.6951 16.9381 13.6461 16.9828L11.145 19.1724C11.1304 19.1857 11.1123 19.1943 11.0929 19.1969C11.0734 19.1996 11.0537 19.1963 11.0361 19.1875C11.0186 19.1786 11.0041 19.1646 10.9946 19.1472C10.9851 19.1299 10.9809 19.11 10.9827 19.0903V12.2204C10.983 12.1999 10.9893 12.1799 11.0009 12.1631C11.0125 12.1463 11.0288 12.1333 11.0477 12.126C11.0666 12.1186 11.0873 12.1171 11.1071 12.1218C11.1268 12.1264 11.1447 12.1369 11.1585 12.152L18.7295 21.3209C18.8496 21.4676 19.0005 21.5855 19.1712 21.666C19.3419 21.7464 19.5281 21.7875 19.7164 21.7862H19.9868C20.331 21.7862 20.6611 21.6478 20.9045 21.4014C21.1479 21.1551 21.2847 20.8209 21.2847 20.4725V10.7835C21.2824 10.4964 21.188 10.2178 21.0156 9.98977C20.8432 9.76175 20.6023 9.59666 20.3291 9.51942C20.0559 9.44217 19.7653 9.45696 19.5011 9.56156C19.2369 9.66615 19.0136 9.85487 18.8646 10.0992Z" fill="black"/>
</svg>
