<svg width="30" height="30" viewBox="0 0 30 30" fill="none" xmlns="http://www.w3.org/2000/svg">
    <path d="M30 15C30 23.2843 23.2843 30 15 30C6.71573 30 0 23.2843 0 15C0 6.71573 6.71573 0 15 0C23.2843 0 30 6.71573 30 15Z" fill="url(#paint0_linear_1097_1499)"/>
    <path d="M5 9.21525L14.9759 4.46484L24.9517 9.21525V21.2496L14.9759 26L5 21.2496V9.21525Z" fill="white"/>
    <path d="M11.9159 7.63149V22.813L10.4031 22.1178L8.43228 15.5092V21.1899L6.6 20.3017V10.1527L8.29372 9.35351L10.0864 15.9645V8.5024L11.9159 7.63149Z" fill="url(#paint1_linear_1097_1499)"/>
    <path d="M15.0015 8.14612V13.2884L17.8044 14.6541V16.3999L15.0015 15.1332V24.3049L13.1827 23.4464V7.0278L15.0015 6.15936L17.8044 7.49294V9.48217L15.0015 8.14612Z" fill="url(#paint2_linear_1097_1499)"/>
    <path d="M20.2885 10.6698L19.1207 10.0958V8.12138L23.4073 10.1527V12.1048L22.1095 11.4714V20.9326L20.2885 21.7837V10.6698Z" fill="url(#paint3_linear_1097_1499)"/>
    <defs>
        <linearGradient id="paint0_linear_1097_1499" x1="15" y1="0" x2="15" y2="30" gradientUnits="userSpaceOnUse">
            <stop stop-color="#8C68F0"/>
            <stop offset="1" stop-color="#51AAD9"/>
        </linearGradient>
        <linearGradient id="paint1_linear_1097_1499" x1="15.0037" y1="6.15936" x2="15.0037" y2="24.3049" gradientUnits="userSpaceOnUse">
            <stop stop-color="#8B6AF0"/>
            <stop offset="1" stop-color="#54A8DB"/>
        </linearGradient>
        <linearGradient id="paint2_linear_1097_1499" x1="15.0037" y1="6.15936" x2="15.0037" y2="24.3049" gradientUnits="userSpaceOnUse">
            <stop stop-color="#8B6AF0"/>
            <stop offset="1" stop-color="#54A8DB"/>
        </linearGradient>
        <linearGradient id="paint3_linear_1097_1499" x1="15.0037" y1="6.15936" x2="15.0037" y2="24.3049" gradientUnits="userSpaceOnUse">
            <stop stop-color="#8B6AF0"/>
            <stop offset="1" stop-color="#54A8DB"/>
        </linearGradient>
    </defs>
</svg>
