<svg width="31" height="31" viewBox="0 0 31 31" fill="none" xmlns="http://www.w3.org/2000/svg">
    <path d="M15.5 30.8083C23.7843 30.8083 30.5 24.0926 30.5 15.8083C30.5 7.52408 23.7843 0.80835 15.5 0.80835C7.21573 0.80835 0.5 7.52408 0.5 15.8083C0.5 24.0926 7.21573 30.8083 15.5 30.8083Z" fill="#FF0420"/>
    <path d="M9.4207 20.7088C8.35171 20.7088 7.47549 20.4571 6.79205 19.9537C6.11818 19.4417 5.78125 18.7138 5.78125 17.7698C5.78525 17.5258 5.80783 17.2825 5.84878 17.042C5.96564 16.3945 6.13183 15.6172 6.34735 14.7101C6.95896 12.2388 8.5361 11.0031 11.0788 11.0031C11.7164 10.9924 12.3495 11.1116 12.9394 11.3537C13.4629 11.5589 13.9131 11.9156 14.2326 12.3781C14.5472 12.8274 14.7046 13.3664 14.7046 13.9953C14.7001 14.2349 14.6775 14.4739 14.637 14.7101C14.502 15.5099 14.3401 16.2872 14.1514 17.042C13.8372 18.2734 13.2936 19.1944 12.5206 19.805C11.7481 20.408 10.7148 20.7093 9.4207 20.7088ZM9.60964 18.7691C10.0766 18.7817 10.5322 18.6233 10.8906 18.3237C11.2498 18.0277 11.5057 17.5727 11.6585 16.9587C11.8654 16.1138 12.0228 15.377 12.1305 14.7482C12.1666 14.557 12.1847 14.3629 12.1844 14.1684C12.1844 13.3509 11.7574 12.9421 10.9035 12.9421C10.4331 12.9309 9.97434 13.0887 9.61035 13.3868C9.25977 13.6832 9.00809 14.137 8.85531 14.7482C8.69391 15.3502 8.53227 16.087 8.37038 16.9587C8.33382 17.1452 8.31577 17.3348 8.3165 17.5248C8.31603 18.3534 8.74707 18.7676 9.60964 18.7676V18.7691Z" fill="white"/>
    <path d="M15.322 20.5743C15.2792 20.5767 15.2364 20.5695 15.1967 20.5532C15.1571 20.537 15.1216 20.512 15.0928 20.4802C15.048 20.4077 15.0336 20.3205 15.0526 20.2374L16.9125 11.4729C16.9293 11.3761 16.9825 11.2894 17.0612 11.2308C17.1331 11.1707 17.2234 11.1373 17.317 11.1359H20.904C21.9016 11.1359 22.7014 11.3426 23.3035 11.7559C23.9146 12.1697 24.2201 12.7684 24.2201 13.5519C24.219 13.7879 24.192 14.023 24.1397 14.2531C23.9151 15.2862 23.4613 16.0501 22.7783 16.5448C22.1035 17.0386 21.1772 17.2855 19.9995 17.2855H18.1798L17.5598 20.2374C17.543 20.3342 17.4901 20.421 17.4118 20.4802C17.3394 20.5397 17.249 20.5729 17.1553 20.5743H15.322ZM20.0943 15.4248C20.4473 15.4325 20.7929 15.3237 21.0778 15.1152C21.3712 14.8997 21.5732 14.5821 21.6439 14.2251C21.6694 14.0917 21.6831 13.9564 21.6849 13.8206C21.6849 13.5598 21.608 13.3623 21.4557 13.2279C21.3034 13.0936 21.0419 13.0124 20.6741 13.0124H19.0562L18.544 15.4255L20.0943 15.4248Z" fill="white"/>
</svg>
