<svg width="31" height="31" viewBox="0 0 31 31" fill="none" xmlns="http://www.w3.org/2000/svg">
    <rect x="0.695312" y="1.36743" width="29" height="29" rx="4.5" fill="white" stroke="#FF0420"/>
    <path d="M9.61601 20.7679C8.54702 20.7679 7.6708 20.5162 6.98736 20.0128C6.31349 19.5008 5.97656 18.7728 5.97656 17.8289C5.98056 17.5849 6.00314 17.3416 6.04409 17.1011C6.16095 16.4536 6.32715 15.6763 6.54267 14.7692C7.15427 12.2978 8.73141 11.0622 11.2741 11.0622C11.9117 11.0514 12.5448 11.1707 13.1348 11.4128C13.6582 11.6179 14.1084 11.9746 14.4279 12.4372C14.7426 12.8865 14.8999 13.4255 14.8999 14.0544C14.8954 14.294 14.8728 14.5329 14.8324 14.7692C14.6973 15.569 14.5354 16.3463 14.3467 17.1011C14.0325 18.3325 13.4889 19.2535 12.7159 19.8641C11.9434 20.4671 10.9101 20.7683 9.61601 20.7679ZM9.80495 18.8282C10.2719 18.8408 10.7275 18.6824 11.0859 18.3827C11.4451 18.0868 11.7011 17.6318 11.8538 17.0178C12.0607 16.1729 12.2181 15.4361 12.3258 14.8072C12.362 14.6161 12.38 14.422 12.3797 14.2275C12.3797 13.4099 11.9527 13.0012 11.0988 13.0012C10.6284 12.99 10.1697 13.1477 9.80567 13.4459C9.45509 13.7423 9.2034 14.1961 9.05062 14.8072C8.88922 15.4093 8.72758 16.1461 8.5657 17.0178C8.52913 17.2042 8.51108 17.3939 8.51182 17.5839C8.51134 18.4124 8.94238 18.8267 9.80495 18.8267V18.8282Z" fill="#FF0420"/>
    <path d="M15.5173 20.6334C15.4745 20.6358 15.4317 20.6286 15.392 20.6123C15.3524 20.596 15.3169 20.5711 15.2881 20.5393C15.2433 20.4668 15.2289 20.3796 15.2479 20.2965L17.1078 11.5319C17.1246 11.4352 17.1778 11.3485 17.2565 11.2898C17.3284 11.2298 17.4187 11.1963 17.5123 11.195H21.0993C22.0969 11.195 22.8967 11.4017 23.4988 11.815C24.1099 12.2288 24.4155 12.8275 24.4155 13.611C24.4143 13.847 24.3873 14.0821 24.335 14.3122C24.1104 15.3452 23.6566 16.1091 22.9736 16.6039C22.2988 17.0977 21.3725 17.3446 20.1948 17.3446H18.3751L17.7551 20.2965C17.7384 20.3933 17.6855 20.4801 17.6071 20.5393C17.5347 20.5988 17.4443 20.6319 17.3506 20.6334H15.5173ZM20.2896 15.4839C20.6426 15.4916 20.9882 15.3827 21.2731 15.1743C21.5666 14.9588 21.7686 14.6412 21.8392 14.2842C21.8647 14.1508 21.8784 14.0154 21.8802 13.8797C21.8802 13.6189 21.8033 13.4213 21.651 13.287C21.4987 13.1527 21.2372 13.0715 20.8694 13.0715H19.2515L18.7393 15.4846L20.2896 15.4839Z" fill="#FF0420"/>
</svg>
