<svg width="31" height="31" viewBox="0 0 31 31" fill="none" xmlns="http://www.w3.org/2000/svg">
    <path d="M30.3906 15.8083C30.3906 23.8165 23.8988 30.3083 15.8906 30.3083C7.8825 30.3083 1.39062 23.8165 1.39062 15.8083C1.39062 7.80022 7.8825 1.30835 15.8906 1.30835C23.8988 1.30835 30.3906 7.80022 30.3906 15.8083Z" fill="white" stroke="#FF0420"/>
    <path d="M9.81132 20.7088C8.74233 20.7088 7.86612 20.4571 7.18267 19.9537C6.50881 19.4417 6.17188 18.7138 6.17188 17.7698C6.17588 17.5258 6.19845 17.2825 6.23941 17.042C6.35627 16.3945 6.52246 15.6172 6.73798 14.7101C7.34958 12.2388 8.92672 11.0031 11.4694 11.0031C12.107 10.9924 12.7401 11.1116 13.3301 11.3537C13.8535 11.5589 14.3037 11.9156 14.6232 12.3781C14.9379 12.8274 15.0952 13.3664 15.0952 13.9953C15.0907 14.2349 15.0681 14.4739 15.0277 14.7101C14.8926 15.5099 14.7307 16.2872 14.542 17.042C14.2278 18.2734 13.6842 19.1944 12.9112 19.805C12.1387 20.408 11.1054 20.7093 9.81132 20.7088ZM10.0003 18.7691C10.4673 18.7817 10.9228 18.6233 11.2812 18.3237C11.6404 18.0277 11.8964 17.5727 12.0492 16.9587C12.2561 16.1138 12.4134 15.377 12.5211 14.7482C12.5573 14.557 12.5753 14.3629 12.575 14.1684C12.575 13.3509 12.1481 12.9421 11.2941 12.9421C10.8238 12.9309 10.365 13.0887 10.001 13.3868C9.6504 13.6832 9.39872 14.137 9.24593 14.7482C9.08453 15.3502 8.92289 16.087 8.76101 16.9587C8.72444 17.1452 8.70639 17.3348 8.70713 17.5248C8.70665 18.3534 9.13769 18.7676 10.0003 18.7676V18.7691Z" fill="#FF0420"/>
    <path d="M15.7126 20.5743C15.6698 20.5767 15.627 20.5695 15.5873 20.5532C15.5477 20.537 15.5122 20.512 15.4834 20.4802C15.4387 20.4077 15.4242 20.3205 15.4432 20.2374L17.3031 11.4729C17.3199 11.3761 17.3731 11.2894 17.4518 11.2308C17.5237 11.1707 17.614 11.1373 17.7076 11.1359H21.2946C22.2922 11.1359 23.0921 11.3426 23.6941 11.7559C24.3052 12.1697 24.6108 12.7684 24.6108 13.5519C24.6096 13.7879 24.5826 14.023 24.5303 14.2531C24.3057 15.2862 23.8519 16.0501 23.1689 16.5448C22.4941 17.0386 21.5678 17.2855 20.3901 17.2855H18.5704L17.9504 20.2374C17.9337 20.3342 17.8808 20.421 17.8024 20.4802C17.73 20.5397 17.6396 20.5729 17.546 20.5743H15.7126ZM20.485 15.4248C20.8379 15.4325 21.1836 15.3237 21.4685 15.1152C21.7619 14.8997 21.9639 14.5821 22.0346 14.2251C22.06 14.0917 22.0737 13.9564 22.0755 13.8206C22.0755 13.5598 21.9986 13.3623 21.8463 13.2279C21.694 13.0936 21.4325 13.0124 21.0647 13.0124H19.4469L18.9346 15.4255L20.485 15.4248Z" fill="#FF0420"/>
</svg>
