<svg width="31" height="31" viewBox="0 0 31 31" fill="none" xmlns="http://www.w3.org/2000/svg">
    <rect x="0.695312" y="0.807373" width="29" height="29" rx="4.5" fill="white" stroke="#8247E5"/>
    <path d="M19.263 12.5739C19.1105 12.4917 18.9403 12.4487 18.7675 12.4487C18.5946 12.4487 18.4244 12.4917 18.2719 12.5739L15.9594 13.9509L14.3901 14.8273L12.1189 16.2044C11.9663 16.2865 11.7962 16.3295 11.6233 16.3295C11.4505 16.3295 11.2803 16.2865 11.1278 16.2044L9.35205 15.1194C9.2012 15.0294 9.07616 14.9013 8.98926 14.7476C8.90236 14.594 8.8566 14.42 8.8565 14.2431V12.1566C8.85781 11.9798 8.90408 11.8064 8.99086 11.6529C9.07764 11.4995 9.20202 11.3711 9.35205 11.2802L11.1278 10.237C11.2803 10.1548 11.4505 10.1118 11.6233 10.1118C11.7962 10.1118 11.9663 10.1548 12.1189 10.237L13.8946 11.322C14.0454 11.4119 14.1705 11.54 14.2574 11.6937C14.3443 11.8474 14.39 12.0213 14.3901 12.1983V13.5754L15.9594 12.6573V11.2385C15.958 11.0618 15.9118 10.8883 15.825 10.7349C15.7382 10.5814 15.6138 10.4531 15.4638 10.3622L12.1602 8.40089C12.0076 8.3187 11.8375 8.2757 11.6646 8.2757C11.4918 8.2757 11.3216 8.3187 11.1691 8.40089L7.78281 10.4039C7.6311 10.4821 7.5042 10.6018 7.41658 10.7494C7.32896 10.897 7.28415 11.0664 7.28726 11.2385V15.1611C7.28857 15.3379 7.33484 15.5113 7.42163 15.6648C7.50841 15.8182 7.63278 15.9466 7.78281 16.0374L11.1278 17.9987C11.2803 18.0809 11.4505 18.1239 11.6233 18.1239C11.7962 18.1239 11.9663 18.0809 12.1189 17.9987L14.3901 16.6634L15.9594 15.7453L18.2306 14.41C18.3831 14.3278 18.5533 14.2848 18.7262 14.2848C18.899 14.2848 19.0692 14.3278 19.2217 14.41L20.9974 15.4532C21.1483 15.5432 21.2733 15.6713 21.3602 15.825C21.4471 15.9786 21.4929 16.1525 21.493 16.3295V18.416C21.4917 18.5928 21.4454 18.7662 21.3586 18.9197C21.2718 19.0731 21.1475 19.2015 20.9974 19.2924L19.263 20.3356C19.1105 20.4178 18.9403 20.4608 18.7675 20.4608C18.5946 20.4608 18.4244 20.4178 18.2719 20.3356L16.4962 19.2924C16.3454 19.2024 16.2203 19.0743 16.1334 18.9206C16.0465 18.7669 16.0008 18.593 16.0007 18.416V17.0807L14.4314 17.9987V19.3758C14.4327 19.5526 14.479 19.726 14.5658 19.8795C14.6526 20.0329 14.7769 20.1613 14.927 20.2521L18.2719 22.2134C18.4244 22.2956 18.5946 22.3386 18.7675 22.3386C18.9403 22.3386 19.1105 22.2956 19.263 22.2134L22.608 20.2521C22.7588 20.1622 22.8839 20.0341 22.9708 19.8804C23.0577 19.7267 23.1034 19.5528 23.1035 19.3758V15.4115C23.1022 15.2347 23.0559 15.0613 22.9692 14.9078C22.8824 14.7544 22.758 14.626 22.608 14.5352L19.263 12.5739Z" fill="#8247E5"/>
</svg>
