<svg width="31" height="31" viewBox="0 0 31 31" fill="none" xmlns="http://www.w3.org/2000/svg">
    <path d="M30.3906 15.1912C30.3906 23.1993 23.8988 29.6912 15.8906 29.6912C7.8825 29.6912 1.39062 23.1993 1.39062 15.1912C1.39062 7.18303 7.8825 0.691162 15.8906 0.691162C23.8988 0.691162 30.3906 7.18303 30.3906 15.1912Z" fill="white" stroke="#8247E5"/>
    <path d="M19.9583 12.4576C19.8058 12.3754 19.6356 12.3324 19.4628 12.3324C19.2899 12.3324 19.1197 12.3754 18.9672 12.4576L16.6547 13.8347L15.0854 14.711L12.8142 16.0881C12.6617 16.1703 12.4915 16.2133 12.3186 16.2133C12.1458 16.2133 11.9756 16.1703 11.8231 16.0881L10.0474 15.0031C9.89651 14.9132 9.77147 14.785 9.68457 14.6314C9.59767 14.4777 9.55191 14.3038 9.55181 14.1268V12.0403C9.55312 11.8635 9.59939 11.6901 9.68617 11.5366C9.77296 11.3832 9.89733 11.2548 10.0474 11.164L11.8231 10.1207C11.9756 10.0385 12.1458 9.99553 12.3186 9.99553C12.4915 9.99553 12.6617 10.0385 12.8142 10.1207L14.5899 11.2057C14.7407 11.2956 14.8658 11.4238 14.9527 11.5774C15.0396 11.7311 15.0853 11.905 15.0854 12.082V13.4591L16.6547 12.541V11.1222C16.6534 10.9455 16.6071 10.772 16.5203 10.6186C16.4335 10.4651 16.3091 10.3368 16.1591 10.2459L12.8555 8.28461C12.703 8.20242 12.5328 8.15942 12.3599 8.15942C12.1871 8.15942 12.0169 8.20242 11.8644 8.28461L8.47812 10.2876C8.32641 10.3658 8.19951 10.4855 8.11189 10.6331C8.02427 10.7807 7.97946 10.9502 7.98257 11.1222V15.0448C7.98389 15.2216 8.03016 15.395 8.11694 15.5485C8.20372 15.7019 8.3281 15.8303 8.47812 15.9212L11.8231 17.8825C11.9756 17.9646 12.1458 18.0076 12.3186 18.0076C12.4915 18.0076 12.6617 17.9646 12.8142 17.8825L15.0854 16.5471L16.6547 15.629L18.9259 14.2937C19.0784 14.2115 19.2486 14.1685 19.4215 14.1685C19.5943 14.1685 19.7645 14.2115 19.917 14.2937L21.6927 15.3369C21.8436 15.4269 21.9686 15.555 22.0555 15.7087C22.1424 15.8624 22.1882 16.0363 22.1883 16.2133V18.2997C22.187 18.4765 22.1407 18.6499 22.0539 18.8034C21.9672 18.9569 21.8428 19.0852 21.6927 19.1761L19.9583 20.2193C19.8058 20.3015 19.6356 20.3445 19.4628 20.3445C19.2899 20.3445 19.1197 20.3015 18.9672 20.2193L17.1915 19.1761C17.0407 19.0861 16.9156 18.958 16.8287 18.8043C16.7418 18.6507 16.6961 18.4767 16.696 18.2997V16.9644L15.1267 17.8825V19.2595C15.128 19.4363 15.1743 19.6097 15.2611 19.7632C15.3479 19.9166 15.4723 20.045 15.6223 20.1359L18.9672 22.0972C19.1197 22.1793 19.2899 22.2223 19.4628 22.2223C19.6356 22.2223 19.8058 22.1793 19.9583 22.0972L23.3033 20.1359C23.4541 20.0459 23.5792 19.9178 23.6661 19.7641C23.753 19.6104 23.7987 19.4365 23.7988 19.2595V15.2952C23.7975 15.1185 23.7512 14.945 23.6645 14.7916C23.5777 14.6381 23.4533 14.5098 23.3033 14.4189L19.9583 12.4576Z" fill="#8247E5"/>
</svg>
