<svg width="31" height="31" viewBox="0 0 31 31" fill="none" xmlns="http://www.w3.org/2000/svg">
    <path d="M30 15.5442C30 23.5523 23.5081 30.0442 15.5 30.0442C7.49187 30.0442 1 23.5523 1 15.5442C1 7.53606 7.49187 1.04419 15.5 1.04419C23.5081 1.04419 30 7.53606 30 15.5442Z" fill="white" stroke="black"/>
    <path d="M19.2568 16.4851L21.9588 14.954C21.9588 14.954 21.0243 14.3235 20.1012 14.8527C19.178 15.3818 19.2568 16.4851 19.2568 16.4851Z" fill="#006E3C"/>
    <path d="M14.6733 13.6371V7.55752C14.6733 7.55752 12.7031 8.537 12.7031 10.6198C12.7031 12.7026 14.6733 13.6371 14.6733 13.6371Z" fill="#006E3C"/>
    <path d="M14.6733 7.55752C14.6733 7.55752 16.6431 8.537 16.6431 10.6198C16.6431 12.7026 14.6733 13.6371 14.6733 13.6371V7.55752Z" fill="#00B43C"/>
    <path d="M21.961 14.953C21.961 14.953 22.0173 16.0789 21.0941 16.5968C20.1709 17.1259 19.2589 16.4842 19.2589 16.4842L21.961 14.953Z" fill="#00B43C"/>
    <path d="M22.0925 14.7054C22.0475 14.6829 20.9104 14.075 19.9422 14.6379C19.1653 15.0882 19.019 15.9776 18.9852 16.3492L18.6249 16.5518C18.4448 16.383 18.2084 16.2704 17.9382 16.2704C17.6679 16.2704 17.4315 16.3717 17.2514 16.5518L15.6302 15.6061C15.6527 15.5273 15.6639 15.4485 15.6639 15.3697C15.6639 14.9194 15.36 14.5366 14.9547 14.424V13.8386C15.4275 13.5346 16.9361 12.42 16.9361 10.6524C16.9361 8.60337 14.9096 7.33117 14.8196 7.27487L14.6732 7.18481L14.5268 7.27487C14.4368 7.33117 12.4103 8.60337 12.4103 10.6524C12.4103 12.42 13.9189 13.5233 14.3917 13.8386V14.424C13.9752 14.5366 13.6825 14.9194 13.6825 15.3697C13.6825 15.4485 13.6937 15.5273 13.7162 15.6061L12.0838 16.5518C11.9036 16.383 11.6672 16.2704 11.397 16.2704C10.8566 16.2704 10.4062 16.7095 10.4062 17.2611C10.4062 17.7115 10.7102 18.0943 11.1155 18.2068V20.1658C10.7102 20.2896 10.4062 20.6612 10.4062 21.1115C10.4062 21.6519 10.8453 22.1023 11.397 22.1023C11.6897 22.1023 11.9487 21.9784 12.1288 21.7758L13.7162 22.6877C13.6937 22.7665 13.6825 22.8453 13.6825 22.9241C13.6825 23.4645 14.1215 23.9036 14.6732 23.9036C15.2136 23.9036 15.6639 23.4645 15.6639 22.9241C15.6639 22.8453 15.6527 22.7665 15.6302 22.6877L17.2176 21.7758C17.3977 21.9784 17.6567 22.1023 17.9494 22.1023C18.4898 22.1023 18.9402 21.6632 18.9402 21.1115C18.9402 20.6612 18.6362 20.2784 18.2309 20.1658V18.2068C18.6362 18.083 18.9402 17.7115 18.9402 17.2611C18.9402 17.1823 18.9289 17.1035 18.9176 17.036L19.2779 16.8333C19.4806 16.9346 19.8971 17.0922 20.3587 17.0922C20.6402 17.0922 20.9442 17.036 21.2369 16.8671C22.1938 16.3154 22.2501 15.0207 22.2501 14.9757V14.8068L22.0925 14.7054ZM18.2196 17.5989C18.1408 17.6552 18.0507 17.689 17.9494 17.689C17.8931 17.689 17.8481 17.6777 17.7918 17.6552C17.7468 17.6439 17.713 17.6214 17.6792 17.5876C17.5891 17.5201 17.5328 17.4188 17.5103 17.3062C17.5103 17.2837 17.5103 17.2611 17.5103 17.2386C17.5103 17.2161 17.5103 17.2048 17.5103 17.1823C17.5328 17.0247 17.6342 16.8896 17.7805 16.8333C17.8256 16.8108 17.8819 16.7995 17.9382 16.7995C17.9944 16.7995 18.062 16.8108 18.107 16.8333C18.2646 16.9009 18.3772 17.0585 18.3772 17.2386C18.3772 17.2611 18.3772 17.2837 18.366 17.3062C18.3547 17.4413 18.2984 17.5313 18.2196 17.5989ZM18.3772 21.1115C18.3772 21.3592 18.1746 21.5506 17.9382 21.5506C17.8593 21.5506 17.7693 21.5281 17.713 21.483C17.5891 21.4042 17.4991 21.2691 17.4991 21.1115V21.1003C17.4991 21.0552 17.5103 21.0102 17.5216 20.9652C17.5441 20.8863 17.6004 20.8188 17.6679 20.7625C17.7242 20.7175 17.7918 20.6837 17.8593 20.6724C17.8819 20.6724 17.9044 20.6612 17.9382 20.6612C18.0395 20.6612 18.1408 20.695 18.2084 20.7512C18.3209 20.8413 18.3772 20.9652 18.3772 21.1115ZM17.6679 20.1658C17.5328 20.1996 17.409 20.2671 17.3077 20.3572L15.6414 19.389C15.6527 19.3214 15.6639 19.2651 15.6639 19.1976C15.6639 19.1075 15.6527 19.0062 15.6189 18.9274L17.2626 17.9704C17.3752 18.083 17.5103 18.1618 17.6679 18.2068V20.1658ZM14.6732 23.3632C14.448 23.3632 14.2679 23.2056 14.2341 22.9917C14.2341 22.9692 14.2341 22.9466 14.2341 22.9241C14.2341 22.744 14.3467 22.5864 14.5043 22.5188C14.5606 22.4963 14.6169 22.485 14.6732 22.485C14.7295 22.485 14.7858 22.4963 14.8421 22.5188C14.9997 22.5864 15.1123 22.744 15.1123 22.9241C15.1123 22.9466 15.1123 22.9692 15.1123 22.9917C15.0785 23.1943 14.8871 23.3632 14.6732 23.3632ZM13.705 19.389L12.0387 20.3572C11.9374 20.2671 11.8136 20.1996 11.6785 20.1658V18.2068C11.8361 18.1618 11.9712 18.083 12.0838 17.9704L13.7275 18.9161C13.705 19.0062 13.6825 19.0963 13.6825 19.1976C13.6825 19.2651 13.6937 19.3327 13.705 19.389ZM11.8473 21.1115C11.8473 21.2691 11.7685 21.4042 11.6334 21.483C11.5659 21.5281 11.4871 21.5506 11.4083 21.5506C11.1606 21.5506 10.9692 21.3479 10.9692 21.1115C10.9692 20.9764 11.0367 20.8413 11.1381 20.7625C11.2169 20.7062 11.3069 20.6724 11.4083 20.6724C11.4308 20.6724 11.4645 20.6724 11.4871 20.6837C11.5659 20.695 11.6222 20.7287 11.6785 20.7738C11.746 20.8188 11.791 20.8976 11.8248 20.9764C11.8361 21.0214 11.8473 21.0665 11.8473 21.1115C11.8473 21.1003 11.8473 21.1003 11.8473 21.1115ZM10.9579 17.2611C10.9579 17.0134 11.1606 16.8221 11.397 16.8221C11.4533 16.8221 11.5096 16.8333 11.5546 16.8558C11.701 16.9121 11.8023 17.0472 11.8248 17.2048C11.8248 17.2274 11.8248 17.2499 11.8248 17.2724C11.8248 17.2949 11.8248 17.3174 11.8248 17.3399C11.8136 17.4525 11.746 17.5539 11.6559 17.6214C11.6222 17.6439 11.5884 17.6664 11.5434 17.689C11.4983 17.7115 11.442 17.7227 11.3857 17.7227C11.2844 17.7227 11.1831 17.689 11.1155 17.6327C11.0255 17.5201 10.9579 17.3962 10.9579 17.2611ZM14.403 15.0207C14.4818 14.9644 14.5719 14.9306 14.6732 14.9306C14.7745 14.9306 14.8758 14.9644 14.9434 15.0207C15.0335 15.0882 15.0898 15.1896 15.101 15.3021C15.101 15.3247 15.101 15.3472 15.101 15.3697C15.101 15.5048 15.0335 15.6399 14.9321 15.7187C14.8984 15.7412 14.8646 15.7637 14.8196 15.7863C14.7745 15.8088 14.7182 15.82 14.6619 15.82C14.6056 15.82 14.5494 15.8088 14.5043 15.7863C14.4593 15.775 14.4255 15.7525 14.3917 15.7187C14.2904 15.6399 14.2229 15.5161 14.2229 15.3697C14.2229 15.3472 14.2229 15.3247 14.2229 15.3021C14.2566 15.1896 14.3129 15.0882 14.403 15.0207ZM15.1123 19.2088C15.1123 19.3439 15.0447 19.4565 14.9434 19.5353C14.9209 19.5466 14.8984 19.5691 14.8758 19.5804C14.8083 19.6141 14.7407 19.6367 14.6619 19.6367C14.5831 19.6367 14.5156 19.6141 14.4593 19.5804C14.4368 19.5691 14.4143 19.5579 14.3917 19.5353C14.2904 19.4565 14.2229 19.3327 14.2229 19.1976V19.1863C14.2229 19.1413 14.2229 19.1075 14.2341 19.0737C14.2566 18.9837 14.3129 18.9049 14.3805 18.8373C14.4255 18.8035 14.4818 18.7698 14.5494 18.7585C14.5831 18.7472 14.6169 18.7472 14.6619 18.7472C14.707 18.7472 14.7407 18.7472 14.7745 18.7585C14.8308 18.7698 14.8871 18.8035 14.9321 18.8373C14.9997 18.8936 15.056 18.9724 15.0785 19.0625C15.0898 19.0963 15.0898 19.1413 15.0898 19.1863C15.1123 19.1976 15.1123 19.2088 15.1123 19.2088ZM16.9812 17.0247C16.9587 17.1035 16.9474 17.1823 16.9474 17.2611C16.9474 17.3399 16.9587 17.43 16.9812 17.5088L15.3262 18.4658C15.2136 18.3645 15.0898 18.2969 14.9434 18.2519V16.3154C15.101 16.2704 15.2361 16.1916 15.3487 16.079L16.9812 17.0247ZM12.9619 10.6637C12.9619 9.21132 14.2341 8.16429 14.6732 7.84904C15.1123 8.16429 16.3845 9.21132 16.3845 10.6637C16.3845 11.8796 15.4838 12.7577 14.9434 13.1743V10.8776C14.9434 10.7312 14.8196 10.6074 14.6732 10.6074C14.5156 10.6074 14.403 10.7312 14.403 10.8776V13.1743C13.8513 12.7577 12.9619 11.8796 12.9619 10.6637ZM13.9864 16.079C14.099 16.1916 14.2454 16.2704 14.3917 16.3154V18.2519C14.2454 18.2969 14.1215 18.3645 14.0089 18.4545L12.3427 17.4976C12.3652 17.4188 12.3765 17.3399 12.3765 17.2611C12.3765 17.1823 12.3652 17.1035 12.3427 17.0247L13.9864 16.079ZM12.3765 21.2804C12.3877 21.2241 12.3877 21.1678 12.3877 21.1115C12.3877 21.0102 12.3765 20.9089 12.3427 20.8075L13.9639 19.8731C14.0765 19.9969 14.2341 20.087 14.403 20.1433V21.9784C14.2454 22.0234 14.1103 22.1023 13.9864 22.2148L12.3765 21.2804ZM15.36 22.2148C15.2474 22.1023 15.101 22.0234 14.9434 21.9784V20.1433C15.1123 20.0983 15.2699 19.9969 15.3825 19.8731L17.0037 20.8075C16.9699 20.8976 16.9587 20.9989 16.9587 21.1115C16.9587 21.1678 16.9587 21.2241 16.9699 21.2804L15.36 22.2148ZM20.9442 16.383C20.5839 16.5856 20.1786 16.5518 19.8633 16.473L20.4038 16.1578C20.5389 16.079 20.5839 15.9214 20.5051 15.7863C20.4263 15.6512 20.2687 15.6061 20.1336 15.6849L19.5931 16.0002C19.672 15.6962 19.8521 15.3247 20.2124 15.1108C20.7302 14.8068 21.372 14.9982 21.6647 15.122C21.6197 15.426 21.4733 16.079 20.9442 16.383Z" fill="black"/>
</svg>
