<svg width="31" height="31" viewBox="0 0 31 31" fill="none" xmlns="http://www.w3.org/2000/svg">
    <path d="M30.3926 15.428C30.3926 23.4361 23.9007 29.928 15.8926 29.928C7.88445 29.928 1.39258 23.4361 1.39258 15.428C1.39258 7.41985 7.88445 0.927979 15.8926 0.927979C23.9007 0.927979 30.3926 7.41985 30.3926 15.428Z" fill="white" stroke="#00B43C"/>
    <path d="M22.485 14.5892C22.44 14.5667 21.3029 13.9587 20.3347 14.5216C19.5579 14.972 19.4115 15.8614 19.3777 16.2329L19.0174 16.4356C18.8373 16.2667 18.6009 16.1541 18.3307 16.1541C18.0605 16.1541 17.8241 16.2554 17.6439 16.4356L16.0227 15.4899C16.0452 15.4111 16.0565 15.3323 16.0565 15.2534C16.0565 14.8031 15.7525 14.4203 15.3472 14.3077V13.7223C15.8201 13.4183 17.3287 12.3037 17.3287 10.5362C17.3287 8.48715 15.3022 7.21495 15.2121 7.15866L15.0657 7.0686L14.9194 7.15866C14.8293 7.21495 12.8028 8.48715 12.8028 10.5362C12.8028 12.3037 14.3114 13.4071 14.7843 13.7223V14.3077C14.3677 14.4203 14.075 14.8031 14.075 15.2534C14.075 15.3323 14.0863 15.4111 14.1088 15.4899L12.4763 16.4356C12.2962 16.2667 12.0598 16.1541 11.7896 16.1541C11.2492 16.1541 10.7988 16.5932 10.7988 17.1449C10.7988 17.5952 11.1028 17.978 11.5081 18.0906V20.0495C11.1028 20.1734 10.7988 20.5449 10.7988 20.9952C10.7988 21.5356 11.2379 21.986 11.7896 21.986C12.0823 21.986 12.3412 21.8621 12.5214 21.6595L14.1088 22.5714C14.0863 22.6502 14.075 22.729 14.075 22.8078C14.075 23.3482 14.5141 23.7873 15.0657 23.7873C15.6062 23.7873 16.0565 23.3482 16.0565 22.8078C16.0565 22.729 16.0452 22.6502 16.0227 22.5714L17.6101 21.6595C17.7903 21.8621 18.0492 21.986 18.3419 21.986C18.8823 21.986 19.3327 21.5469 19.3327 20.9952C19.3327 20.5449 19.0287 20.1621 18.6234 20.0495V18.0906C19.0287 17.9667 19.3327 17.5952 19.3327 17.1449C19.3327 17.066 19.3214 16.9872 19.3102 16.9197L19.6704 16.717C19.8731 16.8184 20.2897 16.976 20.7512 16.976C21.0327 16.976 21.3367 16.9197 21.6294 16.7508C22.5864 16.1992 22.6427 14.9044 22.6427 14.8594V14.6905L22.485 14.5892ZM18.6121 17.4826C18.5333 17.5389 18.4433 17.5727 18.3419 17.5727C18.2857 17.5727 18.2406 17.5614 18.1843 17.5389C18.1393 17.5276 18.1055 17.5051 18.0717 17.4714C17.9817 17.4038 17.9254 17.3025 17.9029 17.1899C17.9029 17.1674 17.9029 17.1449 17.9029 17.1223C17.9029 17.0998 17.9029 17.0886 17.9029 17.0661C17.9254 16.9084 18.0267 16.7733 18.1731 16.717C18.2181 16.6945 18.2744 16.6833 18.3307 16.6833C18.387 16.6833 18.4545 16.6945 18.4996 16.717C18.6572 16.7846 18.7698 16.9422 18.7698 17.1223C18.7698 17.1449 18.7698 17.1674 18.7585 17.1899C18.7472 17.325 18.691 17.4151 18.6121 17.4826ZM18.7698 20.9952C18.7698 21.2429 18.5671 21.4343 18.3307 21.4343C18.2519 21.4343 18.1618 21.4118 18.1055 21.3668C17.9817 21.2879 17.8916 21.1529 17.8916 20.9952V20.984C17.8916 20.9389 17.9029 20.8939 17.9141 20.8489C17.9366 20.7701 17.9929 20.7025 18.0605 20.6462C18.1168 20.6012 18.1843 20.5674 18.2519 20.5562C18.2744 20.5562 18.2969 20.5449 18.3307 20.5449C18.432 20.5449 18.5333 20.5787 18.6009 20.635C18.7135 20.725 18.7698 20.8489 18.7698 20.9952ZM18.0605 20.0495C17.9254 20.0833 17.8015 20.1509 17.7002 20.2409L16.034 19.2727C16.0452 19.2051 16.0565 19.1489 16.0565 19.0813C16.0565 18.9912 16.0452 18.8899 16.0115 18.8111L17.6552 17.8541C17.7678 17.9667 17.9029 18.0455 18.0605 18.0906V20.0495ZM15.0657 23.2469C14.8406 23.2469 14.6604 23.0893 14.6267 22.8754C14.6267 22.8529 14.6267 22.8303 14.6267 22.8078C14.6267 22.6277 14.7393 22.4701 14.8969 22.4025C14.9532 22.38 15.0095 22.3687 15.0657 22.3687C15.122 22.3687 15.1783 22.38 15.2346 22.4025C15.3922 22.4701 15.5048 22.6277 15.5048 22.8078C15.5048 22.8303 15.5048 22.8529 15.5048 22.8754C15.471 23.078 15.2797 23.2469 15.0657 23.2469ZM14.0975 19.2727L12.4313 20.2409C12.33 20.1509 12.2061 20.0833 12.071 20.0495V18.0906C12.2286 18.0455 12.3637 17.9667 12.4763 17.8541L14.12 18.7998C14.0975 18.8899 14.075 18.98 14.075 19.0813C14.075 19.1489 14.0863 19.2164 14.0975 19.2727ZM12.2399 20.9952C12.2399 21.1529 12.1611 21.2879 12.026 21.3668C11.9584 21.4118 11.8796 21.4343 11.8008 21.4343C11.5531 21.4343 11.3618 21.2317 11.3618 20.9952C11.3618 20.8601 11.4293 20.725 11.5306 20.6462C11.6094 20.5899 11.6995 20.5562 11.8008 20.5562C11.8233 20.5562 11.8571 20.5562 11.8796 20.5674C11.9584 20.5787 12.0147 20.6125 12.071 20.6575C12.1386 20.7025 12.1836 20.7813 12.2174 20.8601C12.2286 20.9052 12.2399 20.9502 12.2399 20.9952C12.2399 20.984 12.2399 20.984 12.2399 20.9952ZM11.3505 17.1449C11.3505 16.8972 11.5531 16.7058 11.7896 16.7058C11.8459 16.7058 11.9022 16.717 11.9472 16.7396C12.0935 16.7958 12.1949 16.9309 12.2174 17.0886C12.2174 17.1111 12.2174 17.1336 12.2174 17.1561C12.2174 17.1786 12.2174 17.2012 12.2174 17.2237C12.2061 17.3363 12.1386 17.4376 12.0485 17.5051C12.0147 17.5276 11.981 17.5502 11.9359 17.5727C11.8909 17.5952 11.8346 17.6065 11.7783 17.6065C11.677 17.6065 11.5757 17.5727 11.5081 17.5164C11.418 17.4038 11.3505 17.28 11.3505 17.1449ZM14.7955 14.9044C14.8744 14.8481 14.9644 14.8144 15.0657 14.8144C15.1671 14.8144 15.2684 14.8481 15.3359 14.9044C15.426 14.972 15.4823 15.0733 15.4936 15.1859C15.4936 15.2084 15.4936 15.2309 15.4936 15.2534C15.4936 15.3885 15.426 15.5236 15.3247 15.6025C15.2909 15.625 15.2571 15.6475 15.2121 15.67C15.1671 15.6925 15.1108 15.7038 15.0545 15.7038C14.9982 15.7038 14.9419 15.6925 14.8969 15.67C14.8518 15.6587 14.8181 15.6362 14.7843 15.6025C14.683 15.5236 14.6154 15.3998 14.6154 15.2534C14.6154 15.2309 14.6154 15.2084 14.6154 15.1859C14.6492 15.0733 14.7055 14.972 14.7955 14.9044ZM15.5048 19.0926C15.5048 19.2277 15.4373 19.3403 15.3359 19.4191C15.3134 19.4303 15.2909 19.4528 15.2684 19.4641C15.2008 19.4979 15.1333 19.5204 15.0545 19.5204C14.9757 19.5204 14.9081 19.4979 14.8518 19.4641C14.8293 19.4528 14.8068 19.4416 14.7843 19.4191C14.683 19.3403 14.6154 19.2164 14.6154 19.0813V19.07C14.6154 19.025 14.6154 18.9912 14.6267 18.9575C14.6492 18.8674 14.7055 18.7886 14.773 18.721C14.8181 18.6873 14.8744 18.6535 14.9419 18.6422C14.9757 18.631 15.0095 18.631 15.0545 18.631C15.0995 18.631 15.1333 18.631 15.1671 18.6422C15.2234 18.6535 15.2797 18.6873 15.3247 18.721C15.3922 18.7773 15.4485 18.8561 15.471 18.9462C15.4823 18.98 15.4823 19.025 15.4823 19.07C15.5048 19.0813 15.5048 19.0926 15.5048 19.0926ZM17.3737 16.9084C17.3512 16.9872 17.3399 17.066 17.3399 17.1449C17.3399 17.2237 17.3512 17.3137 17.3737 17.3925L15.7187 18.3495C15.6061 18.2482 15.4823 18.1806 15.3359 18.1356V16.1992C15.4936 16.1541 15.6287 16.0753 15.7413 15.9627L17.3737 16.9084ZM13.3545 10.5474C13.3545 9.0951 14.6267 8.04808 15.0657 7.73283C15.5048 8.04808 16.777 9.0951 16.777 10.5474C16.777 11.7633 15.8764 12.6415 15.3359 13.0581V10.7613C15.3359 10.615 15.2121 10.4911 15.0657 10.4911C14.9081 10.4911 14.7955 10.615 14.7955 10.7613V13.0581C14.2439 12.6415 13.3545 11.7633 13.3545 10.5474ZM14.379 15.9627C14.4916 16.0753 14.6379 16.1541 14.7843 16.1992V18.1356C14.6379 18.1806 14.5141 18.2482 14.4015 18.3383L12.7353 17.3813C12.7578 17.3025 12.769 17.2237 12.769 17.1449C12.769 17.066 12.7578 16.9872 12.7353 16.9084L14.379 15.9627ZM12.769 21.1641C12.7803 21.1078 12.7803 21.0515 12.7803 20.9952C12.7803 20.8939 12.769 20.7926 12.7353 20.6913L14.3565 19.7568C14.469 19.8807 14.6267 19.9707 14.7955 20.027V21.8621C14.6379 21.9072 14.5028 21.986 14.379 22.0985L12.769 21.1641ZM15.7525 22.0985C15.6399 21.986 15.4936 21.9072 15.3359 21.8621V20.027C15.5048 19.982 15.6624 19.8807 15.775 19.7568L17.3962 20.6913C17.3625 20.7813 17.3512 20.8827 17.3512 20.9952C17.3512 21.0515 17.3512 21.1078 17.3625 21.1641L15.7525 22.0985ZM21.3367 16.2667C20.9764 16.4694 20.5711 16.4356 20.2559 16.3568L20.7963 16.0415C20.9314 15.9627 20.9764 15.8051 20.8976 15.67C20.8188 15.5349 20.6612 15.4899 20.5261 15.5687L19.9857 15.8839C20.0645 15.5799 20.2446 15.2084 20.6049 14.9945C21.1228 14.6905 21.7645 14.8819 22.0572 15.0058C22.0122 15.3097 21.8658 15.9627 21.3367 16.2667Z" fill="#00B43C"/>
</svg>
