<svg width="31" height="31" viewBox="0 0 31 31" fill="none" xmlns="http://www.w3.org/2000/svg">
    <rect x="0.695312" y="1.04419" width="29" height="29" rx="4.5" fill="white" stroke="#00B43C"/>
    <path d="M21.569 14.7054C21.524 14.6829 20.3869 14.075 19.4187 14.6379C18.6418 15.0882 18.4955 15.9776 18.4617 16.3491L18.1014 16.5518C17.9213 16.3829 17.6849 16.2703 17.4147 16.2703C17.1445 16.2703 16.908 16.3716 16.7279 16.5518L15.1067 15.6061C15.1292 15.5273 15.1405 15.4485 15.1405 15.3697C15.1405 14.9193 14.8365 14.5365 14.4312 14.424V13.8385C14.9041 13.5345 16.4127 12.42 16.4127 10.6524C16.4127 8.60336 14.3862 7.33117 14.2961 7.27487L14.1497 7.18481L14.0034 7.27487C13.9133 7.33117 11.8868 8.60336 11.8868 10.6524C11.8868 12.42 13.3954 13.5233 13.8683 13.8385V14.424C13.4517 14.5365 13.159 14.9193 13.159 15.3697C13.159 15.4485 13.1703 15.5273 13.1928 15.6061L11.5603 16.5518C11.3802 16.3829 11.1437 16.2703 10.8735 16.2703C10.3331 16.2703 9.88281 16.7094 9.88281 17.2611C9.88281 17.7114 10.1868 18.0942 10.5921 18.2068V20.1657C10.1868 20.2896 9.88281 20.6611 9.88281 21.1114C9.88281 21.6518 10.3219 22.1022 10.8735 22.1022C11.1663 22.1022 11.4252 21.9783 11.6053 21.7757L13.1928 22.6876C13.1703 22.7664 13.159 22.8452 13.159 22.924C13.159 23.4644 13.5981 23.9035 14.1497 23.9035C14.6902 23.9035 15.1405 23.4644 15.1405 22.924C15.1405 22.8452 15.1292 22.7664 15.1067 22.6876L16.6941 21.7757C16.8743 21.9783 17.1332 22.1022 17.4259 22.1022C17.9663 22.1022 18.4167 21.6631 18.4167 21.1114C18.4167 20.6611 18.1127 20.2783 17.7074 20.1657V18.2068C18.1127 18.0829 18.4167 17.7114 18.4167 17.2611C18.4167 17.1822 18.4054 17.1034 18.3941 17.0359L18.7544 16.8332C18.9571 16.9346 19.3736 17.0922 19.8352 17.0922C20.1167 17.0922 20.4207 17.0359 20.7134 16.867C21.6703 16.3154 21.7266 15.0207 21.7266 14.9756V14.8067L21.569 14.7054ZM17.6961 17.5988C17.6173 17.6551 17.5272 17.6889 17.4259 17.6889C17.3696 17.6889 17.3246 17.6776 17.2683 17.6551C17.2233 17.6438 17.1895 17.6213 17.1557 17.5876C17.0657 17.52 17.0094 17.4187 16.9868 17.3061C16.9868 17.2836 16.9868 17.2611 16.9868 17.2385C16.9868 17.216 16.9868 17.2048 16.9868 17.1823C17.0094 17.0246 17.1107 16.8895 17.257 16.8332C17.3021 16.8107 17.3584 16.7995 17.4147 16.7995C17.471 16.7995 17.5385 16.8107 17.5835 16.8332C17.7412 16.9008 17.8537 17.0584 17.8537 17.2385C17.8537 17.2611 17.8537 17.2836 17.8425 17.3061C17.8312 17.4412 17.7749 17.5313 17.6961 17.5988ZM17.8537 21.1114C17.8537 21.3591 17.6511 21.5505 17.4147 21.5505C17.3359 21.5505 17.2458 21.528 17.1895 21.483C17.0657 21.4042 16.9756 21.2691 16.9756 21.1114V21.1002C16.9756 21.0551 16.9868 21.0101 16.9981 20.9651C17.0206 20.8863 17.0769 20.8187 17.1445 20.7624C17.2008 20.7174 17.2683 20.6836 17.3359 20.6724C17.3584 20.6724 17.3809 20.6611 17.4147 20.6611C17.516 20.6611 17.6173 20.6949 17.6849 20.7512C17.7974 20.8412 17.8537 20.9651 17.8537 21.1114ZM17.1445 20.1657C17.0094 20.1995 16.8855 20.2671 16.7842 20.3571L15.118 19.3889C15.1292 19.3213 15.1405 19.2651 15.1405 19.1975C15.1405 19.1074 15.1292 19.0061 15.0954 18.9273L16.7392 17.9703C16.8517 18.0829 16.9868 18.1617 17.1445 18.2068V20.1657ZM14.1497 23.3631C13.9246 23.3631 13.7444 23.2055 13.7107 22.9916C13.7107 22.9691 13.7107 22.9466 13.7107 22.924C13.7107 22.7439 13.8233 22.5863 13.9809 22.5187C14.0372 22.4962 14.0935 22.485 14.1497 22.485C14.206 22.485 14.2623 22.4962 14.3186 22.5187C14.4762 22.5863 14.5888 22.7439 14.5888 22.924C14.5888 22.9466 14.5888 22.9691 14.5888 22.9916C14.555 23.1942 14.3637 23.3631 14.1497 23.3631ZM13.1815 19.3889L11.5153 20.3571C11.414 20.2671 11.2901 20.1995 11.155 20.1657V18.2068C11.3126 18.1617 11.4477 18.0829 11.5603 17.9703L13.204 18.916C13.1815 19.0061 13.159 19.0962 13.159 19.1975C13.159 19.2651 13.1703 19.3326 13.1815 19.3889ZM11.3239 21.1114C11.3239 21.2691 11.2451 21.4042 11.11 21.483C11.0424 21.528 10.9636 21.5505 10.8848 21.5505C10.6371 21.5505 10.4457 21.3479 10.4457 21.1114C10.4457 20.9763 10.5133 20.8412 10.6146 20.7624C10.6934 20.7061 10.7835 20.6724 10.8848 20.6724C10.9073 20.6724 10.9411 20.6724 10.9636 20.6836C11.0424 20.6949 11.0987 20.7287 11.155 20.7737C11.2226 20.8187 11.2676 20.8975 11.3014 20.9763C11.3126 21.0214 11.3239 21.0664 11.3239 21.1114C11.3239 21.1002 11.3239 21.1002 11.3239 21.1114ZM10.4345 17.2611C10.4345 17.0134 10.6371 16.822 10.8735 16.822C10.9298 16.822 10.9861 16.8332 11.0312 16.8558C11.1775 16.912 11.2789 17.0471 11.3014 17.2048C11.3014 17.2273 11.3014 17.2498 11.3014 17.2723C11.3014 17.2948 11.3014 17.3174 11.3014 17.3399C11.2901 17.4525 11.2226 17.5538 11.1325 17.6213C11.0987 17.6438 11.0649 17.6664 11.0199 17.6889C10.9749 17.7114 10.9186 17.7227 10.8623 17.7227C10.761 17.7227 10.6596 17.6889 10.5921 17.6326C10.502 17.52 10.4345 17.3962 10.4345 17.2611ZM13.8795 15.0206C13.9584 14.9644 14.0484 14.9306 14.1497 14.9306C14.2511 14.9306 14.3524 14.9644 14.4199 15.0206C14.51 15.0882 14.5663 15.1895 14.5776 15.3021C14.5776 15.3246 14.5776 15.3471 14.5776 15.3697C14.5776 15.5048 14.51 15.6398 14.4087 15.7187C14.3749 15.7412 14.3411 15.7637 14.2961 15.7862C14.2511 15.8087 14.1948 15.82 14.1385 15.82C14.0822 15.82 14.0259 15.8087 13.9809 15.7862C13.9358 15.775 13.9021 15.7524 13.8683 15.7187C13.767 15.6398 13.6994 15.516 13.6994 15.3697C13.6994 15.3471 13.6994 15.3246 13.6994 15.3021C13.7332 15.1895 13.7895 15.0882 13.8795 15.0206ZM14.5888 19.2088C14.5888 19.3439 14.5213 19.4565 14.4199 19.5353C14.3974 19.5465 14.3749 19.569 14.3524 19.5803C14.2848 19.6141 14.2173 19.6366 14.1385 19.6366C14.0597 19.6366 13.9921 19.6141 13.9358 19.5803C13.9133 19.569 13.8908 19.5578 13.8683 19.5353C13.767 19.4565 13.6994 19.3326 13.6994 19.1975V19.1862C13.6994 19.1412 13.6994 19.1074 13.7107 19.0737C13.7332 18.9836 13.7895 18.9048 13.857 18.8372C13.9021 18.8035 13.9584 18.7697 14.0259 18.7584C14.0597 18.7472 14.0935 18.7472 14.1385 18.7472C14.1835 18.7472 14.2173 18.7472 14.2511 18.7584C14.3074 18.7697 14.3637 18.8035 14.4087 18.8372C14.4762 18.8935 14.5325 18.9723 14.555 19.0624C14.5663 19.0962 14.5663 19.1412 14.5663 19.1862C14.5888 19.1975 14.5888 19.2088 14.5888 19.2088ZM16.4577 17.0246C16.4352 17.1034 16.4239 17.1822 16.4239 17.2611C16.4239 17.3399 16.4352 17.4299 16.4577 17.5087L14.8027 18.4657C14.6901 18.3644 14.5663 18.2968 14.4199 18.2518V16.3154C14.5776 16.2703 14.7127 16.1915 14.8253 16.0789L16.4577 17.0246ZM12.4385 10.6637C12.4385 9.21131 13.7107 8.16429 14.1497 7.84904C14.5888 8.16429 15.861 9.21131 15.861 10.6637C15.861 11.8796 14.9604 12.7577 14.4199 13.1743V10.8776C14.4199 10.7312 14.2961 10.6074 14.1497 10.6074C13.9921 10.6074 13.8795 10.7312 13.8795 10.8776V13.1743C13.3279 12.7577 12.4385 11.8796 12.4385 10.6637ZM13.463 16.0789C13.5756 16.1915 13.7219 16.2703 13.8683 16.3154V18.2518C13.7219 18.2968 13.5981 18.3644 13.4855 18.4545L11.8193 17.4975C11.8418 17.4187 11.853 17.3399 11.853 17.2611C11.853 17.1822 11.8418 17.1034 11.8193 17.0246L13.463 16.0789ZM11.853 21.2803C11.8643 21.224 11.8643 21.1677 11.8643 21.1114C11.8643 21.0101 11.853 20.9088 11.8193 20.8075L13.4405 19.873C13.553 19.9969 13.7107 20.0869 13.8795 20.1432V21.9783C13.7219 22.0234 13.5868 22.1022 13.463 22.2148L11.853 21.2803ZM14.8365 22.2148C14.7239 22.1022 14.5776 22.0234 14.4199 21.9783V20.1432C14.5888 20.0982 14.7464 19.9969 14.859 19.873L16.4802 20.8075C16.4464 20.8975 16.4352 20.9989 16.4352 21.1114C16.4352 21.1677 16.4352 21.224 16.4464 21.2803L14.8365 22.2148ZM20.4207 16.3829C20.0604 16.5856 19.6551 16.5518 19.3398 16.473L19.8803 16.1577C20.0154 16.0789 20.0604 15.9213 19.9816 15.7862C19.9028 15.6511 19.7452 15.6061 19.6101 15.6849L19.0696 16.0001C19.1485 15.6961 19.3286 15.3246 19.6889 15.1107C20.2067 14.8067 20.8485 14.9981 21.1412 15.122C21.0962 15.426 20.9498 16.0789 20.4207 16.3829Z" fill="#00B43C"/>
</svg>
