<svg width="31" height="31" viewBox="0 0 31 31" fill="none" xmlns="http://www.w3.org/2000/svg">
    <path d="M30.3906 15.5435C30.3906 23.5516 23.8988 30.0435 15.8906 30.0435C7.8825 30.0435 1.39062 23.5516 1.39062 15.5435C1.39062 7.53533 7.8825 1.04346 15.8906 1.04346C23.8988 1.04346 30.3906 7.53533 30.3906 15.5435Z" fill="white" stroke="black"/>
    <path d="M18.2979 17.0744C18.3481 17.4342 18.4467 17.704 18.592 17.8822C18.8601 18.2074 19.3185 18.37 19.9672 18.37C20.3564 18.37 20.6712 18.3268 20.9134 18.242C21.3735 18.0777 21.6036 17.7732 21.6036 17.3269C21.6036 17.0657 21.4894 16.8651 21.2611 16.7215C21.0328 16.5831 20.6747 16.4603 20.1851 16.353L19.3514 16.1662C18.5314 15.9811 17.964 15.7787 17.6492 15.5608C17.1181 15.1975 16.8518 14.6284 16.8518 13.8534C16.8518 13.1477 17.1095 12.5612 17.6215 12.0925C18.1353 11.6254 18.8895 11.3919 19.8842 11.3919C20.7162 11.3919 21.4237 11.6116 22.0101 12.0527C22.5965 12.4938 22.9044 13.1321 22.9338 13.9711H21.3493C21.3199 13.4971 21.1141 13.1598 20.7283 12.9591C20.4723 12.8276 20.1523 12.7602 19.77 12.7602C19.3462 12.7602 19.0071 12.8449 18.7528 13.0179C18.4986 13.1909 18.3723 13.4279 18.3723 13.7358C18.3723 14.0178 18.4968 14.2288 18.7477 14.3672C18.9085 14.4606 19.251 14.5696 19.7752 14.6941L21.1348 15.0211C21.7299 15.1646 22.1796 15.3549 22.4824 15.5936C22.9529 15.9638 23.1881 16.5018 23.1881 17.2041C23.1881 17.9064 22.9131 18.5223 22.3613 18.9997C21.8095 19.4771 21.031 19.7141 20.026 19.7141C19.021 19.7141 18.1906 19.4789 17.6025 19.0101C17.0144 18.5413 16.7203 17.8961 16.7203 17.0761H18.2927L18.2979 17.0744Z" fill="black"/>
    <path fill-rule="evenodd" clip-rule="evenodd" d="M8.59375 8.97021V22.1169H20.0107V20.9061H9.97762V10.1811H20.0107V8.97021H8.59375Z" fill="black"/>
</svg>
