<svg width="31" height="31" viewBox="0 0 31 31" fill="none" xmlns="http://www.w3.org/2000/svg">
    <path d="M15.5 30.083C23.7843 30.083 30.5 23.3673 30.5 15.083C30.5 6.79874 23.7843 0.0830078 15.5 0.0830078C7.21573 0.0830078 0.5 6.79874 0.5 15.083C0.5 23.3673 7.21573 30.083 15.5 30.083Z" fill="black"/>
    <path d="M22.46 18.6428L20.1383 21.0858C20.0879 21.1389 20.0268 21.1812 19.9589 21.2101C19.8911 21.239 19.8179 21.2539 19.7439 21.2539H8.73827C8.68576 21.2539 8.63439 21.2388 8.59048 21.2106C8.54656 21.1823 8.51202 21.1421 8.49109 21.0948C8.47016 21.0476 8.46375 20.9954 8.47265 20.9446C8.48156 20.8938 8.50539 20.8467 8.54122 20.809L10.8646 18.366C10.9149 18.313 10.9758 18.2708 11.0434 18.2419C11.1111 18.213 11.184 18.198 11.2578 18.1979H22.2628C22.3154 18.1979 22.3667 18.213 22.4107 18.2412C22.4545 18.2695 22.4891 18.3097 22.5101 18.3569C22.531 18.4042 22.5374 18.4564 22.5285 18.5072C22.5196 18.558 22.4957 18.6051 22.46 18.6428ZM20.1383 13.7232C20.0879 13.6701 20.0268 13.6278 19.9589 13.5989C19.8911 13.57 19.8179 13.5551 19.7439 13.5551H8.73827C8.68576 13.5551 8.63439 13.5702 8.59048 13.5984C8.54656 13.6267 8.51202 13.6669 8.49109 13.7142C8.47016 13.7614 8.46375 13.8137 8.47265 13.8644C8.48156 13.9152 8.50539 13.9623 8.54122 14L10.8646 16.443C10.9149 16.496 10.9758 16.5382 11.0434 16.5671C11.1111 16.596 11.184 16.611 11.2578 16.6111H22.2628C22.3154 16.6111 22.3667 16.5961 22.4107 16.5678C22.4545 16.5396 22.4891 16.4993 22.5101 16.4521C22.531 16.4048 22.5374 16.3526 22.5285 16.3018C22.5196 16.251 22.4957 16.2039 22.46 16.1662L20.1383 13.7232ZM8.73827 11.9684H19.7439C19.8179 11.9684 19.8911 11.9535 19.9589 11.9246C20.0268 11.8957 20.0879 11.8533 20.1383 11.8003L22.46 9.35724C22.4957 9.31956 22.5196 9.27244 22.5285 9.22166C22.5374 9.17088 22.531 9.11866 22.5101 9.0714C22.4891 9.02415 22.4545 8.98392 22.4107 8.95566C22.3667 8.92741 22.3154 8.91236 22.2628 8.91235H11.2578C11.184 8.91248 11.1111 8.92746 11.0434 8.95637C10.9758 8.98528 10.9149 9.02751 10.8646 9.08043L8.54181 11.5235C8.50602 11.5611 8.4822 11.6082 8.47328 11.6589C8.46435 11.7096 8.47071 11.7618 8.49157 11.809C8.51242 11.8563 8.54688 11.8965 8.5907 11.9248C8.63452 11.9531 8.68581 11.9682 8.73827 11.9684Z" fill="url(#paint0_linear_1094_730)"/>
    <defs>
        <linearGradient id="paint0_linear_1094_730" x1="9.65588" y1="21.548" x2="20.9525" y2="8.56941" gradientUnits="userSpaceOnUse">
            <stop offset="0.08" stop-color="#9945FF"/>
            <stop offset="0.3" stop-color="#8752F3"/>
            <stop offset="0.5" stop-color="#5497D5"/>
            <stop offset="0.6" stop-color="#43B4CA"/>
            <stop offset="0.72" stop-color="#28E0B9"/>
            <stop offset="0.97" stop-color="#19FB9B"/>
        </linearGradient>
    </defs>
</svg>
