<svg width="31" height="31" viewBox="0 0 31 31" fill="none" xmlns="http://www.w3.org/2000/svg">
	<rect x="0.693359" y="0.583008" width="29" height="29" rx="4.5" fill="white" stroke="#9A46FF"/>
	<path d="M22.1514 18.6428L19.8297 21.0858C19.7793 21.1389 19.7182 21.1812 19.6503 21.2101C19.5825 21.239 19.5093 21.2539 19.4353 21.2539H8.42968C8.37717 21.2539 8.3258 21.2388 8.28188 21.2106C8.23797 21.1823 8.20342 21.1421 8.18249 21.0948C8.16156 21.0476 8.15515 20.9954 8.16406 20.9446C8.17297 20.8938 8.1968 20.8467 8.23262 20.809L10.556 18.366C10.6063 18.313 10.6672 18.2708 10.7348 18.2419C10.8025 18.213 10.8754 18.198 10.9492 18.1979H21.9543C22.0068 18.1979 22.0581 18.213 22.1021 18.2412C22.1459 18.2695 22.1805 18.3097 22.2015 18.3569C22.2224 18.4042 22.2288 18.4564 22.2199 18.5072C22.211 18.558 22.1872 18.6051 22.1514 18.6428ZM19.8297 13.7232C19.7793 13.6701 19.7182 13.6278 19.6503 13.5989C19.5825 13.57 19.5093 13.5551 19.4353 13.5551H8.42968C8.37717 13.5551 8.3258 13.5702 8.28188 13.5984C8.23797 13.6267 8.20342 13.6669 8.18249 13.7142C8.16156 13.7614 8.15515 13.8137 8.16406 13.8644C8.17297 13.9152 8.1968 13.9623 8.23262 14L10.556 16.443C10.6063 16.496 10.6672 16.5382 10.7348 16.5671C10.8025 16.596 10.8754 16.611 10.9492 16.6111H21.9543C22.0068 16.6111 22.0581 16.5961 22.1021 16.5678C22.1459 16.5396 22.1805 16.4993 22.2015 16.4521C22.2224 16.4048 22.2288 16.3526 22.2199 16.3018C22.211 16.251 22.1872 16.2039 22.1514 16.1662L19.8297 13.7232ZM8.42968 11.9684H19.4353C19.5093 11.9684 19.5825 11.9535 19.6503 11.9246C19.7182 11.8957 19.7793 11.8533 19.8297 11.8003L22.1514 9.35724C22.1872 9.31956 22.211 9.27244 22.2199 9.22166C22.2288 9.17088 22.2224 9.11866 22.2015 9.0714C22.1805 9.02415 22.1459 8.98392 22.1021 8.95566C22.0581 8.92741 22.0068 8.91236 21.9543 8.91235H10.9492C10.8754 8.91248 10.8025 8.92746 10.7348 8.95637C10.6672 8.98528 10.6063 9.02751 10.556 9.08043L8.23322 11.5235C8.19743 11.5611 8.17361 11.6082 8.16468 11.6589C8.15576 11.7096 8.16211 11.7618 8.18297 11.809C8.20383 11.8563 8.23828 11.8965 8.28211 11.9248C8.32593 11.9531 8.37722 11.9682 8.42968 11.9684Z" fill="url(#paint0_linear_1094_636)"/>
	<defs>
		<linearGradient id="paint0_linear_1094_636" x1="9.34729" y1="21.548" x2="20.6439" y2="8.56941" gradientUnits="userSpaceOnUse">
			<stop offset="0.08" stop-color="#9945FF"/>
			<stop offset="0.3" stop-color="#8752F3"/>
			<stop offset="0.5" stop-color="#5497D5"/>
			<stop offset="0.6" stop-color="#43B4CA"/>
			<stop offset="0.72" stop-color="#28E0B9"/>
			<stop offset="0.97" stop-color="#19FB9B"/>
		</linearGradient>
	</defs>
</svg>