<svg width="31" height="31" viewBox="0 0 31 31" fill="none" xmlns="http://www.w3.org/2000/svg">
    <path d="M30.3906 15.9668C30.3906 23.9749 23.8988 30.4668 15.8906 30.4668C7.8825 30.4668 1.39062 23.9749 1.39062 15.9668C1.39062 7.95867 7.8825 1.4668 15.8906 1.4668C23.8988 1.4668 30.3906 7.95867 30.3906 15.9668Z" fill="white" stroke="#9A46FF"/>
    <path d="M22.8506 19.5266L20.5289 21.9696C20.4785 22.0227 20.4174 22.065 20.3496 22.0939C20.2817 22.1228 20.2085 22.1377 20.1345 22.1377H9.1289C9.07638 22.1377 9.02502 22.1226 8.9811 22.0944C8.93719 22.0661 8.90264 22.0259 8.88171 21.9786C8.86078 21.9314 8.85437 21.8792 8.86328 21.8284C8.87218 21.7776 8.89601 21.7305 8.93184 21.6928L11.2552 19.2498C11.3056 19.1968 11.3664 19.1546 11.434 19.1257C11.5017 19.0968 11.5747 19.0818 11.6484 19.0817H22.6535C22.706 19.0817 22.7573 19.0967 22.8013 19.125C22.8452 19.1532 22.8797 19.1935 22.9007 19.2407C22.9216 19.288 22.928 19.3402 22.9191 19.391C22.9102 19.4418 22.8864 19.4889 22.8506 19.5266ZM20.5289 14.607C20.4785 14.5539 20.4174 14.5116 20.3496 14.4827C20.2817 14.4538 20.2085 14.4389 20.1345 14.4389H9.1289C9.07638 14.4389 9.02502 14.454 8.9811 14.4822C8.93719 14.5105 8.90264 14.5507 8.88171 14.598C8.86078 14.6452 8.85437 14.6974 8.86328 14.7482C8.87218 14.799 8.89601 14.8461 8.93184 14.8838L11.2552 17.3268C11.3056 17.3798 11.3664 17.422 11.434 17.4509C11.5017 17.4798 11.5747 17.4948 11.6484 17.4949H22.6535C22.706 17.4949 22.7573 17.4799 22.8013 17.4516C22.8452 17.4233 22.8797 17.3831 22.9007 17.3359C22.9216 17.2886 22.928 17.2364 22.9191 17.1856C22.9102 17.1348 22.8864 17.0877 22.8506 17.05L20.5289 14.607ZM9.1289 12.8521H20.1345C20.2085 12.8522 20.2817 12.8373 20.3496 12.8084C20.4174 12.7794 20.4785 12.7371 20.5289 12.6841L22.8506 10.241C22.8864 10.2034 22.9102 10.1562 22.9191 10.1055C22.928 10.0547 22.9216 10.0024 22.9007 9.95519C22.8797 9.90794 22.8452 9.86771 22.8013 9.83945C22.7573 9.8112 22.706 9.79614 22.6535 9.79614H11.6484C11.5747 9.79627 11.5017 9.81125 11.434 9.84016C11.3664 9.86907 11.3056 9.9113 11.2552 9.96422L8.93244 12.4073C8.89665 12.4449 8.87283 12.492 8.8639 12.5427C8.85498 12.5934 8.86133 12.6456 8.88219 12.6928C8.90305 12.7401 8.9375 12.7803 8.98133 12.8086C9.02515 12.8369 9.07644 12.852 9.1289 12.8521Z" fill="url(#paint0_linear_1166_3248)"/>
    <defs>
        <linearGradient id="paint0_linear_1166_3248" x1="10.0465" y1="22.4318" x2="21.3431" y2="9.4532" gradientUnits="userSpaceOnUse">
            <stop offset="0.08" stop-color="#9945FF"/>
            <stop offset="0.3" stop-color="#8752F3"/>
            <stop offset="0.5" stop-color="#5497D5"/>
            <stop offset="0.6" stop-color="#43B4CA"/>
            <stop offset="0.72" stop-color="#28E0B9"/>
            <stop offset="0.97" stop-color="#19FB9B"/>
        </linearGradient>
    </defs>
</svg>
