<svg width="31" height="31" viewBox="0 0 31 31" fill="none" xmlns="http://www.w3.org/2000/svg">
    <path d="M30.3906 15.4014C30.3906 23.4095 23.8988 29.9014 15.8906 29.9014C7.8825 29.9014 1.39062 23.4095 1.39062 15.4014C1.39062 7.39324 7.8825 0.901367 15.8906 0.901367C23.8988 0.901367 30.3906 7.39324 30.3906 15.4014Z" fill="white" stroke="#2775CA"/>
    <path d="M18.8002 16.9448C18.8002 15.4013 17.8741 14.8721 16.0219 14.6516C14.6988 14.4752 14.4342 14.1224 14.4342 13.5049C14.4342 12.8874 14.8753 12.4906 15.7572 12.4906C16.5511 12.4906 16.9921 12.7552 17.2126 13.4167C17.2567 13.549 17.389 13.6372 17.5213 13.6372H18.2269C18.4033 13.6372 18.5356 13.5049 18.5356 13.3286V13.2844C18.3592 12.3142 17.5654 11.5645 16.5511 11.4763V10.4179C16.5511 10.2415 16.4188 10.1092 16.1983 10.065H15.5368C15.3603 10.065 15.228 10.1973 15.1839 10.4179V11.4322C13.8609 11.6086 13.023 12.4906 13.023 13.5932C13.023 15.0485 13.905 15.6218 15.7572 15.8423C16.9921 16.0628 17.389 16.3274 17.389 17.0331C17.389 17.7387 16.7715 18.2238 15.9337 18.2238C14.787 18.2238 14.3901 17.7386 14.2578 17.0771C14.2137 16.9008 14.0814 16.8125 13.9491 16.8125H13.1993C13.023 16.8125 12.8907 16.9448 12.8907 17.1212V17.1654C13.067 18.2678 13.7727 19.0617 15.228 19.2822V20.3407C15.228 20.517 15.3603 20.6493 15.5808 20.6934H16.2423C16.4188 20.6934 16.5511 20.5611 16.5952 20.3407V19.2822C17.9182 19.0617 18.8002 18.1355 18.8002 16.9448Z" fill="#2775CA"/>
    <path d="M13.6403 21.5756C10.2004 20.3408 8.4363 16.504 9.7153 13.1081C10.3768 11.2559 11.8322 9.84469 13.6403 9.18317C13.8167 9.09501 13.9049 8.9627 13.9049 8.74213V8.12475C13.9049 7.94831 13.8167 7.816 13.6403 7.77197C13.5961 7.77197 13.508 7.77197 13.4638 7.816C9.27425 9.13904 6.98096 13.5933 8.30399 17.7829C9.09781 20.2525 10.9942 22.1489 13.4638 22.9427C13.6403 23.0309 13.8167 22.9427 13.8607 22.7663C13.9049 22.7223 13.9049 22.6781 13.9049 22.59V21.9725C13.9049 21.8402 13.7726 21.6638 13.6403 21.5756ZM18.315 7.816C18.1386 7.72784 17.9621 7.816 17.9181 7.99244C17.874 8.03658 17.874 8.08061 17.874 8.16888V8.78626C17.874 8.9627 18.0063 9.13904 18.1386 9.22731C21.5785 10.4621 23.3425 14.2989 22.0635 17.6947C21.402 19.547 19.9467 20.9582 18.1386 21.6197C17.9621 21.7079 17.874 21.8402 17.874 22.0607V22.6781C17.874 22.8546 17.9621 22.9869 18.1386 23.0309C18.1827 23.0309 18.2709 23.0309 18.315 22.9869C22.5046 21.6638 24.7979 17.2095 23.4749 13.02C22.681 10.5062 20.7405 8.60982 18.315 7.816Z" fill="#2775CA"/>
</svg>
