<svg width="31" height="31" viewBox="0 0 31 31" fill="none" xmlns="http://www.w3.org/2000/svg">
    <path d="M30.3906 15.9722C30.3906 23.9803 23.8988 30.4722 15.8906 30.4722C7.8825 30.4722 1.39062 23.9803 1.39062 15.9722C1.39062 7.96404 7.8825 1.47217 15.8906 1.47217C23.8988 1.47217 30.3906 7.96404 30.3906 15.9722Z" fill="white" stroke="#50AF95"/>
    <path fill-rule="evenodd" clip-rule="evenodd" d="M17.4601 17.5617C17.3725 17.5682 16.92 17.5949 15.9107 17.5949C15.1079 17.5949 14.5379 17.5711 14.3379 17.5617C11.2355 17.4268 8.91974 16.8929 8.91974 16.2537C8.91974 15.6144 11.2355 15.0812 14.3379 14.9442V17.03C14.5408 17.0444 15.1217 17.0783 15.9245 17.0783C16.8879 17.0783 17.3703 17.0386 17.4571 17.0307V14.9456C20.553 15.082 22.8636 15.6159 22.8636 16.2537C22.8636 16.8915 20.5538 17.4254 17.4571 17.561L17.4601 17.5617ZM17.4601 14.7306V12.8641H21.7806V10.0171H10.0174V12.8634H14.3372V14.7291C10.826 14.8886 8.18555 15.5762 8.18555 16.4001C8.18555 17.2241 10.826 17.9109 14.3372 18.0711V24.0523H17.4593V18.0689C20.9625 17.9095 23.5986 17.2226 23.5986 16.3994C23.5986 15.5762 20.9647 14.8893 17.4593 14.7291L17.4601 14.7306Z" fill="#50AF95"/>
</svg>
