<svg width="19" height="16" viewBox="0 0 19 16" fill="none" xmlns="http://www.w3.org/2000/svg">
<path d="M0.459961 7.83203C0.459961 8.1722 0.568197 8.44743 0.784668 8.65771C1.00114 8.87419 1.28564 8.98242 1.63818 8.98242L12.6411 8.98242L15.8604 8.86182L15.4707 8.17529L12.1587 11.1069L10.0806 13.2036C9.97542 13.3088 9.89193 13.4294 9.83008 13.5654C9.76823 13.7077 9.7373 13.8623 9.7373 14.0293C9.7373 14.3447 9.84245 14.6076 10.0527 14.8179C10.263 15.0282 10.529 15.1333 10.8506 15.1333C11.1598 15.1333 11.4382 15.0127 11.6855 14.7715L17.7808 8.69482C17.8921 8.5835 17.9787 8.45052 18.0405 8.2959C18.1024 8.14746 18.1333 7.99284 18.1333 7.83203C18.1333 7.67741 18.1024 7.52279 18.0405 7.36816C17.9787 7.21973 17.8921 7.08984 17.7808 6.97852L11.6855 0.901855C11.4382 0.660644 11.1598 0.540039 10.8506 0.540039C10.529 0.540039 10.263 0.645182 10.0527 0.855468C9.84245 1.06575 9.7373 1.32861 9.7373 1.64404C9.7373 1.81103 9.76823 1.96256 9.83008 2.09863C9.89193 2.2347 9.97542 2.35531 10.0806 2.46045L12.1587 4.55713L15.4707 7.47949L15.8604 6.80225L12.6411 6.68164L1.63818 6.68164C1.28564 6.68164 1.00114 6.78678 0.784668 6.99707C0.568197 7.21354 0.459961 7.49186 0.459961 7.83203Z" fill="white"/>
</svg>
