<svg width="14" height="11" viewBox="0 0 14 11" fill="none" xmlns="http://www.w3.org/2000/svg">
<path d="M13.2293 5.4C13.2293 5.21952 13.158 5.06042 13.0156 4.92269L8.29235 0.21372C8.21636 0.137731 8.13799 0.0831135 8.05726 0.0498681C7.98127 0.0166227 7.90053 0 7.81504 0C7.63931 0 7.49208 0.0593668 7.37335 0.1781C7.25462 0.292084 7.19525 0.436939 7.19525 0.612665C7.19525 0.698153 7.2095 0.781267 7.23799 0.862005C7.26649 0.937995 7.30923 1.00449 7.36623 1.06148L8.962 2.68575L11.7902 5.26464L11.9327 4.90844L9.63879 4.76596H0.626913C0.441689 4.76596 0.28971 4.82533 0.170976 4.94406C0.0569921 5.0628 0 5.21478 0 5.4C0 5.58522 0.0569921 5.7372 0.170976 5.85594C0.28971 5.97467 0.441689 6.03404 0.626913 6.03404H9.63879L11.9327 5.89156L11.7902 5.54248L8.962 8.11425L7.36623 9.73852C7.30923 9.79551 7.26649 9.86438 7.23799 9.94512C7.2095 10.0211 7.19525 10.1018 7.19525 10.1873C7.19525 10.3631 7.25462 10.5079 7.37335 10.6219C7.49208 10.7406 7.63931 10.8 7.81504 10.8C7.98602 10.8 8.14037 10.7335 8.2781 10.6005L13.0156 5.87731C13.158 5.73958 13.2293 5.58047 13.2293 5.4Z" fill="#3D4767"/>
</svg>
