<svg width="15" height="19" viewBox="0 0 15 19" fill="none" xmlns="http://www.w3.org/2000/svg">
<path d="M7.29199 0.384277C6.95182 0.384277 6.6735 0.492513 6.45703 0.708984C6.24674 0.925456 6.1416 1.20996 6.1416 1.5625V12.5654L6.26221 15.7847L6.93945 15.395L4.01709 12.083L1.92041 10.0049C1.81527 9.89974 1.69466 9.81624 1.55859 9.75439C1.42253 9.69255 1.271 9.66162 1.104 9.66162C0.788574 9.66162 0.525716 9.76676 0.31543 9.97705C0.105143 10.1873 0 10.4533 0 10.7749C0 11.0841 0.120605 11.3625 0.361816 11.6099L6.43848 17.7051C6.5498 17.8164 6.67969 17.903 6.82812 17.9648C6.98275 18.0267 7.13737 18.0576 7.29199 18.0576C7.4528 18.0576 7.60742 18.0267 7.75586 17.9648C7.91048 17.903 8.04346 17.8164 8.15479 17.7051L14.2314 11.6099C14.4727 11.3625 14.5933 11.0841 14.5933 10.7749C14.5933 10.4533 14.4881 10.1873 14.2778 9.97705C14.0675 9.76676 13.8047 9.66162 13.4893 9.66162C13.3223 9.66162 13.1676 9.69255 13.0254 9.75439C12.8893 9.81624 12.7687 9.89974 12.6636 10.0049L10.5669 12.083L7.63525 15.395L8.32178 15.7847L8.44238 12.5654V1.5625C8.44238 1.20996 8.33415 0.925456 8.11768 0.708984C7.90739 0.492513 7.63216 0.384277 7.29199 0.384277Z" fill="white"/>
</svg>
