<svg width="32" height="32" viewBox="0 0 32 32" fill="none" xmlns="http://www.w3.org/2000/svg">
<circle cx="16" cy="16" r="14" fill="#E84142"/>
<path fill-rule="evenodd" clip-rule="evenodd" d="M30.96 15.98C30.96 24.2533 24.2533 30.96 15.98 30.96C7.70677 30.96 1 24.2533 1 15.98C1 7.70677 7.70677 1 15.98 1C24.2533 1 30.96 7.70677 30.96 15.98ZM11.7351 21.9413H8.8279C8.21701 21.9413 7.91525 21.9413 7.73127 21.8236C7.53254 21.6947 7.4111 21.4813 7.39638 21.2457C7.38533 21.0287 7.53623 20.7637 7.83798 20.2337L15.0162 7.58113C15.3217 7.04384 15.4762 6.7752 15.6712 6.67584C15.881 6.56913 16.1313 6.56913 16.341 6.67584C16.5361 6.7752 16.6906 7.04384 16.996 7.58113L18.4717 10.1571L18.4793 10.1703C18.8092 10.7467 18.9765 11.039 19.0495 11.3458C19.1304 11.6806 19.1304 12.0339 19.0495 12.3688C18.9759 12.6779 18.8103 12.9723 18.4754 13.5574L14.7049 20.2227L14.6951 20.2398C14.363 20.8209 14.1947 21.1155 13.9615 21.3377C13.7076 21.5806 13.4021 21.7572 13.0673 21.8567C12.7618 21.9413 12.4196 21.9413 11.7351 21.9413ZM19.0767 21.9413H23.2424C23.857 21.9413 24.1661 21.9413 24.3502 21.82C24.5489 21.6912 24.674 21.4739 24.6852 21.2386C24.6957 21.0285 24.5481 20.7738 24.2589 20.2747C24.2489 20.2577 24.2389 20.2404 24.2288 20.2228L22.1421 16.6532L22.1184 16.613C21.8252 16.1172 21.6772 15.8668 21.4871 15.77C21.2775 15.6633 21.0307 15.6633 20.8211 15.77C20.6297 15.8694 20.4751 16.1306 20.1697 16.6569L18.0905 20.2265L18.0834 20.2388C17.779 20.7642 17.6269 21.0267 17.6379 21.2421C17.6526 21.4777 17.774 21.6947 17.9727 21.8236C18.1531 21.9413 18.4622 21.9413 19.0767 21.9413Z" fill="white"/>
<circle cx="16" cy="16" r="15.5" stroke="#D9DFE5"/>
</svg>
