<svg width="15" height="16" viewBox="0 0 15 16" fill="none" xmlns="http://www.w3.org/2000/svg">
<path d="M7.5 13.7461C8.31641 13.7461 9.08398 13.5898 9.80273 13.2773C10.5254 12.9648 11.1621 12.5332 11.7129 11.9824C12.2637 11.4316 12.6953 10.7969 13.0078 10.0781C13.3203 9.35547 13.4766 8.58594 13.4766 7.76953C13.4766 6.95312 13.3203 6.18555 13.0078 5.4668C12.6953 4.74414 12.2637 4.10742 11.7129 3.55664C11.1621 3.00586 10.5254 2.57422 9.80273 2.26172C9.08008 1.94922 8.31055 1.79297 7.49414 1.79297C6.67773 1.79297 5.9082 1.94922 5.18555 2.26172C4.4668 2.57422 3.83203 3.00586 3.28125 3.55664C2.73438 4.10742 2.30469 4.74414 1.99219 5.4668C1.67969 6.18555 1.52344 6.95312 1.52344 7.76953C1.52344 8.58594 1.67969 9.35547 1.99219 10.0781C2.30469 10.7969 2.73633 11.4316 3.28711 11.9824C3.83789 12.5332 4.47266 12.9648 5.19141 13.2773C5.91406 13.5898 6.68359 13.7461 7.5 13.7461ZM6.84375 10.6289C6.74219 10.6289 6.65039 10.6074 6.56836 10.5645C6.48633 10.5215 6.40625 10.4492 6.32812 10.3477L4.85742 8.54297C4.81445 8.48438 4.7793 8.42383 4.75195 8.36133C4.72852 8.29492 4.7168 8.22852 4.7168 8.16211C4.7168 8.0293 4.76172 7.91602 4.85156 7.82227C4.94141 7.72461 5.05273 7.67578 5.18555 7.67578C5.27148 7.67578 5.34766 7.69336 5.41406 7.72852C5.48438 7.76367 5.55664 7.83008 5.63086 7.92773L6.82031 9.46289L9.32227 5.44336C9.43164 5.26367 9.57227 5.17383 9.74414 5.17383C9.86914 5.17383 9.98242 5.21484 10.084 5.29688C10.1855 5.375 10.2363 5.48242 10.2363 5.61914C10.2363 5.68555 10.2207 5.75195 10.1895 5.81836C10.1582 5.88477 10.125 5.94727 10.0898 6.00586L7.33594 10.3477C7.27344 10.4414 7.20117 10.5117 7.11914 10.5586C7.03711 10.6055 6.94531 10.6289 6.84375 10.6289Z" fill="#1BE176"/>
</svg>
