<svg width="10" height="10" viewBox="0 0 10 10" fill="none" xmlns="http://www.w3.org/2000/svg">
<path fill-rule="evenodd" clip-rule="evenodd" d="M4.96804 2.55822C4.83595 2.56463 4.71039 2.61393 4.613 2.69761L0.182085 6.52082C0.0330224 6.65004 -0.0309495 6.84383 0.0142634 7.02907C0.0594769 7.21438 0.207004 7.36306 0.401277 7.41909C0.595543 7.47512 0.807035 7.43001 0.956073 7.30073L5 3.81271L9.0439 7.30073C9.19296 7.43001 9.40447 7.47512 9.5987 7.41909C9.79299 7.36306 9.94055 7.21438 9.98572 7.02907C10.031 6.84383 9.967 6.65004 9.81795 6.52082L5.387 2.69761C5.27341 2.59987 5.12215 2.54954 4.96804 2.55822Z" fill="#646F85"/>
</svg>
