<svg width="13" height="12" viewBox="0 0 13 12" fill="none" xmlns="http://www.w3.org/2000/svg">
<path d="M1.625 11.817H10.8301C11.123 11.817 11.377 11.7501 11.5918 11.6163C11.8066 11.4865 11.9707 11.308 12.084 11.0809C12.2012 10.8578 12.2598 10.6083 12.2598 10.3325C12.2598 10.2068 12.2441 10.0831 12.2129 9.96138C12.1816 9.83969 12.1348 9.72004 12.0723 9.60241L7.46094 1.05423C7.32812 0.806807 7.15039 0.620227 6.92773 0.494489C6.70508 0.364694 6.47266 0.299797 6.23047 0.299797C5.98828 0.299797 5.75391 0.364694 5.52734 0.494489C5.30469 0.620227 5.12695 0.806807 4.99414 1.05423L0.388672 9.6085C0.259766 9.85186 0.195312 10.0932 0.195312 10.3325C0.195312 10.6083 0.253906 10.8578 0.371094 11.0809C0.488281 11.308 0.652344 11.4865 0.863281 11.6163C1.07812 11.7501 1.33203 11.817 1.625 11.817ZM6.23633 7.74676C5.92383 7.74676 5.76367 7.58046 5.75586 7.24786L5.67969 3.93202C5.67578 3.77383 5.72461 3.64201 5.82617 3.53655C5.93164 3.43109 6.06641 3.37836 6.23047 3.37836C6.39062 3.37836 6.52344 3.43312 6.62891 3.54263C6.73828 3.64809 6.79102 3.77991 6.78711 3.9381L6.69922 7.24786C6.69531 7.58046 6.54102 7.74676 6.23633 7.74676ZM6.23633 9.78494C6.06055 9.78494 5.90625 9.72207 5.77344 9.59633C5.64453 9.47059 5.58008 9.31646 5.58008 9.13394C5.58008 8.95547 5.64453 8.80134 5.77344 8.67154C5.90234 8.54175 6.05664 8.47685 6.23633 8.47685C6.41211 8.47685 6.56445 8.54175 6.69336 8.67154C6.82617 8.79728 6.89258 8.95141 6.89258 9.13394C6.89258 9.31646 6.82617 9.47059 6.69336 9.59633C6.56445 9.72207 6.41211 9.78494 6.23633 9.78494Z" fill="#F12274"/>
</svg>
