<svg width="12" height="20" viewBox="0 0 12 20" fill="none" xmlns="http://www.w3.org/2000/svg">
<path d="M6.12591 19.9146C6.34914 19.9146 6.53331 19.8466 6.67842 19.7108C6.82352 19.5636 6.89607 19.3712 6.89607 19.1335V17.9959C8.25782 17.86 9.38516 17.4129 10.2781 16.6545C11.1822 15.8961 11.6343 14.8773 11.6343 13.5982C11.6343 12.4323 11.2659 11.5041 10.5293 10.8136C9.80373 10.1231 8.71545 9.64198 7.26441 9.37031L6.89607 9.28542V5.02358C7.43184 5.12545 7.8839 5.33487 8.25224 5.65182C8.62058 5.96877 8.88846 6.38193 9.05589 6.89132C9.30145 7.47994 9.69212 7.77425 10.2279 7.77425C10.5739 7.77425 10.8474 7.67237 11.0483 7.46862C11.2604 7.26487 11.3664 6.99885 11.3664 6.67058C11.3664 6.56871 11.3552 6.47249 11.3329 6.38193C11.3217 6.28006 11.305 6.18384 11.2827 6.09328C11.0483 5.21035 10.5348 4.47458 9.74234 3.88596C8.96101 3.29733 8.01226 2.94643 6.89607 2.83323V1.69561C6.89607 1.45789 6.82352 1.27112 6.67842 1.13528C6.53331 0.988128 6.34914 0.914551 6.12591 0.914551C5.62362 0.914551 5.37248 1.1749 5.37248 1.69561V2.83323C4.05538 2.96907 2.97268 3.42185 2.12438 4.19159C1.28725 4.95 0.868676 5.91783 0.868676 7.09507C0.868676 8.19308 1.22586 9.08166 1.94021 9.76084C2.65457 10.4287 3.70937 10.9211 5.1046 11.2381L5.37248 11.306V15.8225C4.69161 15.7206 4.15026 15.4942 3.74843 15.1433C3.34661 14.7924 3.07872 14.3623 2.94478 13.8529C2.83316 13.5586 2.6769 13.3378 2.47598 13.1907C2.28623 13.0322 2.05183 12.953 1.77279 12.953C1.42677 12.953 1.14772 13.0605 0.935647 13.2756C0.734734 13.4793 0.634277 13.751 0.634277 14.0906C0.634277 14.1925 0.639858 14.2887 0.65102 14.3793C0.673344 14.4698 0.701248 14.566 0.734734 14.6679C0.969133 15.5848 1.49932 16.3375 2.3253 16.9262C3.16244 17.5148 4.17816 17.8657 5.37248 17.9789V19.1335C5.37248 19.3712 5.44503 19.5636 5.59014 19.7108C5.73524 19.8466 5.91383 19.9146 6.12591 19.9146ZM5.37248 8.89489L5.25528 8.86093C4.58557 8.65718 4.08887 8.40249 3.76518 8.09686C3.44148 7.77991 3.27963 7.39504 3.27963 6.94226C3.27963 6.46683 3.46381 6.05367 3.83215 5.70276C4.21165 5.35185 4.7251 5.1198 5.37248 5.0066V8.89489ZM6.89607 11.6965L7.21419 11.7644C7.95087 11.9682 8.46431 12.2342 8.75452 12.5625C9.05589 12.8794 9.20658 13.2812 9.20658 13.768C9.20658 14.3113 9.01124 14.7698 8.62058 15.1433C8.24108 15.5056 7.66624 15.7319 6.89607 15.8225V11.6965Z" fill="white"/>
</svg>
