<svg width="19" height="23" viewBox="0 0 19 23" fill="none" xmlns="http://www.w3.org/2000/svg">
<path d="M0.361816 5.00049C0.120605 5.22933 0 5.50146 0 5.81689C0 6.12614 0.120605 6.39518 0.361816 6.62402L5.13965 11.2905C5.36849 11.5132 5.63135 11.6245 5.92822 11.6245C6.24984 11.6245 6.5096 11.5256 6.70752 11.3276C6.91162 11.1235 7.01367 10.8638 7.01367 10.5483C7.01367 10.2453 6.90853 9.9917 6.69824 9.7876L4.73145 7.89502L3.50684 6.8374L5.37158 6.90234H17.2002C17.5094 6.90234 17.7661 6.80029 17.9702 6.59619C18.1743 6.3859 18.2764 6.12305 18.2764 5.80762C18.2764 5.49837 18.1743 5.2417 17.9702 5.0376C17.7661 4.8335 17.5094 4.73145 17.2002 4.73145H5.37158L3.50684 4.78711L4.73145 3.73877L6.69824 1.82764C6.90853 1.62972 7.01367 1.37923 7.01367 1.07617C7.01367 0.760742 6.91162 0.504069 6.70752 0.306152C6.5096 0.102051 6.24984 0 5.92822 0C5.63135 0 5.36849 0.111328 5.13965 0.333984L0.361816 5.00049ZM17.9331 17.4507C18.1681 17.2218 18.2826 16.9497 18.2764 16.6343C18.2764 16.3188 18.1619 16.0498 17.9331 15.8271L13.146 11.1606C12.9233 10.938 12.6574 10.8267 12.3481 10.8267C12.0327 10.8267 11.7729 10.9287 11.5688 11.1328C11.3709 11.3307 11.272 11.5874 11.272 11.9028C11.272 12.2059 11.374 12.4564 11.5781 12.6543L13.5635 14.5562L14.7881 15.6138L12.9141 15.5488H1.09473C0.779297 15.5488 0.516439 15.6509 0.306152 15.855C0.102051 16.0591 0 16.3188 0 16.6343C0 16.9497 0.102051 17.2126 0.306152 17.4229C0.516439 17.627 0.779297 17.729 1.09473 17.729H12.9141L14.7881 17.6641L13.5635 18.7124L11.5781 20.6143C11.374 20.8184 11.272 21.0719 11.272 21.375C11.272 21.6904 11.3709 21.9471 11.5688 22.145C11.7729 22.3491 12.0327 22.4512 12.3481 22.4512C12.6574 22.4512 12.9233 22.3398 13.146 22.1172L17.9331 17.4507Z" fill="white"/>
</svg>
