<svg width="17" height="9" viewBox="0 0 17 9" fill="none" xmlns="http://www.w3.org/2000/svg">
<path d="M0 8.25C0 3.68447 3.68447 0 8.25 0V8.25H0Z" fill="#1CE5C3"/>
<path d="M8.26722 0C3.70146 0 0 3.70146 0 8.26722C0 8.4739 0.169102 8.64301 0.375783 8.64301H2.06681C2.27349 8.64301 2.44259 8.4739 2.44259 8.26722C2.44259 8.06054 2.27349 7.89144 2.06681 7.89144C2.06681 7.89144 2.06681 7.89144 2.04802 7.89144H0.789144C0.88309 6.10647 1.59708 4.49061 2.70564 3.23173L3.30689 3.83299C3.4572 3.9833 3.68267 3.9833 3.83298 3.83299C3.9833 3.68267 3.9833 3.4572 3.83298 3.30689C3.83298 3.30689 3.83298 3.30689 3.8142 3.2881L3.21294 2.68685C4.45303 1.5595 6.06889 0.845511 7.87265 0.751566V2.06681C7.87265 2.27349 8.04175 2.44259 8.24843 2.44259C8.45511 2.44259 8.62422 2.27349 8.62422 2.06681C8.62422 2.06681 8.62422 2.06681 8.62422 2.04802V0.770355C10.428 0.864301 12.0438 1.57829 13.2839 2.70564L12.6827 3.30689C12.5324 3.4572 12.5324 3.68267 12.6639 3.83299C12.7954 3.9833 13.0397 3.9833 13.19 3.85177C13.19 3.85177 13.19 3.85177 13.2088 3.83299L13.81 3.23173C14.9374 4.47182 15.6326 6.10647 15.7265 7.89144H14.4676C14.261 7.89144 14.0919 8.06054 14.0919 8.26722C14.0919 8.4739 14.261 8.64301 14.4676 8.64301C14.4676 8.64301 14.4676 8.64301 14.4864 8.64301H16.1775C16.3841 8.64301 16.5532 8.4739 16.5532 8.26722C16.5344 3.70146 12.833 0 8.26722 0Z" fill="#3D4767"/>
<path d="M8.54848 6.19922C8.30423 6.19922 8.0036 6.27438 7.62782 6.38711C7.25203 6.49985 6.81988 6.63137 6.40652 6.76289C5.5798 7.04473 4.84702 7.30778 4.84702 7.30778C4.67792 7.36415 4.60276 7.55204 4.65913 7.70235C4.69671 7.7963 4.75308 7.85266 4.84702 7.89024C4.84702 7.89024 5.5798 8.15329 6.40652 8.43513C6.81988 8.56665 7.25203 8.71696 7.62782 8.81091C8.0036 8.90486 8.30423 8.9988 8.54848 8.9988C9.31884 8.9988 9.95767 8.35997 9.95767 7.58962C9.95767 6.83805 9.31884 6.19922 8.54848 6.19922Z" fill="#3D4767"/>
</svg>
