<svg width="17" height="9" viewBox="0 0 17 9" fill="none" xmlns="http://www.w3.org/2000/svg">
<path d="M8.37367 0C3.80791 0 0.106445 3.70146 0.106445 8.26722C0.106445 8.4739 0.275548 8.64301 0.482228 8.64301H2.17325C2.37993 8.64301 2.54903 8.4739 2.54903 8.26722C2.54903 8.06054 2.37993 7.89144 2.17325 7.89144C2.17325 7.89144 2.17325 7.89144 2.15446 7.89144H0.895589C0.989535 6.10647 1.70352 4.49061 2.81208 3.23173L3.41333 3.83299C3.56365 3.9833 3.78912 3.9833 3.93943 3.83299C4.08974 3.68267 4.08974 3.4572 3.93943 3.30689C3.93943 3.30689 3.93943 3.30689 3.92064 3.2881L3.31939 2.68685C4.55947 1.5595 6.17534 0.845511 7.9791 0.751566V2.06681C7.9791 2.27349 8.1482 2.44259 8.35488 2.44259C8.56156 2.44259 8.73066 2.27349 8.73066 2.06681C8.73066 2.06681 8.73066 2.06681 8.73066 2.04802V0.770355C10.5344 0.864301 12.1503 1.57829 13.3904 2.70564L12.7891 3.30689C12.6388 3.4572 12.6388 3.68267 12.7703 3.83299C12.9019 3.9833 13.1461 3.9833 13.2964 3.85177C13.2964 3.85177 13.2964 3.85177 13.3152 3.83299L13.9165 3.23173C15.0438 4.47182 15.739 6.10647 15.833 7.89144H14.5741C14.3674 7.89144 14.1983 8.06054 14.1983 8.26722C14.1983 8.4739 14.3674 8.64301 14.5741 8.64301C14.5741 8.64301 14.5741 8.64301 14.5929 8.64301H16.2839C16.4906 8.64301 16.6597 8.4739 16.6597 8.26722C16.6409 3.70146 12.9394 0 8.37367 0Z" fill="#9742FB"/>
<path d="M8.65493 6.19922C8.41067 6.19922 8.11004 6.27438 7.73426 6.38711C7.35848 6.49985 6.92633 6.63137 6.51297 6.76289C5.68624 7.04473 4.95347 7.30778 4.95347 7.30778C4.78437 7.36415 4.70921 7.55204 4.76558 7.70235C4.80315 7.7963 4.85952 7.85266 4.95347 7.89024C4.95347 7.89024 5.68624 8.15329 6.51297 8.43513C6.92633 8.56665 7.35848 8.71696 7.73426 8.81091C8.11004 8.90486 8.41067 8.9988 8.65493 8.9988C9.42528 8.9988 10.0641 8.35997 10.0641 7.58962C10.0641 6.83805 9.42528 6.19922 8.65493 6.19922Z" fill="#9742FB"/>
</svg>
