<svg width="28" height="28" viewBox="0 0 28 28" fill="none" xmlns="http://www.w3.org/2000/svg">
<circle r="13.5" transform="matrix(-1 0 0 1 14 14)" stroke="#3D4767"/>
<path d="M8.39595 13.9066C8.39595 13.7538 8.45628 13.6191 8.57695 13.5024L12.5771 9.51432C12.6415 9.44996 12.7078 9.4037 12.7762 9.37555C12.8406 9.34739 12.9089 9.33331 12.9813 9.33331C13.1302 9.33331 13.2549 9.38359 13.3554 9.48415C13.456 9.58068 13.5063 9.70336 13.5063 9.85219C13.5063 9.92459 13.4942 9.99498 13.4701 10.0634C13.4459 10.1277 13.4097 10.184 13.3615 10.2323L12.01 11.6079L9.6147 13.792L9.49403 13.4903L11.4368 13.3697H19.0691C19.2259 13.3697 19.3546 13.42 19.4552 13.5205C19.5517 13.6211 19.6 13.7498 19.6 13.9066C19.6 14.0635 19.5517 14.1922 19.4552 14.2928C19.3546 14.3933 19.2259 14.4436 19.0691 14.4436H11.4368L9.49403 14.323L9.6147 14.0273L12.01 16.2054L13.3615 17.581C13.4097 17.6293 13.4459 17.6876 13.4701 17.756C13.4942 17.8203 13.5063 17.8887 13.5063 17.9611C13.5063 18.1099 13.456 18.2326 13.3554 18.3291C13.2549 18.4297 13.1302 18.48 12.9813 18.48C12.8365 18.48 12.7058 18.4237 12.5892 18.311L8.57695 14.3109C8.45628 14.1942 8.39595 14.0595 8.39595 13.9066Z" fill="#3D4767"/>
</svg>
