<svg width="28" height="28" viewBox="0 0 28 28" fill="none" xmlns="http://www.w3.org/2000/svg">
<circle cx="14" cy="14" r="13.5" stroke="#3D4767"/>
<path d="M10.8152 9.66374L8.24143 12.2885C8.14629 12.387 8.09872 12.4991 8.09872 12.6249C8.09872 12.7608 8.1395 12.8712 8.22104 12.9561C8.30599 13.0377 8.41471 13.0784 8.54722 13.0784C8.67294 13.0784 8.77997 13.0343 8.86831 12.9459L9.9284 11.8502L10.7489 10.9022L10.698 12.0795V18.6286C10.698 18.7611 10.7405 18.8699 10.8254 18.9548C10.9103 19.0431 11.0208 19.0873 11.1567 19.0873C11.2892 19.0873 11.3979 19.0431 11.4829 18.9548C11.5678 18.8699 11.6103 18.7611 11.6103 18.6286V12.0795L11.5644 10.9022L12.3799 11.8502L13.445 12.9459C13.53 13.0343 13.6353 13.0784 13.761 13.0784C13.8935 13.0784 14.0006 13.0377 14.0821 12.9561C14.1671 12.8712 14.2095 12.7608 14.2095 12.6249C14.2095 12.4991 14.162 12.387 14.0668 12.2885L11.4981 9.66374C11.403 9.56181 11.2892 9.51084 11.1567 9.51084C11.0242 9.50744 10.9103 9.55841 10.8152 9.66374ZM17.3133 18.9395L19.882 16.3046C19.9772 16.2094 20.0247 16.0973 20.0247 15.9682C20.0247 15.8323 19.9823 15.7236 19.8973 15.642C19.8158 15.5605 19.7087 15.5197 19.5762 15.5197C19.4505 15.5197 19.3452 15.5622 19.2602 15.6471L18.2001 16.7429L17.3796 17.696L17.4255 16.5186V9.96953C17.4255 9.83702 17.383 9.72829 17.2981 9.64335C17.2131 9.55501 17.1044 9.51084 16.9719 9.51084C16.8394 9.51084 16.7289 9.55501 16.6406 9.64335C16.5557 9.72829 16.5132 9.83702 16.5132 9.96953V16.5186L16.5641 17.696L15.7436 16.7429L14.6835 15.6471C14.5952 15.5622 14.4898 15.5197 14.3675 15.5197C14.235 15.5197 14.1263 15.5605 14.0413 15.642C13.9564 15.7236 13.9139 15.8323 13.9139 15.9682C13.9139 16.0973 13.9632 16.2094 14.0617 16.3046L16.6304 18.9395C16.7255 19.0381 16.8377 19.0873 16.9668 19.0873C17.0993 19.0907 17.2148 19.0414 17.3133 18.9395Z" fill="#3D4767"/>
</svg>
