<svg width="16" height="16" viewBox="0 0 16 16" fill="none" xmlns="http://www.w3.org/2000/svg">
<path d="M1.41113 6.79834H5.38721C5.85205 6.79834 6.20345 6.68213 6.44141 6.44971C6.67936 6.21175 6.79834 5.84928 6.79834 5.3623V1.42773C6.79834 0.940755 6.67936 0.581055 6.44141 0.348633C6.20345 0.116211 5.85205 0 5.38721 0H1.41113C0.946289 0 0.594889 0.116211 0.356934 0.348633C0.118978 0.581055 0 0.940755 0 1.42773V5.3623C0 5.84928 0.118978 6.21175 0.356934 6.44971C0.594889 6.68213 0.946289 6.79834 1.41113 6.79834ZM1.42773 5.88525C1.25065 5.88525 1.12061 5.84375 1.0376 5.76074C0.95459 5.6722 0.913086 5.53662 0.913086 5.354V1.43604C0.913086 1.25342 0.95459 1.12061 1.0376 1.0376C1.12061 0.95459 1.25065 0.913086 1.42773 0.913086H5.37061C5.54769 0.913086 5.67773 0.95459 5.76074 1.0376C5.84375 1.12061 5.88525 1.25342 5.88525 1.43604V5.354C5.88525 5.53662 5.84375 5.6722 5.76074 5.76074C5.67773 5.84375 5.54769 5.88525 5.37061 5.88525H1.42773ZM9.63721 6.79834H13.6133C14.0781 6.79834 14.4295 6.68213 14.6675 6.44971C14.9054 6.21175 15.0244 5.84928 15.0244 5.3623V1.42773C15.0244 0.940755 14.9054 0.581055 14.6675 0.348633C14.4295 0.116211 14.0781 0 13.6133 0H9.63721C9.17236 0 8.82096 0.116211 8.58301 0.348633C8.34505 0.581055 8.22607 0.940755 8.22607 1.42773V5.3623C8.22607 5.84928 8.34505 6.21175 8.58301 6.44971C8.82096 6.68213 9.17236 6.79834 9.63721 6.79834ZM9.66211 5.88525C9.47949 5.88525 9.34668 5.84375 9.26367 5.76074C9.18066 5.6722 9.13916 5.53662 9.13916 5.354V1.43604C9.13916 1.25342 9.18066 1.12061 9.26367 1.0376C9.34668 0.95459 9.47949 0.913086 9.66211 0.913086H13.5967C13.7793 0.913086 13.9093 0.95459 13.9868 1.0376C14.0698 1.12061 14.1113 1.25342 14.1113 1.43604V5.354C14.1113 5.53662 14.0698 5.6722 13.9868 5.76074C13.9093 5.84375 13.7793 5.88525 13.5967 5.88525H9.66211ZM1.41113 15.0244H5.38721C5.85205 15.0244 6.20345 14.9082 6.44141 14.6758C6.67936 14.4434 6.79834 14.0809 6.79834 13.5884V9.65381C6.79834 9.16683 6.67936 8.80713 6.44141 8.57471C6.20345 8.33675 5.85205 8.21777 5.38721 8.21777H1.41113C0.946289 8.21777 0.594889 8.33675 0.356934 8.57471C0.118978 8.80713 0 9.16683 0 9.65381V13.5884C0 14.0809 0.118978 14.4434 0.356934 14.6758C0.594889 14.9082 0.946289 15.0244 1.41113 15.0244ZM1.42773 14.1113C1.25065 14.1113 1.12061 14.0671 1.0376 13.9785C0.95459 13.8955 0.913086 13.7627 0.913086 13.5801V9.67041C0.913086 9.48226 0.95459 9.34668 1.0376 9.26367C1.12061 9.18066 1.25065 9.13916 1.42773 9.13916H5.37061C5.54769 9.13916 5.67773 9.18066 5.76074 9.26367C5.84375 9.34668 5.88525 9.48226 5.88525 9.67041V13.5801C5.88525 13.7627 5.84375 13.8955 5.76074 13.9785C5.67773 14.0671 5.54769 14.1113 5.37061 14.1113H1.42773ZM9.63721 15.0244H13.6133C14.0781 15.0244 14.4295 14.9082 14.6675 14.6758C14.9054 14.4434 15.0244 14.0809 15.0244 13.5884V9.65381C15.0244 9.16683 14.9054 8.80713 14.6675 8.57471C14.4295 8.33675 14.0781 8.21777 13.6133 8.21777H9.63721C9.17236 8.21777 8.82096 8.33675 8.58301 8.57471C8.34505 8.80713 8.22607 9.16683 8.22607 9.65381V13.5884C8.22607 14.0809 8.34505 14.4434 8.58301 14.6758C8.82096 14.9082 9.17236 15.0244 9.63721 15.0244ZM9.66211 14.1113C9.47949 14.1113 9.34668 14.0671 9.26367 13.9785C9.18066 13.8955 9.13916 13.7627 9.13916 13.5801V9.67041C9.13916 9.48226 9.18066 9.34668 9.26367 9.26367C9.34668 9.18066 9.47949 9.13916 9.66211 9.13916H13.5967C13.7793 9.13916 13.9093 9.18066 13.9868 9.26367C14.0698 9.34668 14.1113 9.48226 14.1113 9.67041V13.5801C14.1113 13.7627 14.0698 13.8955 13.9868 13.9785C13.9093 14.0671 13.7793 14.1113 13.5967 14.1113H9.66211Z" fill="black"/>
</svg>
