<svg width="13" height="13" viewBox="0 0 13 13" fill="none" xmlns="http://www.w3.org/2000/svg">
<path d="M6.52344 12.8617C7.34305 12.8617 8.11363 12.7049 8.8352 12.3912C9.56069 12.0774 10.1999 11.6441 10.7528 11.0912C11.3058 10.5382 11.7391 9.90096 12.0528 9.17939C12.3666 8.4539 12.5234 7.68135 12.5234 6.86174C12.5234 6.04213 12.3666 5.27154 12.0528 4.54998C11.7391 3.82449 11.3058 3.18527 10.7528 2.63233C10.1999 2.07939 9.56069 1.64605 8.8352 1.33233C8.10971 1.0186 7.33716 0.86174 6.51756 0.86174C5.69795 0.86174 4.9254 1.0186 4.19991 1.33233C3.47834 1.64605 2.84108 2.07939 2.28814 2.63233C1.73912 3.18527 1.30775 3.82449 0.994026 4.54998C0.6803 5.27154 0.523438 6.04213 0.523438 6.86174C0.523438 7.68135 0.6803 8.4539 0.994026 9.17939C1.30775 9.90096 1.74108 10.5382 2.29403 11.0912C2.84697 11.6441 3.48422 12.0774 4.20579 12.3912C4.93128 12.7049 5.70383 12.8617 6.52344 12.8617ZM5.46461 10.2029C5.33912 10.2029 5.23324 10.1637 5.14697 10.0853C5.06069 10.0029 5.01756 9.899 5.01756 9.77351C5.01756 9.65586 5.06069 9.55586 5.14697 9.47351C5.23324 9.38723 5.33912 9.34409 5.46461 9.34409H6.21167V6.5735H5.56461C5.44305 6.5735 5.33912 6.53429 5.25285 6.45586C5.16657 6.37351 5.12344 6.26958 5.12344 6.14409C5.12344 6.02645 5.16657 5.92645 5.25285 5.84409C5.33912 5.75782 5.44305 5.71468 5.56461 5.71468H6.70579C6.86265 5.71468 6.9803 5.76566 7.05873 5.86762C7.14109 5.96958 7.18226 6.10292 7.18226 6.26762V9.34409H7.92932C8.05481 9.34409 8.16069 9.38723 8.24697 9.47351C8.33324 9.55586 8.37638 9.65586 8.37638 9.77351C8.37638 9.899 8.33324 10.0029 8.24697 10.0853C8.16069 10.1637 8.05481 10.2029 7.92932 10.2029H5.46461ZM6.4705 4.7088C6.25089 4.7088 6.06265 4.63233 5.90579 4.47939C5.75285 4.32252 5.67638 4.13429 5.67638 3.91468C5.67638 3.69115 5.75285 3.50292 5.90579 3.34998C6.06265 3.19311 6.25089 3.11468 6.4705 3.11468C6.69403 3.11468 6.8803 3.19311 7.02932 3.34998C7.18226 3.50292 7.25873 3.69115 7.25873 3.91468C7.25873 4.13429 7.18226 4.32252 7.02932 4.47939C6.8803 4.63233 6.69403 4.7088 6.4705 4.7088Z" fill="#646F85"/>
</svg>
