<svg width="13" height="13" viewBox="0 0 13 13" fill="none" xmlns="http://www.w3.org/2000/svg">
<path d="M6.52344 12.8617C7.34305 12.8617 8.11363 12.7049 8.8352 12.3912C9.56069 12.0774 10.1999 11.6441 10.7528 11.0912C11.3058 10.5382 11.7391 9.90096 12.0528 9.17939C12.3666 8.4539 12.5234 7.68135 12.5234 6.86174C12.5234 6.04213 12.3666 5.27154 12.0528 4.54998C11.7391 3.82449 11.3058 3.18527 10.7528 2.63233C10.1999 2.07939 9.56069 1.64605 8.8352 1.33233C8.10971 1.0186 7.33716 0.86174 6.51756 0.86174C5.69795 0.86174 4.9254 1.0186 4.19991 1.33233C3.47834 1.64605 2.84108 2.07939 2.28814 2.63233C1.73912 3.18527 1.30775 3.82449 0.994026 4.54998C0.6803 5.27154 0.523438 6.04213 0.523438 6.86174C0.523438 7.68135 0.6803 8.4539 0.994026 9.17939C1.30775 9.90096 1.74108 10.5382 2.29403 11.0912C2.84697 11.6441 3.48422 12.0774 4.20579 12.3912C4.93128 12.7049 5.70383 12.8617 6.52344 12.8617ZM6.52344 11.8617C5.82932 11.8617 5.1803 11.7323 4.57638 11.4735C3.97246 11.2147 3.44108 10.8578 2.98226 10.4029C2.52736 9.94409 2.1705 9.41272 1.91167 8.8088C1.65677 8.20488 1.52932 7.55586 1.52932 6.86174C1.52932 6.16762 1.65677 5.5186 1.91167 4.91468C2.1705 4.31076 2.52736 3.77939 2.98226 3.32056C3.43716 2.86174 3.96657 2.50488 4.5705 2.24998C5.17442 1.99115 5.82344 1.86174 6.51756 1.86174C7.21167 1.86174 7.86069 1.99115 8.46461 2.24998C9.06854 2.50488 9.59991 2.86174 10.0587 3.32056C10.5176 3.77939 10.8764 4.31076 11.1352 4.91468C11.394 5.5186 11.5234 6.16762 11.5234 6.86174C11.5234 7.55586 11.394 8.20488 11.1352 8.8088C10.8803 9.41272 10.5234 9.94409 10.0646 10.4029C9.60971 10.8578 9.07834 11.2147 8.4705 11.4735C7.86658 11.7323 7.21756 11.8617 6.52344 11.8617ZM5.49403 10.0912H7.88814C8.00971 10.0912 8.11167 10.0519 8.19403 9.97351C8.27638 9.89507 8.31756 9.79704 8.31756 9.67939C8.31756 9.56174 8.27638 9.4637 8.19403 9.38527C8.11167 9.30684 8.00971 9.26762 7.88814 9.26762H7.15873V6.27351C7.15873 6.11272 7.11952 5.98527 7.04108 5.89115C6.96265 5.79311 6.84893 5.74409 6.69991 5.74409H5.59403C5.47246 5.74409 5.3705 5.78331 5.28814 5.86174C5.20579 5.94017 5.16461 6.03821 5.16461 6.15586C5.16461 6.27351 5.20579 6.37154 5.28814 6.44998C5.3705 6.52841 5.47246 6.56762 5.59403 6.56762H6.22344V9.26762H5.49403C5.37246 9.26762 5.2705 9.30684 5.18814 9.38527C5.10579 9.4637 5.06461 9.56174 5.06461 9.67939C5.06461 9.79704 5.10579 9.89507 5.18814 9.97351C5.2705 10.0519 5.37246 10.0912 5.49403 10.0912ZM6.4705 4.76174C6.68618 4.76174 6.86658 4.68723 7.01167 4.53821C7.16069 4.38919 7.2352 4.2088 7.2352 3.99703C7.2352 3.78135 7.16069 3.599 7.01167 3.44998C6.86658 3.30096 6.68618 3.22645 6.4705 3.22645C6.25873 3.22645 6.07834 3.30096 5.92932 3.44998C5.7803 3.599 5.70579 3.78135 5.70579 3.99703C5.70579 4.2088 5.7803 4.38919 5.92932 4.53821C6.07834 4.68723 6.25873 4.76174 6.4705 4.76174Z" fill="#646F85"/>
</svg>
