<svg width="19" height="8" viewBox="0 0 19 8" fill="none" xmlns="http://www.w3.org/2000/svg">
<path d="M2.41992 7.18457H12.332C12.9427 7.18457 13.4235 7.0752 13.7744 6.85645C14.1253 6.6377 14.376 6.26628 14.5264 5.74219C14.6768 5.2181 14.752 4.5026 14.752 3.5957C14.752 2.6888 14.6768 1.97331 14.5264 1.44922C14.376 0.92513 14.1253 0.553711 13.7744 0.334961C13.4235 0.111654 12.9427 0 12.332 0H2.41992C1.80924 0 1.32617 0.111654 0.970703 0.334961C0.619792 0.553711 0.369141 0.92513 0.21875 1.44922C0.0729167 1.97331 0 2.6888 0 3.5957C0 4.5026 0.0729167 5.2181 0.21875 5.74219C0.369141 6.26628 0.619792 6.6377 0.970703 6.85645C1.32617 7.0752 1.80924 7.18457 2.41992 7.18457ZM2.41992 3.13086C2.21484 3.13086 2.03939 3.06022 1.89355 2.91895C1.75228 2.77767 1.68164 2.60221 1.68164 2.39258C1.68164 2.1875 1.75228 2.01432 1.89355 1.87305C2.03939 1.73177 2.21484 1.66113 2.41992 1.66113C2.625 1.66113 2.79818 1.73177 2.93945 1.87305C3.08073 2.01432 3.15137 2.1875 3.15137 2.39258C3.15137 2.60221 3.08073 2.77767 2.93945 2.91895C2.79818 3.06022 2.625 3.13086 2.41992 3.13086ZM15.5859 5.57129H17.1992C17.623 5.57129 17.9603 5.4528 18.2109 5.21582C18.4616 4.97428 18.5869 4.65527 18.5869 4.25879V2.91895C18.5869 2.52246 18.4616 2.20573 18.2109 1.96875C17.9603 1.72721 17.623 1.60645 17.1992 1.60645H15.5859C15.6406 1.88444 15.6816 2.18978 15.709 2.52246C15.7363 2.85059 15.75 3.20833 15.75 3.5957C15.75 3.97852 15.7363 4.33398 15.709 4.66211C15.6816 4.99023 15.6406 5.29329 15.5859 5.57129Z" fill="#3D4767"/>
</svg>
