<svg width="15" height="16" viewBox="0 0 15 16" fill="none" xmlns="http://www.w3.org/2000/svg">
<path d="M12.0663 10.063L12.0602 3.69166C12.0602 3.51011 12.0074 3.36233 11.9019 3.24833C11.7965 3.13433 11.6524 3.07733 11.4698 3.07733H5.34739C5.17698 3.07733 5.03903 3.13644 4.93354 3.25466C4.82805 3.36866 4.77531 3.50166 4.77531 3.65366C4.77531 3.80566 4.83008 3.93866 4.93963 4.05266C5.05323 4.16244 5.18104 4.21733 5.32304 4.21733H7.44095L10.4109 4.116L9.2789 5.14833L3.24774 11.4373C3.13413 11.5556 3.07733 11.6886 3.07733 11.8363C3.07733 11.9377 3.1037 12.0348 3.15645 12.1277C3.20919 12.2163 3.27817 12.2881 3.36337 12.343C3.44857 12.3979 3.54189 12.4253 3.64332 12.4253C3.78939 12.4253 3.91719 12.3683 4.02674 12.2543L10.0701 5.97166L11.0743 4.78733L10.9647 7.745V10.0883C10.9647 10.2361 11.0175 10.3691 11.1229 10.4873C11.2325 10.6056 11.3623 10.6647 11.5124 10.6647C11.6585 10.6647 11.7863 10.6077 11.8959 10.4937C12.0095 10.3797 12.0663 10.2361 12.0663 10.063Z" fill="black"/>
</svg>
