<svg width="200" height="126" viewBox="0 0 200 126" fill="none" xmlns="http://www.w3.org/2000/svg">
<g clip-path="url(#clip0_516_496)">
<path d="M18.6599 80.38C18.6599 81.91 17.5299 83.1 16.0499 83.1C14.5699 83.1 13.4399 81.92 13.4399 80.38C13.4399 78.79 14.5699 77.66 16.0499 77.66C17.5299 77.66 18.6599 78.79 18.6599 80.38ZM18.0399 115.79H14.0999V88.87H18.0499V115.79H18.0399Z" fill="#282828"/>
<path d="M52.5399 88.87V125.73H48.5499V110.02C46.5599 113.81 42.8699 116.01 38.0499 116.01C30.3699 116.01 25.0399 110.33 25.0399 102.29C25.0399 94.25 30.3699 88.66 37.9999 88.66C42.8099 88.66 46.5399 90.86 48.5399 94.7V88.86C48.5399 88.87 52.5399 88.87 52.5399 88.87ZM48.5499 102.38C48.5499 96.44 44.5099 92.15 38.8199 92.15C33.0899 92.15 29.0499 96.45 29.0499 102.38C29.0499 108.32 33.0899 112.57 38.8199 112.57C44.5099 112.57 48.5499 108.32 48.5499 102.38Z" fill="#282828"/>
<path d="M85.92 88.87V115.79H81.93V109.7C80.14 113.9 76.55 115.89 71.7 115.95C65.4 115.95 61.62 111.96 61.62 105.45V88.87H65.61V104.43C65.61 109.24 68.43 112.11 73.08 112.11C78.66 112.01 81.93 107.91 81.93 102.07V88.87H85.92Z" fill="#282828"/>
<path d="M120.36 88.87V115.79H116.37V110.06C114.38 113.8 110.69 116 105.93 116C98.2499 116 92.9199 110.32 92.9199 102.28C92.9199 94.29 98.1899 88.66 105.77 88.66C110.63 88.61 114.32 90.81 116.37 94.6V88.87H120.36ZM116.37 103.41V101.36C115.91 95.94 112.02 92.14 106.7 92.14C100.97 92.14 96.9299 96.44 96.9299 102.37C96.9299 108.31 100.97 112.56 106.7 112.56C112.02 112.57 115.91 108.83 116.37 103.41Z" fill="#282828"/>
<path d="M148.01 80.38C148.01 81.91 146.88 83.1 145.4 83.1C143.92 83.1 142.79 81.92 142.79 80.38C142.79 78.79 143.92 77.66 145.4 77.66C146.89 77.67 148.01 78.79 148.01 80.38ZM147.39 115.79H143.45V88.87H147.39V115.79Z" fill="#282828"/>
<path d="M169.4 113.95C167.45 115.23 165.36 115.94 163.36 115.94C159.26 115.94 156.4 113.07 156.4 107.29V77.74H160.34V88.86H168.34V92.8H160.34V106.62C160.34 110.46 161.62 112.25 163.98 112.25C165.31 112.25 166.74 111.74 168.23 110.87L169.4 113.95Z" fill="#282828"/>
<path d="M133.53 77.66H129.59V115.74H133.53V77.66Z" fill="#282828"/>
<path d="M3.76996 77.66H-0.170044V115.74H3.76996V77.66Z" fill="#282828"/>
<path d="M199.81 89.1V112.86C199.81 120.88 194.89 125.8 186.87 125.75C182.86 125.65 178.6 123.97 175.91 121.38L177.12 118.49C179.56 120.72 183.06 122.2 186.51 122.35C192.35 122.35 195.85 118.8 195.85 112.81V107.89C194.07 111.6 190.78 113.53 186.05 113.57C179.35 113.57 175.29 109.61 175.29 103.17V89.11H179.25V102.15C179.25 106.92 182.09 109.76 186.86 109.76C192.54 109.66 195.85 105.8 195.85 99.5V89.1H199.81Z" fill="#282828"/>
<path fill-rule="evenodd" clip-rule="evenodd" d="M22.51 8.59996C22.46 8.64996 22.41 8.69996 22.38 8.72996C17.7 13.47 14.87 19.36 13.91 25.49C13.66 27.05 13.54 28.62 13.54 30.19V30.37C13.55 31.88 13.66 33.39 13.88 34.89C14.59 39.55 16.37 44.08 19.22 48.09C20.16 49.41 21.23 50.68 22.4 51.87C22.44 51.91 22.49 51.95 22.53 52C25.09 54.56 27.94 56.52 30.96 57.93C42.12 63.11 55.68 60.71 65.84 52.07C65.86 52.05 65.9 52.02 65.92 52C77.38 42.19 87.9 33.3 99.23 33.3C110.56 33.3 121.07 42.18 132.54 52C135.65 54.66 139.09 56.74 142.68 58.18C147.38 60.08 152.35 60.9 157.2 60.56C164.02 60.08 170.62 57.31 175.94 51.99C175.98 51.95 176.02 51.91 176.06 51.86C177.24 50.67 178.3 49.41 179.24 48.08C182.09 44.08 183.88 39.54 184.58 34.88C185.05 31.77 185.04 28.59 184.55 25.48C183.59 19.35 180.76 13.47 176.08 8.71996C176.03 8.66996 175.98 8.61996 175.94 8.58996C170.63 3.27996 164.03 0.519958 157.2 0.0599578C152.34 -0.270042 147.37 0.559958 142.66 2.44996C139.07 3.89996 135.64 5.94996 132.54 8.58996C121 18.35 110.58 27.3 99.2 27.3C87.82 27.3 77.41 18.35 65.89 8.59996C65.87 8.57996 65.85 8.56996 65.83 8.53996C59.26 2.98996 51.21 -4.22355e-05 43.34 -4.22355e-05C39.08 -4.22355e-05 34.86 0.869958 30.95 2.67996C27.91 4.08996 25.06 6.04996 22.51 8.59996Z" fill="#000D35"/>
</g>
<defs>
<clipPath id="clip0_516_496">
<rect width="200" height="125.75" fill="white"/>
</clipPath>
</defs>
</svg>
