<svg width="33" height="30" viewBox="0 0 33 30" fill="none" xmlns="http://www.w3.org/2000/svg">
<path fill-rule="evenodd" clip-rule="evenodd" d="M15.5839 29.3281C23.3159 29.3281 29.5839 23.0601 29.5839 15.3281C29.5839 7.59614 23.3159 1.32812 15.5839 1.32812C7.85198 1.32812 1.58398 7.59614 1.58398 15.3281C1.58398 23.0601 7.85198 29.3281 15.5839 29.3281Z" stroke="#D5D8DD"/>
<path d="M15 0C11.0218 -4.74401e-08 7.20644 1.58035 4.3934 4.3934C1.58035 7.20644 3.47789e-07 11.0218 0 15C-3.47789e-07 18.9782 1.58035 22.7936 4.3934 25.6066C7.20644 28.4196 11.0218 30 15 30L15 27.6824C11.6364 27.6824 8.4106 26.3462 6.03219 23.9678C3.65378 21.5894 2.3176 18.3636 2.3176 15C2.3176 11.6364 3.65378 8.4106 6.03219 6.03219C8.4106 3.65378 11.6364 2.3176 15 2.3176V0Z" fill="#2CD2CF"/>
<circle cx="29" cy="14.5" r="4" fill="#F41973"/>
<path d="M11.3823 11.6281V19.3281H10.2933V12.5851H8.55529V11.6281H11.3823ZM15.8606 10.0661H16.8176L13.1876 20.4281H12.2306L15.8606 10.0661ZM19.8818 14.8621C20.6371 14.9355 21.2128 15.1701 21.6088 15.5661C22.0048 15.9548 22.2028 16.4535 22.2028 17.0621C22.2028 17.5021 22.0928 17.9018 21.8728 18.2611C21.6528 18.6131 21.3228 18.8955 20.8828 19.1081C20.4501 19.3135 19.9184 19.4161 19.2878 19.4161C18.7378 19.4161 18.2098 19.3355 17.7038 19.1741C17.1978 19.0055 16.7834 18.7745 16.4608 18.4811L16.9668 17.6121C17.2308 17.8615 17.5681 18.0631 17.9788 18.2171C18.3894 18.3638 18.8258 18.4371 19.2878 18.4371C19.8598 18.4371 20.3034 18.3161 20.6188 18.0741C20.9414 17.8321 21.1028 17.4985 21.1028 17.0731C21.1028 16.6478 20.9451 16.3178 20.6298 16.0831C20.3144 15.8485 19.8378 15.7311 19.1998 15.7311H18.5838V14.9611L20.5198 12.5851H16.8128V11.6281H21.8948V12.3761L19.8818 14.8621Z" fill="#000D35"/>
</svg>
