<svg width="34" height="30" viewBox="0 0 34 30" fill="none" xmlns="http://www.w3.org/2000/svg">
<path d="M33.7508 12.8941C33.4208 12.5451 32.8843 12.5451 32.5543 12.8941L30.6099 14.9504C30.5236 11.2637 29.124 7.80966 26.6482 5.19318C24.0911 2.489 20.6913 1 17.0748 1C12.0419 1 7.45232 3.9261 5.09831 8.6347C4.88001 9.07138 5.03739 9.61364 5.45031 9.84451C5.86324 10.0754 6.37601 9.90894 6.59432 9.47226C8.65386 5.35067 12.6697 2.78966 17.0748 2.78966C23.4869 2.78966 28.7263 8.20697 28.9159 14.9397L26.9816 12.8941C26.6516 12.5451 26.1151 12.5451 25.7851 12.8941C25.4551 13.2431 25.4551 13.8104 25.7851 14.1594L29.1697 17.7387C29.3356 17.9141 29.5522 18 29.7688 18C29.9854 18 30.202 17.9123 30.3679 17.7387L33.7525 14.1594C34.0825 13.8104 34.0825 13.2431 33.7525 12.8941H33.7508Z" fill="url(#paint0_linear_181_256)"/>
<path d="M29.5324 20.1557C29.1052 19.9249 28.5747 20.0913 28.3489 20.528C26.2182 24.6494 22.0636 27.2104 17.5064 27.2104C10.8727 27.2104 5.45233 21.7932 5.25624 15.0607L7.25737 17.1062C7.42894 17.2816 7.65304 17.3675 7.87714 17.3675C8.10124 17.3675 8.32534 17.2798 8.49691 17.1062C8.83831 16.7572 8.83831 16.1899 8.49691 15.841L4.99538 12.2617C4.65398 11.9128 4.09898 11.9128 3.75758 12.2617L0.25605 15.841C-0.0853499 16.1899 -0.0853499 16.7572 0.25605 17.1062C0.597449 17.4552 1.15244 17.4552 1.49384 17.1062L3.50547 15.05C3.59476 18.7366 5.04265 22.1905 7.60402 24.8069C10.2494 27.511 13.7667 29 17.5081 29C22.7149 29 27.463 26.074 29.8983 21.3655C30.1241 20.9288 29.9613 20.3866 29.5341 20.1557H29.5324Z" fill="url(#paint1_linear_181_256)"/>
<path fill-rule="evenodd" clip-rule="evenodd" d="M17 21C20.3137 21 23 18.3137 23 15C23 11.6863 20.3137 9 17 9C13.6863 9 11 11.6863 11 15C11 18.3137 13.6863 21 17 21Z" stroke="#D5D8DD"/>
<defs>
<linearGradient id="paint0_linear_181_256" x1="19.5" y1="1" x2="19.5" y2="18" gradientUnits="userSpaceOnUse">
<stop stop-color="#2CD2CF"/>
<stop offset="1" stop-color="#9D4DFA"/>
</linearGradient>
<linearGradient id="paint1_linear_181_256" x1="15" y1="12" x2="15" y2="29" gradientUnits="userSpaceOnUse">
<stop stop-color="#2CD2CF"/>
<stop offset="1" stop-color="#9D4DFA"/>
</linearGradient>
</defs>
</svg>
