<svg width="10" height="14" viewBox="0 0 10 14" fill="none" xmlns="http://www.w3.org/2000/svg">
<path d="M1.36719 13.5352H7.97754C8.43783 13.5352 8.77962 13.4167 9.00293 13.1797C9.23079 12.9473 9.34473 12.5827 9.34473 12.0859V6.97949C9.34473 6.4873 9.23079 6.125 9.00293 5.89258C8.77962 5.6556 8.43783 5.53711 7.97754 5.53711L1.47656 5.55078C1.02539 5.55078 0.665365 5.66699 0.396484 5.89941C0.132161 6.13184 0 6.49186 0 6.97949V12.0859C0 12.5827 0.113932 12.9473 0.341797 13.1797C0.569661 13.4167 0.911458 13.5352 1.36719 13.5352ZM1.12793 6.02246H2.42676V3.72559C2.42676 3.18783 2.5293 2.73665 2.73438 2.37207C2.93945 2.00293 3.21289 1.72493 3.55469 1.53809C3.89648 1.34668 4.27018 1.25098 4.67578 1.25098C5.08138 1.25098 5.4528 1.34668 5.79004 1.53809C6.13184 1.72493 6.40527 2.00293 6.61035 2.37207C6.81543 2.73665 6.91797 3.18783 6.91797 3.72559V6.02246H8.2168V3.85547C8.2168 3.20833 8.11882 2.64323 7.92285 2.16016C7.72689 1.67708 7.46029 1.27604 7.12305 0.957031C6.79036 0.638021 6.41211 0.398763 5.98828 0.239258C5.56445 0.0797526 5.12695 0 4.67578 0C4.22005 0 3.78027 0.0797526 3.35645 0.239258C2.93717 0.398763 2.55892 0.638021 2.22168 0.957031C1.889 1.27604 1.6224 1.67708 1.42188 2.16016C1.22591 2.64323 1.12793 3.20833 1.12793 3.85547V6.02246Z" fill="#3D4767"/>
</svg>
