<svg width="24" height="8" viewBox="0 0 24 8" fill="none" xmlns="http://www.w3.org/2000/svg">
<path d="M1.25869 1.13477C1.25222 1.14087 1.24574 1.14697 1.23927 1.15307C0.583288 1.77881 0.187759 2.55593 0.0526784 3.3641C0.0182462 3.56954 0.000588586 3.77692 0 3.9843V4.00814C0.000588586 4.20748 0.0167747 4.40682 0.048264 4.60422C0.146852 5.21943 0.396118 5.81745 0.795768 6.34505C0.927905 6.51944 1.07652 6.68634 1.24103 6.84353C1.24692 6.84908 1.2528 6.85435 1.25869 6.85989C1.61626 7.19702 2.01561 7.45625 2.43969 7.64228C4.0015 8.32597 5.90263 8.0088 7.32465 6.86904C7.32818 6.86599 7.33201 6.86294 7.33584 6.85989C8.9412 5.56571 10.4144 4.39351 12.0001 4.39351C13.5854 4.39351 15.0587 5.56571 16.664 6.85989C17.1002 7.21116 17.5813 7.48508 18.0843 7.6761C18.7426 7.92646 19.438 8.03486 20.1176 7.98995C21.0731 7.92701 21.9969 7.56105 22.7415 6.85989C22.7474 6.85435 22.7529 6.84908 22.7585 6.84353C22.9236 6.68634 23.0723 6.51944 23.2044 6.34505C23.604 5.81745 23.8533 5.21943 23.9516 4.60422C24.0175 4.19362 24.0161 3.7747 23.9475 3.3641C23.8124 2.55593 23.4166 1.77881 22.7609 1.15307C22.7541 1.14697 22.7479 1.14059 22.7412 1.13477C21.9969 0.433612 21.0731 0.0704204 20.1176 0.00942636C19.4372 -0.0341012 18.7409 0.0756881 18.0822 0.325209C17.5802 0.515954 17.0993 0.787378 16.664 1.13477C15.0525 2.42091 13.5934 3.60142 12.0001 3.60142C10.4068 3.60142 8.94768 2.42091 7.33584 1.13477C7.33289 1.13227 7.33024 1.13005 7.3273 1.12784C6.4041 0.394244 5.27814 0 4.17454 0C3.57742 0 2.98707 0.115334 2.43851 0.35432C2.01473 0.539243 1.61596 0.797913 1.25869 1.13477Z" fill="#3D4767"/>
</svg>
