<svg width="13" height="14" viewBox="0 0 13 14" fill="none" xmlns="http://www.w3.org/2000/svg">
<path d="M2.50244 12.7729H10.2744C10.8151 12.7729 11.2215 12.6369 11.4937 12.3647C11.7694 12.0926 11.9072 11.6898 11.9072 11.1562V5.75293C11.9072 5.2194 11.7694 4.81836 11.4937 4.5498C11.2215 4.27767 10.8151 4.1416 10.2744 4.1416H2.50244C1.95817 4.1416 1.54997 4.27767 1.27783 4.5498C1.0057 4.81836 0.869629 5.2194 0.869629 5.75293V11.1562C0.869629 11.6934 1.0057 12.0962 1.27783 12.3647C1.54997 12.6369 1.95817 12.7729 2.50244 12.7729ZM1.89551 3.27686H10.8867C10.8438 3.03337 10.7578 2.84717 10.6289 2.71826C10.5036 2.58577 10.3066 2.51953 10.0381 2.51953H2.74414C2.47559 2.51953 2.27686 2.58577 2.14795 2.71826C2.01904 2.84717 1.9349 3.03337 1.89551 3.27686ZM3.00195 1.78906H9.78027C9.76237 1.5599 9.68896 1.38802 9.56006 1.27344C9.43115 1.15527 9.24137 1.09619 8.99072 1.09619H3.78613C3.53906 1.09619 3.34928 1.15527 3.2168 1.27344C3.08789 1.38802 3.01628 1.5599 3.00195 1.78906Z" fill="#3D4767"/>
</svg>
