<svg width="15" height="16" viewBox="0 0 15 16" fill="none" xmlns="http://www.w3.org/2000/svg">
<path fill-rule="evenodd" clip-rule="evenodd" d="M1.46652 4.59376L7.45 1L13.426 4.58927L13.429 4.5875V4.59105L13.45 4.60368V4.63063L13.429 4.64325V10.5873L7.45 14.1747V14.1937L7.43417 14.1842L7.42915 14.1872V14.1812L1.45 10.5901V4.63063V4.60368V4.58392L1.46652 4.59376ZM7.375 3.89999C7.60972 3.89999 7.8 4.09027 7.8 4.32499V5.18564C7.9759 5.21825 8.13663 5.27322 8.28221 5.35056C8.53389 5.48428 8.72768 5.67457 8.86359 5.92142C9.00453 6.16314 9.075 6.45371 9.075 6.79314H8.25956C8.25956 6.49999 8.18406 6.27628 8.03305 6.12199C7.88204 5.96771 7.66812 5.89056 7.39127 5.89056C7.11443 5.89056 6.89798 5.96771 6.74194 6.12199C6.59094 6.27628 6.51543 6.49742 6.51543 6.78542V8.00685C6.51543 8.29485 6.59094 8.51857 6.74194 8.67799C6.89798 8.83228 7.11443 8.90942 7.39127 8.90942C7.66812 8.90942 7.88204 8.83228 8.03305 8.67799C8.18406 8.51857 8.25956 8.29485 8.25956 8.00685H9.075C9.075 8.34114 9.00453 8.63171 8.86359 8.87857C8.72768 9.12542 8.53389 9.31571 8.28221 9.44942C8.13663 9.52677 7.9759 9.58174 7.8 9.61435V10.475C7.8 10.7097 7.60972 10.9 7.375 10.9C7.14028 10.9 6.95 10.7097 6.95 10.475V9.60995C6.78492 9.57806 6.63251 9.52712 6.49278 9.45714C6.2411 9.32342 6.0448 9.13314 5.90386 8.88628C5.76795 8.63428 5.7 8.34114 5.7 8.00685V6.79314C5.7 6.45371 5.76795 6.16057 5.90386 5.91371C6.0448 5.66685 6.2411 5.47914 6.49278 5.35056C6.63251 5.27778 6.78492 5.22481 6.95 5.19164V4.32499C6.95 4.09027 7.14028 3.89999 7.375 3.89999Z" fill="#646F85"/>
</svg>
