<svg width="18" height="9" viewBox="0 0 18 9" fill="none" xmlns="http://www.w3.org/2000/svg">
<path d="M8.82045 0C4.25468 0 0.553223 3.70146 0.553223 8.26722C0.553223 8.4739 0.722325 8.64301 0.929006 8.64301H2.62003C2.82671 8.64301 2.99581 8.4739 2.99581 8.26722C2.99581 8.06054 2.82671 7.89144 2.62003 7.89144C2.62003 7.89144 2.62003 7.89144 2.60124 7.89144H1.34237C1.43631 6.10647 2.1503 4.49061 3.25886 3.23173L3.86011 3.83299C4.01042 3.9833 4.23589 3.9833 4.38621 3.83299C4.53652 3.68267 4.53652 3.4572 4.38621 3.30689C4.38621 3.30689 4.38621 3.30689 4.36742 3.2881L3.76617 2.68685C5.00625 1.5595 6.62212 0.845511 8.42587 0.751566V2.06681C8.42587 2.27349 8.59498 2.44259 8.80166 2.44259C9.00834 2.44259 9.17744 2.27349 9.17744 2.06681C9.17744 2.06681 9.17744 2.06681 9.17744 2.04802V0.770355C10.9812 0.864301 12.5971 1.57829 13.8371 2.70564L13.2359 3.30689C13.0856 3.4572 13.0856 3.68267 13.2171 3.83299C13.3486 3.9833 13.5929 3.9833 13.7432 3.85177C13.7432 3.85177 13.7432 3.85177 13.762 3.83299L14.3632 3.23173C15.4906 4.47182 16.1858 6.10647 16.2797 7.89144H15.0209C14.8142 7.89144 14.6451 8.06054 14.6451 8.26722C14.6451 8.4739 14.8142 8.64301 15.0209 8.64301C15.0209 8.64301 15.0209 8.64301 15.0397 8.64301H16.7307C16.9374 8.64301 17.1065 8.4739 17.1065 8.26722C17.0877 3.70146 13.3862 0 8.82045 0Z" fill="#646F85"/>
<path d="M9.10171 6.19922C8.85745 6.19922 8.55682 6.27438 8.18104 6.38711C7.80526 6.49985 7.37311 6.63137 6.95974 6.76289C6.13302 7.04473 5.40025 7.30778 5.40025 7.30778C5.23114 7.36415 5.15599 7.55204 5.21235 7.70235C5.24993 7.7963 5.3063 7.85266 5.40025 7.89024C5.40025 7.89024 6.13302 8.15329 6.95974 8.43513C7.37311 8.56665 7.80526 8.71696 8.18104 8.81091C8.55682 8.90486 8.85745 8.9988 9.10171 8.9988C9.87206 8.9988 10.5109 8.35997 10.5109 7.58962C10.5109 6.83805 9.87206 6.19922 9.10171 6.19922Z" fill="#646F85"/>
</svg>
