<svg width="28" height="28" viewBox="0 0 28 28" fill="none" xmlns="http://www.w3.org/2000/svg">
<circle cx="14" cy="14" r="14" fill="#9742FB"/>
<path d="M19.6041 13.9066C19.6041 13.7538 19.5437 13.6191 19.4231 13.5024L15.4229 9.51432C15.3585 9.44996 15.2922 9.4037 15.2238 9.37555C15.1594 9.34739 15.0911 9.33331 15.0187 9.33331C14.8698 9.33331 14.7451 9.38359 14.6446 9.48415C14.544 9.58068 14.4937 9.70336 14.4937 9.85219C14.4937 9.92459 14.5058 9.99498 14.5299 10.0634C14.5541 10.1277 14.5903 10.184 14.6385 10.2323L15.99 11.6079L18.3853 13.792L18.506 13.4903L16.5632 13.3697H8.93093C8.77407 13.3697 8.64535 13.42 8.5448 13.5205C8.44826 13.6211 8.39999 13.7498 8.39999 13.9066C8.39999 14.0635 8.44826 14.1922 8.5448 14.2928C8.64535 14.3933 8.77407 14.4436 8.93093 14.4436H16.5632L18.506 14.323L18.3853 14.0273L15.99 16.2054L14.6385 17.581C14.5903 17.6293 14.5541 17.6876 14.5299 17.756C14.5058 17.8203 14.4937 17.8887 14.4937 17.9611C14.4937 18.1099 14.544 18.2326 14.6446 18.3291C14.7451 18.4297 14.8698 18.48 15.0187 18.48C15.1635 18.48 15.2942 18.4237 15.4108 18.311L19.4231 14.3109C19.5437 14.1942 19.6041 14.0595 19.6041 13.9066Z" fill="white"/>
</svg>
