<svg width="31" height="30" viewBox="0 0 31 30" fill="none" xmlns="http://www.w3.org/2000/svg">
<path fill-rule="evenodd" clip-rule="evenodd" d="M15.5839 29.3281C23.3159 29.3281 29.5839 23.0601 29.5839 15.3281C29.5839 7.59614 23.3159 1.32812 15.5839 1.32812C7.85198 1.32812 1.58398 7.59614 1.58398 15.3281C1.58398 23.0601 7.85198 29.3281 15.5839 29.3281Z" stroke="#D5D8DD"/>
<path d="M15 0C11.9357 -3.65415e-08 8.9449 0.938502 6.42997 2.68925C3.91505 4.43999 1.99665 6.91899 0.932868 9.79272C-0.130912 12.6664 -0.289038 15.797 0.479764 18.7633C1.24857 21.7296 2.90741 24.3893 5.23313 26.3846L6.74218 24.6256C4.7758 22.9386 3.37326 20.6899 2.72324 18.1819C2.07322 15.6739 2.20692 13.027 3.10633 10.5973C4.00575 8.16756 5.62775 6.07159 7.7541 4.59134C9.88045 3.1111 12.4092 2.3176 15 2.3176V0Z" fill="#9742FB"/>
</svg>
