<svg width="33" height="30" viewBox="0 0 33 30" fill="none" xmlns="http://www.w3.org/2000/svg">
<path d="M15.402 29.0644C12.6205 29.0634 9.90179 28.2378 7.58954 26.6918C5.27728 25.1459 3.47535 22.949 2.41156 20.379C1.34778 17.809 1.06993 14.9812 1.61314 12.2533C2.15634 9.52543 3.49621 7.01984 5.46333 5.05337C7.43045 3.08691 9.93649 1.74787 12.6646 1.20558C15.3927 0.663279 18.2203 0.942073 20.79 2.00671C23.3596 3.07134 25.5559 4.87401 27.1011 7.18678C28.6463 9.49955 29.471 12.2186 29.471 15C29.4669 18.7297 27.9832 22.3053 25.3455 24.9421C22.7078 27.5789 19.1316 29.0615 15.402 29.0644Z" fill="#FF9931"/>
<path d="M15.402 1.8713C17.9989 1.87006 20.5378 2.639 22.6976 4.08085C24.8574 5.5227 26.5411 7.57269 27.5358 9.97154C28.5304 12.3704 28.7913 15.0103 28.2854 17.5575C27.7796 20.1046 26.5297 22.4445 24.6938 24.2812C22.858 26.1179 20.5187 27.3689 17.9718 27.876C15.4249 28.3831 12.7849 28.1234 10.3855 27.1299C7.98622 26.1364 5.93543 24.4537 4.49256 22.2946C3.04968 20.1354 2.27954 17.5969 2.27954 15C2.27954 11.5191 3.66188 8.18074 6.12264 5.71881C8.5834 3.25688 11.9211 1.87295 15.402 1.8713ZM15.402 0C12.4355 0.000925206 9.53584 0.881446 7.06972 2.53023C4.6036 4.17901 2.68174 6.52202 1.54715 9.26299C0.412552 12.004 0.116169 15.0198 0.695475 17.9292C1.27478 20.8386 2.70376 23.5109 4.80173 25.6083C6.89971 27.7056 9.57246 29.1337 12.482 29.7121C15.3916 30.2905 18.4074 29.9932 21.148 28.8577C23.8886 27.7223 26.231 25.7997 27.879 23.3331C29.5271 20.8664 30.4067 17.9665 30.4067 15C30.4021 11.0223 28.8197 7.20896 26.0066 4.39676C23.1935 1.58457 19.3797 0.0033018 15.402 0Z" fill="white"/>
<path d="M31.0538 6.68364C30.1664 6.29217 29.2154 6.06497 28.2469 6.01309C27.4099 5.96611 26.5756 6.14492 25.8314 6.53081C25.6912 6.607 25.5553 6.69082 25.4243 6.78188C24.3016 7.56938 23.7277 8.80912 23.4408 9.76036L23.3254 10.1658L23.6996 9.9662L25.6723 8.91828C25.8549 8.81963 26.0691 8.79705 26.2682 8.85546C26.4674 8.91386 26.6354 9.04852 26.7358 9.23016L26.7467 9.24887C26.7589 9.27323 26.7699 9.29822 26.7795 9.32372L31.3298 6.80371C31.2893 6.785 31.0913 6.70703 31.0476 6.68675" fill="#006E3C"/>
<path d="M30.3335 9.73386C28.0786 13.4593 24.0631 11.6052 24.0631 11.6052L25.5118 10.8254C25.6319 10.7537 26.4225 10.3373 26.4225 10.3373C26.6033 10.237 26.7386 10.0708 26.8001 9.87334C26.8617 9.67589 26.8448 9.46232 26.7531 9.27695L31.3362 6.8006C31.2209 7.84001 30.8786 8.84139 30.3335 9.73386Z" fill="#06B23C"/>
<path d="M32.5727 5.63103C32.3731 5.51407 30.5455 4.47239 28.3155 4.3835C27.1962 4.32651 26.0822 4.57215 25.0906 5.09459C24.7826 5.26056 24.4903 5.45421 24.2174 5.67313C22.2088 7.28089 21.688 9.88355 21.5555 11.0266L21.5445 11.1186L21.4634 11.1623L20.874 11.4742C20.2997 10.9236 19.5986 10.523 18.8327 10.3077L18.7189 10.2765L19.3083 7.9374L17.9049 7.57562L17.3201 9.90226L16.2659 9.62001L16.8491 7.30272L15.4457 6.94094L14.8687 9.24575C13.1705 8.80132 12.0836 8.53154 12.0836 8.53154C12.0836 8.53154 11.8497 9.70578 11.7483 9.98803C11.7483 9.98803 12.0368 10.0582 12.3471 10.144C12.5514 10.2032 13.551 10.3108 13.2173 11.5474C13.0301 12.2429 11.9386 16.9071 11.8528 17.2253C11.7545 17.6042 11.6594 17.8069 11.1916 17.7102L10.0751 17.4607L9.37488 19.1309C9.62906 19.2182 10.5086 19.4209 12.1818 19.8435L11.597 22.1468L13.0005 22.5086L13.5806 20.2022L14.6348 20.4782L14.0516 22.7815L15.455 23.1432L16.0429 20.8041C17.6694 21.1066 18.6066 21.01 18.8296 20.9694C20.1878 20.7184 20.7648 19.6735 21.0128 18.6771C21.7176 15.8701 19.405 15.6191 19.6982 15.5583C20.9925 15.2978 21.6116 14.0597 21.5414 12.9603L22.2026 12.6078L22.2837 12.5626L22.3632 12.6063C23.5253 13.2274 24.8089 13.5877 26.1245 13.662C27.0639 13.7047 28.0003 13.5263 28.8582 13.1412C28.9767 13.0866 29.0921 13.0289 29.2075 12.9681C32.5041 11.195 32.9298 6.87544 32.9672 6.3889L33 5.88677L32.5727 5.63103ZM18.2386 18.0923C17.855 19.6236 15.2585 18.8517 15.2585 18.8517L14.025 18.5399L14.7938 15.4678L16.2675 15.8483C16.2675 15.8483 18.6705 16.3691 18.2386 18.0892V18.0923ZM18.7064 13.5248C18.354 14.9283 16.1911 14.278 16.1911 14.278L15.165 14.0129L15.8698 11.2059L17.0971 11.5178C17.0971 11.5178 19.1025 11.9435 18.7064 13.5217V13.5248ZM31.2924 6.91443V6.93158C31.0648 8.20406 30.3942 10.4948 28.4621 11.5334L28.4106 11.5584C27.7201 11.9072 26.95 12.0685 26.1776 12.0262C25.5969 11.9994 25.0226 11.8945 24.47 11.7143L24.0692 11.5864L24.4404 11.3868L26.4286 10.3202C26.6139 10.2206 26.7532 10.0528 26.8169 9.85236C26.8362 9.78427 26.8472 9.71412 26.8497 9.6434C26.854 9.52986 26.8343 9.41667 26.792 9.31124C26.7824 9.28574 26.7714 9.26075 26.7592 9.23639L26.7483 9.21768C26.6479 9.03604 26.4798 8.90138 26.2807 8.84298C26.0815 8.78458 25.8674 8.80715 25.6848 8.9058L23.7121 9.96152L23.3254 10.1658L23.4486 9.7588C23.7355 8.80911 24.3094 7.56782 25.4322 6.78032C25.5631 6.68926 25.699 6.60544 25.8392 6.52925C26.5834 6.14336 27.4177 5.96455 28.2547 6.01153C29.2232 6.06341 30.1743 6.29061 31.0616 6.68207C31.1053 6.70235 31.149 6.7195 31.1895 6.73977L31.3127 6.79903L31.2924 6.91443Z" fill="white"/>
</svg>
