<svg width="16" height="12" viewBox="0 0 16 12" fill="none" xmlns="http://www.w3.org/2000/svg">
<path d="M0.640625 4.44531C0.742187 4.54688 0.855469 4.5957 0.980469 4.5918C1.10937 4.58398 1.22266 4.53125 1.32031 4.43359L1.88281 3.87695L2.75 2.95703V9.35547C2.75 9.96094 2.9043 10.4141 3.21289 10.7148C3.52148 11.0195 3.98047 11.1719 4.58984 11.1719H9.35937C9.52734 11.1719 9.65625 11.1309 9.74609 11.0488C9.83984 10.9668 9.88477 10.8516 9.88086 10.7031C9.88086 10.5508 9.83594 10.4336 9.74609 10.3516C9.65625 10.2695 9.52734 10.2285 9.35937 10.2285H4.60742C4.31445 10.2285 4.08789 10.1523 3.92773 10C3.77148 9.84375 3.69336 9.61328 3.69336 9.30859V2.94531L4.56641 3.87695L5.12891 4.43359C5.23047 4.53125 5.34375 4.58398 5.46875 4.5918C5.59375 4.5957 5.70703 4.54688 5.80859 4.44531C5.90625 4.34766 5.95312 4.23438 5.94922 4.10547C5.94922 3.97656 5.89844 3.86328 5.79688 3.76562L3.82227 1.79688C3.63086 1.60938 3.43164 1.51562 3.22461 1.51562C3.02148 1.51562 2.82422 1.60938 2.63281 1.79688L0.658203 3.76562C0.55664 3.86328 0.503906 3.97656 0.5 4.10547C0.496094 4.23438 0.542969 4.34766 0.640625 4.44531ZM5.62695 0.853516C5.63086 1.00586 5.67773 1.12305 5.76758 1.20508C5.85742 1.28711 5.98438 1.32812 6.14844 1.32812H10.9062C11.1992 1.32812 11.4238 1.40625 11.5801 1.5625C11.7363 1.71484 11.8145 1.94336 11.8145 2.24805V8.61133L10.9414 7.67383L10.3789 7.12305C10.2773 7.02539 10.1641 6.97461 10.0391 6.9707C9.91406 6.96289 9.80078 7.00781 9.69922 7.10547C9.60156 7.20703 9.55273 7.32227 9.55273 7.45117C9.55664 7.57617 9.60937 7.68945 9.71094 7.79102L11.6855 9.75391C11.877 9.94531 12.0762 10.041 12.2832 10.041C12.4902 10.041 12.6895 9.94531 12.8809 9.75391L14.8496 7.79102C14.9512 7.68945 15.0039 7.57617 15.0078 7.45117C15.0117 7.32227 14.9648 7.20703 14.8672 7.10547C14.7656 7.00781 14.6523 6.96289 14.5273 6.9707C14.4023 6.97461 14.2891 7.02539 14.1875 7.12305L13.625 7.67383L12.7578 8.59961V2.20117C12.7578 1.5957 12.6035 1.14258 12.2949 0.841797C11.9902 0.537109 11.5312 0.384766 10.918 0.384766H6.14844C5.98438 0.384766 5.85547 0.425781 5.76172 0.507812C5.66797 0.589844 5.62305 0.705078 5.62695 0.853516Z" fill="#646F85"/>
</svg>
