<svg width="16" height="16" viewBox="0 0 16 16" fill="none" xmlns="http://www.w3.org/2000/svg">
<g clip-path="url(#clip0_244_185)">
<path d="M7.5 15C8.45621 15 9.35523 14.817 10.1971 14.451C11.0435 14.085 11.7892 13.5794 12.4343 12.9343C13.0794 12.2892 13.585 11.5458 13.951 10.7039C14.317 9.85752 14.5 8.95621 14.5 8C14.5 7.04379 14.317 6.14477 13.951 5.30294C13.585 4.45654 13.0794 3.71078 12.4343 3.06569C11.7892 2.42059 11.0435 1.91503 10.1971 1.54902C9.35065 1.18301 8.44935 1 7.49314 1C6.53693 1 5.63562 1.18301 4.78922 1.54902C3.94739 1.91503 3.20392 2.42059 2.55882 3.06569C1.9183 3.71078 1.41503 4.45654 1.04902 5.30294C0.683007 6.14477 0.5 7.04379 0.5 8C0.5 8.95621 0.683007 9.85752 1.04902 10.7039C1.41503 11.5458 1.92059 12.2892 2.56569 12.9343C3.21078 13.5794 3.95425 14.085 4.79608 14.451C5.64248 14.817 6.54379 15 7.5 15ZM7.5 13.8333C6.6902 13.8333 5.93301 13.6824 5.22843 13.3804C4.52386 13.0784 3.90392 12.6621 3.36863 12.1314C2.83791 11.5961 2.42157 10.9761 2.11961 10.2716C1.82222 9.56699 1.67353 8.8098 1.67353 8C1.67353 7.1902 1.82222 6.43301 2.11961 5.72843C2.42157 5.02386 2.83791 4.40392 3.36863 3.86863C3.89935 3.33333 4.51699 2.91699 5.22157 2.61961C5.92614 2.31765 6.68333 2.16667 7.49314 2.16667C8.30294 2.16667 9.06013 2.31765 9.76471 2.61961C10.4693 2.91699 11.0892 3.33333 11.6245 3.86863C12.1598 4.40392 12.5784 5.02386 12.8804 5.72843C13.1824 6.43301 13.3333 7.1902 13.3333 8C13.3333 8.8098 13.1824 9.56699 12.8804 10.2716C12.583 10.9761 12.1667 11.5961 11.6314 12.1314C11.1007 12.6621 10.4807 13.0784 9.77157 13.3804C9.06699 13.6824 8.3098 13.8333 7.5 13.8333ZM7.49314 10.6216C7.96895 10.6216 8.40588 10.5026 8.80392 10.2647C9.20196 10.0268 9.51993 9.71111 9.75784 9.31765C9.99575 8.91961 10.1147 8.47811 10.1147 7.99314C10.1147 7.51275 9.99575 7.07582 9.75784 6.68235C9.51993 6.28889 9.20196 5.9732 8.80392 5.73529C8.40588 5.49739 7.96895 5.37843 7.49314 5.37843C7.01275 5.37843 6.57353 5.49739 6.17549 5.73529C5.77745 5.9732 5.45948 6.28889 5.22157 6.68235C4.98366 7.07582 4.86471 7.51275 4.86471 7.99314C4.86471 8.47811 4.98366 8.91961 5.22157 9.31765C5.45948 9.71111 5.77745 10.0268 6.17549 10.2647C6.57353 10.5026 7.01275 10.6216 7.49314 10.6216ZM7.5 9.53726C7.21634 9.53726 6.95784 9.46863 6.72451 9.33137C6.49118 9.18954 6.30588 9.00196 6.16863 8.76863C6.03137 8.53529 5.96275 8.2768 5.96275 7.99314C5.96275 7.71405 6.03137 7.46013 6.16863 7.23137C6.31046 6.99804 6.49804 6.81275 6.73137 6.67549C6.96471 6.53366 7.22092 6.46275 7.5 6.46275C7.77909 6.46275 8.03301 6.53366 8.26177 6.67549C8.49052 6.81275 8.67353 6.99804 8.81078 7.23137C8.95261 7.46013 9.02353 7.71405 9.02353 7.99314C9.02353 8.2768 8.95261 8.53529 8.81078 8.76863C8.67353 9.00196 8.49052 9.18954 8.26177 9.33137C8.03301 9.46863 7.77909 9.53726 7.5 9.53726Z" fill="black"/>
</g>
<defs>
<clipPath id="clip0_244_185">
<rect width="15" height="15.5753" fill="white" transform="translate(0.5)"/>
</clipPath>
</defs>
</svg>
