<svg width="16" height="16" viewBox="0 0 16 16" fill="none" xmlns="http://www.w3.org/2000/svg">
<g clip-path="url(#clip0_244_193)">
<path d="M7.5 15C8.45621 15 9.35523 14.817 10.1971 14.451C11.0435 14.085 11.7892 13.5794 12.4343 12.9343C13.0794 12.2892 13.585 11.5458 13.951 10.7039C14.317 9.85752 14.5 8.95621 14.5 8C14.5 7.04379 14.317 6.14477 13.951 5.30294C13.585 4.45654 13.0794 3.71078 12.4343 3.06569C11.7892 2.42059 11.0435 1.91503 10.1971 1.54902C9.35065 1.18301 8.44935 1 7.49314 1C6.53693 1 5.63562 1.18301 4.78922 1.54902C3.94739 1.91503 3.20392 2.42059 2.55882 3.06569C1.9183 3.71078 1.41503 4.45654 1.04902 5.30294C0.683007 6.14477 0.5 7.04379 0.5 8C0.5 8.95621 0.683007 9.85752 1.04902 10.7039C1.41503 11.5458 1.92059 12.2892 2.56569 12.9343C3.21078 13.5794 3.95425 14.085 4.79608 14.451C5.64248 14.817 6.54379 15 7.5 15ZM7.5 10.7108C7.00131 10.7108 6.54608 10.5895 6.13431 10.3471C5.72255 10.1 5.39314 9.77059 5.14608 9.35882C4.90359 8.94706 4.78235 8.49183 4.78235 7.99314C4.78235 7.49902 4.90359 7.04837 5.14608 6.64118C5.39314 6.22941 5.72255 5.90229 6.13431 5.6598C6.54608 5.41275 7.00131 5.28922 7.5 5.28922C7.99412 5.28922 8.44477 5.41275 8.85196 5.6598C9.26373 5.90229 9.59314 6.22941 9.8402 6.64118C10.0873 7.04837 10.2108 7.49902 10.2108 7.99314C10.2108 8.49183 10.0873 8.94706 9.8402 9.35882C9.59314 9.77059 9.26373 10.1 8.85196 10.3471C8.44477 10.5895 7.99412 10.7108 7.5 10.7108ZM7.50686 9.58529C7.7951 9.58529 8.05817 9.51438 8.29608 9.37255C8.53399 9.22614 8.72386 9.03399 8.86569 8.79608C9.00752 8.5536 9.07843 8.28595 9.07843 7.99314C9.07843 7.7049 9.00752 7.44183 8.86569 7.20392C8.72386 6.96601 8.53399 6.77614 8.29608 6.63431C8.05817 6.48791 7.7951 6.41471 7.50686 6.41471C7.21863 6.41471 6.95327 6.48791 6.71078 6.63431C6.47288 6.77614 6.28072 6.96601 6.13431 7.20392C5.99248 7.44183 5.92157 7.7049 5.92157 7.99314C5.92157 8.28595 5.99248 8.5536 6.13431 8.79608C6.27614 9.03399 6.46601 9.22614 6.70392 9.37255C6.94641 9.51438 7.21405 9.58529 7.50686 9.58529Z" fill="black"/>
</g>
<defs>
<clipPath id="clip0_244_193">
<rect width="15" height="15.5753" fill="white" transform="translate(0.5)"/>
</clipPath>
</defs>
</svg>
