<svg width="13" height="14" viewBox="0 0 13 14" fill="none" xmlns="http://www.w3.org/2000/svg">
<path d="M4.13086 3.79883C4.02148 3.79883 3.93164 3.76172 3.86133 3.6875C3.79102 3.61328 3.75586 3.52344 3.75586 3.41797C3.75586 3.31641 3.79102 3.23047 3.86133 3.16016C3.93164 3.08984 4.02148 3.05469 4.13086 3.05469H8.71875C8.82422 3.05469 8.91211 3.08984 8.98242 3.16016C9.05273 3.23047 9.08789 3.31641 9.08789 3.41797C9.08789 3.52344 9.05273 3.61328 8.98242 3.6875C8.91211 3.76172 8.82422 3.79883 8.71875 3.79883H4.13086ZM4.13086 5.9082C4.02148 5.9082 3.93164 5.87109 3.86133 5.79688C3.79102 5.72266 3.75586 5.63281 3.75586 5.52734C3.75586 5.42578 3.79102 5.33984 3.86133 5.26953C3.93164 5.19922 4.02148 5.16406 4.13086 5.16406H8.71875C8.82422 5.16406 8.91211 5.19922 8.98242 5.26953C9.05273 5.33984 9.08789 5.42578 9.08789 5.52734C9.08789 5.63281 9.05273 5.72266 8.98242 5.79688C8.91211 5.87109 8.82422 5.9082 8.71875 5.9082H4.13086ZM4.13086 8.01758C4.02148 8.01758 3.93164 7.98242 3.86133 7.91211C3.79102 7.83789 3.75586 7.75 3.75586 7.64844C3.75586 7.54297 3.79102 7.45508 3.86133 7.38477C3.93164 7.31055 4.02148 7.27344 4.13086 7.27344H6.29883C6.4082 7.27344 6.49805 7.31055 6.56836 7.38477C6.63867 7.45508 6.67383 7.54297 6.67383 7.64844C6.67383 7.75 6.63867 7.83789 6.56836 7.91211C6.49805 7.98242 6.4082 8.01758 6.29883 8.01758H4.13086ZM1.49414 11.2168C1.49414 11.8301 1.64453 12.2891 1.94531 12.5938C2.25 12.8984 2.70508 13.0508 3.31055 13.0508H9.5332C10.1387 13.0508 10.5918 12.8984 10.8926 12.5938C11.1973 12.2891 11.3496 11.8301 11.3496 11.2168V2.32812C11.3496 1.71875 11.1973 1.25977 10.8926 0.951172C10.5918 0.642578 10.1387 0.488281 9.5332 0.488281H3.31055C2.70508 0.488281 2.25 0.642578 1.94531 0.951172C1.64453 1.25977 1.49414 1.71875 1.49414 2.32812V11.2168Z" fill="#3D4767"/>
</svg>
