<svg width="15" height="16" viewBox="0 0 15 16" fill="none" xmlns="http://www.w3.org/2000/svg">
<path d="M7.5455 13.3271L12.5449 8.31741C12.6748 8.18751 12.7671 8.07128 12.8218 7.96873C12.8799 7.86276 12.9158 7.74995 12.9295 7.63031C12.9466 7.50724 12.9551 7.35512 12.9551 7.17395V5.22546C12.9551 5.04428 12.938 4.89729 12.9039 4.78448C12.8731 4.66826 12.8201 4.56229 12.7449 4.46657C12.6697 4.36744 12.5671 4.25292 12.4372 4.12302L11.2579 2.94367C11.128 2.81719 11.0152 2.71635 10.9195 2.64114C10.8238 2.56252 10.7178 2.50782 10.6016 2.47706C10.4887 2.44287 10.3418 2.42578 10.1606 2.42578H8.20696C8.0292 2.42578 7.87879 2.43433 7.75573 2.45142C7.63267 2.46509 7.51815 2.50099 7.41218 2.5591C7.30963 2.61721 7.19511 2.70951 7.06863 2.83599L2.05383 7.84054C1.68806 8.20631 1.50346 8.5772 1.50005 8.95323C1.49663 9.32925 1.68293 9.70528 2.05896 10.0813L5.30473 13.322C5.68076 13.6946 6.05678 13.8792 6.43281 13.8757C6.80883 13.8757 7.17973 13.6929 7.5455 13.3271ZM9.29914 6.52787C9.09746 6.52787 8.92995 6.4595 8.79664 6.32276C8.66332 6.18603 8.59666 6.02024 8.59666 5.82539C8.59666 5.62712 8.66332 5.46133 8.79664 5.32801C8.92995 5.19127 9.09746 5.1229 9.29914 5.1229C9.49741 5.1229 9.6632 5.19127 9.79652 5.32801C9.93326 5.46133 10.0016 5.62712 10.0016 5.82539C10.0016 6.02024 9.93326 6.18603 9.79652 6.32276C9.6632 6.4595 9.49741 6.52787 9.29914 6.52787Z" fill="#3D4767"/>
</svg>
