<svg width="16" height="17" viewBox="0 0 16 17" fill="none" xmlns="http://www.w3.org/2000/svg">
<path d="M4.41992 13.709H11.5742C12.1484 13.709 12.5801 13.5645 12.8691 13.2754C13.1582 12.9863 13.3027 12.5605 13.3027 11.998V4.81445C13.3027 4.24805 13.1582 3.82227 12.8691 3.53711C12.5801 3.24805 12.1484 3.10352 11.5742 3.10352H4.41992C3.84961 3.10352 3.41992 3.24805 3.13086 3.53711C2.8418 3.82227 2.69727 4.24805 2.69727 4.81445V11.998C2.69727 12.5645 2.8418 12.9902 3.13086 13.2754C3.41992 13.5645 3.84961 13.709 4.41992 13.709ZM8.01172 11.3535C7.91016 11.3535 7.82617 11.3223 7.75977 11.2598C7.69336 11.1934 7.66016 11.1074 7.66016 11.002V7.55078L7.69531 6.4375L7.03906 7.17578L6.17773 8.03711C6.10742 8.10742 6.02344 8.14258 5.92578 8.14258C5.83203 8.14258 5.75195 8.11133 5.68555 8.04883C5.62305 7.98242 5.5918 7.90234 5.5918 7.80859C5.5918 7.71094 5.62305 7.63086 5.68555 7.56836L7.74805 5.51172C7.83008 5.42578 7.91797 5.38281 8.01172 5.38281C8.10547 5.38281 8.19531 5.42578 8.28125 5.51172L10.3379 7.56836C10.4043 7.63477 10.4375 7.71484 10.4375 7.80859C10.4375 7.90234 10.4043 7.98242 10.3379 8.04883C10.2715 8.11133 10.1914 8.14258 10.0977 8.14258C9.99609 8.14258 9.91211 8.10742 9.8457 8.03711L8.99023 7.17578L8.32812 6.43164L8.36328 7.55078V11.002C8.36328 11.1074 8.33008 11.1934 8.26367 11.2598C8.20117 11.3223 8.11719 11.3535 8.01172 11.3535Z" fill="#3D4767"/>
</svg>
