<svg width="12" height="13" viewBox="0 0 12 13" fill="none" xmlns="http://www.w3.org/2000/svg">
<path d="M5.48329 12.7979H6.51671C6.68612 12.7979 6.82918 12.7508 6.94588 12.6567C7.06259 12.5663 7.13976 12.4383 7.17741 12.2727L7.45976 11.0699C7.55765 11.036 7.65176 11.0002 7.74212 10.9626C7.83624 10.9287 7.92471 10.8929 8.00753 10.8553L9.05788 11.4934C9.19718 11.58 9.34212 11.6157 9.49271 11.6007C9.64329 11.5894 9.77694 11.5254 9.89365 11.4087L10.6165 10.6915C10.7332 10.5748 10.7991 10.4393 10.8141 10.2849C10.8292 10.1268 10.7896 9.97809 10.6955 9.83879L10.0518 8.79973C10.0969 8.71315 10.1365 8.62656 10.1704 8.53997C10.2042 8.44962 10.2362 8.35926 10.2664 8.26891L11.4805 7.98091C11.6424 7.94703 11.7685 7.87173 11.8588 7.75503C11.9529 7.63456 12 7.48962 12 7.3202V6.30938C12 6.14373 11.9529 6.00256 11.8588 5.88585C11.7685 5.76538 11.6424 5.6882 11.4805 5.65432L10.2776 5.36632C10.2438 5.26468 10.208 5.16867 10.1704 5.07832C10.1327 4.98797 10.0969 4.90326 10.0631 4.8242L10.7068 3.7682C10.7972 3.62891 10.8367 3.48397 10.8254 3.33338C10.8141 3.18279 10.7482 3.04915 10.6278 2.93244L9.888 2.20397C9.77129 2.09856 9.64141 2.03644 9.49835 2.01762C9.35906 1.99879 9.21976 2.02891 9.08047 2.10797L8.00753 2.76868C7.92847 2.72726 7.84188 2.68962 7.74776 2.65573C7.65741 2.61809 7.56141 2.58232 7.45976 2.54844L7.17741 1.32868C7.13976 1.16679 7.06259 1.03879 6.94588 0.944675C6.82918 0.846793 6.68612 0.797852 6.51671 0.797852H5.48329C5.31765 0.797852 5.17459 0.846793 5.05412 0.944675C4.93741 1.03879 4.86024 1.16679 4.82259 1.32868L4.54024 2.53715C4.44235 2.57103 4.34635 2.60679 4.25224 2.64444C4.15812 2.68209 4.06965 2.72162 3.98682 2.76303L2.91953 2.10797C2.78024 2.02891 2.63906 1.99879 2.496 2.01762C2.35671 2.03268 2.22682 2.09668 2.10635 2.20962L1.37788 2.93244C1.25741 3.04915 1.18965 3.18279 1.17459 3.33338C1.16329 3.48397 1.20282 3.62891 1.29318 3.7682L1.93129 4.8242C1.89741 4.90326 1.86165 4.98797 1.824 5.07832C1.78635 5.16867 1.75247 5.26468 1.72235 5.36632L0.525176 5.65432C0.359529 5.6882 0.229647 5.76538 0.135529 5.88585C0.0451765 6.00256 0 6.14373 0 6.30938V7.3202C0 7.48962 0.0451765 7.63456 0.135529 7.75503C0.229647 7.87173 0.359529 7.94703 0.525176 7.98091L1.73365 8.26891C1.76 8.35926 1.792 8.44962 1.82965 8.53997C1.86729 8.62656 1.90494 8.71315 1.94259 8.79973L1.30447 9.83879C1.21412 9.97809 1.17647 10.1268 1.19153 10.2849C1.20659 10.4393 1.27247 10.5748 1.38918 10.6915L2.10635 11.4087C2.22306 11.5254 2.35671 11.5894 2.50729 11.6007C2.65788 11.6157 2.80282 11.58 2.94212 11.4934L3.99247 10.8553C4.07529 10.8929 4.16188 10.9287 4.25224 10.9626C4.34635 11.0002 4.44235 11.036 4.54024 11.0699L4.82259 12.2727C4.86024 12.4383 4.93741 12.5663 5.05412 12.6567C5.17459 12.7508 5.31765 12.7979 5.48329 12.7979ZM6.00282 8.77715C5.64141 8.77715 5.31012 8.68867 5.00894 8.51173C4.70776 8.33103 4.46871 8.09009 4.29176 7.78891C4.11482 7.48773 4.02635 7.15644 4.02635 6.79503C4.02635 6.43362 4.11482 6.1042 4.29176 5.80679C4.47247 5.50938 4.71153 5.2722 5.00894 5.09526C5.31012 4.91456 5.64141 4.8242 6.00282 4.8242C6.36423 4.8242 6.69365 4.91456 6.99106 5.09526C7.29224 5.2722 7.53129 5.50938 7.70824 5.80679C7.88518 6.1042 7.97365 6.43362 7.97365 6.79503C7.97365 7.15644 7.88518 7.48773 7.70824 7.78891C7.53129 8.09009 7.29224 8.33103 6.99106 8.51173C6.69365 8.68867 6.36423 8.77715 6.00282 8.77715Z" fill="#646F85"/>
</svg>
