<svg width="16" height="17" viewBox="0 0 16 17" fill="none" xmlns="http://www.w3.org/2000/svg">
<path d="M4.82357 13.6066H11.0159C11.581 13.6066 12.0039 13.4662 12.2846 13.1855C12.5689 12.9048 12.7111 12.4873 12.7111 11.933V6.65305C12.7111 6.09878 12.5689 5.68128 12.2846 5.40055C12.0039 5.11982 11.581 4.97945 11.0159 4.97945H8.45691V8.9745C8.45691 9.11847 8.40292 9.24264 8.29495 9.34702C8.19057 9.44779 8.0646 9.49818 7.91704 9.49818C7.77307 9.49818 7.6471 9.44779 7.53912 9.34702C7.43475 9.24264 7.38256 9.11847 7.38256 8.9745V4.97945H4.82357C4.2585 4.97945 3.8338 5.11982 3.54947 5.40055C3.26874 5.67768 3.12837 6.09519 3.12837 6.65305V11.933C3.12837 12.4909 3.26874 12.9084 3.54947 13.1855C3.8338 13.4662 4.2585 13.6066 4.82357 13.6066ZM7.91704 5.40595C8.03581 5.40595 8.13658 5.36456 8.21936 5.28178C8.30574 5.199 8.34893 5.10002 8.34893 4.98485V3.41382L8.31654 2.60401L8.67826 2.98732L9.49886 3.86191C9.57444 3.94829 9.67162 3.99148 9.79039 3.99148C9.90197 3.99148 9.99554 3.95549 10.0711 3.88351C10.1467 3.81153 10.1845 3.71975 10.1845 3.60817C10.1845 3.5074 10.1413 3.41382 10.0549 3.32744L8.23016 1.56746C8.17617 1.51347 8.12399 1.47568 8.0736 1.45408C8.02681 1.43249 7.97462 1.42169 7.91704 1.42169C7.86305 1.42169 7.81086 1.43249 7.76047 1.45408C7.71368 1.47568 7.6615 1.51347 7.60391 1.56746L5.77914 3.32744C5.69636 3.41382 5.65497 3.5074 5.65497 3.60817C5.65497 3.71975 5.69096 3.81153 5.76294 3.88351C5.83493 3.95549 5.92851 3.99148 6.04368 3.99148C6.16605 3.99148 6.26503 3.94829 6.34061 3.86191L7.15582 2.98732L7.52293 2.60401L7.49054 3.41382V4.98485C7.49054 5.10002 7.53193 5.199 7.61471 5.28178C7.70109 5.36456 7.80186 5.40595 7.91704 5.40595Z" fill="#3D4767"/>
</svg>
