<svg width="32" height="32" viewBox="0 0 32 32" fill="none" xmlns="http://www.w3.org/2000/svg">
<circle cx="16" cy="16" r="14" fill="white"/>
<circle cx="16" cy="16" r="15.5" stroke="#D9DFE5"/>
<path d="M23.7377 19.2496L21.2922 21.8229C21.239 21.8788 21.1747 21.9234 21.1032 21.9539C21.0317 21.9843 20.9546 22 20.8767 22H9.2839C9.22859 22 9.17448 21.9841 9.12822 21.9544C9.08197 21.9246 9.04558 21.8822 9.02353 21.8325C9.00148 21.7827 8.99473 21.7277 9.00411 21.6742C9.01349 21.6207 9.03859 21.5711 9.07633 21.5314L11.5237 18.958C11.5767 18.9022 11.6408 18.8578 11.712 18.8273C11.7833 18.7969 11.8601 18.7811 11.9379 18.7809H23.5301C23.5854 18.7809 23.6395 18.7968 23.6858 18.8266C23.732 18.8563 23.7683 18.8987 23.7905 18.9485C23.8125 18.9983 23.8192 19.0533 23.8098 19.1068C23.8005 19.1603 23.7754 19.2099 23.7377 19.2496ZM21.2922 14.0675C21.239 14.0116 21.1747 13.967 21.1032 13.9366C21.0317 13.9061 20.9546 13.8904 20.8767 13.8905H9.2839C9.22859 13.8905 9.17448 13.9063 9.12822 13.9361C9.08197 13.9659 9.04558 14.0082 9.02353 14.058C9.00148 14.1078 8.99473 14.1628 9.00411 14.2163C9.01349 14.2698 9.03859 14.3194 9.07633 14.3591L11.5237 16.9325C11.5767 16.9882 11.6408 17.0327 11.712 17.0632C11.7833 17.0936 11.8601 17.1094 11.9379 17.1095H23.5301C23.5854 17.1095 23.6395 17.0937 23.6858 17.0639C23.732 17.0341 23.7683 16.9918 23.7905 16.942C23.8125 16.8922 23.8192 16.8372 23.8098 16.7837C23.8005 16.7302 23.7754 16.6806 23.7377 16.6409L21.2922 14.0675ZM9.2839 12.2191H20.8767C20.9546 12.2191 21.0317 12.2034 21.1032 12.1729C21.1747 12.1425 21.239 12.0979 21.2922 12.042L23.7377 9.46862C23.7754 9.42894 23.8005 9.3793 23.8098 9.32581C23.8192 9.27232 23.8125 9.21731 23.7905 9.16753C23.7683 9.11776 23.732 9.07538 23.6858 9.04562C23.6395 9.01586 23.5854 9 23.5301 9H11.9379C11.8601 9.00013 11.7833 9.01591 11.712 9.04636C11.6408 9.07682 11.5767 9.1213 11.5237 9.17705L9.07696 11.7504C9.03926 11.7901 9.01417 11.8397 9.00477 11.8931C8.99537 11.9465 9.00206 12.0015 9.02403 12.0512C9.046 12.101 9.0823 12.1434 9.12846 12.1732C9.17462 12.203 9.22864 12.2189 9.2839 12.2191Z" fill="url(#paint0_linear_410_191)"/>
<defs>
<linearGradient id="paint0_linear_410_191" x1="10.2505" y1="22.3098" x2="22.1498" y2="8.63876" gradientUnits="userSpaceOnUse">
<stop offset="0.08" stop-color="#9945FF"/>
<stop offset="0.3" stop-color="#8752F3"/>
<stop offset="0.5" stop-color="#5497D5"/>
<stop offset="0.6" stop-color="#43B4CA"/>
<stop offset="0.72" stop-color="#28E0B9"/>
<stop offset="0.97" stop-color="#19FB9B"/>
</linearGradient>
</defs>
</svg>
