<svg width="14" height="25" viewBox="0 0 14 25" fill="none" xmlns="http://www.w3.org/2000/svg">
<path d="M13 18.3939L2.58947 18.3939L6.06021 14.4366L5.3466 13.7771L1.12981 18.5588C1.0325 18.6577 1.00006 18.7566 1.00006 18.8885C1.00006 19.0204 1.0325 19.1194 1.12981 19.2183L5.3466 23.9999L6.06021 23.3404L2.55703 19.3832L13 19.3832L13 18.3939Z" fill="#A8AEB7" stroke="#A8AEB7"/>
<path d="M1 6.60607L11.4105 6.60607L7.93979 10.5633L8.6534 11.2228L12.8702 6.44119C12.9675 6.34226 12.9999 6.24333 12.9999 6.11142C12.9999 5.97951 12.9675 5.88058 12.8702 5.78165L8.6534 0.999998L7.93979 1.65954L11.443 5.61677L1 5.61677L1 6.60607Z" fill="#A8AEB7" stroke="#A8AEB7"/>
</svg>
