<svg width="19" height="23" viewBox="0 0 19 23" fill="none" xmlns="http://www.w3.org/2000/svg">
<path d="M9.34375 3.25504C7.16633 3.25504 5.31552 4.02923 3.79133 5.57762C2.26714 7.10181 1.50504 8.94052 1.50504 11.0938C1.50504 13.2712 2.26714 15.122 3.79133 16.6462C5.33972 18.1704 7.19052 18.9325 9.34375 18.9325C11.5212 18.9325 13.372 18.1704 14.8962 16.6462C16.4204 15.0978 17.1825 13.247 17.1825 11.0938C17.1825 8.91633 16.4083 7.06552 14.8599 5.54133C13.3357 4.01714 11.497 3.25504 9.34375 3.25504ZM2.95665 4.74294C4.72278 2.97681 6.85181 2.09375 9.34375 2.09375C11.8357 2.09375 13.9526 2.97681 15.6946 4.74294C17.4607 6.48488 18.3438 8.60181 18.3438 11.0938C18.3438 13.5857 17.4607 15.7147 15.6946 17.4808C13.9526 19.2228 11.8357 20.0938 9.34375 20.0938C6.85181 20.0938 4.72278 19.2228 2.95665 17.4808C1.21472 15.7147 0.34375 13.5857 0.34375 11.0938C0.34375 8.60181 1.21472 6.48488 2.95665 4.74294ZM8.94456 6.44859H9.74294C9.88811 6.44859 9.99698 6.49698 10.0696 6.59375C10.1663 6.66633 10.2026 6.7631 10.1784 6.88407L9.9244 12.9808C9.9244 13.2712 9.77923 13.4163 9.48891 13.4163H9.19859C8.90827 13.4163 8.76311 13.2712 8.76311 12.9808L8.50907 6.88407C8.48488 6.7631 8.50907 6.66633 8.58165 6.59375C8.67843 6.49698 8.7994 6.44859 8.94456 6.44859ZM8.61794 14.4325C8.81149 14.2389 9.05343 14.1421 9.34375 14.1421C9.63407 14.1421 9.87601 14.2389 10.0696 14.4325C10.2631 14.626 10.3599 14.8679 10.3599 15.1583C10.3599 15.4486 10.2631 15.6905 10.0696 15.8841C9.87601 16.0776 9.63407 16.1744 9.34375 16.1744C9.05343 16.1744 8.81149 16.0776 8.61794 15.8841C8.4244 15.6905 8.32762 15.4486 8.32762 15.1583C8.32762 14.8679 8.4244 14.626 8.61794 14.4325Z" fill="#F41973"/>
</svg>
