<svg width="36" height="20" viewBox="0 0 36 20" fill="none" xmlns="http://www.w3.org/2000/svg">
<mask id="path-1-inside-1_158_436" fill="white">
<path fill-rule="evenodd" clip-rule="evenodd" d="M14.3641 1H26C30.9706 1 35 5.02944 35 10C35 14.9706 30.9706 19 26 19H14.3641C17.7003 17.3793 20 13.9582 20 10C20 6.0418 17.7003 2.62072 14.3641 1ZM10 0H26C31.5228 0 36 4.47715 36 10C36 15.5228 31.5228 20 26 20H10C4.47715 20 0 15.5228 0 10C0 4.47715 4.47715 0 10 0Z"/>
</mask>
<path fill-rule="evenodd" clip-rule="evenodd" d="M14.3641 1H26C30.9706 1 35 5.02944 35 10C35 14.9706 30.9706 19 26 19H14.3641C17.7003 17.3793 20 13.9582 20 10C20 6.0418 17.7003 2.62072 14.3641 1ZM10 0H26C31.5228 0 36 4.47715 36 10C36 15.5228 31.5228 20 26 20H10C4.47715 20 0 15.5228 0 10C0 4.47715 4.47715 0 10 0Z" fill="#BA62FE"/>
<path d="M14.3641 1V0L13.9272 1.89948L14.3641 1ZM14.3641 19L13.9272 18.1005L14.3641 20V19ZM26 0H14.3641V2H26V0ZM36 10C36 4.47715 31.5228 0 26 0V2C30.4183 2 34 5.58172 34 10H36ZM26 20C31.5228 20 36 15.5228 36 10H34C34 14.4183 30.4183 18 26 18V20ZM14.3641 20H26V18H14.3641V20ZM19 10C19 13.5609 16.9321 16.6407 13.9272 18.1005L14.8011 19.8995C18.4685 18.1178 21 14.3555 21 10H19ZM13.9272 1.89948C16.9321 3.35928 19 6.4391 19 10H21C21 5.64449 18.4685 1.88216 14.8011 0.100523L13.9272 1.89948ZM26 -1H10V1H26V-1ZM37 10C37 3.92487 32.0751 -1 26 -1V1C30.9706 1 35 5.02944 35 10H37ZM26 21C32.0751 21 37 16.0751 37 10H35C35 14.9706 30.9706 19 26 19V21ZM10 21H26V19H10V21ZM-1 10C-1 16.0751 3.92487 21 10 21V19C5.02944 19 1 14.9706 1 10H-1ZM10 -1C3.92487 -1 -1 3.92487 -1 10H1C1 5.02944 5.02944 1 10 1V-1Z" fill="#BA62FE" mask="url(#path-1-inside-1_158_436)"/>
</svg>
