<svg width="36" height="20" viewBox="0 0 36 20" fill="none" xmlns="http://www.w3.org/2000/svg">
<mask id="path-1-inside-1_158_435" fill="white">
<path fill-rule="evenodd" clip-rule="evenodd" d="M21.6359 19C18.2997 17.3793 16 13.9582 16 10C16 6.0418 18.2997 2.62072 21.6359 1H10C5.02944 1 1 5.02944 1 10C1 14.9706 5.02944 19 10 19H21.6359ZM0 10C0 4.47715 4.47715 0 10 0H26C31.5228 0 36 4.47715 36 10C36 15.5228 31.5228 20 26 20H10C4.47715 20 0 15.5228 0 10Z"/>
</mask>
<path fill-rule="evenodd" clip-rule="evenodd" d="M21.6359 19C18.2997 17.3793 16 13.9582 16 10C16 6.0418 18.2997 2.62072 21.6359 1H10C5.02944 1 1 5.02944 1 10C1 14.9706 5.02944 19 10 19H21.6359ZM0 10C0 4.47715 4.47715 0 10 0H26C31.5228 0 36 4.47715 36 10C36 15.5228 31.5228 20 26 20H10C4.47715 20 0 15.5228 0 10Z" fill="#9D4DFA"/>
<path d="M21.6359 19V20L22.0728 18.1005L21.6359 19ZM21.6359 1L22.0728 1.89948L21.6359 0V1ZM22.0728 18.1005C19.0679 16.6407 17 13.5609 17 10H15C15 14.3555 17.5315 18.1178 21.1989 19.8995L22.0728 18.1005ZM17 10C17 6.4391 19.0679 3.35928 22.0728 1.89948L21.1989 0.100523C17.5315 1.88216 15 5.64449 15 10H17ZM21.6359 0H10V2H21.6359V0ZM10 0C4.47715 0 0 4.47715 0 10H2C2 5.58172 5.58172 2 10 2V0ZM0 10C0 15.5228 4.47715 20 10 20V18C5.58172 18 2 14.4183 2 10H0ZM10 20H21.6359V18H10V20ZM10 -1C3.92487 -1 -1 3.92487 -1 10H1C1 5.02944 5.02944 1 10 1V-1ZM26 -1H10V1H26V-1ZM37 10C37 3.92487 32.0751 -1 26 -1V1C30.9706 1 35 5.02944 35 10H37ZM26 21C32.0751 21 37 16.0751 37 10H35C35 14.9706 30.9706 19 26 19V21ZM10 21H26V19H10V21ZM-1 10C-1 16.0751 3.92487 21 10 21V19C5.02944 19 1 14.9706 1 10H-1Z" fill="#9D4DFA" mask="url(#path-1-inside-1_158_435)"/>
</svg>
