<svg width="15" height="16" viewBox="0 0 15 16" fill="none" xmlns="http://www.w3.org/2000/svg">
<path d="M3.76719 2.44336L0.808205 5.46094C0.69883 5.57422 0.644142 5.70312 0.644142 5.84766C0.644142 6.00391 0.691017 6.13086 0.784767 6.22852C0.882423 6.32227 1.00742 6.36914 1.15977 6.36914C1.3043 6.36914 1.42735 6.31836 1.52891 6.2168L2.74766 4.95703L3.69102 3.86719L3.63242 5.2207V12.75C3.63242 12.9023 3.68125 13.0273 3.77891 13.125C3.87656 13.2266 4.00352 13.2773 4.15977 13.2773C4.31211 13.2773 4.43711 13.2266 4.53477 13.125C4.63242 13.0273 4.68125 12.9023 4.68125 12.75V5.2207L4.62852 3.86719L5.56602 4.95703L6.79063 6.2168C6.88828 6.31836 7.00938 6.36914 7.15391 6.36914C7.30625 6.36914 7.4293 6.32227 7.52305 6.22852C7.6207 6.13086 7.66953 6.00391 7.66953 5.84766C7.66953 5.70312 7.61485 5.57422 7.50547 5.46094L4.55235 2.44336C4.44297 2.32617 4.31211 2.26758 4.15977 2.26758C4.00742 2.26367 3.87656 2.32227 3.76719 2.44336ZM11.2379 13.1074L14.191 10.0781C14.3004 9.96875 14.3551 9.83984 14.3551 9.69141C14.3551 9.53516 14.3063 9.41016 14.2086 9.31641C14.1148 9.22266 13.9918 9.17578 13.8395 9.17578C13.6949 9.17578 13.5738 9.22461 13.4762 9.32227L12.2574 10.582L11.3141 11.6777L11.3668 10.3242V2.79492C11.3668 2.64258 11.318 2.51758 11.2203 2.41992C11.1227 2.31836 10.9977 2.26758 10.8453 2.26758C10.693 2.26758 10.566 2.31836 10.4645 2.41992C10.3668 2.51758 10.318 2.64258 10.318 2.79492V10.3242L10.3766 11.6777L9.4332 10.582L8.21445 9.32227C8.11289 9.22461 7.9918 9.17578 7.85117 9.17578C7.69883 9.17578 7.57383 9.22266 7.47617 9.31641C7.37852 9.41016 7.32969 9.53516 7.32969 9.69141C7.32969 9.83984 7.38633 9.96875 7.49961 10.0781L10.4527 13.1074C10.5621 13.2207 10.691 13.2773 10.8395 13.2773C10.9918 13.2812 11.1246 13.2246 11.2379 13.1074Z" fill="black"/>
</svg>
