<svg width="19" height="15" viewBox="0 0 19 15" fill="none" xmlns="http://www.w3.org/2000/svg">
<path d="M18.1348 7.40234C18.1348 7.15495 18.0371 6.93685 17.8418 6.74805L11.3672 0.292969C11.263 0.188802 11.1556 0.113932 11.0449 0.0683594C10.9408 0.0227865 10.8301 0 10.7129 0C10.472 0 10.2702 0.0813802 10.1074 0.244141C9.94466 0.400391 9.86328 0.598958 9.86328 0.839844C9.86328 0.957031 9.88281 1.07096 9.92188 1.18164C9.96094 1.28581 10.0195 1.37695 10.0977 1.45508L12.2852 3.68164L16.1621 7.2168L16.3574 6.72852L13.2129 6.5332H0.859375C0.605469 6.5332 0.397135 6.61458 0.234375 6.77734C0.078125 6.9401 0 7.14844 0 7.40234C0 7.65625 0.078125 7.86458 0.234375 8.02734C0.397135 8.1901 0.605469 8.27148 0.859375 8.27148H13.2129L16.3574 8.07617L16.1621 7.59766L12.2852 11.123L10.0977 13.3496C10.0195 13.4277 9.96094 13.5221 9.92188 13.6328C9.88281 13.737 9.86328 13.8477 9.86328 13.9648C9.86328 14.2057 9.94466 14.4043 10.1074 14.5605C10.2702 14.7233 10.472 14.8047 10.7129 14.8047C10.9473 14.8047 11.1589 14.7135 11.3477 14.5312L17.8418 8.05664C18.0371 7.86784 18.1348 7.64974 18.1348 7.40234Z" fill="black"/>
</svg>
