<svg width="11" height="13" viewBox="0 0 11 13" fill="none" xmlns="http://www.w3.org/2000/svg">
<path d="M1.26257 12.2632H9.70496C10.0604 12.2632 10.3397 12.1828 10.5428 12.022C10.746 11.8654 10.8475 11.6453 10.8475 11.3618C10.8475 10.9598 10.7227 10.5324 10.473 10.0796C10.2233 9.62679 9.86365 9.20573 9.39392 8.81641C8.92843 8.42285 8.3656 8.10335 7.70544 7.85791C7.04529 7.60824 6.30261 7.4834 5.47742 7.4834C4.65645 7.4834 3.91589 7.60824 3.25574 7.85791C2.59558 8.10335 2.03064 8.42285 1.56091 8.81641C1.09542 9.20573 0.737834 9.62679 0.488159 10.0796C0.242716 10.5324 0.119995 10.9598 0.119995 11.3618C0.119995 11.6453 0.221558 11.8654 0.424683 12.022C0.627808 12.1828 0.907104 12.2632 1.26257 12.2632ZM5.48376 6.35986C5.94503 6.35986 6.37032 6.23503 6.75964 5.98535C7.14897 5.73568 7.46 5.39925 7.69275 4.97607C7.92973 4.54867 8.04822 4.06836 8.04822 3.53516C8.04822 3.01888 7.92973 2.55339 7.69275 2.13867C7.46 1.71973 7.14897 1.38965 6.75964 1.14844C6.37032 0.907227 5.94503 0.786621 5.48376 0.786621C5.02673 0.786621 4.60356 0.909342 4.21423 1.15479C3.82491 1.40023 3.51176 1.73242 3.27478 2.15137C3.04203 2.56608 2.92566 3.03158 2.92566 3.54785C2.92566 4.07682 3.04203 4.5529 3.27478 4.97607C3.51176 5.39925 3.82279 5.73568 4.20789 5.98535C4.59721 6.23503 5.0225 6.35986 5.48376 6.35986Z" fill="#646F85"/>
</svg>
