<svg width="13" height="11" viewBox="0 0 13 11" fill="none" xmlns="http://www.w3.org/2000/svg">
<path d="M11 0C11.4346 0 11.7857 0.351853 11.7857 0.785714C11.7857 1.21958 11.4346 1.57143 11 1.57143H1.96429C1.74723 1.57143 1.57143 1.74821 1.57143 1.96429C1.57143 2.18036 1.74723 2.35714 1.96429 2.35714H11C11.8667 2.35714 12.5714 3.06183 12.5714 3.92857V9.42857C12.5714 10.2953 11.8667 11 11 11H1.57143C0.70346 11 0 10.2953 0 9.42857V1.57143C0 0.70346 0.70346 0 1.57143 0H11ZM10.2143 7.46429C10.6489 7.46429 11 7.11317 11 6.67857C11 6.24397 10.6489 5.89286 10.2143 5.89286C9.77969 5.89286 9.42857 6.24397 9.42857 6.67857C9.42857 7.11317 9.77969 7.46429 10.2143 7.46429Z" fill="#646F85"/>
</svg>
