<svg width="20" height="20" viewBox="0 0 20 20" fill="none" xmlns="http://www.w3.org/2000/svg">
<path fill-rule="evenodd" clip-rule="evenodd" d="M9.99984 19.3333C15.1545 19.3333 19.3332 15.1546 19.3332 9.99996C19.3332 4.8453 15.1545 0.666626 9.99984 0.666626C4.84518 0.666626 0.666504 4.8453 0.666504 9.99996C0.666504 15.1546 4.84518 19.3333 9.99984 19.3333Z" stroke="#0BB6B3"/>
<path d="M8.28833 12.7739L14.7385 6.35442C14.8556 6.23784 15.0476 6.23579 15.1673 6.34983C15.2871 6.46387 15.2892 6.65081 15.172 6.76739L8.50512 13.4026C8.38617 13.521 8.19049 13.521 8.07153 13.4026L5.10846 10.4536C4.99133 10.3371 4.99344 10.1501 5.11317 10.0361C5.2329 9.92204 5.42492 9.92409 5.54205 10.0407L8.28833 12.7739Z" stroke="#0BB6B3"/>
</svg>
