<svg width="20" height="21" viewBox="0 0 20 21" fill="none" xmlns="http://www.w3.org/2000/svg">
<path d="M9.91646 5.28525C10.2266 5.28525 10.478 5.53667 10.478 5.84681L10.478 6.984C10.7104 7.02708 10.9228 7.09972 11.1152 7.20191C11.4477 7.37859 11.7038 7.63002 11.8834 7.9562C12.0696 8.27558 12.1627 8.65952 12.1627 9.10801H11.0852C11.0852 8.72068 10.9855 8.42508 10.786 8.22122C10.5864 8.01736 10.3038 7.91543 9.93796 7.91543C9.57216 7.91543 9.28617 8.01736 9.07999 8.22122C8.88046 8.42508 8.7807 8.71728 8.7807 9.09782L8.7807 10.7117C8.7807 11.0923 8.88046 11.3879 9.07999 11.5985C9.28617 11.8024 9.57216 11.9043 9.93796 11.9043C10.3038 11.9043 10.5864 11.8024 10.786 11.5985C10.9855 11.3879 11.0852 11.0923 11.0852 10.7117H12.1627C12.1627 11.1534 12.0696 11.5374 11.8834 11.8635C11.7038 12.1897 11.4477 12.4411 11.1152 12.6178C10.9228 12.72 10.7104 12.7927 10.478 12.8357V13.9729C10.478 14.2831 10.2266 14.5345 9.91646 14.5345C9.60632 14.5345 9.3549 14.2831 9.3549 13.9729V12.8299C9.13678 12.7878 8.9354 12.7205 8.75077 12.628C8.41822 12.4513 8.15883 12.1999 7.97261 11.8737C7.79303 11.5408 7.70325 11.1534 7.70325 10.7117L7.70325 9.10801C7.70325 8.65952 7.79303 8.27218 7.97261 7.94601C8.15883 7.61983 8.41822 7.3718 8.75077 7.20191C8.9354 7.10575 9.13678 7.03575 9.3549 6.99193V5.84681C9.3549 5.53667 9.60632 5.28525 9.91646 5.28525Z" fill="#9742FB"/>
<path fill-rule="evenodd" clip-rule="evenodd" d="M9.994 1.32129L17.9761 5.94591V14.1216L9.994 19.1591L1.98193 14.1216L1.98193 5.94591L9.994 1.32129ZM3.30325 6.70887L9.99276 2.84764L16.6548 6.70743V13.393L9.99268 17.5975L3.30325 13.3916L3.30325 6.70887Z" fill="#9742FB"/>
</svg>
