<svg width="21" height="21" viewBox="0 0 21 21" fill="none" xmlns="http://www.w3.org/2000/svg">
<path fill-rule="evenodd" clip-rule="evenodd" d="M10.3895 19.552C15.5441 19.552 19.7228 15.3734 19.7228 10.2187C19.7228 5.06405 15.5441 0.885376 10.3895 0.885376C5.23482 0.885376 1.05615 5.06405 1.05615 10.2187C1.05615 15.3734 5.23482 19.552 10.3895 19.552Z" stroke="#646F85"/>
<path d="M10 0C7.95713 -2.4361e-08 5.96327 0.625668 4.28665 1.79283C2.61003 2.96 1.3311 4.61266 0.621912 6.52848C-0.0872749 8.4443 -0.192692 10.5314 0.319843 12.5089C0.832378 14.4864 1.93827 16.2595 3.48875 17.5897L4.49478 16.417C3.18387 15.2924 2.24884 13.7932 1.81549 12.1213C1.38215 10.4493 1.47128 8.68467 2.07089 7.06485C2.6705 5.44504 3.75183 4.04772 5.1694 3.06089C6.58697 2.07407 8.27277 1.54507 10 1.54507V0Z" fill="#0BB6B3"/>
</svg>
