<svg width="12" height="15" viewBox="0 0 12 15" fill="none" xmlns="http://www.w3.org/2000/svg">
<path d="M5.93639 0.907715C5.75465 0.907715 5.60554 0.965962 5.48905 1.08246C5.37255 1.19429 5.3143 1.34108 5.3143 1.52281L5.3143 10.7283L5.3842 12.8112L5.77562 12.6714L3.27331 9.92445L1.67965 8.35875C1.62373 8.30283 1.55617 8.26089 1.47695 8.23293C1.40239 8.20498 1.32318 8.191 1.2393 8.191C1.06689 8.191 0.922432 8.24924 0.805937 8.36574C0.694101 8.48223 0.638184 8.62669 0.638184 8.7991C0.638184 8.96686 0.703421 9.1183 0.833896 9.25343L5.46808 13.9016C5.53797 13.9715 5.61253 14.0227 5.69175 14.0554C5.77096 14.0926 5.85251 14.1113 5.93639 14.1113C6.02492 14.1113 6.1088 14.0926 6.18802 14.0554C6.26723 14.0227 6.33946 13.9715 6.4047 13.9016L11.0459 9.25343C11.1717 9.1183 11.2346 8.96686 11.2346 8.7991C11.2346 8.62669 11.1763 8.48223 11.0598 8.36574C10.948 8.24924 10.8059 8.191 10.6335 8.191C10.5496 8.191 10.4681 8.20498 10.3888 8.23293C10.3143 8.26089 10.249 8.30283 10.1931 8.35875L8.59947 9.92445L6.09016 12.6714L6.48857 12.8112L6.55847 10.7283L6.55847 1.52281C6.55847 1.34108 6.50022 1.19429 6.38373 1.08246C6.26723 0.965962 6.11812 0.907715 5.93639 0.907715Z" fill="#9742FB"/>
</svg>
