<svg width="31" height="30" viewBox="0 0 31 30" fill="none" xmlns="http://www.w3.org/2000/svg">
<path fill-rule="evenodd" clip-rule="evenodd" d="M7.09249 3.44704C9.72412 1.6458 12.8919 0.796998 16.0715 1.04108L16.0013 1.95652C13.0301 1.72845 10.0701 2.52158 7.61107 4.2047C5.15202 5.88781 3.34129 8.36003 2.47849 11.2123C1.61568 14.0646 1.75253 17.1259 2.86636 19.8898C3.9802 22.6537 6.00428 24.9545 8.6037 26.4115C11.2031 27.8685 14.2221 28.3944 17.161 27.9022C20.1 27.4099 22.7828 25.929 24.7656 23.7045C26.7484 21.48 27.9123 18.6453 28.0647 15.6693C28.2124 12.7874 27.403 9.94044 25.767 7.56981L24.7828 11.234C24.7419 11.3881 24.6213 11.5123 24.4664 11.5599C24.3115 11.6075 24.1459 11.5712 24.0319 11.4648C23.918 11.3583 23.873 11.1978 23.914 11.0437L25.1398 6.4763C25.1713 6.35939 25.2494 6.25821 25.3561 6.19603C25.4471 6.14203 25.5532 6.12019 25.6559 6.13427L30.3399 6.78566C30.4978 6.808 30.628 6.91197 30.6817 7.05841C30.7353 7.20484 30.7042 7.3715 30.6 7.49559C30.4958 7.61968 30.3343 7.68235 30.1765 7.65999L26.6012 7.16345C28.2993 9.67723 29.1373 12.6787 28.9817 15.7162C28.8185 18.9011 27.5729 21.9348 25.451 24.3154C23.329 26.696 20.4579 28.2809 17.3127 28.8077C14.1675 29.3345 10.9366 28.7717 8.15478 27.2124C5.37293 25.6532 3.20679 23.1909 2.01478 20.233C0.822769 17.2751 0.676325 13.9989 1.59968 10.9465C2.52304 7.89401 4.46085 5.24829 7.09249 3.44704ZM25.9685 7.07557L25.9022 7.06636L25.8831 7.13721L25.9685 7.07557Z" fill="#646F85"/>
<path d="M16.3981 0.0440006C14.3344 -0.114418 12.2602 0.155975 10.3061 0.838167C8.35193 1.52036 6.56013 2.59959 5.04339 4.00795C3.52664 5.41632 2.31778 7.12335 1.49285 9.02164C0.667922 10.9199 0.244781 12.9684 0.250049 15.0382L2.56764 15.0323C2.56319 13.2823 2.92095 11.5503 3.61842 9.94533C4.3159 8.34034 5.33798 6.89706 6.62038 5.7063C7.90278 4.51553 9.41773 3.60305 11.0699 3.02627C12.7221 2.44948 14.4758 2.22086 16.2207 2.3548L16.3981 0.0440006Z" fill="#0BB6B3"/>
<path d="M15 7C12.9744 7 11.3333 8.80121 11.3333 11.0244V13.2195H11C10.4518 13.2195 10 13.7154 10 14.3171V20.9024C10 21.5042 10.4518 22 11 22H19C19.5482 22 20 21.5042 20 20.9024V14.3171C20 13.7154 19.5482 13.2195 19 13.2195H18.6667V11.0244C18.6667 8.80121 17.0256 7 15 7ZM15 7.73171C16.6678 7.73171 18 9.19391 18 11.0244V13.2195H12V11.0244C12 9.19391 13.3322 7.73171 15 7.73171ZM11 13.9512H19C19.1904 13.9512 19.3333 14.1081 19.3333 14.3171V20.9024C19.3333 21.1115 19.1904 21.2683 19 21.2683H11C10.8096 21.2683 10.6667 21.1115 10.6667 20.9024V14.3171C10.6667 14.1081 10.8096 13.9512 11 13.9512Z" fill="#646F85"/>
</svg>
