<svg width="12" height="15" viewBox="0 0 12 15" fill="none" xmlns="http://www.w3.org/2000/svg">
<path d="M5.93639 14.1113C5.75465 14.1113 5.60554 14.0531 5.48905 13.9366C5.37255 13.8247 5.3143 13.678 5.3143 13.4962V4.29078L5.3842 2.20785L5.77562 2.34764L3.27331 5.0946L1.67965 6.66029C1.62373 6.71621 1.55617 6.75815 1.47695 6.78611C1.40239 6.81407 1.32318 6.82805 1.2393 6.82805C1.06689 6.82805 0.922432 6.7698 0.805937 6.6533C0.694101 6.53681 0.638184 6.39235 0.638184 6.21994C0.638184 6.05219 0.703421 5.90074 0.833896 5.76561L5.46808 1.11745C5.53797 1.04755 5.61253 0.996295 5.69175 0.963676C5.77096 0.926398 5.85251 0.907759 5.93639 0.907759C6.02492 0.907759 6.1088 0.926398 6.18802 0.963676C6.26723 0.996295 6.33946 1.04755 6.4047 1.11745L11.0459 5.76561C11.1717 5.90074 11.2346 6.05219 11.2346 6.21994C11.2346 6.39235 11.1763 6.53681 11.0598 6.6533C10.948 6.7698 10.8059 6.82805 10.6335 6.82805C10.5496 6.82805 10.4681 6.81407 10.3888 6.78611C10.3143 6.75815 10.249 6.71621 10.1931 6.66029L8.59947 5.0946L6.09016 2.34764L6.48857 2.20785L6.55847 4.29078V13.4962C6.55847 13.678 6.50022 13.8247 6.38373 13.9366C6.26723 14.0531 6.11812 14.1113 5.93639 14.1113Z" fill="#9742FB"/>
</svg>
