<svg width="14" height="18" viewBox="0 0 14 18" fill="none" xmlns="http://www.w3.org/2000/svg">
<path d="M13.6656 4.49395L10.0659 0.964144C9.93074 0.83367 9.77697 0.768432 9.60455 0.768432C9.41816 0.768432 9.26672 0.82435 9.15022 0.936186C9.03839 1.05268 8.98247 1.20179 8.98247 1.38353C8.98247 1.55594 9.04305 1.70272 9.1642 1.82388L10.667 3.27774L11.9671 4.40308L10.3525 4.33319L1.37067 4.33319C1.18894 4.33319 1.03983 4.39143 0.92333 4.50793C0.802175 4.62442 0.741598 4.77587 0.741598 4.96226C0.741598 5.14399 0.802175 5.29311 0.92333 5.4096C1.03983 5.5261 1.18894 5.58434 1.37067 5.58434L10.3525 5.58435L11.9671 5.52144L10.667 6.63979L9.1642 8.10064C9.04305 8.21714 8.98247 8.36159 8.98247 8.534C8.98247 8.71574 9.03839 8.86252 9.15022 8.97436C9.26672 9.09085 9.41816 9.1491 9.60455 9.1491C9.77697 9.1491 9.93074 9.08386 10.0659 8.95339L13.6656 5.43057C13.8054 5.3001 13.8753 5.14399 13.8753 4.96226C13.8799 4.78053 13.81 4.62442 13.6656 4.49395ZM0.944299 13.4058L4.55798 16.9286C4.68846 17.0591 4.84223 17.1244 5.0193 17.1244C5.20569 17.1244 5.35481 17.0661 5.46664 16.9496C5.57848 16.8378 5.6344 16.691 5.6344 16.5093C5.6344 16.3369 5.57615 16.1924 5.45965 16.0759L3.95687 14.622L2.64979 13.4967L4.26441 13.5596L13.2462 13.5596C13.4279 13.5596 13.577 13.5014 13.6935 13.3849C13.8147 13.2684 13.8753 13.1193 13.8753 12.9375C13.8753 12.7558 13.8147 12.6043 13.6935 12.4832C13.577 12.3667 13.4279 12.3084 13.2462 12.3084L4.26441 12.3084L2.64979 12.3783L3.95687 11.253L5.45965 9.79914C5.57615 9.67799 5.6344 9.53353 5.6344 9.36578C5.6344 9.18405 5.57848 9.03493 5.46664 8.91844C5.35481 8.80194 5.20569 8.7437 5.0193 8.7437C4.84223 8.7437 4.68846 8.81126 4.55798 8.9464L0.944299 12.4692C0.809164 12.5997 0.741598 12.7535 0.741598 12.9305C0.736937 13.1123 0.804505 13.2707 0.944299 13.4058Z" fill="#9742FB"/>
</svg>
