<svg width="22" height="22" viewBox="0 0 22 22" fill="none" xmlns="http://www.w3.org/2000/svg">
<path fill-rule="evenodd" clip-rule="evenodd" d="M10.8 21.0024C16.2124 21.0024 20.6 16.6147 20.6 11.2023C20.6 5.78995 16.2124 1.40234 10.8 1.40234C5.38761 1.40234 1 5.78995 1 11.2023C1 16.6147 5.38761 21.0024 10.8 21.0024Z" stroke="url(#paint0_linear_3134_3836)" stroke-width="1.5"/>
<path d="M9.00292 14.1145L15.7756 7.37399C15.8985 7.25159 16.1002 7.24943 16.2259 7.36918C16.3516 7.48892 16.3538 7.68521 16.2308 7.80761L9.23055 14.7746C9.10565 14.8989 8.90018 14.8989 8.77528 14.7746L5.66405 11.6782C5.54107 11.5558 5.54328 11.3595 5.669 11.2397C5.79472 11.12 5.99633 11.1222 6.11932 11.2446L9.00292 14.1145Z" stroke="#2CD2CF"/>
<defs>
<linearGradient id="paint0_linear_3134_3836" x1="1" y1="11.0242" x2="20.6" y2="11.0242" gradientUnits="userSpaceOnUse">
<stop stop-color="#2CD2CF"/>
<stop offset="1" stop-color="#9D4DFA"/>
</linearGradient>
</defs>
</svg>
