<svg width="14" height="25" viewBox="0 0 14 25" fill="none" xmlns="http://www.w3.org/2000/svg">
<path d="M13 18.3939L2.58947 18.3939L6.06021 14.4366L5.3466 13.7771L1.12981 18.5588C1.0325 18.6577 1.00006 18.7566 1.00006 18.8885C1.00006 19.0204 1.0325 19.1194 1.12981 19.2183L5.3466 23.9999L6.06021 23.3404L2.55703 19.3832L13 19.3832L13 18.3939Z" fill="#A8AEB7" stroke="#A8AEB7"/>
<path d="M1 6.60613L11.4105 6.60613L7.93979 10.5634L8.6534 11.2229L12.8702 6.44125C12.9675 6.34232 12.9999 6.24339 12.9999 6.11148C12.9999 5.97957 12.9675 5.88064 12.8702 5.78171L8.6534 1.00006L7.93979 1.6596L11.443 5.61683L1 5.61683L1 6.60613Z" fill="#A8AEB7" stroke="#A8AEB7"/>
</svg>
