<svg width="26" height="26" viewBox="0 0 26 26" fill="none" xmlns="http://www.w3.org/2000/svg">
<g clip-path="url(#clip0_3134_3869)">
<path d="M25.0156 10.8935C24.7699 10.6478 24.3705 10.6478 24.1248 10.8935L22.6771 12.3412C22.6128 9.74564 21.5708 7.31383 19.7274 5.47171C17.8236 3.56785 15.2922 2.51953 12.5996 2.51953C8.85236 2.51953 5.43524 4.57963 3.68257 7.89469C3.52003 8.20213 3.63721 8.58391 3.94465 8.74645C4.25209 8.90899 4.63387 8.79181 4.79641 8.48438C6.32984 5.58259 9.31982 3.77953 12.5996 3.77953C17.3737 3.77953 21.2747 7.59355 21.4158 12.3337L19.9756 10.8935C19.7299 10.6478 19.3305 10.6478 19.0848 10.8935C18.8391 11.1392 18.8391 11.5386 19.0848 11.7843L21.6048 14.3043C21.7283 14.4278 21.8896 14.4883 22.0509 14.4883C22.2121 14.4883 22.3734 14.4265 22.4969 14.3043L25.0169 11.7843C25.2626 11.5386 25.2626 11.1392 25.0169 10.8935H25.0156Z" fill="url(#paint0_linear_3134_3869)"/>
<path d="M21.255 16.4526C20.9475 16.29 20.5658 16.4072 20.4032 16.7147C18.8698 19.6164 15.8798 21.4195 12.6 21.4195C7.82589 21.4195 3.92493 17.6055 3.78381 12.8654L5.22399 14.3055C5.34747 14.429 5.50875 14.4895 5.67003 14.4895C5.83131 14.4895 5.99259 14.4278 6.11607 14.3055C6.36177 14.0598 6.36177 13.6604 6.11607 13.4147L3.59607 10.8947C3.35037 10.649 2.95095 10.649 2.70525 10.8947L0.185252 13.4147C-0.0604485 13.6604 -0.0604485 14.0598 0.185252 14.3055C0.430952 14.5512 0.830372 14.5512 1.07607 14.3055L2.52381 12.8578C2.58807 15.4534 3.63009 17.8852 5.47347 19.7273C7.37733 21.6312 9.90868 22.6795 12.6013 22.6795C16.3485 22.6795 19.7657 20.6194 21.5183 17.3043C21.6809 16.9969 21.5637 16.6151 21.2562 16.4526H21.255Z" fill="url(#paint1_linear_3134_3869)"/>
<path fill-rule="evenodd" clip-rule="evenodd" d="M12.6002 17.5C15.3064 17.5 17.5002 15.3061 17.5002 12.6C17.5002 9.89376 15.3064 7.69995 12.6002 7.69995C9.894 7.69995 7.7002 9.89376 7.7002 12.6C7.7002 15.3061 9.894 17.5 12.6002 17.5Z" stroke="#D5D8DD"/>
</g>
<defs>
<linearGradient id="paint0_linear_3134_3869" x1="14.4053" y1="2.51953" x2="14.4053" y2="14.4883" gradientUnits="userSpaceOnUse">
<stop stop-color="#2CD2CF"/>
<stop offset="1" stop-color="#9D4DFA"/>
</linearGradient>
<linearGradient id="paint1_linear_3134_3869" x1="10.7962" y1="10.7104" x2="10.7962" y2="22.6795" gradientUnits="userSpaceOnUse">
<stop stop-color="#2CD2CF"/>
<stop offset="1" stop-color="#9D4DFA"/>
</linearGradient>
<clipPath id="clip0_3134_3869">
<rect width="25.2" height="25.2" fill="white"/>
</clipPath>
</defs>
</svg>
