<svg width="32" height="32" viewBox="0 0 32 32" fill="none" xmlns="http://www.w3.org/2000/svg">
<path d="M23.5035 28.9965C30.6813 24.8524 33.1406 15.6742 28.9965 8.49646C24.8524 1.3187 15.6742 -1.14058 8.49648 3.0035C1.31872 7.14758 -1.14056 16.3257 3.00352 23.5035C7.1476 30.6813 16.3258 33.1405 23.5035 28.9965Z" fill="url(#paint0_linear_3895_25921)"/>
<mask id="mask0_3895_25921" style="mask-type:alpha" maskUnits="userSpaceOnUse" x="6" y="7" width="20" height="16">
<path d="M25.5328 7.58035H6.56152V22.493H25.5328V7.58035Z" fill="white"/>
</mask>
<g mask="url(#mask0_3895_25921)">
<path d="M17.9807 17.4077V17.4036C16.8841 17.3817 16.0018 16.5077 16.0018 15.4307C16.0018 16.5053 15.1228 17.3781 14.0294 17.4031V17.4077C15.1228 17.4328 16.0018 18.3054 16.0018 19.3801C16.0014 18.3037 16.8841 17.4296 17.9807 17.4077Z" fill="white"/>
<path d="M17.5744 7.58014H14.5195C14.1256 7.58014 13.7649 7.7998 13.5844 8.14973L6.62791 21.6324C6.42547 22.0252 6.71042 22.4932 7.15271 22.4932H10.6654C11.063 22.4932 11.4263 22.2694 11.6051 21.9149L13.4736 18.2085C13.7276 17.7045 13.7235 17.1093 13.4622 16.609L12.1176 14.0331C11.7519 13.3328 12.2608 12.4942 13.0514 12.4951L19.0494 12.5015C19.84 12.5024 20.347 13.3419 19.98 14.0413L18.4667 16.927C18.3089 17.2273 18.3062 17.5856 18.459 17.8886L20.4888 21.9154C20.6676 22.2699 21.0309 22.4937 21.4285 22.4937H24.9412C25.3835 22.4937 25.6684 22.0257 25.466 21.6328L18.5095 8.14973C18.329 7.7998 17.9679 7.58014 17.5744 7.58014Z" fill="white"/>
</g>
<defs>
<linearGradient id="paint0_linear_3895_25921" x1="8.49647" y1="3.00348" x2="23.5035" y2="28.9965" gradientUnits="userSpaceOnUse">
<stop offset="0.140625" stop-color="#1A9FD5"/>
<stop offset="0.71875" stop-color="#5643F2"/>
<stop offset="0.993058" stop-color="#2233E2"/>
</linearGradient>
</defs>
</svg>
