<svg width="30" height="30" viewBox="0 0 30 30" fill="none" xmlns="http://www.w3.org/2000/svg">
<circle cx="15" cy="15" r="15" fill="white"/>
<circle cx="15" cy="15" r="14.5" stroke="#A8AEB7"/>
<path d="M22.2053 18.5H19.1072C18.441 18.5 18.1621 17.953 18.106 17.6796C18.0572 17.445 17.9879 17.2183 17.9 17.0013C17.7516 16.533 18.0041 16.2774 18.1489 16.2081L19.3896 15.4926C19.5606 15.7773 19.6985 16.0868 19.8128 16.4067C19.8784 16.5836 20.1232 16.9114 20.5772 16.8069L21.9359 16.4462C22.1073 17.1063 22.2053 17.7909 22.2053 18.5Z" fill="url(#paint0_linear_1065_556)"/>
<path fill-rule="evenodd" clip-rule="evenodd" d="M19.8548 12.852C18.8754 11.874 17.6512 11.1405 16.2556 10.7738L15.7414 12.7053C16.7698 12.9743 17.7002 13.5366 18.4347 14.2701L19.8548 12.852Z" fill="url(#paint1_linear_1065_556)"/>
<path d="M8.98378 15.4682C8.46961 16.3728 8.1758 17.3997 8.1758 18.5H7.26308C7.0677 18.5 6.76995 18.4321 6.48154 18.1255C6.25079 17.8803 6.23568 17.4906 6.25698 17.3265C6.37479 16.5499 6.60498 15.8092 6.91882 15.1165C7.00566 14.9143 7.3096 14.5685 7.83063 14.8032L8.98378 15.4682Z" fill="url(#paint2_linear_1065_556)"/>
<path d="M22.2053 18.5C22.2053 17.7909 22.1073 17.1063 21.9359 16.4462L23.2011 16.1104C23.4266 16.0512 23.9086 16.0722 24.0326 16.6296C24.0791 16.8706 24.1173 17.1158 24.1463 17.3636C24.1693 17.5061 24.1482 17.8672 23.8803 18.172C23.6123 18.4767 23.229 18.5 23.1265 18.5L22.2053 18.5Z" fill="#ABDA02"/>
<path d="M18.4347 14.2701L20.7985 11.9097C20.9635 11.7549 21.3876 11.5474 21.7635 11.9562C22.0357 12.2684 22.2896 12.5989 22.5225 12.9503C22.6204 13.1473 22.7108 13.6019 22.2893 13.845L19.3897 15.5171C19.1204 15.0525 18.802 14.6369 18.4347 14.2701Z" fill="#ABDA02"/>
<path d="M18.2144 11.5807C17.0392 10.8961 15.668 10.5049 14.199 10.5049C13.6952 10.5049 13.2038 10.5541 12.7246 10.6439C12.3003 10.7237 12.0595 10.3876 11.9921 10.2096L11.7992 9.48485C11.7541 9.26447 11.7867 8.79691 12.278 8.68973C12.8987 8.56652 13.5488 8.5 14.199 8.5C15.7638 8.5 17.2556 8.86477 18.5955 9.51556C18.7878 9.60585 19.1165 9.91048 18.8932 10.4068L18.2144 11.5807Z" fill="#ABDA02"/>
<path d="M14.1745 12.5096C14.7132 12.5096 15.2518 12.5831 15.7414 12.7053L15.3845 14.0466C15.3383 14.2218 15.1307 14.5614 14.6692 14.5185C14.5172 14.4996 14.3605 14.4901 14.199 14.4901C12.252 14.4901 10.6415 15.8718 10.2662 17.6888C10.2359 17.8157 10.1232 18.1087 9.91481 18.2648C9.65429 18.4599 9.44029 18.4999 9.27283 18.4999L8.1758 18.5C8.1758 15.1748 10.8691 12.5096 14.1745 12.5096Z" fill="#ABDA02"/>
<defs>
<linearGradient id="paint0_linear_1065_556" x1="15.2017" y1="8.5" x2="15.2017" y2="18.5" gradientUnits="userSpaceOnUse">
<stop stop-color="#6410D6"/>
<stop offset="1" stop-color="#A310D6"/>
</linearGradient>
<linearGradient id="paint1_linear_1065_556" x1="15.2016" y1="8.5" x2="15.2016" y2="18.5" gradientUnits="userSpaceOnUse">
<stop stop-color="#6410D6"/>
<stop offset="1" stop-color="#A310D6"/>
</linearGradient>
<linearGradient id="paint2_linear_1065_556" x1="15.2016" y1="8.50001" x2="15.2016" y2="18.5" gradientUnits="userSpaceOnUse">
<stop stop-color="#6410D6"/>
<stop offset="1" stop-color="#A310D6"/>
</linearGradient>
</defs>
</svg>
