<svg width="31" height="30" viewBox="0 0 31 30" fill="none" xmlns="http://www.w3.org/2000/svg">
<circle cx="15.5" cy="15" r="15" fill="#000D35"/>
<g clip-path="url(#clip0_3895_25895)">
<path d="M15.8423 15.3782H12.1677L13.7521 17.4611L13.7712 17.4798C13.7712 17.4985 13.7903 17.4985 13.7903 17.5172L14.048 17.8441L14.8115 18.8528L14.9356 18.9742C15.0709 19.0703 15.2389 19.1112 15.4044 19.0886C15.5699 19.066 15.72 18.9815 15.8232 18.8528L16.625 17.7974L17.5985 16.5364L17.8562 16.2095C17.8428 15.9466 17.8141 15.6847 17.7703 15.4249C17.761 15.2903 17.7241 15.1589 17.6618 15.0386C17.5995 14.9182 17.513 14.8114 17.4076 14.7244C17.1935 14.5711 16.9378 14.4833 16.6727 14.4722H16.6536V14.575C16.6526 14.7861 16.5671 14.9885 16.4155 15.1386C16.2638 15.2888 16.058 15.3748 15.8423 15.3782Z" fill="white"/>
<path d="M21.6454 11.2032H15.3175C15.1052 11.2019 14.902 11.1189 14.7519 10.972C14.6019 10.8251 14.517 10.6263 14.5157 10.4186V10.3158C14.1172 10.3034 13.7204 10.3734 13.3513 10.5213C12.928 10.6955 12.5521 10.9642 12.2537 11.3059C11.9382 11.6578 11.6689 12.0469 11.452 12.4641C11.2501 12.8932 11.1026 13.3449 11.0129 13.8091H15.8424C16.1575 13.8225 16.4692 13.8791 16.7682 13.9772C17.1074 14.0637 17.415 14.2417 17.6559 14.4909C17.7177 14.5561 17.7663 14.6321 17.799 14.7151C17.8362 14.7961 17.865 14.8806 17.8849 14.9673C17.9177 15.1239 17.9305 15.2839 17.9231 15.4436C17.9159 15.7 17.8936 15.9557 17.8563 16.2095L21.6454 11.2032Z" fill="white"/>
<path d="M10.9652 13.781C11.0278 13.3041 11.1397 12.8347 11.2992 12.3799C11.4709 11.9132 11.6983 11.468 11.9769 11.0536C12.2828 10.6389 12.6686 10.2867 13.1127 10.0168C13.5476 9.76563 14.0397 9.62439 14.5443 9.60587H22.8384L24.041 8.01803C24.1271 7.91222 24.1712 7.77952 24.1651 7.64442C24.1636 7.48137 24.0968 7.32542 23.979 7.21013C23.8612 7.09484 23.7018 7.02942 23.5352 7.02796H7.06151C6.94356 7.02672 6.82763 7.05796 6.72696 7.11812C6.62629 7.17828 6.54494 7.26493 6.49218 7.36818C6.43943 7.47142 6.41741 7.58711 6.42864 7.70202C6.43986 7.81692 6.48388 7.92643 6.55566 8.01803L10.9652 13.781Z" fill="white"/>
<path d="M14.7258 20.0391L11.2611 15.369L10.0776 13.7812L5.03818 7.00946L5 7.02814L8.5028 13.7812L9.32362 15.369L13.4564 23.3643L14.6589 25.6807C14.7316 25.8219 14.8487 25.9365 14.993 26.0076C15.1786 26.097 15.3924 26.113 15.5897 26.0521C15.7871 25.9912 15.9528 25.8581 16.0524 25.6807L17.255 23.411L17.2741 23.3456L14.8498 20.1419C14.783 20.1232 14.7639 20.0858 14.7258 20.0391Z" fill="white"/>
<path d="M23.4207 10.3158L22.743 11.2031L18.6485 16.5551L17.6749 17.816L15.9665 20.0484C15.9232 20.1094 15.8638 20.1578 15.7947 20.1885L17.6272 22.6076L20.1851 17.7973L20.8628 16.5364L25.9499 7.01868L25.9118 7L23.4207 10.3158Z" fill="white"/>
</g>
<defs>
<clipPath id="clip0_3895_25895">
<rect width="20.95" height="19.0878" fill="white" transform="translate(5 7)"/>
</clipPath>
</defs>
</svg>
