<svg width="37" height="37" viewBox="0 0 37 37" fill="none" xmlns="http://www.w3.org/2000/svg">
<circle cx="18.5" cy="18.5" r="18.5" fill="white"/>
<circle cx="18.5" cy="18.5" r="18" stroke="#A8AEB7"/>
<path fill-rule="evenodd" clip-rule="evenodd" d="M23.7922 9.11461L27.8787 15.1198C28.0786 15.4007 28.208 15.726 28.2559 16.068C28.3076 16.3896 28.2639 16.7195 28.1301 17.0162C28.0265 17.2145 27.8839 17.3895 27.711 17.5308C27.5381 17.672 27.3385 17.7765 27.1242 17.838C26.6008 17.894 26.0731 17.7835 25.6154 17.5219C26.0555 18.2911 26.4339 19.0943 26.747 19.924C26.8102 20.1175 26.8003 20.3276 26.7191 20.5142C26.6379 20.7008 26.4912 20.8507 26.307 20.9354C26.1452 20.9989 25.9657 20.9989 25.804 20.9354C25.6522 20.8662 25.5219 20.757 25.4268 20.6193C24.6451 19.3323 23.7396 18.1255 22.7234 17.0162C21.6768 16.0077 20.491 15.1561 19.2028 14.4877C17.9183 13.8684 16.5347 13.4832 15.1163 13.3499C13.6864 13.2448 12.249 13.3298 10.8412 13.6027C10.5112 13.6468 10.176 13.577 9.89055 13.4048C9.60507 13.2326 9.38612 12.9681 9.26951 12.6545C9.22124 12.4843 9.20747 12.3061 9.22902 12.1305C9.25057 11.9548 9.307 11.7853 9.39496 11.632C9.48292 11.4787 9.60062 11.3448 9.74106 11.2381C9.88151 11.1314 10.0418 11.0542 10.2125 11.011C16.7367 8.82438 22.2741 12.7075 23.0321 13.239C23.0629 13.2607 23.0859 13.2768 23.1006 13.2867C22.3188 12.2843 21.8389 11.0779 21.7175 9.80995C21.712 9.56408 21.7849 9.32288 21.9257 9.12174C22.0664 8.9206 22.2676 8.77011 22.4996 8.69234C22.7317 8.61457 22.9824 8.61361 23.215 8.68961C23.4476 8.7656 23.6499 8.91455 23.7922 9.11461ZM13.1046 27.7616L9.01811 21.7564C8.81304 21.4784 8.68308 21.1517 8.6409 20.8082C8.60985 20.46 8.67513 20.11 8.8295 19.7968C8.93319 19.5985 9.07579 19.4235 9.24869 19.2822C9.42159 19.141 9.62118 19.0365 9.8354 18.975C10.3589 18.919 10.8866 19.0295 11.3443 19.2911C10.9041 18.5219 10.5257 17.7187 10.2126 16.889C10.1494 16.6955 10.1594 16.4854 10.2406 16.2988C10.3218 16.1122 10.4685 15.9623 10.6527 15.8776C10.8144 15.8141 10.9939 15.8141 11.1556 15.8776C11.3074 15.9468 11.4378 16.056 11.5329 16.1937C12.3243 17.4938 13.229 18.7207 14.2362 19.86C15.2829 20.8685 16.4686 21.7201 17.7569 22.3885C19.0414 23.0078 20.425 23.393 21.8433 23.5263C23.2732 23.6296 24.7104 23.5446 26.1184 23.2735C26.4552 23.211 26.8029 23.2826 27.0882 23.4731C27.3735 23.6635 27.574 23.958 27.6474 24.2943C27.7209 24.6306 27.6615 24.9825 27.4817 25.2756C27.302 25.5687 27.0161 25.7801 26.6842 25.8652C20.1816 28.1051 14.6593 24.1994 13.8724 23.6429C13.8376 23.6183 13.8121 23.6003 13.7961 23.5896C14.5779 24.5919 15.0579 25.7983 15.1792 27.0663C15.1848 27.3121 15.1119 27.5533 14.9711 27.7545C14.8304 27.9556 14.6292 28.1061 14.3972 28.1839C14.1651 28.2616 13.9144 28.2626 13.6818 28.1866C13.4491 28.1106 13.2468 27.9617 13.1046 27.7616Z" fill="url(#paint0_linear_3301_13013)"/>
<defs>
<linearGradient id="paint0_linear_3301_13013" x1="7.61613" y1="10.1385" x2="31.8206" y2="39.7507" gradientUnits="userSpaceOnUse">
<stop offset="0.15" stop-color="#B32EFF"/>
<stop offset="0.42" stop-color="#CE60D3"/>
<stop offset="0.65" stop-color="#E185B3"/>
<stop offset="0.84" stop-color="#EE9C9F"/>
<stop offset="0.96" stop-color="#F2A498"/>
</linearGradient>
</defs>
</svg>
