<svg width="30" height="30" viewBox="0 0 30 30" fill="none" xmlns="http://www.w3.org/2000/svg">
<circle cx="15" cy="15" r="15" fill="white"/>
<circle cx="15" cy="15" r="14.5" stroke="#A8AEB7"/>
<path fill-rule="evenodd" clip-rule="evenodd" d="M19.291 7.39025L22.6043 12.2593C22.7664 12.4871 22.8713 12.7508 22.9102 13.0281C22.9521 13.2889 22.9167 13.5563 22.8082 13.797C22.7241 13.9577 22.6085 14.0996 22.4683 14.2141C22.3281 14.3287 22.1663 14.4134 21.9926 14.4633C21.5682 14.5087 21.1403 14.419 20.7692 14.207C21.1261 14.8306 21.4329 15.4819 21.6868 16.1546C21.738 16.3115 21.7299 16.4819 21.6641 16.6332C21.5983 16.7844 21.4793 16.906 21.3299 16.9747C21.1988 17.0261 21.0533 17.0261 20.9221 16.9747C20.7991 16.9185 20.6934 16.83 20.6163 16.7184C19.9825 15.6748 19.2483 14.6963 18.4244 13.797C17.5757 12.9792 16.6143 12.2888 15.5698 11.7468C14.5283 11.2447 13.4065 10.9324 12.2564 10.8242C11.0971 10.739 9.9316 10.808 8.79016 11.0293C8.52257 11.065 8.25082 11.0084 8.01935 10.8688C7.78787 10.7291 7.61035 10.5147 7.51579 10.2605C7.47666 10.1225 7.46549 9.97796 7.48297 9.83554C7.50044 9.69312 7.54619 9.55569 7.61751 9.43139C7.68883 9.3071 7.78426 9.19848 7.89814 9.11198C8.01201 9.02548 8.14201 8.96287 8.28041 8.92786C13.5703 7.15493 18.06 10.3034 18.6746 10.7344C18.6997 10.7519 18.7183 10.765 18.7302 10.773C18.0963 9.96031 17.7072 8.98209 17.6088 7.95404C17.6043 7.75468 17.6634 7.55912 17.7775 7.39603C17.8917 7.23295 18.0548 7.11093 18.2429 7.04787C18.4311 6.98481 18.6343 6.98403 18.823 7.04565C19.0116 7.10727 19.1756 7.22804 19.291 7.39025ZM10.6253 22.5094L7.31196 17.6403C7.14568 17.4149 7.04031 17.1501 7.00611 16.8715C6.98094 16.5892 7.03386 16.3054 7.15903 16.0515C7.2431 15.8907 7.35873 15.7488 7.49891 15.6343C7.6391 15.5198 7.80093 15.435 7.97463 15.3852C8.39905 15.3398 8.82695 15.4294 9.19802 15.6414C8.84116 15.0178 8.53434 14.3665 8.28048 13.6938C8.22925 13.5369 8.23733 13.3666 8.30315 13.2153C8.36898 13.064 8.48794 12.9424 8.6373 12.8738C8.76841 12.8223 8.91398 12.8223 9.0451 12.8738C9.16816 12.9299 9.27384 13.0184 9.35094 13.13C9.99266 14.1842 10.7262 15.179 11.5429 16.1027C12.3915 16.9204 13.3529 17.6109 14.3974 18.1529C15.4389 18.655 16.5608 18.9673 17.7108 19.0754C18.8702 19.1592 20.0355 19.0903 21.1771 18.8704C21.4501 18.8198 21.7321 18.8778 21.9634 19.0322C22.1947 19.1867 22.3573 19.4254 22.4168 19.6981C22.4764 19.9708 22.4282 20.2561 22.2825 20.4937C22.1367 20.7314 21.9049 20.9028 21.6358 20.9718C16.3635 22.788 11.8859 19.6212 11.2478 19.1699C11.2197 19.15 11.199 19.1354 11.186 19.1267C11.8199 19.9394 12.2091 20.9176 12.3075 21.9456C12.312 22.145 12.2528 22.3406 12.1387 22.5036C12.0246 22.6667 11.8615 22.7888 11.6734 22.8518C11.4852 22.9149 11.2819 22.9156 11.0933 22.854C10.9047 22.7924 10.7407 22.6716 10.6253 22.5094Z" fill="url(#paint0_linear_744_1534)"/>
<defs>
<linearGradient id="paint0_linear_744_1534" x1="6.17522" y1="8.22041" x2="25.8005" y2="32.2304" gradientUnits="userSpaceOnUse">
<stop offset="0.15" stop-color="#B32EFF"/>
<stop offset="0.42" stop-color="#CE60D3"/>
<stop offset="0.65" stop-color="#E185B3"/>
<stop offset="0.84" stop-color="#EE9C9F"/>
<stop offset="0.96" stop-color="#F2A498"/>
</linearGradient>
</defs>
</svg>
