<svg width="30" height="30" viewBox="0 0 30 30" fill="none" xmlns="http://www.w3.org/2000/svg">
<path d="M19.923 23.9065C21.0882 23.9065 22.0328 22.9619 22.0328 21.7967C22.0328 20.6315 21.0882 19.6868 19.923 19.6868C18.7577 19.6868 17.8131 20.6315 17.8131 21.7967C17.8131 22.9619 18.7577 23.9065 19.923 23.9065Z" fill="#009046"/>
<path d="M27.0713 6.09344H15L16.0951 7.54773C16.6954 8.3452 16.7155 9.43905 16.1441 10.2579L9.96777 19.1054C9.30342 20.0574 8.21584 20.6237 7.05543 20.6237H1.09134C1.56606 21.7992 2.18771 22.9006 2.92992 23.9053H10.8695C12.5159 23.9053 14.0581 23.1016 15 21.7515L23.0011 10.2905C23.4017 9.71534 24.0585 9.37375 24.7593 9.37375H28.9112C28.4352 8.19952 27.8148 7.09813 27.0713 6.09344Z" fill="#009046"/>
<path d="M3.23133 18.9848C2.8081 17.734 2.57828 16.394 2.57828 15C2.57828 8.13923 8.14049 2.57828 15 2.57828C17.41 2.57828 19.6592 3.26524 21.5644 4.45328H25.666C22.9471 1.7042 19.1732 0 15.0013 0C6.71634 0 0 6.71509 0 15C0 16.3802 0.187123 17.7152 0.536253 18.9848H3.23133Z" fill="#009046"/>
<path d="M26.7699 11.0152C27.1932 12.266 27.423 13.606 27.423 15C27.423 21.8608 21.8608 27.4217 15.0013 27.4217C12.5913 27.4217 10.342 26.7348 8.43687 25.5467H4.33523C7.05417 28.2958 10.828 30 15 30C23.2849 30 30 23.2837 30 15C30 13.6198 29.8129 12.2848 29.4637 11.0152H26.7699Z" fill="#009046"/>
</svg>
