<svg width="30" height="30" viewBox="0 0 30 30" fill="none" xmlns="http://www.w3.org/2000/svg">
<circle cx="15" cy="15" r="15" fill="white"/>
<circle cx="15" cy="15" r="14.5" stroke="#A8AEB7"/>
<path d="M14.292 17.1694L9.84701 18.1984C9.68488 18.239 9.56329 18.4015 9.56329 18.564V21.624C9.56329 21.8813 9.76594 22.0437 10.0227 21.9896L16.2241 20.5544C16.4808 20.5001 16.5889 20.2565 16.4808 20.0263L15.3594 17.711C15.1837 17.3454 15.3594 16.9663 15.7512 16.885L19.8044 15.9102C20.0882 15.8425 20.3313 15.5446 20.3313 15.2467V12.4169C20.3313 12.1596 20.1287 11.9836 19.8719 12.0513L14.0218 13.4459C13.657 13.5272 13.4949 13.8792 13.657 14.2177L14.6838 16.3434C14.8595 16.709 14.6838 17.0746 14.292 17.1694Z" fill="black"/>
<path d="M11.3604 9.51945L12.5223 11.9025C12.671 12.2139 12.5223 12.5388 12.1846 12.6065L10.0364 13.1075C9.76615 13.1752 9.54999 13.446 9.54999 13.7168V16.2758C9.54999 16.7091 9.90126 16.9799 10.3201 16.8851L12.3197 16.4248C12.5899 16.3706 12.8061 16.0863 12.8061 15.8155L12.8196 13.1888C12.8196 12.8232 13.1168 12.4576 13.4681 12.3764L20.0208 10.8057C20.183 10.7651 20.3045 10.6026 20.3045 10.4402V7.38015C20.3045 7.12289 20.1019 6.94687 19.8451 7.01457L11.6171 8.99139C11.3604 9.04556 11.2523 9.28927 11.3604 9.51945Z" fill="black"/>
</svg>
