<svg width="37" height="37" viewBox="0 0 37 37" fill="none" xmlns="http://www.w3.org/2000/svg">
<circle cx="18.5" cy="18.5" r="18.5" fill="white"/>
<circle cx="18.5" cy="18.5" r="18" stroke="#A8AEB7"/>
<path d="M12.0846 20.1849L12.674 15.7565L7.56161 12.2074L12.2328 13.7897L13.336 12.0971L17.3641 9.5976L26.2431 14.4894L26.7033 21.9532L22.7476 27.4502L19.6209 27.9293L21.2379 24.9696V22.1202L20.0622 19.895L18.8676 19.1038L17.03 20.9981V23.0028L15.5959 24.3455L13.7741 24.5661L12.9672 25.0232L11.6434 24.6008L11.0918 22.6151L12.0846 21.2188V20.1849Z" fill="white"/>
<path d="M20.2478 12.1697C19.2738 11.968 18.2085 12.0216 18.2085 12.0216C18.2085 12.0216 17.8586 13.6385 15.6901 14.064C15.7059 14.064 18.5552 15.038 20.2478 12.1697Z" fill="#94A6C3"/>
<path d="M21.1312 26.842C22.3068 25.9217 23.1894 24.6546 23.596 23.2205C23.6149 23.1669 23.7788 23.0723 23.8891 22.9998C24.0719 22.8895 24.2579 22.7981 24.2926 22.65C24.365 22.2276 24.4029 21.7863 24.4029 21.3451C24.4029 21.1812 24.2358 21.0141 24.0719 20.8502C23.9427 20.7399 23.8135 20.6107 23.8135 20.5193C23.6306 18.8456 22.8584 17.2822 21.626 16.1444L21.4968 16.2736C22.6914 17.3957 23.4636 18.9212 23.6306 20.5382C23.6496 20.6863 23.7945 20.8313 23.9427 20.9794C24.0719 21.0898 24.2201 21.2568 24.2201 21.3293C24.2201 21.7517 24.1822 22.174 24.1097 22.5964C24.0908 22.6689 23.9269 22.7445 23.7977 22.817C23.6149 22.9084 23.4478 22.9998 23.4132 23.148C22.9719 24.7113 21.9601 26.073 20.6174 26.9555C20.8569 26.4417 21.6103 24.7681 22.0137 23.9202L21.9412 21.2001L19.6056 18.9401L18.2818 19.123L16.8288 21.4775C16.8288 21.4775 17.5096 22.3411 16.5514 23.3529C15.6153 24.3457 14.8777 24.5663 14.8777 24.5663L14.1969 24.1976C14.3986 23.9391 14.8052 23.5546 15.1173 23.2961C15.65 22.8548 16.1826 22.817 16.1826 22.3411C16.2047 21.3451 15.1362 21.6193 15.1362 21.6193L14.7485 21.9881L14.5846 23.3497L13.7777 24.3615L13.6863 24.3426L12.3625 24.0494C12.3625 24.0494 13.1725 23.6271 13.3018 23.148C13.431 22.6878 13.0433 21.1623 13.0244 21.0709C13.0433 21.0898 13.4121 21.4018 13.576 21.9156C13.8691 21.1055 14.2568 20.3333 14.3671 20.2608C14.4774 20.1883 15.9651 19.3972 15.9651 19.3972L15.4703 20.7021L15.8391 20.5004L16.7216 18.3318C16.7216 18.3318 17.5852 17.9095 18.2282 17.9095C19.385 17.8905 21.0965 16.4753 20.3243 13.938C20.5449 14.0294 24.3682 15.9427 25.0301 19.6935C25.525 22.5775 23.8891 25.2787 21.1312 26.842Z" fill="#94A6C3"/>
<path d="M16.755 12.5736C17.1774 12.0756 17.0135 11.3412 17.0135 11.3412L15.7811 13.163C15.7622 13.163 16.2192 13.1819 16.755 12.5736Z" fill="#1B314F"/>
<path d="M12.6175 22.5205L12.7657 21.7861C12.7657 21.7861 12.1573 22.8515 12.1037 22.9996C12.047 23.1667 12.1416 23.4598 12.378 23.4409C12.6175 23.422 12.9106 23.0721 12.9106 22.8168C12.9106 22.4859 12.6175 22.5205 12.6175 22.5205Z" fill="#1B314F"/>
<path d="M23.5397 10.8274C23.5397 10.8274 24.4601 10.8652 25.4151 10.9755C23.2624 9.28292 21.2231 8.78806 19.5683 8.78806C17.2894 8.78806 15.745 9.72734 15.6504 9.78092L16.3691 8.63992C16.3691 8.63992 13.5008 8.36255 12.4891 11.3979C12.2306 10.7549 11.9942 9.81559 11.9942 9.81559C11.9942 9.81559 10.5033 11.1236 11.2031 13.2922C9.49156 12.6681 7.04881 11.8013 6.95426 11.7855C6.82503 11.7666 6.7872 11.8234 6.7872 11.8234C6.7872 11.8234 6.74938 11.877 6.8597 11.9715C7.06457 12.1323 10.9257 14.9848 11.7736 15.5363C11.5908 16.1983 11.5908 16.5103 11.7736 16.8223C12.032 17.2447 12.0478 17.4653 12.0131 17.7774C11.9753 18.0894 11.6443 20.7938 11.5718 21.1247C11.4993 21.4557 10.7271 22.6313 10.7618 22.9812C10.7996 23.3311 11.2756 24.8188 11.7011 24.9858C12.0131 25.0962 12.7853 25.3357 13.2991 25.3357C13.4819 25.3357 13.649 25.2979 13.7215 25.2254C14.0335 24.9512 14.1249 24.8944 14.3455 24.8944C14.3645 24.8944 14.3834 24.8944 14.3991 24.8944C14.4905 24.8944 14.6008 24.9133 14.7301 24.9133C15.0232 24.9133 15.4109 24.8566 15.6851 24.6013C16.0886 24.1979 16.7883 23.6463 17.0089 23.3878C17.2863 23.0379 17.4313 22.562 17.3588 22.0829C17.3021 21.6416 17.5416 21.2539 17.819 20.8694C18.1688 20.4092 18.8118 19.5834 18.8118 19.5834C20.0821 20.5353 20.8732 21.9883 20.8732 23.6053C20.8732 26.4735 18.3737 28.7902 15.2848 28.7902C14.8057 28.7902 14.3487 28.7366 13.8885 28.6263C15.3037 29.1212 16.4983 29.2882 17.4754 29.2882C19.5525 29.2882 20.6557 28.5349 20.6557 28.5349C20.6557 28.5349 20.2712 29.0329 19.6439 29.6003C19.6629 29.6003 19.6629 29.6003 19.6629 29.6003C23.1016 29.1212 24.7753 26.2907 24.7753 26.2907C24.7753 26.2907 24.6461 27.2111 24.4822 27.8352C29.0556 24.3964 28.2834 20.094 28.2645 19.949C28.3023 20.0026 28.7625 20.5542 28.9989 20.8505C29.7364 13.2733 23.5397 10.8274 23.5397 10.8274ZM16.4983 22.9276C16.4258 23.019 16.1138 23.2964 15.8931 23.4981C15.6725 23.6998 15.433 23.9016 15.2501 24.0875C15.1777 24.16 15.0295 24.1979 14.8089 24.1979C14.7364 24.1979 14.6607 24.1979 14.6072 24.1979C14.5693 24.1979 14.5347 24.1979 14.4968 24.1979C14.459 24.1979 14.4401 24.1979 14.4243 24.1979C14.3676 24.1979 14.314 24.1979 14.2573 24.1979C14.5347 23.8291 15.3416 22.9844 15.6189 22.8015C15.9499 22.5809 16.1169 22.3603 15.9121 21.9757C15.7103 21.5881 15.1777 21.6826 15.1777 21.6826C15.1777 21.6826 15.4897 21.5534 15.7671 21.5534C15.4172 21.462 14.9759 21.5534 14.7742 21.7551C14.5536 21.9568 14.5914 22.6755 14.5 23.1325C14.4086 23.6116 14.0965 23.8511 13.6174 24.2924C13.359 24.532 13.1762 24.6045 13.028 24.6045C12.716 24.5509 12.3472 24.4563 12.0888 24.3649C11.9059 24.1254 11.6286 23.3342 11.5561 23.0033C11.6097 22.8205 11.8303 22.4328 11.9406 22.2121C12.1613 21.7898 12.2905 21.5502 12.3283 21.3296C12.4008 21.0176 12.6403 19.0854 12.7318 18.2785C12.9713 18.5906 13.3023 19.1075 13.2266 19.4384C13.7593 18.6851 13.3747 17.9476 13.1888 17.6544C13.0249 17.3613 12.8042 16.7719 12.9871 16.1478C13.1699 15.5237 13.8318 13.7933 13.8318 13.7933C13.8318 13.7933 14.0524 14.181 14.3645 14.1054C14.6765 14.0329 17.1949 10.2443 17.1949 10.2443C17.1949 10.2443 17.8757 11.732 17.1571 12.8194C16.4227 13.9036 15.704 14.1054 15.704 14.1054C15.704 14.1054 16.7158 14.2882 17.6519 13.6074C18.0365 14.5088 18.4052 15.4449 18.4241 15.5742C18.3674 15.7034 17.633 17.4685 17.5605 17.5788C17.5227 17.6166 17.2674 17.6891 17.0814 17.7269C16.7694 17.8183 16.5866 17.8751 16.5109 17.9287C16.3817 18.039 15.7923 19.6559 15.5181 20.4471C15.1871 20.5385 14.8562 20.7244 14.6166 21.09C14.7458 20.9986 15.1493 20.9419 15.4456 20.9072C15.704 20.8883 16.492 21.3107 16.6969 22.1018C16.6969 22.1207 16.6969 22.1207 16.6969 22.1396C16.7379 22.4296 16.6465 22.707 16.4983 22.9276ZM14.7711 23.1483C14.9381 22.9087 14.9192 22.5053 14.9381 22.376C14.957 22.2468 14.9917 22.0073 15.1398 21.9726C15.288 21.9348 15.6378 21.9915 15.6378 22.2468C15.6378 22.4864 15.3794 22.5399 15.1966 22.707C15.0642 22.8331 14.8057 23.1104 14.7711 23.1483ZM22.1056 19.6339C22.2884 18.6977 22.3073 17.8877 22.2537 17.2258C22.9692 18.1808 23.4105 19.3407 23.5397 20.5353C23.5586 20.6835 23.7036 20.8284 23.8518 20.9766C23.981 21.0869 24.1291 21.235 24.1291 21.3264C24.1291 21.7488 24.0913 22.1712 24.0188 22.5967C23.9999 22.6503 23.836 22.7448 23.7068 22.8173C23.524 22.9087 23.3569 23.0001 23.3223 23.1483C22.9188 24.5635 22.052 25.8148 20.8953 26.6973C22.6036 24.9133 23.4294 21.9694 22.1056 19.6339ZM20.9488 26.8612C22.1434 25.9409 23.0638 24.6549 23.4672 23.2018C23.4862 23.1483 23.6501 23.0537 23.7604 22.9812C23.9432 22.8898 24.1291 22.7795 24.1638 22.6313C24.2363 22.209 24.2741 21.7677 24.2741 21.3264C24.2741 21.1625 24.1071 20.9955 23.9432 20.8316C23.8518 20.7213 23.7036 20.592 23.7036 20.5006C23.5555 19.1579 23.0228 17.8908 22.197 16.8412C21.8282 14.6349 20.3594 13.9541 20.3216 13.9352C20.3594 13.9919 21.3145 15.3693 20.6526 16.9862C19.9717 18.6221 18.2256 18.3668 18.0774 18.3825C17.9293 18.3825 17.3619 19.1169 16.6433 20.4786C16.5519 20.4408 16.1642 20.3493 15.7229 20.425C16.0539 19.5046 16.5519 18.1997 16.6433 18.0894C16.6811 18.0516 16.9553 17.9791 17.1413 17.9255C17.4912 17.8341 17.6551 17.7774 17.7118 17.7049C17.7496 17.6481 17.9324 17.2258 18.1153 16.7845C18.2823 16.7845 18.7047 16.7467 18.7393 16.7278C18.7772 16.69 19.127 15.7917 19.127 15.6813C19.127 15.5899 18.4084 13.8059 18.1342 13.1251C18.2634 12.977 18.3926 12.7942 18.5187 12.5924C22.2884 12.999 25.2323 16.1983 25.2323 20.0751C25.2323 23.0537 23.4862 25.6477 20.9488 26.8612Z" fill="#1B314F"/>
<path d="M16.0569 16.9328C16.4068 16.5294 16.224 15.7761 15.5778 15.6468C15.7449 15.2623 15.9813 14.4901 15.9813 14.4901C15.9813 14.4901 14.1059 17.4308 13.942 17.4876C13.7749 17.5443 13.611 16.8982 13.611 16.8982C13.2612 18.2409 14.2004 18.4237 14.3108 18.0013C14.8245 17.8689 15.7071 17.3174 16.0569 16.9328Z" fill="#1B314F"/>
<path d="M14.4551 17.6479L15.4101 16.0121C15.4101 16.0121 15.9617 16.2894 15.6843 16.7307C15.3376 17.2445 14.4551 17.6479 14.4551 17.6479Z" fill="#FFD923"/>
<path d="M26.2787 25.2254C26.0014 25.5942 25.6893 25.9787 25.3237 26.3475C27.694 21.7867 25.434 17.6135 25.3426 17.4496C25.5097 17.6167 25.6736 17.7995 25.8217 17.9634C27.6404 19.9838 27.861 23.0191 26.2787 25.2254Z" fill="#D82122"/>
<path d="M28.4855 19.3592C27.6566 17.134 26.4809 15.2396 23.89 13.5313C21.3905 11.8765 18.7051 12.0058 18.5569 12.0247C18.538 12.0247 18.5191 12.0247 18.5191 12.0247C18.6105 11.9868 18.7019 11.9679 18.7933 11.9522C19.3638 11.7694 20.0982 11.6212 20.8358 11.5298C22.7868 11.2493 24.7536 11.9112 26.0963 13.3296C26.1153 13.3485 26.1153 13.3485 26.1342 13.3674C27.6597 14.9843 28.4508 17.0047 28.4855 19.3592Z" fill="#D82122"/>
<path d="M23.2998 10.2565C20.5608 9.74271 18.7957 9.99802 17.5255 10.4771C17.4877 10.329 17.3584 10.0358 17.2481 9.79629C16.8667 10.2565 16.4601 10.8081 16.2048 11.1579C15.5051 11.637 15.212 12.0972 15.212 12.0972C15.6154 10.7167 16.7942 9.68913 18.2284 9.43067C18.6318 9.35817 19.0731 9.32035 19.5522 9.32035C20.8193 9.33926 22.0863 9.6513 23.2998 10.2565Z" fill="#D82122"/>
<path d="M13.1696 13.7866C11.02 13.7141 11.7354 11.2114 11.7733 11.0664C11.7733 11.0854 11.9183 13.0333 13.1696 13.7866Z" fill="#D82122"/>
<path d="M15.2834 9.28254C13.6287 10.2754 13.9596 12.6456 13.9596 12.6456C12.3773 10.2407 15.1542 9.33927 15.2834 9.28254Z" fill="#D82122"/>
<path d="M12.5641 14.4487C12.6744 14.5401 12.7847 14.7072 12.6555 14.9467C12.583 15.076 12.4727 15.0571 12.3056 14.9846C12.085 14.8742 10.7612 14.102 9.56659 13.3109C10.9282 13.79 12.3056 14.3037 12.5263 14.4141C12.5263 14.4141 12.5452 14.433 12.5641 14.4487Z" fill="white"/>
</svg>
