<svg width="37" height="37" viewBox="0 0 37 37" fill="none" xmlns="http://www.w3.org/2000/svg">
<circle cx="18.5" cy="18.5" r="18.5" fill="white"/>
<circle cx="18.5" cy="18.5" r="18" stroke="#A8AEB7"/>
<path d="M15.6299 12.1717C15.3694 12.1366 15.3584 12.1325 15.481 12.1161C15.716 12.0847 16.2708 12.1275 16.6531 12.2064C17.5455 12.3907 18.3576 12.8626 19.2244 13.7008L19.4548 13.9235L19.7843 13.8775C21.1722 13.6838 22.5841 13.8377 23.7652 14.3115C24.09 14.4419 24.6023 14.7013 24.6663 14.768C24.6866 14.7892 24.7241 14.926 24.7494 15.072C24.8372 15.577 24.7932 15.964 24.6155 16.2531C24.5187 16.4104 24.5132 16.4603 24.5782 16.5949C24.6303 16.7023 24.775 16.7818 24.9184 16.7817C25.2119 16.7814 25.5278 16.3693 25.6742 15.7961L25.7322 15.5684L25.8475 15.6817C26.4792 16.3032 26.9755 17.1509 27.0607 17.7543L27.0828 17.9117L26.9767 17.7687C26.7938 17.5225 26.6102 17.355 26.3752 17.2199C25.9512 16.9763 25.5032 16.8934 24.3161 16.8391C23.2442 16.7901 22.6375 16.7105 22.0359 16.5402C21.0124 16.2504 20.4964 15.8644 19.2805 14.4791C18.7405 13.8638 18.4068 13.5233 18.0747 13.2492C17.3203 12.6262 16.5789 12.2995 15.6299 12.1717Z" fill="#FF007A"/>
<path d="M24.905 13.5432C24.9319 13.1309 24.9963 12.859 25.1258 12.6106C25.177 12.5123 25.2251 12.4318 25.2324 12.4318C25.2399 12.4318 25.2176 12.5044 25.183 12.5931C25.0888 12.8341 25.0733 13.1638 25.1382 13.5474C25.2204 14.034 25.2673 14.1043 25.8596 14.63C26.1374 14.8766 26.4605 15.1876 26.5778 15.3211L26.7908 15.5639L26.5778 15.3904C26.3173 15.1782 25.7182 14.7644 25.5858 14.7052C25.4971 14.6656 25.4839 14.6663 25.4292 14.7136C25.3788 14.7572 25.3682 14.8227 25.3611 15.1323C25.3503 15.6149 25.2745 15.9247 25.0916 16.2345C24.9929 16.402 24.9772 16.3662 25.0667 16.1771C25.1335 16.036 25.1403 15.9739 25.1399 15.5067C25.1387 14.5679 25.0104 14.3423 24.2579 13.9557C24.0672 13.8577 23.753 13.7165 23.5598 13.6418C23.3665 13.5671 23.213 13.502 23.2186 13.4971C23.2399 13.4787 23.9739 13.6647 24.2692 13.7634C24.7086 13.9102 24.7812 13.9292 24.8345 13.9115C24.8703 13.8997 24.8876 13.8092 24.905 13.5432Z" fill="#FF007A"/>
<path d="M16.1338 15.1526C15.6049 14.5203 15.2777 13.5508 15.3485 12.826L15.3704 12.6018L15.4908 12.6208C15.7169 12.6567 16.1067 12.7826 16.2892 12.8789C16.7901 13.1431 17.0069 13.4909 17.2275 14.3841C17.2922 14.6457 17.377 14.9417 17.416 15.0419C17.4788 15.2033 17.7161 15.5801 17.909 15.8248C18.0481 16.0011 17.9557 16.0846 17.6486 16.0605C17.1793 16.0237 16.5437 15.6428 16.1338 15.1526Z" fill="#FF007A"/>
<path d="M24.2651 19.8568C21.7935 18.9926 20.923 18.2424 20.923 16.9767C20.923 16.7905 20.9303 16.6381 20.9393 16.6381C20.9483 16.6381 21.0439 16.6995 21.1518 16.7747C21.653 17.1238 22.2143 17.2729 23.7681 17.4698C24.6823 17.5855 25.1967 17.6791 25.6715 17.8158C27.18 18.2503 28.1133 19.1321 28.3359 20.333C28.4006 20.682 28.3627 21.3364 28.2578 21.6812C28.175 21.9536 27.9223 22.4447 27.8554 22.4635C27.8369 22.4688 27.8186 22.4069 27.8138 22.3228C27.7884 21.8719 27.526 21.4328 27.0854 21.1039C26.5842 20.73 25.911 20.4323 24.2651 19.8568Z" fill="#FF007A"/>
<path d="M22.5276 20.2157C22.4966 20.0557 22.4429 19.8513 22.4082 19.7616L22.3451 19.5983L22.4623 19.7126C22.6244 19.8705 22.7524 20.0727 22.861 20.3421C22.9439 20.5476 22.9532 20.6088 22.9526 20.9427C22.952 21.2706 22.9416 21.3394 22.865 21.5244C22.7444 21.8162 22.5947 22.023 22.3435 22.245C21.892 22.6441 21.3115 22.865 20.4739 22.9566C20.3283 22.9725 19.9039 22.9993 19.5308 23.0162C18.5905 23.0587 17.9717 23.1465 17.4157 23.316C17.3357 23.3403 17.2644 23.3551 17.2571 23.3489C17.2346 23.3295 17.6131 23.1335 17.9259 23.0027C18.3668 22.8182 18.8058 22.7175 19.7891 22.5754C20.275 22.5051 20.7766 22.4198 20.904 22.3858C22.107 22.0655 22.7255 21.2389 22.5276 20.2157Z" fill="#FF007A"/>
<path d="M23.6633 21.9627C23.335 21.3497 23.2596 20.7578 23.4395 20.2058C23.4587 20.1468 23.4897 20.0985 23.5083 20.0985C23.5269 20.0985 23.6044 20.1349 23.6805 20.1794C23.8318 20.2678 24.1353 20.4168 24.9439 20.7997C25.9528 21.2774 26.5281 21.6473 26.9194 22.07C27.2619 22.4401 27.474 22.8616 27.576 23.3757C27.6338 23.6669 27.5999 24.3675 27.5139 24.6608C27.2426 25.5853 26.6122 26.3114 25.7129 26.7353C25.5811 26.7973 25.4628 26.8482 25.4501 26.8485C25.4372 26.8487 25.4852 26.7427 25.5567 26.6129C25.8593 26.0637 25.8937 25.5295 25.6649 24.9349C25.5249 24.5709 25.2394 24.1266 24.6629 23.3758C23.9926 22.5029 23.8283 22.2706 23.6633 21.9627Z" fill="#FF007A"/>
<path d="M14.3775 25.2722C15.2947 24.5996 16.4359 24.1219 17.4755 23.9752C17.9234 23.912 18.6699 23.9371 19.0847 24.0293C19.7496 24.177 20.3445 24.5081 20.6539 24.9025C20.9562 25.288 21.0859 25.6239 21.2209 26.3712C21.2742 26.666 21.3322 26.9621 21.3497 27.029C21.4511 27.4164 21.6485 27.726 21.8931 27.8815C22.2815 28.1284 22.9505 28.1437 23.6084 27.9209C23.7201 27.883 23.8171 27.8568 23.8238 27.8628C23.8477 27.8833 23.5164 28.0759 23.2827 28.1774C22.9682 28.3138 22.718 28.3666 22.3857 28.3666C21.783 28.3666 21.2827 28.1003 20.8652 27.5574C20.7831 27.4506 20.5985 27.1306 20.4548 26.8463C20.0141 25.9732 19.7963 25.7073 19.2846 25.4162C18.8391 25.1629 18.2648 25.1175 17.8326 25.3015C17.265 25.5432 17.1066 26.1731 17.5132 26.5724C17.6748 26.731 17.9761 26.8678 18.2225 26.8944C18.6834 26.9443 19.0796 26.6398 19.0796 26.2356C19.0796 25.9732 18.9635 25.8235 18.671 25.7088C18.2717 25.5524 17.8425 25.7353 17.8445 26.061C17.8453 26.1999 17.9151 26.2872 18.0754 26.3502C18.1783 26.3906 18.1807 26.3939 18.0967 26.3787C17.7303 26.3128 17.6445 25.9291 17.9391 25.6745C18.2928 25.3688 19.0243 25.5037 19.2754 25.9209C19.3809 26.0962 19.3931 26.4453 19.3012 26.6561C19.0953 27.1279 18.495 27.3761 17.8859 27.2411C17.4714 27.1491 17.3025 27.0496 16.8025 26.6024C15.9339 25.8253 15.5967 25.6747 14.3444 25.505L14.1044 25.4724L14.3775 25.2722Z" fill="#FF007A"/>
<path fill-rule="evenodd" clip-rule="evenodd" d="M7.82725 7.8647C10.7282 10.9223 15.2005 15.6829 15.4226 15.9494C15.6059 16.1695 15.5369 16.3673 15.2228 16.5224C15.0482 16.6086 14.6891 16.696 14.5093 16.696C14.306 16.696 14.0769 16.611 13.9101 16.4735C13.7922 16.3764 13.3163 15.7593 12.2178 14.279C11.3772 13.1463 10.6738 12.2067 10.6546 12.1909C10.6102 12.1546 10.6109 12.1558 12.1321 14.5194C13.0872 16.0035 13.4096 16.5282 13.4096 16.5984C13.4096 16.7411 13.3648 16.8162 13.162 17.0125C12.824 17.34 12.673 17.7079 12.5639 18.4694C12.4416 19.323 12.0978 19.9259 11.145 20.9578C10.5873 21.5619 10.496 21.6727 10.3553 21.9161C10.178 22.2228 10.1293 22.3944 10.1095 22.7816C10.0886 23.191 10.1293 23.4554 10.2733 23.8468C10.3994 24.1894 10.531 24.4157 10.8674 24.8682C11.1577 25.2588 11.3249 25.5489 11.3249 25.6625C11.3249 25.7528 11.3448 25.7529 11.7947 25.6647C12.8713 25.4536 13.7456 25.0822 14.2373 24.6271C14.5416 24.3454 14.613 24.1899 14.6153 23.8038C14.6169 23.5514 14.6066 23.4985 14.528 23.3533C14.4001 23.1169 14.1672 22.9203 13.6539 22.6156C12.9814 22.2163 12.6941 21.8949 12.6147 21.4528C12.5497 21.0901 12.6252 20.8341 12.9972 20.1569C13.3824 19.456 13.4778 19.1572 13.5423 18.4507C13.584 17.9943 13.6418 17.8142 13.7928 17.6697C13.9503 17.519 14.0921 17.468 14.4819 17.4218C15.1174 17.3464 15.5221 17.2036 15.8547 16.9374C16.1433 16.7065 16.264 16.484 16.2826 16.149L16.2967 15.8951L16.1353 15.7319C15.5514 15.1406 7.43619 7.3999 7.40025 7.3999C7.39257 7.3999 7.58474 7.60907 7.82725 7.8647ZM11.6501 23.2452C11.7822 23.0422 11.712 22.7811 11.4912 22.6537C11.2825 22.5332 10.9583 22.5899 10.9583 22.747C10.9583 22.7949 10.9888 22.8297 11.0576 22.8604C11.1734 22.9122 11.1818 22.9704 11.0907 23.0892C10.9984 23.2098 11.0059 23.3156 11.1117 23.3875C11.2822 23.5035 11.5237 23.4398 11.6501 23.2452Z" fill="#FF007A"/>
<path fill-rule="evenodd" clip-rule="evenodd" d="M16.6969 17.5556C16.3985 17.6351 16.1085 17.9096 16.0187 18.1976C15.964 18.3733 15.995 18.6814 16.0771 18.7765C16.2097 18.9302 16.3377 18.9707 16.6848 18.9686C17.3642 18.9645 17.9549 18.7115 18.0235 18.395C18.0798 18.1357 17.8204 17.7763 17.4631 17.6186C17.2787 17.5373 16.8866 17.5049 16.6969 17.5556ZM17.4909 18.0945C17.5956 17.9653 17.5498 17.8255 17.3716 17.731C17.0322 17.551 16.5191 17.7 16.5191 17.9783C16.5191 18.1169 16.7867 18.2682 17.0319 18.2682C17.1952 18.2682 17.4187 18.1836 17.4909 18.0945Z" fill="#FF007A"/>
</svg>
